<svg width="512" height="512" viewBox="0 0 512 512" fill="none" xmlns="http://www.w3.org/2000/svg">
<path d="M321 238C343.091 238 361 220.091 361 198C361 175.909 343.091 158 321 158C298.909 158 281 175.909 281 198C281 220.091 298.909 238 321 238Z" fill="#7DC6D1"/>
<path d="M191 238C213.091 238 231 220.091 231 198C231 175.909 213.091 158 191 158C168.909 158 151 175.909 151 198C151 220.091 168.909 238 191 238Z" fill="#7DC6D1"/>
<path d="M347 175V223.786C347 239.225 340.867 254.032 329.95 264.95C319.032 275.867 304.225 282 288.786 282H223.214C207.775 282 192.968 275.867 182.05 264.95C171.133 254.032 165 239.225 165 223.786V175H347Z" fill="#7DC6D1"/>
<path d="M320 307H192L111.231 327.513C98.2989 330.797 86.8305 338.298 78.6389 348.83C70.4473 359.362 66 372.324 66 385.667V502H446V385.667C446 372.324 441.553 359.362 433.361 348.83C425.17 338.298 413.701 330.797 400.769 327.513L320 307Z" fill="#7DC6D1"/>
<path d="M320 307H192L184.093 309.008L256 502L327.907 309.008L320 307Z" fill="white"/>
<path d="M300 267.188V292.188L256 409.286L212 292.188V267.188H300Z" fill="#E1E6E9"/>
<path d="M212 285.188C225.5 291.039 240.376 295 256 295C271.624 295 286.5 291.039 300 285.188V267.188H212V285.188Z" fill="#7DC6D1"/>
<path d="M347 90V188.188C347 212.323 337.413 235.469 320.347 252.535C303.281 269.601 280.135 279.188 256 279.188C231.865 279.188 208.719 269.601 191.653 252.535C174.587 235.469 165 212.323 165 188.188V90H347Z" fill="#E1E6E9"/>
<path d="M165 175H151C148.348 175 145.804 173.946 143.929 172.071C142.054 170.196 141 167.652 141 165V136C141 133.348 142.054 130.804 143.929 128.929C145.804 127.054 148.348 126 151 126H165V175Z" fill="white"/>
<path d="M347 126H361C363.652 126 366.196 127.054 368.071 128.929C369.946 130.804 371 133.348 371 136V165C371 167.652 369.946 170.196 368.071 172.071C366.196 173.946 363.652 175 361 175H347V126Z" fill="white"/>
<path d="M122 462H132V502H122V462Z" fill="#466089"/>
<path d="M380 462H390V502H380V462Z" fill="#466089"/>
<path d="M292 459H372V479H292V459Z" fill="white"/>
<path d="M192 307L212 292.188H300L320 307L256 325.286L192 307Z" fill="#7DC6D1"/>
<path d="M327.907 309.008L351 365L309 425V470L256 502L327.907 309.008Z" fill="#466089"/>
<path d="M184.093 309.008L161 365L203 425V470L256 502L184.093 309.008Z" fill="#466089"/>
<path d="M322.025 325.109L309 310L295.975 325.109C288.25 334.071 284 345.509 284 357.341V363.135C284 370.934 285.848 378.622 289.393 385.569L309 424L328.607 385.569C332.152 378.622 334 370.934 334 363.135V357.341C334 345.509 329.75 334.071 322.025 325.109V325.109Z" fill="#7DC6D1"/>
<path d="M314 367.044C314 350.229 309.269 333.89 300.676 321.036L300.156 320.259L295.975 325.109C288.25 334.071 284 345.509 284 357.341V363.135C284 370.934 285.848 378.622 289.393 385.569L304.538 415.254L308.046 406.388C312 396.228 314.02 385.418 314 374.516V367.044Z" fill="#46BEE8"/>
<path d="M294.025 325.482L281 306L267.975 325.482C260.25 337.038 256 351.787 256 367.044V374.516C255.97 384.411 257.799 394.224 261.393 403.444L281 453L300.607 403.444C304.201 394.224 306.03 384.411 306 374.516V367.044C306 351.787 301.75 337.038 294.025 325.482V325.482Z" fill="#7DC6D1"/>
<path d="M301 306C301 300.477 296.523 296 291 296C285.477 296 281 300.477 281 306V326C281 331.523 285.477 336 291 336C296.523 336 301 331.523 301 326V306Z" fill="#46BEE8"/>
<path d="M311 306C311 300.477 306.523 296 301 296C295.477 296 291 300.477 291 306V326C291 331.523 295.477 336 301 336C306.523 336 311 331.523 311 326V306Z" fill="#46BEE8"/>
<path d="M267 10H245C223.783 10 203.434 18.4285 188.431 33.4315C173.429 48.4344 165 68.7827 165 90V148L183.909 136.455C276 136.455 285 90 285 90C285 90 293 132 328.091 136.455L347 148V90C347 68.7827 338.571 48.4344 323.569 33.4315C308.566 18.4285 288.217 10 267 10V10Z" fill="#7DC6D1"/>
</svg>
