<svg width="10" height="10" viewBox="0 0 10 10" fill="none" xmlns="http://www.w3.org/2000/svg">
<path d="M9.29688 0.840839H8.64424V0.59832C8.64424 0.56724 8.63189 0.537433 8.60992 0.515456C8.58794 0.493479 8.55813 0.481133 8.52705 0.481133H4.98932C4.95824 0.481133 4.92843 0.493479 4.90645 0.515456C4.88448 0.537433 4.87213 0.56724 4.87213 0.59832V0.840839H4.02418C3.88954 0.840979 3.76046 0.894525 3.66526 0.989728C3.57005 1.08493 3.51651 1.21401 3.51637 1.34865V2.19303C3.25957 1.99548 2.95257 1.87381 2.63016 1.8418C2.30775 1.80978 1.98282 1.86872 1.69219 2.01191C1.40156 2.1551 1.15684 2.37684 0.985772 2.65199C0.814701 2.92714 0.724115 3.2447 0.724277 3.56869V4.09394C0.658036 4.11714 0.598681 4.1566 0.551662 4.20871C0.504643 4.26082 0.471466 4.3239 0.455176 4.39217C0.424864 4.51611 0.440755 4.64684 0.499875 4.75991C0.558994 4.87298 0.65729 4.96063 0.776367 5.00646V5.11853C0.776574 5.42347 0.858581 5.72277 1.01384 5.98523C1.16909 6.24769 1.39191 6.46369 1.65906 6.61072V7.12555L0.73459 7.52008C0.732422 7.52101 0.730293 7.52203 0.728203 7.52305C0.579762 7.59787 0.452918 7.70941 0.359721 7.84707C0.266524 7.98472 0.21007 8.14392 0.195723 8.30953C0.195449 8.31275 0.195312 8.31601 0.195312 8.3193V9.40174C0.195312 9.43282 0.207659 9.46262 0.229636 9.4846C0.251613 9.50658 0.28142 9.51892 0.3125 9.51892H4.74158C4.77266 9.51892 4.80247 9.50658 4.82445 9.4846C4.84642 9.46262 4.85877 9.43282 4.85877 9.40174V8.33746H9.29688C9.43151 8.33731 9.56059 8.28377 9.65579 8.18856C9.751 8.09336 9.80454 7.96428 9.80469 7.82965V1.34861C9.80453 1.21398 9.75098 1.08491 9.65578 0.98972C9.56058 0.894527 9.4315 0.840984 9.29688 0.840839ZM5.1065 0.715507H8.40986V1.15271H5.1065V0.715507ZM0.958652 3.56869C0.958652 3.17058 1.1168 2.78877 1.39831 2.50726C1.67982 2.22575 2.06163 2.0676 2.45975 2.0676C2.85786 2.0676 3.23967 2.22575 3.52118 2.50726C3.80269 2.78877 3.96084 3.17058 3.96084 3.56869V4.10221C3.67045 4.13359 2.78398 4.18096 2.07217 3.70896C2.56127 3.64377 3.15748 3.49361 3.59967 3.15449C3.61223 3.14526 3.62283 3.13361 3.63084 3.12024C3.63885 3.10686 3.6441 3.09202 3.6463 3.07658C3.6485 3.06115 3.6476 3.04543 3.64365 3.03034C3.63969 3.01526 3.63277 3.00112 3.62328 2.98875C3.6138 2.97637 3.60194 2.96602 3.5884 2.95829C3.57486 2.95055 3.55991 2.9456 3.54443 2.94372C3.52896 2.94184 3.51326 2.94306 3.49826 2.94732C3.48326 2.95159 3.46927 2.9588 3.45709 2.96853C2.65266 3.58551 1.21557 3.52043 1.20123 3.51967C1.17038 3.51811 1.14017 3.52877 1.11713 3.54934C1.0941 3.56992 1.0801 3.59874 1.07818 3.62957L1.04303 4.20834L0.966563 4.16908C0.964588 4.16808 0.962863 4.16665 0.961511 4.1649C0.96016 4.16314 0.959216 4.16111 0.95875 4.15894L0.958652 3.56869ZM1.01074 5.11853V4.91773C1.01075 4.89016 1.00102 4.86346 0.983288 4.84234C0.96555 4.82123 0.940934 4.80704 0.91377 4.80228C0.874745 4.79535 0.837557 4.78048 0.804501 4.75861C0.771446 4.73674 0.743225 4.70832 0.721582 4.67512C0.699938 4.64191 0.685331 4.60462 0.678663 4.56555C0.671995 4.52648 0.673407 4.48645 0.682813 4.44795C0.689104 4.42014 0.701821 4.39419 0.719946 4.37217C0.738071 4.35016 0.7611 4.3327 0.787188 4.32119C0.807552 4.34433 0.832061 4.36346 0.859453 4.3776L1.05086 4.47586C1.07282 4.48714 1.09722 4.49283 1.1219 4.49241C1.14658 4.492 1.17078 4.4855 1.19234 4.47348C1.21391 4.46147 1.23217 4.44432 1.24551 4.42355C1.25886 4.40278 1.26687 4.37904 1.26883 4.35443C1.26883 4.35369 1.26895 4.35297 1.26898 4.35223L1.30525 3.75682C1.40096 3.75771 1.54896 3.75615 1.72889 3.74361C2.68602 4.55783 4.04055 4.33049 4.09848 4.32031C4.11062 4.31808 4.12232 4.31393 4.13316 4.30803C4.16795 4.31519 4.19995 4.33218 4.22537 4.35698C4.25079 4.38178 4.26856 4.41335 4.27658 4.44795C4.286 4.48645 4.28742 4.52648 4.28076 4.56555C4.2741 4.60463 4.25949 4.64192 4.23785 4.67513C4.21621 4.70834 4.18798 4.73675 4.15492 4.75863C4.12187 4.7805 4.08467 4.79535 4.04564 4.80228C4.01848 4.80704 3.99386 4.82123 3.97613 4.84234C3.95839 4.86346 3.94867 4.89016 3.94867 4.91773V5.11853C3.94725 5.50719 3.79187 5.87944 3.51655 6.15376C3.24123 6.42808 2.86841 6.5821 2.47976 6.5821C2.0911 6.5821 1.71829 6.42808 1.44296 6.15376C1.16764 5.87944 1.01226 5.50719 1.01084 5.11853H1.01074ZM3.51643 6.46893V7.1773L3.39502 7.12551V6.55437C3.43678 6.52766 3.47725 6.49917 3.51643 6.46893ZM3.16064 6.67969V7.10043C2.75469 7.26713 2.29939 7.26713 1.89344 7.10043V6.71785C2.30501 6.8687 2.7589 6.85503 3.16064 6.67969V6.67969ZM4.62439 9.28459H0.429688V8.32422C0.441277 8.20009 0.484061 8.08091 0.554063 7.97775C0.624065 7.87459 0.719012 7.7908 0.830078 7.73418L1.80594 7.31769C2.26808 7.50715 2.7862 7.50715 3.24834 7.31769L4.22422 7.7342C4.33525 7.79084 4.43015 7.87464 4.50012 7.97779C4.57008 8.08094 4.61283 8.20011 4.62439 8.32422V9.28459ZM9.57031 7.82969C9.57025 7.90219 9.54142 7.9717 9.49015 8.02296C9.43889 8.07423 9.36938 8.10306 9.29688 8.10312H4.81742C4.7785 7.97845 4.71493 7.86287 4.63049 7.76322C4.54606 7.66358 4.44247 7.58191 4.32588 7.52305C4.32379 7.52197 4.32166 7.52109 4.31949 7.52008L3.7508 7.27734V6.25101C4.02941 5.93962 4.18329 5.53637 4.18295 5.11853V5.00646C4.30202 4.96064 4.40032 4.873 4.45944 4.75993C4.51856 4.64687 4.53445 4.51614 4.50414 4.39221C4.48621 4.31703 4.44789 4.24825 4.39338 4.19346C4.33887 4.13867 4.2703 4.09998 4.19522 4.08166V3.56869C4.19556 3.14082 4.03721 2.72802 3.7508 2.41016V1.34861C3.75087 1.27611 3.7797 1.2066 3.83096 1.15534C3.88223 1.10407 3.95174 1.07524 4.02424 1.07518H4.87219V1.26986C4.87219 1.30094 4.88453 1.33075 4.90651 1.35273C4.92849 1.3747 4.9583 1.38705 4.98938 1.38705H8.52705C8.55813 1.38705 8.58794 1.3747 8.60992 1.35273C8.63189 1.33075 8.64424 1.30094 8.64424 1.26986V1.07521H9.29688C9.36938 1.07528 9.43889 1.10411 9.49015 1.15538C9.54142 1.20664 9.57025 1.27615 9.57031 1.34865V7.82969Z" fill="white"/>
<path d="M8.72248 4.3298H7.86572C7.83464 4.3298 7.80484 4.34215 7.78286 4.36413C7.76088 4.3861 7.74854 4.41591 7.74854 4.44699C7.74854 4.47807 7.76088 4.50788 7.78286 4.52985C7.80484 4.55183 7.83464 4.56418 7.86572 4.56418H8.72248C8.75356 4.56418 8.78337 4.55183 8.80534 4.52985C8.82732 4.50788 8.83967 4.47807 8.83967 4.44699C8.83967 4.41591 8.82732 4.3861 8.80534 4.36413C8.78337 4.34215 8.75356 4.3298 8.72248 4.3298V4.3298Z" fill="white"/>
<path d="M7.07324 4.56418H7.36064C7.39172 4.56418 7.42153 4.55183 7.44351 4.52985C7.46549 4.50788 7.47783 4.47807 7.47783 4.44699C7.47783 4.41591 7.46549 4.3861 7.44351 4.36413C7.42153 4.34215 7.39172 4.3298 7.36064 4.3298H7.07324C7.04216 4.3298 7.01235 4.34215 6.99038 4.36413C6.9684 4.3861 6.95605 4.41591 6.95605 4.44699C6.95605 4.47807 6.9684 4.50788 6.99038 4.52985C7.01235 4.55183 7.04216 4.56418 7.07324 4.56418V4.56418Z" fill="white"/>
<path d="M8.72207 5.59731H8.43115C8.40007 5.59731 8.37027 5.60965 8.34829 5.63163C8.32631 5.65361 8.31396 5.68341 8.31396 5.71449C8.31396 5.74557 8.32631 5.77538 8.34829 5.79736C8.37027 5.81933 8.40007 5.83168 8.43115 5.83168H8.72207C8.75315 5.83168 8.78296 5.81933 8.80493 5.79736C8.82691 5.77538 8.83926 5.74557 8.83926 5.71449C8.83926 5.68341 8.82691 5.65361 8.80493 5.63163C8.78296 5.60965 8.75315 5.59731 8.72207 5.59731Z" fill="white"/>
<path d="M8.02606 5.83168C8.05714 5.83168 8.08694 5.81933 8.10892 5.79736C8.1309 5.77538 8.14324 5.74557 8.14324 5.71449C8.14324 5.68341 8.1309 5.65361 8.10892 5.63163C8.08694 5.60965 8.05714 5.59731 8.02606 5.59731H6.47412C6.44304 5.59731 6.41323 5.60965 6.39126 5.63163C6.36928 5.65361 6.35693 5.68341 6.35693 5.71449C6.35693 5.74557 6.36928 5.77538 6.39126 5.79736C6.41323 5.81933 6.44304 5.83168 6.47412 5.83168H8.02606Z" fill="white"/>
<path d="M6.0632 5.59731H5.9585C5.92742 5.59731 5.89761 5.60965 5.87563 5.63163C5.85366 5.65361 5.84131 5.68341 5.84131 5.71449C5.84131 5.74557 5.85366 5.77538 5.87563 5.79736C5.89761 5.81933 5.92742 5.83168 5.9585 5.83168H6.0632C6.09428 5.83168 6.12409 5.81933 6.14607 5.79736C6.16804 5.77538 6.18039 5.74557 6.18039 5.71449C6.18039 5.68341 6.16804 5.65361 6.14607 5.63163C6.12409 5.60965 6.09428 5.59731 6.0632 5.59731Z" fill="white"/>
<path d="M4.78906 5.59731C4.75798 5.59731 4.72818 5.60965 4.7062 5.63163C4.68422 5.65361 4.67188 5.68341 4.67188 5.71449C4.67188 5.74557 4.68422 5.77538 4.7062 5.79736C4.72818 5.81933 4.75798 5.83168 4.78906 5.83168H5.45348C5.48456 5.83168 5.51436 5.81933 5.53634 5.79736C5.55832 5.77538 5.57066 5.74557 5.57066 5.71449C5.57066 5.68341 5.55832 5.65361 5.53634 5.63163C5.51436 5.60965 5.48456 5.59731 5.45348 5.59731H4.78906Z" fill="white"/>
<path d="M8.72236 6.76881H8.05176C8.02068 6.76881 7.99087 6.78115 7.96889 6.80313C7.94692 6.82511 7.93457 6.85491 7.93457 6.88599C7.93457 6.91707 7.94692 6.94688 7.96889 6.96886C7.99087 6.99084 8.02068 7.00318 8.05176 7.00318H8.72236C8.75344 7.00318 8.78325 6.99084 8.80523 6.96886C8.8272 6.94688 8.83955 6.91707 8.83955 6.88599C8.83955 6.85491 8.8272 6.82511 8.80523 6.80313C8.78325 6.78115 8.75344 6.76881 8.72236 6.76881Z" fill="white"/>
<path d="M7.63113 6.76881H7.54687C7.51579 6.76881 7.48599 6.78115 7.46401 6.80313C7.44203 6.82511 7.42969 6.85491 7.42969 6.88599C7.42969 6.91707 7.44203 6.94688 7.46401 6.96886C7.48599 6.99084 7.51579 7.00318 7.54687 7.00318H7.63107C7.66215 7.00318 7.69196 6.99084 7.71394 6.96886C7.73592 6.94688 7.74826 6.91707 7.74826 6.88599C7.74826 6.85491 7.73592 6.82511 7.71394 6.80313C7.69196 6.78115 7.66215 6.76881 7.63107 6.76881H7.63113Z" fill="white"/>
<path d="M7.21707 6.76881H6.58008C6.549 6.76881 6.51919 6.78115 6.49721 6.80313C6.47524 6.82511 6.46289 6.85491 6.46289 6.88599C6.46289 6.91707 6.47524 6.94688 6.49721 6.96886C6.51919 6.99084 6.549 7.00318 6.58008 7.00318H7.21709C7.24817 7.00318 7.27798 6.99084 7.29995 6.96886C7.32193 6.94688 7.33428 6.91707 7.33428 6.88599C7.33428 6.85491 7.32193 6.82511 7.29995 6.80313C7.27798 6.78115 7.24817 6.76881 7.21709 6.76881H7.21707Z" fill="white"/>
<path d="M6.06299 6.76881H4.78906C4.75798 6.76881 4.72818 6.78115 4.7062 6.80313C4.68422 6.82511 4.67188 6.85491 4.67188 6.88599C4.67188 6.91707 4.68422 6.94688 4.7062 6.96886C4.72818 6.99084 4.75798 7.00318 4.78906 7.00318H6.06299C6.09407 7.00318 6.12388 6.99084 6.14585 6.96886C6.16783 6.94688 6.18018 6.91707 6.18018 6.88599C6.18018 6.85491 6.16783 6.82511 6.14585 6.80313C6.12388 6.78115 6.09407 6.76881 6.06299 6.76881Z" fill="white"/>
<path d="M8.72211 3.33203H8.64648C8.6154 3.33203 8.5856 3.34438 8.56362 3.36635C8.54164 3.38833 8.5293 3.41814 8.5293 3.44922C8.5293 3.4803 8.54164 3.51011 8.56362 3.53208C8.5856 3.55406 8.6154 3.56641 8.64648 3.56641H8.72211C8.75319 3.56641 8.783 3.55406 8.80497 3.53208C8.82695 3.51011 8.8393 3.4803 8.8393 3.44922C8.8393 3.41814 8.82695 3.38833 8.80497 3.36635C8.783 3.34438 8.75319 3.33203 8.72211 3.33203V3.33203Z" fill="white"/>
<path d="M7.31104 3.56641H8.14166C8.17274 3.56641 8.20255 3.55406 8.22452 3.53208C8.2465 3.51011 8.25885 3.4803 8.25885 3.44922C8.25885 3.41814 8.2465 3.38833 8.22452 3.36635C8.20255 3.34438 8.17274 3.33203 8.14166 3.33203H7.31104C7.27996 3.33203 7.25015 3.34438 7.22817 3.36635C7.20619 3.38833 7.19385 3.41814 7.19385 3.44922C7.19385 3.4803 7.20619 3.51011 7.22817 3.53208C7.25015 3.55406 7.27996 3.56641 7.31104 3.56641V3.56641Z" fill="white"/>
<path d="M8.7225 2.35547H7.88525C7.85417 2.35547 7.82437 2.36782 7.80239 2.38979C7.78041 2.41177 7.76807 2.44158 7.76807 2.47266C7.76807 2.50374 7.78041 2.53354 7.80239 2.55552C7.82437 2.5775 7.85417 2.58985 7.88525 2.58985H8.7225C8.75358 2.58985 8.78339 2.5775 8.80536 2.55552C8.82734 2.53354 8.83969 2.50374 8.83969 2.47266C8.83969 2.44158 8.82734 2.41177 8.80536 2.38979C8.78339 2.36782 8.75358 2.35547 8.7225 2.35547Z" fill="white"/>
<path d="M7.31104 2.58985H7.38004C7.41112 2.58985 7.44093 2.5775 7.4629 2.55552C7.48488 2.53354 7.49723 2.50374 7.49723 2.47266C7.49723 2.44158 7.48488 2.41177 7.4629 2.38979C7.44093 2.36782 7.41112 2.35547 7.38004 2.35547H7.31104C7.27996 2.35547 7.25015 2.36782 7.22817 2.38979C7.20619 2.41177 7.19385 2.44158 7.19385 2.47266C7.19385 2.50374 7.20619 2.53354 7.22817 2.55552C7.25015 2.5775 7.27996 2.58985 7.31104 2.58985V2.58985Z" fill="white"/>
<path d="M5.62256 4.64687C5.87751 4.64687 6.12674 4.57127 6.33872 4.42963C6.55071 4.28798 6.71593 4.08666 6.81349 3.85111C6.91106 3.61557 6.93659 3.35638 6.88685 3.10633C6.83711 2.85627 6.71434 2.62659 6.53406 2.44631C6.35378 2.26603 6.12409 2.14326 5.87404 2.09352C5.62399 2.04378 5.3648 2.06931 5.12925 2.16687C4.89371 2.26444 4.69239 2.42966 4.55074 2.64165C4.4091 2.85363 4.3335 3.10286 4.3335 3.35781C4.33388 3.69957 4.46982 4.02723 4.71148 4.26889C4.95314 4.51055 5.2808 4.64649 5.62256 4.64687ZM5.62256 2.30312C5.83115 2.30312 6.03507 2.36498 6.20851 2.48087C6.38195 2.59676 6.51713 2.76148 6.59696 2.9542C6.67679 3.14692 6.69767 3.35898 6.65698 3.56357C6.61628 3.76816 6.51583 3.95609 6.36833 4.10359C6.22083 4.25109 6.03291 4.35154 5.82832 4.39223C5.62373 4.43293 5.41166 4.41204 5.21895 4.33222C5.02623 4.25239 4.86151 4.11721 4.74562 3.94376C4.62973 3.77032 4.56787 3.56641 4.56787 3.35781C4.56819 3.07819 4.67941 2.81011 4.87714 2.61239C5.07486 2.41467 5.34294 2.30344 5.62256 2.30312V2.30312Z" fill="white"/>
<path d="M5.27869 3.86873C5.30067 3.89071 5.33048 3.90305 5.36155 3.90305C5.39263 3.90305 5.42244 3.89071 5.44442 3.86873L6.30051 3.01264C6.32219 2.9906 6.33429 2.96089 6.33416 2.92997C6.33403 2.89906 6.3217 2.86945 6.29984 2.84759C6.27798 2.82573 6.24836 2.81339 6.21745 2.81326C6.18654 2.81314 6.15682 2.82523 6.13479 2.84691L5.36156 3.62014L5.11035 3.36895C5.09953 3.35782 5.0866 3.34896 5.07232 3.34287C5.05804 3.33678 5.04269 3.33359 5.02717 3.33349C5.01165 3.33338 4.99626 3.33636 4.9819 3.34225C4.96753 3.34814 4.95449 3.35683 4.94351 3.3678C4.93253 3.37878 4.92384 3.39183 4.91795 3.40619C4.91206 3.42055 4.90908 3.43594 4.90918 3.45146C4.90929 3.46698 4.91247 3.48233 4.91856 3.49661C4.92464 3.51089 4.93351 3.52382 4.94463 3.53465L5.27869 3.86873Z" fill="white"/>
</svg>
