<svg width="512" height="512" viewBox="0 0 512 512" fill="none" xmlns="http://www.w3.org/2000/svg">
<g clip-path="url(#clip0)">
<path d="M466.102 482.616H45.8979C26.2579 482.616 10.3359 466.694 10.3359 447.054V101.971C10.3359 82.331 26.2579 66.409 45.8979 66.409H466.101C485.741 66.409 501.663 82.331 501.663 101.971V447.055C501.662 466.695 485.742 482.616 466.102 482.616Z" fill="white"/>
<path d="M501.662 139.978H10.3369V95.467C10.3369 79.419 23.3469 66.41 39.3939 66.41H472.606C488.654 66.41 501.663 79.42 501.663 95.467L501.662 139.978Z" fill="#7DC6D1"/>
<path d="M71.803 101.433H68.801C62.17 101.433 56.793 96.056 56.793 89.425V41.393C56.793 34.762 62.17 29.385 68.801 29.385H71.803C78.434 29.385 83.811 34.762 83.811 41.393V89.425C83.811 96.056 78.434 101.433 71.803 101.433Z" fill="#7DC6D1"/>
<path d="M70.302 74.415C62.841 74.415 56.793 68.367 56.793 60.906V87.924C56.793 95.385 62.841 101.433 70.302 101.433C77.763 101.433 83.811 95.385 83.811 87.924V60.906C83.811 68.367 77.763 74.415 70.302 74.415Z" fill="#7DC6D1"/>
<path d="M440.547 101.433H437.545C430.914 101.433 425.537 96.056 425.537 89.425V41.393C425.537 34.762 430.914 29.385 437.545 29.385H440.547C447.178 29.385 452.555 34.762 452.555 41.393V89.425C452.555 96.056 447.178 101.433 440.547 101.433Z" fill="#7DC6D1"/>
<path d="M439.046 74.415C431.585 74.415 425.537 68.367 425.537 60.906V87.924C425.537 95.385 431.585 101.433 439.046 101.433C446.507 101.433 452.555 95.385 452.555 87.924V60.906C452.555 68.367 446.507 74.415 439.046 74.415Z" fill="#7DC6D1"/>
<path d="M511.413 139.413L511.338 99.387C511.297 77.617 493.575 59.935 471.813 59.935C471.789 59.935 471.761 59.935 471.737 59.935L463.231 59.951L463.2 43.439C463.176 30.496 452.627 19.967 439.64 19.967C426.673 19.991 416.144 30.56 416.168 43.527L416.199 60.038L94.9871 60.642L94.9561 44.131C94.9331 31.19 84.3851 20.661 71.3981 20.661C65.1171 20.673 59.2171 23.13 54.7831 27.58C50.3501 32.03 47.9141 37.94 47.9261 44.221L47.9571 60.732L39.4511 60.748C28.9291 60.768 19.0201 64.908 11.5521 72.405C4.08307 79.901 -0.0199272 89.825 7.27733e-05 100.348L0.662073 452.581C0.703073 474.351 18.4251 492.035 40.1871 492.032C40.2111 492.032 40.2391 492.032 40.2631 492.032L472.548 491.219C483.07 491.199 492.979 487.059 500.447 479.562C507.916 472.065 512.019 462.14 511.999 451.619L511.413 139.413ZM439.686 34.979C444.367 34.979 448.183 38.788 448.192 43.469L448.237 67.461C448.237 67.469 448.236 67.477 448.236 67.485C448.236 67.493 448.237 67.501 448.237 67.509L448.282 91.501C448.286 93.772 447.405 95.91 445.801 97.52C444.197 99.13 442.063 100.019 439.791 100.023H439.774C435.093 100.023 431.278 96.214 431.269 91.533L431.18 43.5C431.171 38.81 434.979 34.988 439.686 34.979ZM65.4161 38.174C67.0201 36.565 69.1531 35.675 71.4421 35.671C76.1231 35.671 79.9381 39.48 79.9471 44.161L80.0371 92.193C80.0461 96.883 76.2371 100.706 71.5471 100.715H71.5301C66.8491 100.715 63.0331 96.906 63.0241 92.225L62.9811 68.223C62.9811 68.218 62.9821 68.213 62.9821 68.208C62.9821 68.203 62.9811 68.198 62.9811 68.193L62.9361 44.192C62.9321 41.92 63.8131 39.784 65.4161 38.174ZM496.417 146.946L496.989 451.648C497.001 458.161 494.453 464.312 489.813 468.97C485.174 473.627 479.032 476.198 472.519 476.21L40.2341 477.023C40.2171 477.023 40.2031 477.023 40.1871 477.023C26.6911 477.023 15.6971 466.055 15.6721 452.553L15.0991 147.85L15.0711 132.84L15.0101 100.32C14.9981 93.807 17.5461 87.656 22.1861 82.998C26.8251 78.341 32.9671 75.77 39.4801 75.758L47.9861 75.742L48.0171 92.253C48.0411 105.196 58.5901 115.725 71.5331 115.725C71.5381 115.725 71.5731 115.725 71.5781 115.725C84.5451 115.701 95.0741 105.132 95.0501 92.165L95.0191 75.654L416.23 75.05L416.261 91.561C416.285 104.504 426.834 115.033 439.776 115.033C439.781 115.033 439.816 115.033 439.821 115.033C452.788 115.009 463.317 104.44 463.293 91.473L463.262 74.962L471.768 74.946C471.785 74.946 471.798 74.946 471.815 74.946C485.311 74.946 496.305 85.914 496.33 99.416L496.391 131.938L496.417 146.946Z" fill="#434C54"/>
<path d="M247.874 219.462C247.879 219.462 247.884 219.462 247.889 219.462L263.9 219.432C268.045 219.424 271.399 216.058 271.391 211.913C271.383 207.773 268.025 204.422 263.886 204.422C263.881 204.422 263.876 204.422 263.871 204.422L247.86 204.452C243.715 204.46 240.361 207.826 240.369 211.971C240.377 216.111 243.735 219.462 247.874 219.462Z" fill="#7DC6D1"/>
<path d="M247.949 259.487C247.954 259.487 247.959 259.487 247.964 259.487L263.975 259.457C268.12 259.449 271.474 256.083 271.466 251.938C271.458 247.798 268.1 244.447 263.961 244.447C263.956 244.447 263.951 244.447 263.946 244.447L247.935 244.477C243.79 244.485 240.436 247.851 240.444 251.996C240.452 256.137 243.811 259.487 247.949 259.487Z" fill="#7DC6D1"/>
<path d="M248.024 299.514C248.029 299.514 248.034 299.514 248.039 299.514L264.05 299.484C268.195 299.476 271.549 296.11 271.541 291.965C271.533 287.825 268.175 284.474 264.036 284.474C264.031 284.474 264.026 284.474 264.021 284.474L248.01 284.504C243.865 284.512 240.511 287.878 240.519 292.023C240.527 296.164 243.886 299.514 248.024 299.514Z" fill="#7DC6D1"/>
<path d="M248.099 339.54C248.104 339.54 248.109 339.54 248.114 339.54L264.125 339.51C268.27 339.502 271.624 336.136 271.616 331.991C271.608 327.851 268.25 324.5 264.111 324.5C264.106 324.5 264.101 324.5 264.096 324.5L248.085 324.53C243.94 324.538 240.586 327.904 240.594 332.049C240.602 336.19 243.961 339.54 248.099 339.54Z" fill="#7DC6D1"/>
<path d="M248.174 379.567C248.179 379.567 248.184 379.567 248.189 379.567L264.2 379.537C268.345 379.529 271.699 376.163 271.691 372.018C271.683 367.878 268.325 364.527 264.186 364.527C264.181 364.527 264.176 364.527 264.171 364.527L248.16 364.557C244.015 364.565 240.661 367.931 240.669 372.076C240.678 376.217 244.037 379.567 248.174 379.567Z" fill="#7DC6D1"/>
<path d="M264.261 404.553C264.256 404.553 264.251 404.553 264.246 404.553L248.235 404.583C244.09 404.591 240.736 407.957 240.744 412.102C240.752 416.242 244.11 419.593 248.249 419.593C248.254 419.593 248.259 419.593 248.264 419.593L264.275 419.563C268.42 419.555 271.774 416.189 271.766 412.044C271.758 407.905 268.4 404.553 264.261 404.553Z" fill="#7DC6D1"/>
<path d="M303.911 219.356C303.916 219.356 303.921 219.356 303.926 219.356L319.937 219.326C324.082 219.318 327.436 215.952 327.428 211.807C327.42 207.667 324.062 204.316 319.923 204.316C319.918 204.316 319.913 204.316 319.908 204.316L303.897 204.346C299.752 204.354 296.398 207.72 296.406 211.865C296.414 216.006 299.773 219.356 303.911 219.356Z" fill="#7DC6D1"/>
<path d="M303.986 259.382C303.991 259.382 303.996 259.382 304.001 259.382L320.012 259.352C324.157 259.344 327.511 255.978 327.503 251.833C327.495 247.693 324.137 244.342 319.998 244.342C319.993 244.342 319.988 244.342 319.983 244.342L303.972 244.372C299.827 244.38 296.473 247.746 296.481 251.891C296.489 256.032 299.848 259.382 303.986 259.382Z" fill="#7DC6D1"/>
<path d="M304.061 299.409C304.066 299.409 304.071 299.409 304.076 299.409L320.087 299.379C324.232 299.371 327.586 296.005 327.578 291.86C327.57 287.72 324.212 284.369 320.073 284.369C320.068 284.369 320.063 284.369 320.058 284.369L304.047 284.399C299.902 284.407 296.548 287.773 296.556 291.918C296.564 296.059 299.924 299.409 304.061 299.409Z" fill="#7DC6D1"/>
<path d="M304.136 339.435C304.141 339.435 304.146 339.435 304.151 339.435L320.162 339.405C324.307 339.397 327.661 336.031 327.653 331.886C327.645 327.746 324.287 324.395 320.148 324.395C320.143 324.395 320.138 324.395 320.133 324.395L304.122 324.425C299.977 324.433 296.623 327.799 296.631 331.944C296.639 336.085 299.999 339.435 304.136 339.435Z" fill="#7DC6D1"/>
<path d="M304.212 379.462C304.217 379.462 304.222 379.462 304.227 379.462L320.238 379.432C324.383 379.424 327.737 376.058 327.729 371.913C327.721 367.773 324.363 364.422 320.224 364.422C320.219 364.422 320.214 364.422 320.209 364.422L304.198 364.452C300.053 364.46 296.699 367.826 296.707 371.971C296.716 376.111 300.074 379.462 304.212 379.462Z" fill="#7DC6D1"/>
<path d="M320.298 404.448C320.293 404.448 320.288 404.448 320.283 404.448L304.272 404.478C300.127 404.486 296.773 407.852 296.781 411.997C296.789 416.137 300.147 419.488 304.286 419.488C304.291 419.488 304.296 419.488 304.301 419.488L320.312 419.458C324.457 419.45 327.811 416.084 327.803 411.939C327.795 407.8 324.437 404.448 320.298 404.448Z" fill="#7DC6D1"/>
<path d="M191.837 219.567C191.842 219.567 191.847 219.567 191.852 219.567L207.863 219.537C212.008 219.529 215.362 216.163 215.354 212.018C215.346 207.878 211.988 204.527 207.849 204.527C207.844 204.527 207.839 204.527 207.834 204.527L191.823 204.557C187.678 204.565 184.324 207.931 184.332 212.076C184.34 216.216 187.698 219.567 191.837 219.567Z" fill="#7DC6D1"/>
<path d="M191.912 259.593C191.917 259.593 191.922 259.593 191.927 259.593L207.938 259.563C212.083 259.555 215.437 256.189 215.429 252.044C215.421 247.904 212.063 244.553 207.924 244.553C207.919 244.553 207.914 244.553 207.909 244.553L191.898 244.583C187.753 244.591 184.399 247.957 184.407 252.102C184.415 256.242 187.773 259.593 191.912 259.593Z" fill="#7DC6D1"/>
<path d="M191.987 299.62C191.992 299.62 191.997 299.62 192.002 299.62L208.013 299.59C212.158 299.582 215.512 296.216 215.504 292.071C215.496 287.931 212.138 284.58 207.999 284.58C207.994 284.58 207.989 284.58 207.984 284.58L191.973 284.61C187.828 284.618 184.474 287.984 184.482 292.129C184.49 296.269 187.849 299.62 191.987 299.62Z" fill="#7DC6D1"/>
<path d="M192.062 339.646C192.067 339.646 192.072 339.646 192.077 339.646L208.088 339.616C212.233 339.608 215.587 336.242 215.579 332.097C215.571 327.957 212.213 324.606 208.074 324.606C208.069 324.606 208.064 324.606 208.059 324.606L192.048 324.636C187.903 324.644 184.549 328.01 184.557 332.155C184.565 336.295 187.924 339.646 192.062 339.646Z" fill="#7DC6D1"/>
<path d="M192.137 379.673C192.142 379.673 192.147 379.673 192.152 379.673L208.163 379.643C212.308 379.635 215.662 376.269 215.654 372.124C215.646 367.984 212.288 364.633 208.149 364.633C208.144 364.633 208.139 364.633 208.134 364.633L192.123 364.663C187.978 364.671 184.624 368.037 184.632 372.182C184.641 376.322 188 379.673 192.137 379.673Z" fill="#7DC6D1"/>
<path d="M208.225 404.659C208.22 404.659 208.215 404.659 208.21 404.659L192.199 404.689C188.054 404.697 184.7 408.063 184.708 412.208C184.716 416.348 188.074 419.699 192.213 419.699C192.218 419.699 192.223 419.699 192.228 419.699L208.239 419.669C212.384 419.661 215.738 416.295 215.73 412.15C215.721 408.01 212.363 404.659 208.225 404.659Z" fill="#7DC6D1"/>
<path d="M135.8 219.672C135.805 219.672 135.81 219.672 135.815 219.672L151.826 219.642C155.971 219.634 159.325 216.268 159.317 212.123C159.309 207.983 155.951 204.632 151.812 204.632C151.807 204.632 151.802 204.632 151.797 204.632L135.786 204.662C131.641 204.67 128.287 208.036 128.295 212.181C128.303 216.322 131.662 219.672 135.8 219.672Z" fill="#7DC6D1"/>
<path d="M135.875 259.699C135.88 259.699 135.885 259.699 135.89 259.699L151.901 259.669C156.046 259.661 159.4 256.295 159.392 252.15C159.384 248.01 156.026 244.659 151.887 244.659C151.882 244.659 151.877 244.659 151.872 244.659L135.861 244.689C131.716 244.697 128.362 248.063 128.37 252.208C128.379 256.348 131.737 259.699 135.875 259.699Z" fill="#7DC6D1"/>
<path d="M135.95 299.725C135.955 299.725 135.96 299.725 135.965 299.725L151.976 299.695C156.121 299.687 159.475 296.321 159.467 292.176C159.459 288.036 156.101 284.685 151.962 284.685C151.957 284.685 151.952 284.685 151.947 284.685L135.936 284.715C131.791 284.723 128.437 288.089 128.445 292.234C128.454 296.374 131.812 299.725 135.95 299.725Z" fill="#7DC6D1"/>
<path d="M136.026 339.752C136.031 339.752 136.036 339.752 136.041 339.752L152.052 339.722C156.197 339.714 159.551 336.348 159.543 332.203C159.535 328.063 156.177 324.712 152.038 324.712C152.033 324.712 152.028 324.712 152.023 324.712L136.012 324.742C131.867 324.75 128.513 328.116 128.521 332.261C128.529 336.4 131.887 339.752 136.026 339.752Z" fill="#7DC6D1"/>
<path d="M136.101 379.778C136.106 379.778 136.111 379.778 136.116 379.778L152.127 379.748C156.272 379.74 159.626 376.374 159.618 372.229C159.61 368.089 156.252 364.738 152.113 364.738C152.108 364.738 152.103 364.738 152.098 364.738L136.087 364.768C131.942 364.776 128.588 368.142 128.596 372.287C128.604 376.427 131.962 379.778 136.101 379.778Z" fill="#7DC6D1"/>
<path d="M152.188 404.764C152.183 404.764 152.178 404.764 152.173 404.764L136.162 404.794C132.017 404.802 128.663 408.168 128.671 412.313C128.679 416.453 132.037 419.804 136.176 419.804C136.181 419.804 136.186 419.804 136.191 419.804L152.202 419.774C156.347 419.766 159.701 416.4 159.693 412.255C159.684 408.115 156.326 404.764 152.188 404.764Z" fill="#7DC6D1"/>
<path d="M359.948 219.251C359.953 219.251 359.958 219.251 359.963 219.251L375.974 219.221C380.119 219.213 383.473 215.847 383.465 211.702C383.457 207.562 380.099 204.211 375.96 204.211C375.955 204.211 375.95 204.211 375.945 204.211L359.934 204.241C355.789 204.249 352.435 207.615 352.443 211.76C352.451 215.9 355.81 219.251 359.948 219.251Z" fill="#7DC6D1"/>
<path d="M360.023 259.277C360.028 259.277 360.033 259.277 360.038 259.277L376.049 259.247C380.194 259.239 383.548 255.873 383.54 251.728C383.532 247.588 380.174 244.237 376.035 244.237C376.03 244.237 376.025 244.237 376.02 244.237L360.009 244.267C355.864 244.275 352.51 247.641 352.518 251.786C352.526 255.926 355.885 259.277 360.023 259.277Z" fill="#7DC6D1"/>
<path d="M360.098 299.304C360.103 299.304 360.108 299.304 360.113 299.304L376.124 299.274C380.269 299.266 383.623 295.9 383.615 291.755C383.607 287.615 380.249 284.264 376.11 284.264C376.105 284.264 376.1 284.264 376.095 284.264L360.084 284.294C355.939 284.302 352.585 287.668 352.593 291.813C352.602 295.953 355.96 299.304 360.098 299.304Z" fill="#7DC6D1"/>
<path d="M360.174 339.33C360.179 339.33 360.184 339.33 360.189 339.33L376.2 339.3C380.345 339.292 383.699 335.926 383.691 331.781C383.683 327.641 380.325 324.29 376.186 324.29C376.181 324.29 376.176 324.29 376.171 324.29L360.16 324.32C356.015 324.328 352.661 327.694 352.669 331.839C352.677 335.979 356.036 339.33 360.174 339.33Z" fill="#7DC6D1"/>
<path d="M360.249 379.357C360.254 379.357 360.259 379.357 360.264 379.357L376.275 379.327C380.42 379.319 383.774 375.953 383.766 371.808C383.758 367.663 380.361 364.34 376.247 364.317L360.236 364.347C356.091 364.355 352.737 367.721 352.745 371.866C352.753 376.006 356.111 379.357 360.249 379.357Z" fill="#7DC6D1"/>
<path d="M376.335 404.343C376.33 404.343 376.325 404.343 376.32 404.343L360.309 404.373C356.164 404.381 352.81 407.747 352.818 411.892C352.826 416.032 356.184 419.383 360.323 419.383C360.328 419.383 360.333 419.383 360.338 419.383L376.349 419.353C380.494 419.345 383.848 415.979 383.84 411.834C383.832 407.694 380.474 404.343 376.335 404.343Z" fill="#7DC6D1"/>
<path d="M415.986 219.146C415.991 219.146 415.996 219.146 416.001 219.146L432.012 219.116C436.157 219.108 439.511 215.742 439.503 211.597C439.495 207.457 436.137 204.106 431.998 204.106C431.993 204.106 431.988 204.106 431.983 204.106L415.972 204.136C411.827 204.144 408.473 207.51 408.481 211.655C408.489 215.794 411.847 219.146 415.986 219.146Z" fill="#7DC6D1"/>
<path d="M416.061 259.172C416.066 259.172 416.071 259.172 416.076 259.172L432.087 259.142C436.232 259.134 439.586 255.768 439.578 251.623C439.57 247.483 436.212 244.132 432.073 244.132C432.068 244.132 432.063 244.132 432.058 244.132L416.047 244.162C411.902 244.17 408.548 247.536 408.556 251.681C408.564 255.821 411.922 259.172 416.061 259.172Z" fill="#7DC6D1"/>
<path d="M416.136 299.199C416.141 299.199 416.146 299.199 416.151 299.199L432.162 299.169C436.307 299.161 439.661 295.795 439.653 291.65C439.645 287.51 436.287 284.159 432.148 284.159C432.143 284.159 432.138 284.159 432.133 284.159L416.122 284.189C411.977 284.197 408.623 287.563 408.631 291.708C408.639 295.847 411.998 299.199 416.136 299.199Z" fill="#7DC6D1"/>
<path d="M416.211 339.224C416.216 339.224 416.221 339.224 416.226 339.224L432.237 339.194C436.382 339.186 439.736 335.82 439.728 331.675C439.72 327.535 436.362 324.184 432.223 324.184C432.218 324.184 432.213 324.184 432.208 324.184L416.197 324.214C412.052 324.222 408.698 327.588 408.706 331.733C408.714 335.874 412.072 339.224 416.211 339.224Z" fill="#7DC6D1"/>
<path d="M416.286 379.251C416.291 379.251 416.296 379.251 416.301 379.251L432.312 379.221C436.457 379.213 439.811 375.847 439.803 371.702C439.795 367.562 436.437 364.211 432.298 364.211C432.293 364.211 432.288 364.211 432.283 364.211L416.272 364.241C412.127 364.249 408.773 367.615 408.781 371.76C408.79 375.9 412.148 379.251 416.286 379.251Z" fill="#7DC6D1"/>
<path d="M432.372 404.238C432.367 404.238 432.362 404.238 432.357 404.238L416.346 404.268C412.201 404.276 408.847 407.642 408.855 411.787C408.863 415.927 412.221 419.278 416.36 419.278C416.365 419.278 416.37 419.278 416.375 419.278L432.386 419.248C436.531 419.24 439.885 415.874 439.877 411.729C439.869 407.588 436.511 404.238 432.372 404.238Z" fill="#7DC6D1"/>
<path d="M79.7629 219.777C79.7679 219.777 79.7729 219.777 79.7779 219.777L95.7889 219.747C99.9339 219.739 103.288 216.373 103.28 212.228C103.272 208.088 99.9139 204.737 95.7749 204.737C95.7699 204.737 95.7649 204.737 95.7599 204.737L79.7489 204.767C75.6039 204.775 72.2499 208.141 72.2579 212.286C72.2659 216.427 75.6239 219.777 79.7629 219.777Z" fill="#7DC6D1"/>
<path d="M79.8379 259.804C79.8429 259.804 79.8479 259.804 79.8529 259.804L95.8639 259.774C100.009 259.766 103.363 256.4 103.355 252.255C103.347 248.115 99.9889 244.764 95.8499 244.764C95.8449 244.764 95.8399 244.764 95.8349 244.764L79.8239 244.794C75.6789 244.802 72.3249 248.168 72.3329 252.313C72.3419 256.453 75.6989 259.804 79.8379 259.804Z" fill="#7DC6D1"/>
<path d="M79.913 299.83C79.918 299.83 79.923 299.83 79.928 299.83L95.939 299.8C100.084 299.792 103.438 296.426 103.43 292.281C103.422 288.141 100.064 284.79 95.925 284.79C95.92 284.79 95.915 284.79 95.91 284.79L79.899 284.82C75.754 284.828 72.4 288.194 72.408 292.339C72.417 296.48 75.775 299.83 79.913 299.83Z" fill="#7DC6D1"/>
<path d="M79.9889 339.857C79.9939 339.857 79.9989 339.857 80.0039 339.857L96.0149 339.827C100.16 339.819 103.514 336.453 103.506 332.308C103.498 328.168 100.14 324.817 96.0009 324.817C95.9959 324.817 95.9909 324.817 95.9859 324.817L79.9749 324.847C75.8299 324.855 72.4759 328.221 72.4839 332.366C72.4919 336.506 75.8499 339.857 79.9889 339.857Z" fill="#7DC6D1"/>
<path d="M80.064 379.883C80.069 379.883 80.074 379.883 80.079 379.883L96.09 379.853C100.235 379.845 103.589 376.479 103.581 372.334C103.573 368.194 100.215 364.843 96.076 364.843C96.071 364.843 96.066 364.843 96.061 364.843L80.05 364.873C75.905 364.881 72.551 368.247 72.559 372.392C72.567 376.533 75.926 379.883 80.064 379.883Z" fill="#7DC6D1"/>
<path d="M96.1509 404.87C96.1459 404.87 96.1409 404.87 96.1359 404.87L80.1249 404.9C75.9799 404.908 72.6259 408.274 72.6339 412.419C72.6419 416.559 75.9999 419.91 80.1389 419.91C80.1439 419.91 80.1489 419.91 80.1539 419.91L96.1649 419.88C100.31 419.872 103.664 416.506 103.656 412.361C103.648 408.221 100.288 404.87 96.1509 404.87Z" fill="#7DC6D1"/>
</g>
<defs>
<clipPath id="clip0">
<rect width="512" height="512" fill="white"/>
</clipPath>
</defs>
</svg>
