<svg width="492" height="492" viewBox="0 0 492 492" fill="none" xmlns="http://www.w3.org/2000/svg">
<g clip-path="url(#clip0)">
<path d="M245.76 491.52C381.49 491.52 491.52 381.49 491.52 245.76C491.52 110.03 381.49 0 245.76 0C110.03 0 0 110.03 0 245.76C0 381.49 110.03 491.52 245.76 491.52Z" fill="#87CED9"/>
<path opacity="0.1" d="M146.176 146.176C91.187 201.216 91.187 290.304 146.176 345.344L288.59 487.723C389.972 469.894 469.894 389.971 487.723 288.59L345.344 146.176C290.304 91.187 201.216 91.187 146.176 146.176Z" fill="black"/>
<path d="M245.76 386.56C323.522 386.56 386.56 323.522 386.56 245.76C386.56 167.998 323.522 104.96 245.76 104.96C167.998 104.96 104.96 167.998 104.96 245.76C104.96 323.522 167.998 386.56 245.76 386.56Z" fill="#3A556A"/>
<path d="M245.76 366.08C179.415 366.08 125.44 312.105 125.44 245.76C125.44 179.415 179.415 125.44 245.76 125.44C312.105 125.44 366.08 179.415 366.08 245.76C366.08 312.105 312.105 366.08 245.76 366.08Z" fill="white"/>
<path d="M249.169 133.84H242.38V150.99H249.169V133.84Z" fill="#E1E6E9"/>
<path d="M249.169 340.53H242.38V357.68H249.169V340.53Z" fill="#E1E6E9"/>
<path d="M357.63 242.38H340.48V249.169H357.63V242.38Z" fill="#E1E6E9"/>
<path d="M150.99 242.33H133.84V249.119H150.99V242.33Z" fill="#E1E6E9"/>
<path d="M308.097 152.782L302.346 149.173L293.23 163.702L298.981 167.31L308.097 152.782Z" fill="#E1E6E9"/>
<path d="M198.279 327.834L192.528 324.226L183.413 338.754L189.163 342.362L198.279 327.834Z" fill="#E1E6E9"/>
<path d="M338.785 308.137L342.394 302.387L327.865 293.271L324.257 299.022L338.785 308.137Z" fill="#E1E6E9"/>
<path d="M163.693 198.252L167.301 192.501L152.773 183.385L149.164 189.136L163.693 198.252Z" fill="#E1E6E9"/>
<path d="M347.103 198.162L344.031 192.107L328.738 199.867L331.81 205.922L347.103 198.162Z" fill="#E1E6E9"/>
<path d="M162.756 291.705L159.684 285.651L144.39 293.411L147.462 299.465L162.756 291.705Z" fill="#E1E6E9"/>
<path d="M293.364 347.116L299.418 344.044L291.658 328.751L285.604 331.823L293.364 347.116Z" fill="#E1E6E9"/>
<path d="M199.833 162.726L205.888 159.654L198.128 144.36L192.073 147.432L199.833 162.726Z" fill="#E1E6E9"/>
<path d="M245.76 172.602C243.119 172.602 240.977 174.744 240.977 177.385V240.977C240.977 243.619 243.118 245.76 245.76 245.76C248.402 245.76 250.544 243.618 250.544 240.977V177.385C250.544 174.743 248.401 172.602 245.76 172.602Z" fill="#3A556A"/>
<path d="M296.62 245.759C296.62 243.118 294.478 240.976 291.837 240.976H250.498C247.856 240.976 245.715 243.117 245.715 245.759C245.715 248.401 247.857 250.543 250.498 250.543H291.837C294.478 250.543 296.62 248.401 296.62 245.759Z" fill="#3A556A"/>
<path d="M211.858 286.235L233.723 264.37L232.113 262.76L320.443 174.43L317.224 171.211L228.894 259.541L227.284 257.931L205.419 279.796L211.858 286.235Z" fill="#E56353"/>
<path d="M245.76 255.022C250.875 255.022 255.022 250.875 255.022 245.76C255.022 240.645 250.875 236.498 245.76 236.498C240.645 236.498 236.498 240.645 236.498 245.76C236.498 250.875 240.645 255.022 245.76 255.022Z" fill="#FCD462"/>
</g>
<defs>
<clipPath id="clip0">
<rect width="491.52" height="491.52" fill="white"/>
</clipPath>
</defs>
</svg>
