<svg width="356" height="221" viewBox="0 0 356 221" fill="none" xmlns="http://www.w3.org/2000/svg">
<path d="M265.277 221C310.784 221 347.675 218.606 347.675 215.652C347.675 212.698 310.784 210.304 265.277 210.304C219.769 210.304 182.878 212.698 182.878 215.652C182.878 218.606 219.769 221 265.277 221Z" fill="#3F3D56"/>
<path d="M347.243 155.826C347.243 182.033 327.135 191.184 302.331 191.184C277.526 191.184 257.418 182.033 257.418 155.826C257.418 129.618 302.331 96.2773 302.331 96.2773C302.331 96.2773 347.243 129.618 347.243 155.826Z" fill="#F2F2F2"/>
<path d="M300.695 187.175L301.155 165.241L320.297 138.107L301.227 161.801L301.433 151.939L314.627 132.307L301.488 149.329L301.86 131.591L315.988 115.962L301.919 128.802L302.151 96.2774L300.69 139.334L300.81 137.558L286.447 120.523L300.58 140.968L299.242 160.777L299.202 160.252L282.643 142.325L299.152 162.109L298.985 164.586L298.954 164.624L298.968 164.827L295.573 215.087H300.109L300.654 189.127L317.122 169.391L300.695 187.175Z" fill="#3F3D56"/>
<path d="M333.211 202.987C333.211 210.497 327.449 213.12 320.341 213.12C320.176 213.12 320.012 213.118 319.848 213.116C319.518 213.11 319.192 213.098 318.87 213.081C312.455 212.729 307.47 209.972 307.47 202.987C307.47 195.759 319.392 186.638 320.288 185.963L320.289 185.961C320.324 185.935 320.341 185.923 320.341 185.923C320.341 185.923 333.211 195.477 333.211 202.987Z" fill="#63D096"/>
<path d="M319.872 211.971L324.579 206.874L319.86 212.53L319.848 213.116C319.518 213.11 319.192 213.098 318.87 213.081L319.377 205.567L319.373 205.509L319.382 205.498L319.43 204.788L314.699 199.118L319.444 204.256L319.455 204.406L319.839 198.729L315.789 192.87L319.888 197.733L320.287 185.963L320.289 185.923V185.961L320.222 195.243L324.254 191.563L320.206 196.042L320.099 201.125L323.864 196.247L320.084 201.873L320.024 204.699L325.49 197.91L320.004 205.685L319.872 211.971Z" fill="#3F3D56"/>
<path d="M97.1552 85.9412C108.569 85.9412 117.821 78.7723 117.821 69.929C117.821 61.0857 108.569 53.9167 97.1552 53.9167C85.7418 53.9167 76.4894 61.0857 76.4894 69.929C76.4894 78.7723 85.7418 85.9412 97.1552 85.9412Z" fill="#F2F2F2"/>
<path d="M101.431 81.156C112.844 81.156 122.097 73.9871 122.097 65.1437C122.097 56.3004 112.844 49.1315 101.431 49.1315C90.0174 49.1315 80.765 56.3004 80.765 65.1437C80.765 73.9871 90.0174 81.156 101.431 81.156Z" stroke="#3F3D56" stroke-width="2" stroke-miterlimit="10"/>
<path d="M72.6887 39.929L56.0504 18.3356C58.0465 16.3721 59.0527 13.9131 58.8811 11.4171C58.7096 8.92119 57.372 6.55885 55.118 4.77076C52.864 2.98268 49.8474 1.89098 46.631 1.69931C43.4146 1.50764 40.218 2.22909 37.6376 3.72908C35.0572 5.22908 33.2692 7.40517 32.607 9.85142C31.9449 12.2977 32.4539 14.847 34.0391 17.0239C35.6243 19.2008 38.1774 20.8565 41.2221 21.6823C44.2669 22.508 47.5954 22.4474 50.5867 21.5116L72.6887 39.929Z" fill="#3F3D56"/>
<path d="M45.6092 16.7389C49.0202 16.7389 51.7852 14.5965 51.7852 11.9536C51.7852 9.3108 49.0202 7.16837 45.6092 7.16837C42.1983 7.16837 39.4332 9.3108 39.4332 11.9536C39.4332 14.5965 42.1983 16.7389 45.6092 16.7389Z" fill="#63D096"/>
<path d="M126.054 37.4365L149.07 19.7039C152.012 20.7296 155.334 20.8911 158.419 20.1583C161.503 19.4255 164.137 17.8485 165.831 15.7213C167.525 13.5942 168.163 11.0622 167.625 8.59773C167.086 6.13327 165.41 3.90463 162.907 2.32756C160.404 0.750477 157.247 -0.0673383 154.023 0.0266686C150.799 0.120676 147.73 1.12008 145.387 2.83846C143.045 4.55684 141.589 6.87682 141.292 9.36565C140.994 11.8545 141.875 14.3422 143.771 16.3646L126.054 37.4365Z" fill="#3F3D56"/>
<path d="M154.536 15.0944C157.947 15.0944 160.712 12.952 160.712 10.3092C160.712 7.66633 157.947 5.5239 154.536 5.5239C151.125 5.5239 148.36 7.66633 148.36 10.3092C148.36 12.952 151.125 15.0944 154.536 15.0944Z" fill="#63D096"/>
<path d="M142.087 76.9519L169.861 89.9655C169.288 92.4253 169.89 94.9625 171.554 97.1039C173.218 99.2452 175.83 100.845 178.904 101.603C181.977 102.362 185.302 102.229 188.258 101.228C191.214 100.227 193.599 98.4277 194.969 96.1646C196.338 93.9016 196.599 91.3298 195.701 88.929C194.803 86.5282 192.809 84.4624 190.091 83.117C187.372 81.7715 184.115 81.2383 180.926 81.6168C177.737 81.9952 174.835 83.2595 172.761 85.1738L142.087 76.9519Z" fill="#3F3D56"/>
<path d="M182.947 96.5877C186.358 96.5877 189.123 94.4453 189.123 91.8025C189.123 89.1596 186.358 87.0172 182.947 87.0172C179.536 87.0172 176.771 89.1596 176.771 91.8025C176.771 94.4453 179.536 96.5877 182.947 96.5877Z" fill="#63D096"/>
<path d="M96.4792 98.5654L86.9016 122.595C83.6827 122.759 80.6509 123.825 78.3718 125.594C76.0927 127.363 74.7219 129.714 74.5151 132.208C74.3084 134.702 75.2798 137.17 77.2481 139.15C79.2165 141.13 82.0473 142.488 85.2127 142.97C88.378 143.452 91.6616 143.026 94.4509 141.77C97.2402 140.515 99.3447 138.516 100.372 136.146C101.399 133.777 101.279 131.199 100.034 128.893C98.7882 126.588 96.5028 124.712 93.6037 123.615L96.4792 98.5654Z" fill="#3F3D56"/>
<path d="M87.7669 137.662C91.1779 137.662 93.9429 135.52 93.9429 132.877C93.9429 130.234 91.1779 128.092 87.7669 128.092C84.356 128.092 81.5909 130.234 81.5909 132.877C81.5909 135.52 84.356 137.662 87.7669 137.662Z" fill="#63D096"/>
<path d="M58.3785 69.5064L25.9699 68.1192C24.9853 65.739 22.9168 63.7176 20.1502 62.4321C17.3837 61.1466 14.1081 60.6847 10.9344 61.1327C7.76079 61.5807 4.90584 62.908 2.90218 64.8668C0.898514 66.8257 -0.117035 69.2824 0.0449781 71.7788C0.206991 74.2751 1.5355 76.6405 3.78268 78.4337C6.02986 80.227 9.04224 81.3256 12.2579 81.5247C15.4735 81.7237 18.6728 81.0096 21.259 79.5155C23.8451 78.0215 25.6415 75.8495 26.3129 73.4048L58.3785 69.5064Z" fill="#3F3D56"/>
<path d="M13.3036 76.0426C16.7145 76.0426 19.4796 73.9002 19.4796 71.2573C19.4796 68.6145 16.7145 66.472 13.3036 66.472C9.89266 66.472 7.12756 68.6145 7.12756 71.2573C7.12756 73.9002 9.89266 76.0426 13.3036 76.0426Z" fill="#63D096"/>
<path d="M349.634 21.1488C353.15 21.1488 356 18.9406 356 16.2167C356 13.4927 353.15 11.2845 349.634 11.2845C346.119 11.2845 343.269 13.4927 343.269 16.2167C343.269 18.9406 346.119 21.1488 349.634 21.1488Z" fill="#F2F2F2"/>
<path d="M347.046 19.4775C350.562 19.4775 353.412 17.2693 353.412 14.5453C353.412 11.8214 350.562 9.61316 347.046 9.61316C343.53 9.61316 340.68 11.8214 340.68 14.5453C340.68 17.2693 343.53 19.4775 347.046 19.4775Z" stroke="#3F3D56" stroke-width="2" stroke-miterlimit="10"/>
<path d="M309.424 17.3246H295.044V28.4666H309.424V17.3246Z" fill="#63D096"/>
<path d="M312.3 15.0962H297.92V26.2382H312.3V15.0962Z" stroke="#3F3D56" stroke-width="2" stroke-miterlimit="10"/>
<path d="M262.041 196.098C262.041 196.098 260.747 202.449 258.59 203.451C256.433 204.454 269.806 206.794 269.806 206.794L271.963 196.766L262.041 196.098Z" fill="#FBBEBE"/>
<path d="M278.003 123.563L282.748 127.909L280.591 142.95L278.866 172.7C278.866 172.7 282.317 198.438 278.866 199.106C275.415 199.775 259.884 199.44 260.315 197.769C260.747 196.098 261.178 194.761 262.041 192.421C262.904 190.081 261.178 181.725 261.178 181.725L263.335 172.365L255.57 131.92L278.003 123.563Z" fill="#2F2E41"/>
<path d="M262.472 202.449C262.472 202.449 257.727 201.78 257.296 202.449C256.864 203.117 248.668 210.137 247.373 210.137C246.079 210.137 236.588 216.822 246.51 217.156C256.433 217.49 272.826 211.474 272.826 211.474C272.826 211.474 270.414 202.968 270.541 203.377C270.669 203.786 262.472 204.12 262.472 202.449Z" fill="#2F2E41"/>
<path d="M257.296 187.073C257.296 187.073 269.375 197.435 269.806 198.437C270.238 199.44 276.709 198.437 276.709 198.437L279.297 191.752L277.14 189.412L265.061 181.725L257.296 187.073Z" fill="#FBBEBE"/>
<path d="M274.552 194.761L268.297 199.323C268.297 199.323 276.277 208.8 276.277 209.802C276.277 210.805 276.709 219.162 281.023 217.825C285.337 216.488 285.768 203.117 285.768 203.117C285.768 203.117 285.337 189.412 282.749 188.41C280.16 187.407 274.487 187.724 274.487 187.724C274.487 187.724 278.003 194.426 274.552 194.761Z" fill="#2F2E41"/>
<path d="M238.745 93.8143C238.745 93.8143 236.588 99.1624 236.157 100.499C235.725 101.836 233.137 105.513 233.137 111.196C233.137 116.878 234 123.563 233.137 124.232C232.274 124.9 218.469 162.337 224.509 166.349C230.549 170.36 250.393 183.73 251.687 185.401C252.982 187.073 253.413 191.084 256.001 190.415C258.59 189.747 268.512 183.062 268.944 181.724C269.375 180.387 263.335 178.048 263.335 178.048C263.335 178.048 251.256 164.343 248.236 164.677C245.216 165.012 245.648 163.006 246.079 162.003C246.511 161 247.373 160.332 246.079 160.332C244.785 160.332 245.648 157.658 246.079 156.321C246.511 154.984 256.433 136.934 256.433 136.934L282.749 127.909C282.749 127.909 281.454 103.508 271.963 96.8226L269.806 92.8115C269.806 92.8115 245.648 91.4745 238.745 93.8143Z" fill="#2F2E41"/>
<path d="M249.53 41.0013C249.53 41.0013 251.687 52.7004 246.511 53.3689C241.334 54.0374 237.02 53.7032 237.02 54.0374C237.02 54.3717 249.962 64.7337 249.962 64.7337L262.041 64.0652L272.826 55.0402C272.826 55.0402 262.904 53.7032 262.904 49.0235C262.904 44.3439 262.473 41.0013 262.473 41.0013H249.53Z" fill="#FBBEBE"/>
<path opacity="0.1" d="M249.53 41.0013C249.53 41.0013 251.687 52.7004 246.511 53.3689C241.334 54.0374 237.02 53.7032 237.02 54.0374C237.02 54.3717 249.962 64.7337 249.962 64.7337L262.041 64.0652L272.826 55.0402C272.826 55.0402 262.904 53.7032 262.904 49.0235C262.904 44.3439 262.473 41.0013 262.473 41.0013H249.53Z" fill="black"/>
<path d="M256.217 45.8481C263.603 45.8481 269.591 41.2088 269.591 35.486C269.591 29.7632 263.603 25.124 256.217 25.124C248.831 25.124 242.844 29.7632 242.844 35.486C242.844 41.2088 248.831 45.8481 256.217 45.8481Z" fill="#FBBEBE"/>
<path d="M244.354 52.3661C244.354 52.3661 227.529 54.0374 226.235 58.3828C224.94 62.7282 234.863 89.8032 236.157 92.143C237.451 94.4828 237.02 96.1541 237.02 96.1541C238.972 95.023 241.214 94.2289 243.595 93.8253C245.976 93.4217 248.441 93.4179 250.825 93.8143C259.021 95.1513 270.669 94.4828 270.669 94.4828C270.669 94.4828 274.552 82.1152 275.415 80.7782C276.277 79.4411 279.729 72.0874 279.729 70.0819C279.729 68.0763 284.906 59.7198 284.906 59.7198C284.906 59.7198 282.317 53.7032 272.826 54.0374C272.826 54.0374 268.686 52.6018 267.521 53.6538C266.355 54.7059 259.884 59.3856 251.687 57.38C243.491 55.3745 244.354 52.3661 244.354 52.3661Z" fill="#3F3D56"/>
<path d="M230.98 58.0485H226.235L223.646 84.455C223.646 84.455 233.137 86.4606 234.431 85.1235C235.725 83.7865 230.98 58.0485 230.98 58.0485Z" fill="#3F3D56"/>
<path d="M224.94 81.7809L223.646 84.455C223.646 84.455 222.783 93.1458 227.96 92.8115C233.137 92.4772 236.157 87.4633 236.157 87.4633C236.157 87.4633 233.137 81.1124 229.686 81.7809C226.235 82.4495 224.94 81.7809 224.94 81.7809Z" fill="#3F3D56"/>
<path d="M276.709 58.0485L284.906 59.7198C284.906 59.7198 290.945 76.7671 291.377 77.1013C291.808 77.4356 292.24 79.4411 292.24 79.4411C292.24 79.4411 292.24 79.7754 293.102 80.7782C293.965 81.7809 295.259 81.1124 294.397 82.4495C293.534 83.7865 292.24 83.118 293.102 84.455C293.965 85.7921 293.534 89.4689 293.534 89.4689C293.534 89.4689 291.377 83.118 283.611 84.7893L278.435 66.7393L276.709 58.0485Z" fill="#3F3D56"/>
<path d="M240.984 26.9482C238.265 30.6504 237.652 35.0356 237.277 39.2855C237.116 41.1082 236.995 42.9789 237.693 44.7241C238.428 46.5642 240.065 48.4339 239.226 50.2472C238.414 52.0009 235.699 52.7027 234.183 54.1489C232.898 55.3744 232.575 57.0535 232.686 58.6301C232.798 60.2067 233.291 61.7545 233.436 63.3294C233.735 66.789 232.357 70.2105 229.571 72.9242C236.069 72.7301 243.016 70.4976 245.756 65.9284C246.576 64.5624 246.974 63.0676 247.713 61.6745C248.55 60.0986 249.812 58.6722 250.604 57.0827C251.799 54.6843 251.863 52.0508 251.913 49.4802C251.943 47.9415 251.964 46.3617 251.276 44.9178C249.763 41.7394 245.059 39.6858 244.591 36.3175C244.511 35.9613 244.579 35.5945 244.786 35.2703C245.005 35.0335 245.271 34.8249 245.574 34.6522C248.512 32.6431 248.028 28.3896 251.525 27.02C253.094 26.4054 254.986 26.6216 256.671 27.0107C258.543 27.4427 260.41 28.1118 261.627 29.2946C264.079 31.6765 263.111 35.1171 262.353 38.1065C261.253 42.4426 260.863 46.8687 261.192 51.2803C261.214 51.9859 261.348 52.6868 261.592 53.3668C262.043 54.4701 263.003 55.3969 263.728 56.4087C265.205 58.4884 265.684 60.9062 265.081 63.2336C264.546 65.2591 263.216 67.4161 264.387 69.2742C264.902 69.9917 265.619 70.6099 266.486 71.0826C270.309 73.4044 275.162 74.843 278.005 77.895C278.494 75.4021 277.56 72.8934 276.871 70.429C276.182 67.9646 275.762 65.2817 277.179 63.0116C277.8 62.0157 278.751 61.1492 279.259 60.1154C280.432 57.7279 279.034 55.1092 278.184 52.6406C277.577 50.7021 277.139 48.7341 276.872 46.7501L275.996 41.3946C275.272 36.9673 274.514 32.4498 272.005 28.4328C267.276 20.8627 256.576 18.0511 246.995 22.2459C244.485 23.3684 242.409 24.9923 240.984 26.9482Z" fill="#FF6584"/>
<path d="M229.254 83.4522C229.254 83.4522 226.666 89.4689 229.686 89.4689C232.706 89.4689 238.314 85.792 238.745 82.7837C239.177 79.7754 246.942 68.4105 241.334 69.4133C235.725 70.4161 233.137 78.7726 233.137 78.7726L229.254 83.4522Z" fill="#FBBEBE"/>
<path d="M272.826 58.0485L258.59 93.8143L278.003 97.1569L292.239 62.3939L272.826 58.0485Z" fill="#63D096"/>
<path d="M290.945 83.7865L293.64 87.2763C293.64 87.2763 294.828 93.8143 288.788 93.8143C282.749 93.8143 274.12 87.4634 274.12 87.4634C274.12 87.4634 269.806 86.1263 267.218 86.4606C264.63 86.7948 250.393 86.4606 256.433 80.7782C262.473 75.0958 272.826 80.7782 272.826 80.7782L283.611 84.7893L289.22 82.4495L290.945 83.7865Z" fill="#FBBEBE"/>
<path d="M287.278 79.274L282.964 84.6222C282.964 84.6222 292.887 85.6249 293.749 87.2962C294.612 88.9675 289.867 78.6055 289.867 78.6055L287.278 79.274Z" fill="#3F3D56"/>
</svg>
