<svg width="512" height="512" viewBox="0 0 512 512" fill="none" xmlns="http://www.w3.org/2000/svg">
<path d="M490.305 34.712H160.542V242.983H490.305V34.712Z" fill="#87CED9"/>
<path d="M192.807 242.983H490.305V34.712H440.398L192.807 242.983Z" fill="#7DC6D1"/>
<path d="M422.99 87.04L388.278 78.362L384.061 95.197L400.315 99.258L334.449 145.364L296.136 114.713C293.099 112.292 288.829 112.179 285.67 114.435L224.924 157.825L235.008 171.935L290.417 132.363L328.678 162.979C331.689 165.391 335.933 165.53 339.092 163.309L412.204 112.126V130.167H429.56V95.458C429.559 91.474 426.852 88.003 422.99 87.04Z" fill="#88B337"/>
<path d="M446.915 364.475C466.085 364.475 481.627 380.017 481.627 399.187V416.543C481.627 435.713 466.085 451.255 446.915 451.255C427.745 451.255 412.203 435.713 412.203 416.543V399.187C412.203 380.017 427.746 364.475 446.915 364.475Z" fill="#FEC9A3"/>
<path d="M472.949 451.254H420.881C401.711 451.254 386.169 466.796 386.169 485.966V512H507.661V485.966C507.661 466.796 492.119 451.254 472.949 451.254Z" fill="white"/>
<path d="M325.424 364.475C344.594 364.475 360.136 380.017 360.136 399.187V416.543C360.136 435.713 344.594 451.255 325.424 451.255C306.254 451.255 290.712 435.713 290.712 416.543V399.187C290.712 380.017 306.254 364.475 325.424 364.475Z" fill="#FEC9A3"/>
<path d="M351.458 451.254H299.39C280.22 451.254 264.678 466.796 264.678 485.966V512H386.17V485.966C386.169 466.796 370.627 451.254 351.458 451.254Z" fill="white"/>
<path d="M203.932 364.475C223.102 364.475 238.644 380.017 238.644 399.187V416.543C238.644 435.713 223.102 451.255 203.932 451.255C184.762 451.255 169.22 435.713 169.22 416.543V399.187C169.22 380.017 184.763 364.475 203.932 364.475Z" fill="#FEC9A3"/>
<path d="M213.704 366.045C218.65 373.239 221.297 381.778 221.289 390.508V412.203C221.254 428.431 212.125 443.261 197.668 450.62C216.317 454.256 234.376 442.081 238.012 423.432C238.455 421.158 238.663 418.85 238.645 416.542V399.186C238.609 383.826 228.447 370.332 213.704 366.045Z" fill="#FABD91"/>
<path d="M335.195 366.045C340.141 373.239 342.788 381.778 342.78 390.508V412.203C342.745 428.431 333.616 443.261 319.159 450.62C337.808 454.256 355.867 442.081 359.503 423.432C359.946 421.158 360.154 418.85 360.137 416.542V399.186C360.101 383.826 349.939 370.332 335.195 366.045Z" fill="#FABD91"/>
<path d="M446.915 364.475C466.085 364.475 481.627 380.017 481.627 399.187V416.543C481.627 435.713 466.085 451.255 446.915 451.255C427.745 451.255 412.203 435.713 412.203 416.543V399.187C412.203 380.017 427.746 364.475 446.915 364.475Z" fill="#FEC9A3"/>
<path d="M456.687 366.045C461.633 373.239 464.28 381.778 464.272 390.508V412.203C464.237 428.431 455.108 443.261 440.651 450.62C459.3 454.256 477.359 442.081 480.995 423.432C481.438 421.158 481.646 418.85 481.629 416.542V399.186C481.592 383.826 471.431 370.332 456.687 366.045Z" fill="#FABD91"/>
<path d="M229.966 451.254H177.898C158.728 451.254 143.186 466.796 143.186 485.966V512H264.678V485.966C264.678 466.796 249.136 451.254 229.966 451.254Z" fill="white"/>
<path d="M390.474 322.23L334.102 290.018V242.983H316.746V290.018L260.374 322.23L268.982 337.295L316.746 310.003V338.441H334.102V310.003L381.865 337.295L390.474 322.23Z" fill="#3B86B8"/>
<path d="M507.661 0H143.186V34.712H507.661V0Z" fill="#88B337"/>
<path d="M507.661 234.305H143.186V251.661H507.661V234.305Z" fill="#88B337"/>
<path d="M73.763 86.78C92.933 86.78 108.475 102.322 108.475 121.492V138.848C108.475 158.018 92.933 173.56 73.763 173.56C54.593 173.56 39.051 158.018 39.051 138.848V121.492C39.051 102.322 54.593 86.78 73.763 86.78Z" fill="#FEC9A3"/>
<path d="M125.831 433.898H21.695L39.051 407.864V295.051H108.475V407.864L125.831 433.898Z" fill="white"/>
<path d="M82.441 321.085H65.085V433.899H82.441V321.085Z" fill="#3685BA"/>
<path d="M39.051 277.695H4.33899V312.407H39.051V277.695Z" fill="#FEC9A3"/>
<path d="M156.594 208.271L151.865 221.288L143.404 198.022C138.058 183.339 124.104 173.559 108.475 173.559H39.051C19.881 173.559 4.33899 189.101 4.33899 208.271V277.695H39.051V295.051H108.475V208.271L127.098 245.526C133.719 258.769 149.826 264.132 163.06 257.51C168.935 254.577 173.526 249.587 175.964 243.486L190.048 208.271H156.594V208.271Z" fill="#F0E4D6"/>
<path d="M203.932 173.559H169.22L156.594 208.271H190.047L203.932 173.559Z" fill="#FEC9A3"/>
<path d="M47.729 208.271H30.373V295.051H47.729V208.271Z" fill="#E0D2C1"/>
<path d="M82.441 173.559H65.085V269.017H82.441V173.559Z" fill="white"/>
<path d="M490.305 34.712H160.542V52.068H490.305V34.712Z" fill="#7DC6D1"/>
<path d="M264.678 485.966C264.652 470.398 254.221 456.765 239.208 452.66C222.277 477.123 200.01 497.412 174.089 512H264.678V485.966Z" fill="#3E8FC9"/>
<path d="M386.169 485.966C386.143 470.398 375.712 456.765 360.699 452.66C343.768 477.123 321.501 497.412 295.58 512H386.169V485.966V485.966Z" fill="#3E8FC9"/>
<path d="M507.661 485.966C507.635 470.398 497.204 456.765 482.191 452.66C465.26 477.123 442.993 497.412 417.072 512H507.661V485.966Z" fill="#3E8FC9"/>
<path d="M83.534 88.35C88.48 95.544 91.127 104.083 91.119 112.813V134.508C91.084 150.736 81.955 165.566 67.498 172.925C86.147 176.561 104.206 164.386 107.842 145.737C108.285 143.463 108.493 141.155 108.475 138.847V121.491C108.44 106.132 98.278 92.637 83.534 88.35Z" fill="#FABD91"/>
</svg>
