<svg width="279" height="165" viewBox="0 0 279 165" fill="none" xmlns="http://www.w3.org/2000/svg">
<g clip-path="url(#clip0)">
<path opacity="0.1" d="M272.216 95.65C272.216 95.7754 272.216 95.9007 272.216 96.024C272.185 98.1856 272.009 100.342 271.685 102.492C271.686 102.505 271.686 102.518 271.685 102.531C271.659 102.71 271.631 102.887 271.603 103.066C271.554 103.368 271.503 103.668 271.446 103.97C270.785 107.646 269.69 111.275 268.174 114.816C266.142 119.602 263.271 124.179 259.63 128.435C258.509 129.736 257.316 130.996 256.05 132.214C255.375 132.859 254.685 133.49 253.972 134.11C253.473 134.544 252.964 134.972 252.445 135.392L252.122 135.651C249.393 137.82 246.452 139.843 243.322 141.704C238.213 144.77 232.711 147.437 227.122 149.911C226.804 150.053 226.484 150.193 226.163 150.322C226.14 150.334 226.117 150.344 226.092 150.353C218.496 153.677 210.619 156.677 202.503 159.079C193.619 161.715 184.444 163.632 175.032 164.471C161.912 165.638 148.633 164.689 135.593 163.057C124.747 161.708 114.033 159.855 103.517 157.509L101.785 157.117C100.888 156.91 99.9923 156.699 99.0972 156.484C93.6907 155.19 88.3447 153.751 83.0593 152.169C69.7847 148.212 57.1034 143.283 45.2127 137.459C43.6988 136.722 42.2066 135.969 40.7362 135.199C38.6811 134.128 36.6506 133.025 34.6447 131.891L33.4071 131.197C28.1576 128.221 23.2393 124.952 18.6976 121.418C12.589 116.606 7.36888 111.178 3.93705 104.981C3.39583 104.007 2.90003 103.014 2.44964 102.003L2.40706 101.903C2.17998 101.389 1.96992 100.875 1.7769 100.341C1.49304 99.5766 1.2442 98.8027 1.03036 98.0191C0.984941 97.8691 0.945201 97.7191 0.9083 97.5671C0.22985 94.9302 -0.0697959 92.2496 0.0141509 89.5681C0.0851449 87.2186 0.46534 84.8793 1.14958 82.582C1.84991 80.2006 2.92915 77.8859 4.36568 75.6843C5.66387 73.7047 7.31794 71.8579 9.28491 70.1921C10.6671 69.0274 12.2215 67.976 13.9203 67.0566C17.0001 65.3964 20.4149 64.2396 23.9546 63.3252C25.618 62.8937 27.3041 62.5157 28.9988 62.1643C30.1995 61.9136 31.4059 61.6753 32.6066 61.441L36.1491 60.7486C38.42 60.3007 40.6908 59.8404 42.9276 59.3432C49.0249 57.9953 55 56.3638 60.5267 53.931C61.401 53.5468 62.2923 53.1256 63.1836 52.6736C64.3191 52.1024 65.4375 51.4818 66.5445 50.812C67.6629 50.1339 68.7586 49.4086 69.8032 48.6401C69.965 48.521 70.1239 48.4018 70.2829 48.2806C71.1345 47.6313 71.9605 46.9512 72.7269 46.2443C73.1016 45.8992 73.4649 45.5478 73.8112 45.1903C74.2909 44.6951 74.7451 44.1917 75.1652 43.6739C77.2714 41.085 78.5715 38.2289 78.4182 35.2187C78.3958 34.7228 78.3342 34.2281 78.2337 33.7373C77.8647 31.923 77.5099 30.1518 77.2487 28.4197C76.1531 21.2549 76.6157 14.7579 84.0443 8.65329C93.281 1.06522 107.778 -0.481984 120.974 0.124158C159.127 1.87067 193.86 17.6386 224.383 36.4105C227.023 38.0323 229.631 39.6761 232.206 41.3418C232.855 41.761 233.505 42.1829 234.156 42.6075C238.982 45.7533 243.734 49.0162 248.159 52.5112C248.517 52.7948 248.874 53.0783 249.226 53.364C249.442 53.5407 249.66 53.7153 249.873 53.8941C251.253 55.0242 252.592 56.1817 253.89 57.3665C257.367 60.5121 260.439 63.8823 263.064 67.4347C267.085 73.0095 269.807 79.0264 271.12 85.2429C271.614 87.5004 271.939 89.7755 272.094 92.0584C272.142 92.7303 272.173 93.4042 272.19 94.0761C272.19 94.2919 272.19 94.5056 272.19 94.7213C272.219 95.0336 272.219 95.3377 272.216 95.65Z" fill="#63D096"/>
<path d="M111.834 92.2034L107.292 150.72L111.834 150.763L115.524 91.3815L111.834 92.2034Z" fill="#3F3D56"/>
<path d="M95.0863 121.851H38.8827V130.686H95.0863V121.851Z" fill="#63D096"/>
<path d="M98.7765 129.657V135.205H40.7193C38.6641 134.133 36.6336 133.031 34.6277 131.896V129.657H98.7765Z" fill="#3F3D56"/>
<path d="M110.369 117.031C110.21 117.563 110.003 118.089 109.784 118.613C109.14 120.127 108.365 121.621 108.215 123.195C108.013 125.274 108.782 127.692 106.795 129.203C106.284 129.593 105.617 129.885 105.16 130.302C105.09 130.367 105.026 130.436 104.967 130.507C104.559 130.996 104.51 131.592 104.505 132.151C104.509 133.343 104.617 134.534 104.825 135.716C105.498 139.785 106.827 143.861 105.081 147.701C104.765 148.367 104.396 149.02 103.977 149.655C103.125 151.011 102.197 152.349 101.919 153.818C101.714 154.907 101.777 156.029 101.765 157.137C100.869 156.93 99.9725 156.719 99.0774 156.504C93.6708 155.209 88.3249 153.771 83.0395 152.189C83.0536 152.133 83.0678 152.076 83.0792 152.02C83.4851 150.192 82.9288 148.322 82.2532 146.538C80.8339 142.76 78.8242 139.018 77.6348 135.213C77.1558 133.726 76.8417 132.215 76.6953 130.692C76.6612 130.351 76.6413 130.008 76.6385 129.665C76.6243 129.217 76.6385 128.769 76.664 128.317C76.7236 127.415 76.7776 126.345 75.7812 125.796C75.2334 125.498 74.5096 125.447 73.8709 125.266C72.6389 124.919 71.7959 124.113 70.8194 123.468C70.3536 123.141 69.7849 122.901 69.1623 122.768C68.5397 122.636 67.8819 122.615 67.2457 122.708C60.8646 123.766 56.1752 127.684 50.237 129.665C50.007 129.743 49.7771 129.817 49.5444 129.887C48.7762 130.091 48.0451 130.361 47.3672 130.692C46.8908 130.932 46.5453 131.284 46.3907 131.689C46.2403 132.125 46.3708 132.581 46.4446 133.029C46.5641 133.757 46.521 134.494 46.3169 135.213C46.2399 135.491 46.1385 135.766 46.0132 136.035C45.7861 136.522 45.4824 136.998 45.1928 137.473C43.6789 136.736 42.1868 135.983 40.7164 135.213C38.6613 134.142 36.6308 133.039 34.6248 131.905L33.4071 131.196C28.1576 128.22 23.2393 124.951 18.6976 121.417C19.3022 120.185 20.1765 119.038 20.5966 117.774C20.8351 117.049 20.9231 116.295 21.2523 115.59C21.6321 114.86 22.1602 114.174 22.8192 113.556C25.233 111.119 28.1804 108.985 31.545 107.236C35.062 105.411 39.124 103.948 42.289 101.877C43.5734 101.063 44.6806 100.113 45.5732 99.06C45.6271 98.9963 45.6782 98.9285 45.7236 98.8545C45.9707 98.4826 46.1418 98.0867 46.2317 97.6792C46.4588 96.7587 46.4248 95.7478 46.5383 94.8643C50.3939 95.3474 54.3245 95.4332 58.2133 95.1191C62.7409 94.7513 67.169 93.841 71.6965 93.4876C72.0372 93.4588 72.3806 93.4362 72.7241 93.4157C74.1746 93.3314 75.6279 93.313 77.0841 93.3253C78.3019 93.3253 79.5196 93.3643 80.7374 93.3931L94.1439 93.7218C95.6285 93.7588 97.1443 93.7999 98.5267 94.1924C100.167 94.6588 101.482 95.5875 102.535 96.6087C102.668 96.7402 102.802 96.8717 102.926 97.0073C103.793 97.9224 104.488 98.9166 104.993 99.9641C105.047 100.071 105.098 100.17 105.146 100.287C105.274 100.572 105.385 100.86 105.484 101.152C105.561 101.38 105.629 101.608 105.691 101.838C106.003 102.976 106.188 104.139 106.682 105.239C106.716 105.319 106.753 105.399 106.793 105.477C107.386 106.681 108.371 107.76 109.115 108.916C109.651 109.754 110.06 110.631 110.335 111.532C110.891 113.342 110.903 115.217 110.369 117.031Z" fill="#35323E"/>
<path d="M69.6187 43.4984C68.4208 42.808 66.6836 43.3134 65.2813 43.7593C64.1057 44.1352 62.8954 44.4517 61.6593 44.7065C61.4064 44.777 61.1321 44.7976 60.8645 44.7661C60.2968 44.6675 60.0584 44.1805 59.6354 43.8847C58.9003 43.373 57.6967 43.4943 56.7486 43.7716C55.8005 44.049 54.8638 44.4497 53.8476 44.3881C52.7633 44.3264 51.8209 43.747 50.7252 43.7285C48.795 43.6956 47.1741 45.4175 45.3489 44.9613C44.2362 44.6839 43.3619 43.636 42.2662 43.934C41.4147 44.1682 41.338 45.0209 40.8243 45.5777C40.2196 46.227 39.0416 46.4099 38.0339 46.6976C34.8576 47.6057 32.7542 50.168 33.1686 52.6213C33.3986 53.9754 34.3041 55.2164 34.903 56.5088C36.6799 60.2669 36.0697 64.5058 38.3093 68.1303C38.5931 67.9372 38.7521 67.8653 39.0274 67.6742C38.3193 68.7373 38.1827 69.953 38.6442 71.085C38.8798 71.6542 39.263 72.1843 39.5526 72.7411C39.8533 73.3656 40.0961 74.004 40.2792 74.652L42.7488 82.538C43.7139 85.6201 44.6819 88.7022 44.8493 91.8582C44.9536 93.9104 44.7365 95.9645 44.2021 97.9813C48.6757 97.445 52.7689 96.0087 57.3021 96.0272C58.9655 96.0272 60.6147 96.2327 62.264 96.3971C67.0723 96.8841 71.9224 97.1224 76.7775 97.1101C77.5327 97.1412 78.2889 97.0644 79.003 96.8841C79.6275 96.6909 80.1384 96.3478 80.7288 96.0991C81.8841 95.606 83.2836 95.4827 84.6148 95.4827C90.6865 95.4026 96.5368 97.0114 102.569 97.5785C104.95 93.9602 105.092 89.6247 103.264 85.842C102.722 84.7181 101.993 83.6229 101.777 82.4414C101.69 81.7152 101.667 80.9856 101.709 80.2573C101.699 78.3926 101.235 76.5437 100.338 74.7958C99.9857 74.1116 99.5627 73.4151 99.5996 72.6856C99.6365 71.9562 100.133 71.2761 100.622 70.6309C101.612 69.3159 102.609 67.9886 104.008 66.879C105.441 65.7325 107.235 64.8592 109.009 64.0024L113.389 61.8737C112.79 59.1348 112.018 56.2499 110.415 53.7309C108.811 51.2118 106.412 48.8961 103.168 47.4229C102.074 46.9465 100.929 46.5343 99.7444 46.19C98.0867 45.6846 96.3608 45.2387 94.564 45.1627C92.5202 45.0784 90.5077 45.475 88.4895 45.7216C82.1368 46.4962 74.66 46.4017 69.6187 43.4984Z" fill="#63D096"/>
<path d="M117.511 91.0281L115.427 92.9328L111.499 96.5224L106.957 100.671L105.688 101.83H103.227L42.2861 101.881L4.12158 101.912H2.41844C2.19136 101.398 1.9813 100.885 1.78828 100.35C1.50442 99.586 1.25557 98.8121 1.04174 98.0285C0.996319 97.8785 0.956579 97.7285 0.919678 97.5765L14.7662 91.024L19.9721 91.0034L35.8965 90.9377L44.7897 90.9007H46.4134H47.4324L53.3594 90.8781L98.5323 90.6911L100.843 90.6808H101.845L104.499 90.6706L114.374 90.6295L116.271 90.1076L116.41 90.2144L117.511 91.0281Z" fill="#3F3D56"/>
<path d="M116.659 90.0007L116.424 90.2062L114.874 91.5274L111.683 94.254L104.993 99.9641L45.7235 98.8689L1.0303 98.047C0.98488 97.897 0.94514 97.747 0.908239 97.595C0.229789 94.9581 -0.0698569 92.2775 0.0140899 89.596L4.97023 87.7591L6.10566 87.3358L14.9421 84.0482L22.6971 81.1716L42.9247 83.0743L47.404 83.4955L49.4307 83.6845L52.397 83.964L52.6468 83.9886L99.1624 88.3549L104.303 88.8378L107.32 89.1213L116.62 89.9966L116.659 90.0007Z" fill="#504F60"/>
<path d="M107.008 99.8634L106.96 100.671L106.676 105.23L105.149 130.298L104.825 135.716L103.974 149.655L103.494 157.529L101.763 157.137C100.866 156.93 99.9696 156.719 99.0745 156.504L103.227 101.848L103.315 100.702L105.143 100.291L107.008 99.8634Z" fill="#3F3D56"/>
<path d="M4.25221 99.8038L4.12447 101.914L3.93713 104.996C3.39591 104.022 2.9001 103.03 2.44972 102.019L2.40714 101.918C2.18005 101.404 1.97 100.891 1.77698 100.357L4.25221 99.8038Z" fill="#3F3D56"/>
<path d="M78.4807 68.7365C85.6921 68.7365 91.5381 63.0329 91.5381 55.9972C91.5381 48.9615 85.6921 43.258 78.4807 43.258C71.2693 43.258 65.4233 48.9615 65.4233 55.9972C65.4233 63.0329 71.2693 68.7365 78.4807 68.7365Z" fill="#A1616A"/>
<path opacity="0.1" d="M78.4807 68.7365C85.6921 68.7365 91.5381 63.0329 91.5381 55.9972C91.5381 48.9615 85.6921 43.258 78.4807 43.258C71.2693 43.258 65.4233 48.9615 65.4233 55.9972C65.4233 63.0329 71.2693 68.7365 78.4807 68.7365Z" fill="black"/>
<path d="M80.3258 61.4422C90.359 61.4422 98.4926 55.5547 98.4926 48.292C98.4926 41.0294 90.359 35.1418 80.3258 35.1418C70.2925 35.1418 62.1589 41.0294 62.1589 48.292C62.1589 55.5547 70.2925 61.4422 80.3258 61.4422Z" fill="#A1616A"/>
<path d="M80.6863 28.0243C79.5772 28.0883 78.4758 28.2098 77.3908 28.388C74.5181 28.8934 72.0344 30.0153 69.6159 31.1166C68.5316 31.6118 67.416 32.1276 66.7433 32.8549C65.534 34.1597 66.0024 35.8199 65.324 37.2685C64.972 38.0123 64.3248 38.6801 63.777 39.3725C62.2697 41.2711 61.4806 43.3566 60.7056 45.4216C60.5467 45.849 60.5013 46.4284 61.1456 46.5928C61.5167 46.6486 61.9026 46.6169 62.247 46.5024C64.2822 46.0154 66.8682 45.8757 68.3783 46.864C69.8884 47.8523 69.7607 49.605 71.5575 50.357C73.6155 51.2262 76.8287 50.1762 78.6965 51.2015C79.497 51.6412 79.7865 52.346 80.4422 52.8761C81.9694 54.1089 84.9073 54.0493 87.3513 53.8007C88.7535 53.6569 90.4737 53.5603 91.3253 54.2733C91.734 54.6103 91.8504 55.0726 92.3245 55.3767C93.176 55.9274 94.7344 55.6479 95.5661 55.0829C96.3978 54.5178 96.7952 53.7535 97.4878 53.1186C98.8361 51.8857 101.206 51.2138 102.597 49.9954C103.761 48.968 104.113 47.6818 104.431 46.4407L105.615 41.8402C106.094 39.9745 106.531 37.9363 105.081 36.2925C104.564 35.7007 103.824 35.1911 103.378 34.5788C103.08 34.1679 102.912 33.7344 102.566 33.346C102.155 32.9415 101.665 32.5828 101.11 32.2817L98.3082 30.603C97.3503 29.996 96.326 29.4463 95.2453 28.9592C91.2458 27.2723 85.2564 27.7161 80.6863 28.0243Z" fill="#464353"/>
<path d="M20.8493 61.8984C20.1766 62.4162 19.5549 62.975 18.8339 63.46C18.1997 63.8682 17.5364 64.2523 16.8469 64.6106C15.7342 65.2133 14.6461 65.8373 13.5826 66.4824C12.473 67.1175 11.469 67.8435 10.5907 68.6461C9.07491 70.1193 8.35676 71.9521 6.93747 73.4746C5.68283 74.8246 3.9144 75.891 2.63988 77.2307C2.08075 77.7939 1.66544 78.4251 1.41362 79.0943C1.22565 79.742 1.14089 80.4031 1.16099 81.0648C1.13544 82.1497 1.11273 83.2469 1.4193 84.3092C1.72586 85.3715 2.3986 86.4153 3.55106 87.1118C4.6212 87.7591 6.00358 88.057 7.35758 88.3036C8.05587 88.4289 8.81093 88.546 9.47515 88.3467C9.96119 88.169 10.3831 87.9115 10.7071 87.5947L14.1616 84.7181C16.4722 82.7866 18.8737 80.8141 22.0443 79.684C23.0378 79.3326 24.0853 79.0676 25.0816 78.7265C29.3054 77.2533 32.2916 74.237 33.4497 70.9494C33.7336 70.146 33.9152 69.3262 34.0997 68.5063L34.5993 66.2585C34.6377 66.1458 34.6377 66.028 34.5993 65.9153C34.5211 65.7886 34.3952 65.6804 34.236 65.603C31.8298 64.1964 29.5768 62.6577 27.4972 61.0005C27.0033 60.606 26.5406 60.0656 25.9701 59.7348C25.2548 59.3238 25.3087 59.3546 24.4486 59.7348C23.1255 60.3411 21.9158 61.0683 20.8493 61.8984Z" fill="#A1616A"/>
<path d="M44.4804 76.8567C44.4517 76.809 44.4099 76.766 44.3577 76.7302C44.3054 76.6945 44.2437 76.6667 44.1762 76.6487C44.1088 76.6306 44.037 76.6226 43.9651 76.6252C43.8933 76.6277 43.8229 76.6407 43.7582 76.6635C43.6935 76.6862 43.6358 76.7182 43.5886 76.7574C43.5414 76.7967 43.5057 76.8425 43.4835 76.892C43.4613 76.9415 43.4532 76.9938 43.4597 77.0456C43.4661 77.0975 43.487 77.1478 43.521 77.1937L43.2371 77.2944L51.7017 89.8528L53.2317 89.3124L44.7671 76.7458L44.4804 76.8567Z" fill="#3F3D56"/>
<path opacity="0.04" d="M20.8493 61.8984C20.1766 62.4162 19.5549 62.975 18.8339 63.46C18.1997 63.8682 17.5364 64.2523 16.8469 64.6106C15.7342 65.2133 14.6461 65.8373 13.5826 66.4824C12.473 67.1175 11.469 67.8435 10.5907 68.6461C9.07491 70.1193 8.35676 71.9521 6.93747 73.4746C5.68283 74.8246 3.9144 75.891 2.63988 77.2307C2.08075 77.7939 1.66544 78.4251 1.41362 79.0943C1.22565 79.742 1.14089 80.4031 1.16099 81.0648C1.13544 82.1497 1.11273 83.2469 1.4193 84.3092C1.72586 85.3715 2.3986 86.4153 3.55106 87.1118C4.6212 87.7591 6.00358 88.057 7.35758 88.3036C8.05587 88.4289 8.81093 88.546 9.47515 88.3467C9.96119 88.169 10.3831 87.9115 10.7071 87.5947L14.1616 84.7181C16.4722 82.7866 18.8737 80.8141 22.0443 79.684C23.0378 79.3326 24.0853 79.0676 25.0816 78.7265C29.3054 77.2533 32.2916 74.237 33.4497 70.9494C33.7336 70.146 33.9152 69.3262 34.0997 68.5063L34.5993 66.2585C34.6377 66.1458 34.6377 66.028 34.5993 65.9153C34.5211 65.7886 34.3952 65.6804 34.236 65.603C31.8298 64.1964 29.5768 62.6577 27.4972 61.0005C27.0033 60.606 26.5406 60.0656 25.9701 59.7348C25.2548 59.3238 25.3087 59.3546 24.4486 59.7348C23.1255 60.3411 21.9158 61.0683 20.8493 61.8984Z" fill="black"/>
<path d="M118.706 85.0427C118.678 86.3536 118.607 87.7036 117.854 88.8994C117.531 89.4172 117.028 89.9268 116.276 90.0973C115.821 90.1734 115.35 90.186 114.888 90.1343C109.319 89.78 103.708 90.1022 98.2854 91.0877C99.7331 88.9919 98.9014 86.479 99.3016 84.153C99.4123 83.5181 99.6138 82.8935 99.6905 82.2565C99.9743 79.9963 98.6374 77.8019 98.0242 75.5705C97.492 73.6389 97.492 71.6502 98.0242 69.7186C98.1287 69.2214 98.3648 68.7435 98.7197 68.3111C99.1355 67.8905 99.6819 67.5463 100.315 67.3064C102.614 66.3592 105.325 66.2503 107.908 66.3756C109.648 66.4598 113.137 66.3407 114.587 67.1153C116.174 67.9639 116.676 70.8138 117.105 72.1309C117.747 74.1508 118.183 76.2022 118.411 78.2683C118.689 80.5203 118.749 82.7825 118.706 85.0427Z" fill="#A1616A"/>
<path d="M17.0258 89.5919L27.2446 94.5232L73.2294 93.2903L42.8567 89.5919H17.0258Z" fill="white"/>
<path d="M30.5005 50.4104C28.8229 51.481 27.4007 52.7426 25.8111 53.8829C23.6311 55.4486 21.1531 56.7801 18.6863 58.1054C19.5708 58.2843 20.3758 58.6264 21.0227 59.0983C21.6696 59.5701 22.1361 60.1555 22.3765 60.797C22.4843 61.0991 22.5383 61.4135 22.6603 61.7093C22.9442 62.41 23.5687 63.0141 24.2386 63.5586C27.1169 65.9071 31.1448 67.6454 32.8423 70.5446C32.8977 70.6857 33.0178 70.8089 33.1829 70.8939C33.321 70.9382 33.4744 70.9511 33.6229 70.9309C35.1585 70.8138 36.3337 69.9179 37.313 69.0467C39.3568 67.1975 41.1309 65.1551 42.1386 62.899C43.1463 60.6429 43.3081 58.1485 42.2096 55.913C41.6617 54.7993 40.8158 53.7761 39.9756 52.7631C39.2395 51.8768 38.5052 50.9919 37.7729 50.1084C37.3897 49.642 36.9014 48.6948 36.1492 48.4646C34.5255 47.9592 31.5422 49.6564 30.5005 50.4104Z" fill="#63D096"/>
<path d="M114.108 63.6901L116.523 67.7995C113.894 67.1344 111.083 66.9319 108.324 67.2088C105.565 67.4857 102.936 68.234 100.656 69.3919C99.2789 70.1049 98.0157 71.0008 97.3941 72.1391C97.0872 72.1813 96.7702 72.1599 96.4794 72.0774C96.1886 71.9949 95.936 71.8546 95.7505 71.6726C95.3872 71.3037 95.1765 70.8676 95.1431 70.4152C94.9188 68.8371 95.7449 67.2899 96.5624 65.8146C96.9427 65.1243 97.3345 64.4195 98.01 63.8586C98.6856 63.2976 99.5826 62.9278 100.48 62.5785C103.341 61.4329 106.338 60.4743 109.435 59.7142C110.741 59.408 112.109 59.4142 112.842 60.2977C113.69 61.3518 113.443 62.5682 114.108 63.6901Z" fill="#63D096"/>
<path d="M17.0853 76.0205C17.6899 76.3698 18.2207 76.7827 18.8424 77.1156C19.4998 77.446 20.1994 77.7302 20.9316 77.9642L23.7304 78.9382C24.5977 79.2645 25.5053 79.5314 26.4412 79.7354C27.6391 79.9676 28.8966 79.9902 30.1002 80.2059C31.6188 80.4771 33.0068 81.0422 34.5028 81.3689C35.9987 81.6956 37.7501 81.749 38.9991 81.0689C39.7797 80.6436 40.3701 79.9409 41.338 79.8361C41.9625 79.7765 42.5643 79.9943 43.1207 80.2059L50.4044 82.9777C51.3866 83.3517 52.4255 83.7667 52.9393 84.4797C53.453 85.1927 53.1067 86.2755 52.0252 86.4605C51.6483 86.4918 51.2692 86.5076 50.8898 86.5077C50.5151 86.5406 50.1064 86.7009 50.0553 86.9741C50.0534 87.1439 50.1152 87.3107 50.2341 87.457C50.5605 87.9995 50.6571 88.6487 50.2767 89.1747C49.8963 89.7008 48.9624 90.0275 48.2159 89.7912C48.3436 90.5863 47.1486 91.1432 46.0841 91.3548C43.3988 91.887 40.5518 91.5603 37.8069 91.2233C36.7282 91.0918 35.6325 90.9562 34.6504 90.6069C34.1792 90.4405 33.742 90.2268 33.2652 90.0727C31.9566 89.6514 30.4692 89.7069 29.0385 89.7254C22.4218 89.8097 15.8619 88.922 9.3559 88.0385C8.14951 87.8741 6.90906 87.6995 5.87866 87.2166C3.89166 86.2797 3.15363 84.3564 3.48007 82.6551C3.8065 80.9538 4.9987 79.4128 6.17103 77.917L7.68966 75.9794C7.88818 75.6825 8.16605 75.4172 8.50717 75.1986C10.7411 73.9637 15.1721 74.9068 17.0853 76.0205Z" fill="#A1616A"/>
<path opacity="0.04" d="M17.0853 76.0205C17.6899 76.3698 18.2207 76.7827 18.8424 77.1156C19.4998 77.446 20.1994 77.7302 20.9316 77.9642L23.7304 78.9382C24.5977 79.2645 25.5053 79.5314 26.4412 79.7354C27.6391 79.9676 28.8966 79.9902 30.1002 80.2059C31.6188 80.4771 33.0068 81.0422 34.5028 81.3689C35.9987 81.6956 37.7501 81.749 38.9991 81.0689C39.7797 80.6436 40.3701 79.9409 41.338 79.8361C41.9625 79.7765 42.5643 79.9943 43.1207 80.2059L50.4044 82.9777C51.3866 83.3517 52.4255 83.7667 52.9393 84.4797C53.453 85.1927 53.1067 86.2755 52.0252 86.4605C51.6483 86.4918 51.2692 86.5076 50.8898 86.5077C50.5151 86.5406 50.1064 86.7009 50.0553 86.9741C50.0534 87.1439 50.1152 87.3107 50.2341 87.457C50.5605 87.9995 50.6571 88.6487 50.2767 89.1747C49.8963 89.7008 48.9624 90.0275 48.2159 89.7912C48.3436 90.5863 47.1486 91.1432 46.0841 91.3548C43.3988 91.887 40.5518 91.5603 37.8069 91.2233C36.7282 91.0918 35.6325 90.9562 34.6504 90.6069C34.1792 90.4405 33.742 90.2268 33.2652 90.0727C31.9566 89.6514 30.4692 89.7069 29.0385 89.7254C22.4218 89.8097 15.8619 88.922 9.3559 88.0385C8.14951 87.8741 6.90906 87.6995 5.87866 87.2166C3.89166 86.2797 3.15363 84.3564 3.48007 82.6551C3.8065 80.9538 4.9987 79.4128 6.17103 77.917L7.68966 75.9794C7.88818 75.6825 8.16605 75.4172 8.50717 75.1986C10.7411 73.9637 15.1721 74.9068 17.0853 76.0205Z" fill="black"/>
<path d="M103.735 79.571C102.257 80.0765 100.559 80.1258 99.0149 80.5141C97.4708 80.9025 96.1594 81.6011 94.7429 82.1702C91.0528 83.6619 86.7949 84.2249 82.6137 84.7612C80.0789 85.09 77.5043 85.4187 74.9496 85.3406C71.4922 85.2338 68.1711 84.3996 64.8216 83.7708C61.472 83.1421 57.8983 82.7188 54.58 83.4257C52.8472 83.8076 51.2632 84.4797 49.9562 85.3875C48.6493 86.2953 47.6563 87.4133 47.0578 88.6508C46.3623 90.1281 46.2658 91.7205 46.3993 93.278C47.0975 93.6499 48.074 93.1342 48.4544 92.5691C48.8347 92.0041 49.042 91.3117 49.78 90.9829C51.0602 91.2973 51.3724 92.5322 52.4284 93.1424C53.0869 93.5246 53.9669 93.6253 54.8043 93.7116L59.1189 94.1554C60.1578 94.2622 61.3642 94.3341 62.1164 93.804C62.4826 93.5472 62.6841 93.1876 63.0191 92.9123C63.706 92.3616 64.8528 92.2671 65.8747 92.3411C69.0652 92.5712 72.0571 94.0691 75.2249 93.7136C76.3149 93.5924 77.3283 93.2554 78.3672 92.9904C84.5241 91.4164 91.365 92.3739 97.7717 91.4719C100.216 91.1288 102.569 90.5206 104.894 89.8795C106.157 89.5323 107.434 89.1686 108.513 88.5809C109.535 88.0122 110.341 87.265 110.855 86.4094C111.369 85.5537 111.575 84.6176 111.454 83.6887C111.216 82.2729 110.24 80.9764 108.726 80.0641C108.226 79.7559 107.57 79.1662 106.971 78.9731C105.828 78.6094 104.706 79.2402 103.735 79.571Z" fill="#A1616A"/>
<g opacity="0.1">
<path opacity="0.1" d="M95.4411 53.322C94.9671 53.0179 94.8507 52.5556 94.4419 52.2186C93.5904 51.5056 91.8702 51.6022 90.468 51.746C88.0239 51.9946 85.0747 52.0522 83.5589 50.8214C82.9032 50.2913 82.6136 49.5886 81.8132 49.1468C79.9454 48.1194 76.7321 49.1715 74.6742 48.3023C72.8773 47.5441 72.9937 45.7853 71.495 44.8093C69.9962 43.8333 67.3989 43.9607 65.3636 44.4477C65.0193 44.5622 64.6333 44.5939 64.2623 44.5381C63.6179 44.3737 63.6633 43.7943 63.8223 43.3669C64.5972 41.3019 65.3864 39.2163 66.8936 37.3178C67.4415 36.6253 68.0887 35.9576 68.4407 35.2138C69.0566 33.9111 68.7415 32.4378 69.5505 31.205C68.6819 31.6159 67.8474 32.0639 67.3109 32.6433C66.1017 33.9481 66.57 35.6083 65.8916 37.0568C65.5396 37.8006 64.8924 38.4684 64.3446 39.1609C62.8373 41.0594 62.0482 43.145 61.2733 45.21C61.1143 45.6373 61.0689 46.2168 61.7132 46.3812C62.0843 46.4369 62.4703 46.4053 62.8146 46.2907C64.8499 45.8038 67.4358 45.6641 68.9459 46.6524C70.456 47.6407 70.3283 49.3934 72.1251 50.1454C74.1831 51.0145 77.3963 49.9646 79.2641 50.9899C80.0646 51.4296 80.3541 52.1344 81.0098 52.6645C82.537 53.8973 85.4749 53.8377 87.9189 53.5891C89.3212 53.4453 91.0413 53.3487 91.8929 54.0617C92.3017 54.3987 92.418 54.861 92.8921 55.1651C93.7437 55.7157 95.302 55.4363 96.1337 54.8713C96.667 54.4693 97.1234 54.0173 97.4906 53.5275C96.7525 53.6898 95.9663 53.6651 95.4411 53.322Z" fill="black"/>
<path opacity="0.1" d="M100.613 51.0618C100.43 51.2323 100.261 51.4099 100.105 51.594C101.195 51.031 102.35 50.505 103.165 49.7879C103.376 49.6023 103.566 49.4044 103.733 49.1961C102.6 49.7838 101.419 50.3241 100.613 51.0618Z" fill="black"/>
</g>
<path d="M157.961 91.7493L158.812 150.72L162.786 150.309L161.935 91.7493H157.961Z" fill="#3F3D56"/>
<path d="M181.805 102.434L182.656 161.404L186.63 160.993L185.779 102.434H181.805Z" fill="#3F3D56"/>
<path d="M256.042 132.223L256.025 131.091V130.417L255.874 120.045L255.638 103.829L255.599 102.43H251.625L251.645 103.778L251.77 112.463L251.823 116.223L251.869 119.268L251.943 124.532L251.988 127.637V127.966L252.048 132.046L252.099 135.644L252.422 135.385C252.943 134.965 253.452 134.537 253.95 134.103L256.042 132.223Z" fill="#3F3D56"/>
<path d="M177.405 111.988L175.134 114.446L177.405 125.642L196.707 129.466H227.931L246.666 130.286L255.59 125.864L254.046 118.27L247.234 111.988H177.405Z" fill="#63D096"/>
<path d="M175.134 114.446L173.999 121.272C173.999 121.272 168.038 134.654 216.009 133.834C263.981 133.014 255.749 130.283 255.749 130.283L255.465 122.365C255.465 122.365 257.137 126.112 232.757 125.605C208.376 125.097 185.637 123.458 185.637 123.458C185.637 123.458 177.121 124.549 175.134 114.446Z" fill="#3F3D56"/>
<path d="M215.101 53.2645C212.365 54.1665 210.292 55.915 208.904 57.8485C207.516 59.782 206.736 61.9045 205.966 64.0127C205.155 66.2359 204.34 68.4653 203.92 70.7439C203.17 74.7958 203.732 79.0553 206.304 82.6942C208.876 86.3331 213.628 89.2693 219.191 89.9699C221.34 90.2432 223.549 90.1877 225.72 90.0254C229.645 89.7246 233.511 89.1077 237.247 88.1864C241.151 87.231 245.213 85.7598 246.95 83.0496C247.957 81.4778 248.043 79.6861 247.994 77.956C247.86 73.2406 246.877 68.5581 245.068 64.0271C244.543 62.712 243.932 61.3867 242.82 60.2793C241.707 59.1718 240.185 58.3601 238.633 57.6081C231.993 54.3719 223.268 50.5769 215.101 53.2645Z" fill="#FBBEBE"/>
<path opacity="0.05" d="M215.101 53.2645C212.365 54.1665 210.292 55.915 208.904 57.8485C207.516 59.782 206.736 61.9045 205.966 64.0127C205.155 66.2359 204.34 68.4653 203.92 70.7439C203.17 74.7958 203.732 79.0553 206.304 82.6942C208.876 86.3331 213.628 89.2693 219.191 89.9699C221.34 90.2432 223.549 90.1877 225.72 90.0254C229.645 89.7246 233.511 89.1077 237.247 88.1864C241.151 87.231 245.213 85.7598 246.95 83.0496C247.957 81.4778 248.043 79.6861 247.994 77.956C247.86 73.2406 246.877 68.5581 245.068 64.0271C244.543 62.712 243.932 61.3867 242.82 60.2793C241.707 59.1718 240.185 58.3601 238.633 57.6081C231.993 54.3719 223.268 50.5769 215.101 53.2645Z" fill="black"/>
<path d="M212.027 79.1272C212.819 79.9152 213.777 80.6086 214.865 81.1819C217.568 82.5339 221.036 82.7168 224.318 82.7907C226.952 82.8483 229.972 82.7394 231.624 81.2518C232.368 80.5819 232.703 79.7272 233.004 78.895C234.861 73.7851 236.18 68.5806 236.949 63.3264L244.466 63.3449C247.719 73.4274 247.452 83.9085 247.168 94.2622L246.757 109.36L241.914 108.988C230.415 108.107 218.899 107.225 207.337 107.073C200.563 106.983 193.787 107.145 187.036 107.558L197.581 84.8619C198.95 81.9113 200.332 78.9217 200.653 75.8211C201.115 71.3234 199.372 66.5749 201.788 62.4141C201.981 62.0792 202.225 61.7319 202.665 61.5573C203.105 61.3826 203.662 61.4258 204.167 61.473C205.121 61.5655 208.036 61.473 208.728 61.9148C209.75 62.5559 209.075 62.6525 208.714 63.686C208.07 65.5352 207.46 67.2468 207.468 69.1741C207.477 72.6733 208.975 76.3677 212.027 79.1272Z" fill="#63D096"/>
<path d="M256.042 132.223C257.308 131.007 258.501 129.747 259.621 128.445C259.053 127.565 258.429 126.706 257.932 125.808C257.172 124.432 256.734 122.973 256.303 121.524C256.155 121.031 256.009 120.538 255.863 120.045C254.273 114.68 252.78 109.239 252.471 103.8C252.442 103.348 252.424 102.896 252.417 102.444C252.417 102.378 252.417 102.315 252.417 102.239C252.417 101.743 252.417 101.248 252.417 100.755C252.451 99.5223 252.559 98.2792 252.755 97.0423C252.792 96.7998 252.834 96.5574 252.88 96.3149C252.88 96.2615 252.897 96.2101 252.908 96.1567L272.21 95.6471L273.834 95.604C274.949 95.5752 276.13 95.53 277.05 95.0718C278.597 94.3033 278.779 92.7274 278.753 91.3733C278.659 87.9509 278.123 84.5423 277.152 81.1922C276.42 78.6731 275.375 76.0985 273.031 74.163C271.106 72.5726 268.319 71.4158 267.317 69.4371C266.945 68.7015 266.851 67.894 266.368 67.1913C265.886 66.4886 265.088 65.9729 264.336 65.4304C261.689 63.5316 259.492 61.3294 257.836 58.9129C256.686 57.2362 255.44 55.387 253.938 54.2281C253.865 54.1685 253.791 54.113 253.714 54.0596C252.437 53.1453 250.975 52.7446 249.243 53.3672C248.932 53.4803 248.636 53.6137 248.358 53.7658C247.741 54.1071 247.176 54.4956 246.674 54.9247C244.925 56.3804 243.391 57.9643 242.096 59.6505C241.185 60.8377 240.403 62.0743 239.757 63.349C239.247 64.3561 238.825 65.3855 238.494 66.4311C238.25 67.2057 238.057 67.9886 237.903 68.7735C237.336 71.724 237.336 74.7321 237.415 77.7197C237.5 80.4648 237.668 83.2161 238.011 85.9509C238.096 86.6125 238.191 87.2735 238.295 87.9337C238.503 89.2391 238.761 90.5405 239.067 91.8377C239.189 92.3329 239.314 92.828 239.453 93.3212C239.487 93.4527 239.524 93.5842 239.561 93.7136L239.578 93.7691C239.953 94.9153 240.244 96.0751 240.45 97.2436C240.472 97.3902 240.489 97.5361 240.501 97.6813C240.548 98.3529 240.541 99.026 240.478 99.697C240.413 100.49 240.31 101.281 240.259 102.074C240.259 102.214 240.259 102.352 240.239 102.485C240.225 102.886 240.239 103.287 240.239 103.687C240.297 104.646 240.455 105.6 240.711 106.541C241.189 108.292 242.016 109.984 243.166 111.563C243.274 111.711 243.385 111.857 243.495 112.001C244.934 113.862 246.751 115.57 248.082 117.474C249.231 119.188 250.089 120.997 250.637 122.86C250.826 123.475 251.006 124.091 251.176 124.709C251.44 125.695 251.676 126.69 251.917 127.684C251.94 127.783 251.966 127.89 251.991 127.98C252.312 129.299 252.65 130.612 253.084 131.901C253.337 132.651 253.62 133.39 253.953 134.118L256.042 132.223Z" fill="#464353"/>
<path d="M252.249 116.028C252.249 116.213 252.232 116.398 252.221 116.585C252.17 117.486 252.056 118.385 251.877 119.278C251.642 120.497 251.23 121.695 250.648 122.852C250.263 123.612 249.772 124.342 249.184 125.032C248.662 125.644 248.051 126.213 247.361 126.731C245.658 128.013 243.206 128.422 240.833 128.962C239.741 129.191 238.686 129.503 237.685 129.893C237.506 129.965 237.33 130.043 237.159 130.125L234.19 131.549C233.265 131.991 232.32 132.449 231.684 133.105C231.58 133.216 231.485 133.332 231.4 133.452C230.998 134.055 230.704 134.693 230.526 135.35C228.982 140.006 227.435 144.667 226.376 149.392C226.305 149.705 226.237 150.019 226.163 150.333L226.137 150.432C226.124 150.409 226.109 150.386 226.092 150.364C218.496 153.689 210.619 156.689 202.503 159.091L200.741 148.406C200.557 147.538 200.496 146.658 200.559 145.78C200.726 144.397 201.504 143.086 201.714 141.708C201.913 140.358 201.561 138.996 200.701 137.789C200.366 137.321 199.946 136.861 199.869 136.337C199.793 135.813 200.21 135.334 200.936 135.281C201.504 134.824 201.55 134.202 201.382 133.585C201.293 133.264 201.16 132.949 200.985 132.646C200.502 131.788 199.892 130.853 200.306 129.975C200.416 129.816 200.465 129.639 200.448 129.462C200.451 129.451 200.451 129.44 200.448 129.429C200.352 129.199 199.974 129.098 199.778 128.903C199.409 128.539 199.778 128.044 200.005 127.625C200.226 127.174 200.354 126.703 200.386 126.225C200.417 125.96 200.44 125.693 200.479 125.43C200.535 125.074 200.623 124.721 200.743 124.374C201.433 122.406 203.091 120.687 205.407 119.541C206.511 119.003 207.741 118.611 208.867 118.103C210.022 117.54 211.124 116.922 212.166 116.254C214.666 114.747 217.265 113.327 219.963 111.992C222.865 110.558 225.871 109.237 228.967 108.035C229.63 107.776 230.292 107.524 230.954 107.279C231.675 107.005 232.401 106.745 233.132 106.5C235.471 105.693 238.125 105.995 240.711 106.533C241.795 106.757 242.865 107.024 243.898 107.267C244.907 107.504 245.878 107.819 246.794 108.208C249.084 109.182 250.978 110.62 251.764 112.436C251.765 112.448 251.765 112.46 251.764 112.471C252.263 113.609 252.295 114.83 252.249 116.028Z" fill="#F86D70"/>
<path opacity="0.1" d="M252.249 116.028C252.249 116.213 252.232 116.398 252.221 116.585C252.17 117.486 252.056 118.385 251.877 119.278C251.642 120.497 251.23 121.695 250.648 122.852C250.263 123.612 249.772 124.342 249.184 125.032C248.662 125.644 248.051 126.213 247.361 126.731C245.658 128.013 243.206 128.422 240.833 128.962C239.741 129.191 238.686 129.503 237.685 129.893C237.506 129.965 237.33 130.043 237.159 130.125L234.19 131.549C233.265 131.991 232.32 132.449 231.684 133.105C231.58 133.216 231.485 133.332 231.4 133.452C230.998 134.055 230.704 134.693 230.526 135.35C228.982 140.006 227.435 144.667 226.376 149.392C226.305 149.705 226.237 150.019 226.163 150.333L226.137 150.432C226.124 150.409 226.109 150.386 226.092 150.364C218.496 153.689 210.619 156.689 202.503 159.091L200.741 148.406C200.557 147.538 200.496 146.658 200.559 145.78C200.726 144.397 201.504 143.086 201.714 141.708C201.913 140.358 201.561 138.996 200.701 137.789C200.366 137.321 199.946 136.861 199.869 136.337C199.793 135.813 200.21 135.334 200.936 135.281C201.504 134.824 201.55 134.202 201.382 133.585C201.293 133.264 201.16 132.949 200.985 132.646C200.502 131.788 199.892 130.853 200.306 129.975C200.416 129.816 200.465 129.639 200.448 129.462C200.451 129.451 200.451 129.44 200.448 129.429C200.352 129.199 199.974 129.098 199.778 128.903C199.409 128.539 199.778 128.044 200.005 127.625C200.226 127.174 200.354 126.703 200.386 126.225C200.417 125.96 200.44 125.693 200.479 125.43C200.535 125.074 200.623 124.721 200.743 124.374C201.433 122.406 203.091 120.687 205.407 119.541C206.511 119.003 207.741 118.611 208.867 118.103C210.022 117.54 211.124 116.922 212.166 116.254C214.666 114.747 217.265 113.327 219.963 111.992C222.865 110.558 225.871 109.237 228.967 108.035C229.63 107.776 230.292 107.524 230.954 107.279C231.675 107.005 232.401 106.745 233.132 106.5C235.471 105.693 238.125 105.995 240.711 106.533C241.795 106.757 242.865 107.024 243.898 107.267C244.907 107.504 245.878 107.819 246.794 108.208C249.084 109.182 250.978 110.62 251.764 112.436C251.765 112.448 251.765 112.46 251.764 112.471C252.263 113.609 252.295 114.83 252.249 116.028Z" fill="black"/>
<path d="M225.297 81.9935C225.268 81.9458 225.227 81.9028 225.174 81.867C225.122 81.8313 225.06 81.8035 224.993 81.7855C224.925 81.7674 224.854 81.7594 224.782 81.762C224.71 81.7645 224.64 81.7775 224.575 81.8003C224.51 81.823 224.453 81.855 224.405 81.8942C224.358 81.9335 224.322 81.9793 224.3 82.0288C224.278 82.0783 224.27 82.1306 224.276 82.1824C224.283 82.2343 224.304 82.2846 224.338 82.3305L224.054 82.4312L232.518 94.9896L234.048 94.4492L225.584 81.8826L225.297 81.9935Z" fill="#3F3D56"/>
<path d="M235.879 68.8392C245.913 68.8392 254.046 62.9517 254.046 55.689C254.046 48.4264 245.913 42.5388 235.879 42.5388C225.846 42.5388 217.712 48.4264 217.712 55.689C217.712 62.9517 225.846 68.8392 235.879 68.8392Z" fill="#FBBEBE"/>
<path d="M259.857 47.5482C259.772 46.5029 259.557 45.4652 259.215 44.4476C258.148 41.1252 256.198 37.8541 252.84 35.4685C252.633 34.8853 252.386 34.3099 252.099 33.7446C252.094 33.7306 252.087 33.7169 252.079 33.7035C251.077 31.7121 249.629 29.8537 247.793 28.203C246.728 27.2455 245.349 26.3004 243.651 26.2634C243.174 26.2511 242.669 26.3106 242.232 26.1524C241.911 26.002 241.64 25.8011 241.44 25.5648C240.599 24.7959 239.485 24.2078 238.216 23.8642C236.947 23.5205 235.573 23.4343 234.241 23.6148L234.065 23.6416C233.966 23.6559 233.867 23.6724 233.782 23.6909C233.696 23.7094 233.543 23.7402 233.424 23.7669C233.555 23.9231 233.682 24.0813 233.807 24.2415C234.144 24.6758 234.456 25.1196 234.744 25.573C234.982 25.9511 235.203 26.3353 235.405 26.7257C232.499 26.9661 230.131 28.4599 227.968 29.8817L222.876 33.2268C222.867 33.2325 222.858 33.2386 222.85 33.2453L222.703 33.3481C222.666 33.3748 222.629 33.4015 222.595 33.4302C222.581 33.4388 222.569 33.4485 222.558 33.459C222.515 33.4919 222.476 33.5268 222.436 33.5617C222.365 33.6265 222.301 33.6952 222.246 33.7672C222.218 33.7981 222.193 33.8303 222.172 33.8638C222.164 33.8736 222.157 33.884 222.152 33.8946C222.133 33.9226 222.117 33.9515 222.104 33.9809C222.103 33.985 222.103 33.9892 222.104 33.9932C222.096 34.0101 222.089 34.0272 222.084 34.0446C222.026 34.1892 222.043 34.3441 222.132 34.4802L225.49 34.5069H225.885C225.902 34.8316 225.916 35.1583 225.933 35.4829C225.4 35.7716 224.889 36.0802 224.4 36.4075C223.868 36.7643 223.368 37.1459 222.904 37.55C219.875 40.1985 218.294 43.6196 218.135 47.0633C218.135 47.1701 218.135 47.2688 218.135 47.3797C218.135 47.6941 218.135 48.0085 218.135 48.3208C218.135 48.5263 218.161 48.7317 218.184 48.9372C218.185 49.2048 218.283 49.4676 218.468 49.6995C218.492 49.7254 218.518 49.7501 218.547 49.7735C218.717 49.9073 218.922 50.0161 219.149 50.094L219.393 50.1803C219.515 50.2235 219.631 50.2646 219.745 50.3118C220.815 50.7495 221.448 51.594 222.422 52.1364C222.478 52.1672 222.535 52.198 222.592 52.2248L222.72 52.2864L222.799 52.3234L222.907 52.3686C222.978 52.3995 223.051 52.4276 223.126 52.4528L223.262 52.5021H223.285C223.398 52.5391 223.512 52.5741 223.628 52.6049L223.79 52.646L223.838 52.6583C223.884 52.6686 223.932 52.6809 223.98 52.6891C224.077 52.7097 224.171 52.7282 224.264 52.7446L224.548 52.7898C224.658 52.8042 224.772 52.8186 224.886 52.8288L225.053 52.8453L225.223 52.8576C225.494 52.8754 225.766 52.8857 226.041 52.8884C226.902 52.8846 227.762 52.8414 228.615 52.759L235.859 52.1426C237.503 52.0049 239.181 51.8672 240.801 52.1097C242.175 52.3152 243.441 52.7877 244.775 53.1227C245.076 53.1987 245.377 53.2686 245.681 53.3281C245.792 53.3507 245.905 53.3754 246.019 53.3959L246.175 53.4247L246.538 53.4884C246.669 53.511 246.799 53.5336 246.93 53.5521C247.114 53.5809 247.296 53.6055 247.481 53.6302C247.605 53.6487 247.733 53.6631 247.861 53.6795H247.886L248.25 53.7206H248.338L248.607 53.7473C248.738 53.7617 248.869 53.774 249.002 53.7843C249.292 53.8103 249.581 53.8329 249.871 53.8521C250.339 53.885 250.81 53.9096 251.29 53.9302L251.761 53.9507L252.232 53.9672L253.652 54.0124H253.714H253.913C254.503 54.0421 255.096 54.0201 255.678 53.9466C255.781 53.9322 255.88 53.9158 255.979 53.8952C256.079 53.8747 256.161 53.8541 256.263 53.8295C257.328 53.5336 258.105 52.8535 258.645 52.1261C258.758 51.972 258.863 51.8179 258.96 51.6597C259.056 51.5015 259.144 51.3412 259.224 51.181C259.323 50.9755 259.408 50.7803 259.482 50.5748C259.505 50.5193 259.525 50.4639 259.542 50.4063C259.559 50.3488 259.598 50.2358 259.621 50.1495C259.692 49.9132 259.746 49.6748 259.786 49.4344C259.786 49.3584 259.811 49.2803 259.823 49.2043C259.848 48.9988 259.868 48.8078 259.879 48.6064C259.879 48.4543 259.879 48.3002 259.879 48.1461C259.877 47.9797 259.857 47.7598 259.857 47.5482ZM252.579 35.2815C252.349 35.1254 252.113 34.9754 251.875 34.8336C252.14 34.9548 252.377 35.106 252.576 35.2815H252.579Z" fill="#464353"/>
<path d="M201.013 54.9658C198.876 54.7747 196.755 54.0966 194.646 54.4295C193.326 54.6349 192.191 55.2288 191.135 55.839C187.205 58.1189 183.864 60.884 181.265 64.0065C180.825 64.4734 180.515 64.9984 180.354 65.5517C180.218 66.1927 180.459 66.8441 180.746 67.4584C182.687 71.611 186.84 75.0794 188.731 79.2443C190.718 83.625 190.028 88.4124 188.563 92.8999C186.748 98.4399 183.797 103.752 179.809 108.66C179.268 109.389 178.589 110.061 177.794 110.657C176.76 111.376 175.372 111.89 174.759 112.831C174.475 113.242 174.393 113.71 174.192 114.15C173.624 115.383 172.25 116.439 172.117 117.739C172.017 118.732 172.667 119.671 173.062 120.616C173.727 122.24 173.657 123.975 172.86 125.568C171.421 128.424 167.657 131.021 168.75 133.957C171.188 133.45 173.891 132.79 175.04 131.153C175.446 130.573 175.648 129.883 176.332 129.46C177.697 128.619 180.022 129.379 181.472 128.607C182.568 128.019 182.608 126.815 182.12 125.89C181.631 124.966 180.791 124.152 180.417 123.201C179.764 121.485 180.808 119.671 180.615 117.898C180.524 117.076 180.175 116.289 180.15 115.471C180.101 113.883 181.316 112.389 182.932 111.31C184.547 110.231 186.542 109.516 188.506 108.812L195.932 106.141C198.626 105.175 201.578 103.997 202.461 101.918C202.796 101.139 202.799 100.309 202.816 99.4956C203.068 87.0625 207.372 74.8801 211.649 62.8374C212.314 60.9717 212.989 59.0978 213.977 57.3061C214.965 55.5144 216.898 54.0761 217.883 52.4117C212.169 51.9268 206.949 55.5041 201.013 54.9658Z" fill="#464353"/>
<path d="M241.948 132.965C242.604 135.841 243.004 138.78 243.316 141.704C238.207 144.769 232.706 147.436 227.117 149.91C226.799 150.052 226.478 150.192 226.157 150.321L226.132 150.42C226.119 150.396 226.104 150.374 226.086 150.352C225.653 149.674 224.894 149.132 223.952 148.827C221.857 145.642 219.764 142.458 217.673 139.273C216.537 137.553 215.402 135.817 214.834 133.961C214.834 133.922 214.809 133.881 214.8 133.842C214.369 132.404 214.269 130.91 213.983 129.453C213.837 128.619 213.578 127.797 213.208 127C212.867 126.291 212.399 125.603 211.984 124.91C211.473 124.056 211.045 123.191 211.025 122.268C211.025 121.974 211.05 121.652 210.852 121.405C210.639 121.193 210.377 121.009 210.077 120.863C209.702 120.622 209.418 120.317 209.251 119.975C209.084 119.633 209.04 119.266 209.123 118.909C207.42 118.972 206.46 120.298 205.776 121.421C205.154 122.521 204.338 123.557 203.347 124.504C202.624 125.18 201.706 125.733 200.656 126.125C200.562 126.158 200.468 126.19 200.372 126.219C198.002 126.975 195.234 126.708 192.665 126.367C190.42 126.069 188.098 125.699 186.292 124.688L186.099 124.578C185.565 124.256 185.088 123.887 184.68 123.48C183.167 121.984 182.497 120.014 182.125 118.138C182.091 117.961 182.057 117.785 182.026 117.608C181.768 116.282 181.697 114.941 181.813 113.605C181.847 113.277 181.895 112.948 181.955 112.621C181.995 112.416 182.037 112.194 182.086 111.98C182.084 111.974 182.084 111.968 182.086 111.962C182.159 111.623 182.239 111.281 182.318 110.934C182.602 109.769 182.886 108.573 183.738 107.571C184.298 106.947 185.005 106.399 185.827 105.952C186.133 105.777 186.449 105.61 186.766 105.45C187.283 105.191 187.814 104.945 188.353 104.713C189.71 104.125 191.135 103.623 192.611 103.213C192.963 103.114 193.321 103.021 193.678 102.933C195.069 102.575 196.565 102.489 198.016 102.685C199.301 102.819 200.6 102.874 201.899 102.849C205.229 102.802 208.572 102.341 211.896 102.043C216.512 101.632 221.471 101.583 225.496 103.276C225.689 103.356 225.876 103.441 226.064 103.529C228.051 104.47 229.652 105.789 230.943 107.262C231.227 107.573 231.474 107.891 231.718 108.214C232.281 108.954 232.79 109.716 233.242 110.494C233.51 110.877 233.655 111.299 233.665 111.727C233.659 111.809 233.644 111.89 233.62 111.97C233.543 112.262 233.39 112.545 233.336 112.841C233.157 113.961 234.471 114.896 234.962 115.962C235.28 116.657 235.246 117.4 235.425 118.132C235.683 119.159 236.379 120.084 237.003 121.008C237.99 122.497 238.834 124.033 239.53 125.605C240.024 126.7 240.447 127.812 240.818 128.934C240.94 129.294 241.054 129.655 241.162 130.016C241.471 131.011 241.724 131.985 241.948 132.965Z" fill="#F86D70"/>
<path d="M272.213 102.537V103.975L271.847 103.971L271.438 103.967L266.874 103.926L255.627 103.819L252.471 103.79L251.653 103.782L246.916 103.739L240.239 103.675L226.075 103.541L201.496 103.311L192.625 103.229L189.066 103.196L185.79 103.165L183.749 103.145L181.816 103.126L167.484 102.993L163.51 102.956L162.644 102.948L162.082 101.898L157.998 94.2725L157.251 92.8794L157.819 91.2356L160.373 92.4685L161.946 92.6102L187.837 94.9403L192.696 95.3779L203 96.3067L213.094 97.2149L217.051 97.5703L240.466 99.6785L247.009 100.268L252.425 100.755L271.682 102.489L272.213 102.537Z" fill="#3F3D56"/>
<path d="M157.819 91.2356L162.928 100.893L272.213 102.537V92.0575L157.819 91.2356Z" fill="#504F60"/>
<path d="M163.496 101.92L164.347 160.891L168.321 160.48L167.47 101.92H163.496Z" fill="#3F3D56"/>
<path d="M271.847 103.969H271.438C270.776 107.645 269.681 111.274 268.165 114.816L266.874 103.926L266.82 103.461L271.594 103.063L271.753 103.05L271.847 103.969Z" fill="#3F3D56"/>
<path d="M256.317 96.9888L214.732 97.6052L201.817 94.5232L236.447 93.0849L256.317 96.9888Z" fill="white"/>
<path d="M204.153 85.0057C203.712 85.1282 203.321 85.3297 203.017 85.5913C202.78 85.8748 202.635 86.1939 202.594 86.5242L201.896 89.5384C201.79 89.8142 201.808 90.1074 201.95 90.3747C202.132 90.6274 202.66 90.7589 202.924 90.5494C202.89 91.1391 202.961 91.7678 203.435 92.2486C203.909 92.7294 204.902 92.9821 205.572 92.6472C205.677 92.7711 205.818 92.877 205.985 92.9576C206.152 93.0381 206.342 93.0914 206.54 93.1136C206.739 93.1359 206.942 93.1267 207.135 93.0866C207.328 93.0465 207.506 92.9765 207.658 92.8815C207.255 92.9801 207.227 93.426 207.514 93.652C207.835 93.8571 208.244 93.9754 208.672 93.9869C213.66 94.4959 218.745 94.0327 223.404 92.6452C223.844 92.5137 222.686 88.5871 222.569 88.1844C222.285 87.2372 222.144 86.0803 221.039 85.4434C218.399 83.9188 213.71 83.6188 210.494 83.7996C208.297 83.9199 206.148 84.3286 204.153 85.0057Z" fill="#FBBEBE"/>
<path opacity="0.1" d="M246.464 85.4619C236.197 85.6037 225.717 85.7249 215.919 83.4996C216.855 86.1252 216.79 88.8853 215.731 91.4863L263.737 94.3629C265.772 94.4841 274.211 95.1745 276.195 94.8273C278.18 94.48 259.547 90.0377 260.3 88.6631C262.369 84.8763 269.301 82.6572 264.308 82.5154C258.006 82.3346 252.814 85.3756 246.464 85.4619Z" fill="black"/>
<path d="M246.748 85.8728C236.481 86.0146 226.001 86.1358 216.202 83.9106C217.138 86.5361 217.074 89.2962 216.015 91.8972L264.021 94.7739C266.056 94.8951 274.495 95.5957 276.479 95.2382C278.463 94.8807 277.998 93.1198 278.75 91.7452C280.819 87.9584 269.584 83.0681 264.591 82.9263C258.29 82.7455 253.098 85.7865 246.748 85.8728Z" fill="#464353"/>
<path d="M230.424 86.444C230.865 86.5662 231.255 86.7678 231.559 87.0296C231.796 87.3134 231.942 87.6323 231.985 87.9625L232.683 90.9767C232.788 91.2526 232.769 91.5455 232.629 91.813C232.447 92.0657 231.917 92.1972 231.655 91.9877C231.687 92.5774 231.619 93.2061 231.144 93.6869C230.67 94.1677 229.677 94.4205 229.004 94.0855C228.899 94.2094 228.758 94.3153 228.591 94.3959C228.424 94.4764 228.234 94.5297 228.036 94.5519C227.837 94.5742 227.635 94.565 227.442 94.5249C227.249 94.4848 227.07 94.4148 226.918 94.3198C227.321 94.4184 227.352 94.8643 227.065 95.0903C226.743 95.2954 226.333 95.4137 225.905 95.4252C220.917 95.9342 215.833 95.471 211.175 94.0835C210.735 93.952 211.891 90.0254 212.01 89.6227C212.294 88.6755 212.436 87.5186 213.54 86.8817C216.177 85.3571 220.869 85.0571 224.085 85.2379C226.281 85.3585 228.429 85.7672 230.424 86.444Z" fill="#FBBEBE"/>
<path d="M162.582 79.8997C161.639 80.7792 160.694 81.6771 160.087 82.7024C158.926 84.6585 159.096 86.8735 159.289 88.998C159.343 89.6144 159.411 90.2432 159.857 90.7548C160.242 91.1413 160.75 91.455 161.339 91.6692C163.797 92.6801 166.675 92.9821 169.485 93.2081C173.788 93.5533 178.107 93.7636 182.44 93.8389C193.176 94.028 204.076 93.3931 214.533 95.154C213.239 93.73 213.242 91.8459 213.966 90.2226C214.689 88.5994 216.083 87.1858 217.448 85.7947C212.663 84.6975 207.531 86.4111 202.518 86.2406C197.371 86.0659 192.608 83.9126 187.456 83.9147C186.349 83.9147 185.222 84.0153 184.146 83.8222C183.071 83.6291 182.029 83.0414 181.929 82.2421C183.303 82.4661 184.606 81.6154 185.174 80.6826C185.742 79.7498 185.844 78.6957 186.395 77.7567C187.766 75.4205 191.47 74.3376 193.775 72.4144C194.138 72.1103 194.482 71.7507 194.47 71.348C194.416 71.0069 194.218 70.6861 193.903 70.4296C191.987 68.5803 189.1 67.5529 186.701 66.1146C185.867 65.6133 184.183 63.723 183.247 63.5483C181.509 63.2257 180.036 65.0421 178.906 65.9277C173.203 70.4138 167.761 75.0712 162.582 79.8997Z" fill="#464353"/>
<path opacity="0.07" d="M219.66 79.3779C220.379 79.7641 221.019 80.2228 221.559 80.7401C221.828 80.9999 222.019 81.2973 222.122 81.6135C222.224 81.9297 222.234 82.2578 222.152 82.577C222.064 81.9815 222.247 81.3815 222.674 80.8684C223.101 80.3554 223.748 79.9575 224.517 79.7354L219.66 79.3779Z" fill="black"/>
<g opacity="0.1">
<path opacity="0.1" d="M235.402 25.4949C235.068 24.8527 234.684 24.225 234.25 23.6149C233.969 23.6539 233.693 23.7053 233.421 23.769C233.908 24.3545 234.347 24.9603 234.735 25.5833C234.954 25.5422 235.175 25.5134 235.402 25.4949Z" fill="black"/>
<path opacity="0.1" d="M251.872 33.5967C251.948 33.6419 252.022 33.6933 252.096 33.7405C252.091 33.7272 252.084 33.7141 252.076 33.7015C252.012 33.6672 251.944 33.6323 251.872 33.5967Z" fill="black"/>
<path opacity="0.1" d="M225.485 34.5008C225.632 34.4165 225.768 34.3282 225.927 34.246L225.882 33.27L222.85 33.2474C222.359 33.5741 221.837 34.0426 222.127 34.4802L225.485 34.5008Z" fill="black"/>
<path opacity="0.1" d="M258.628 50.9303C258.088 51.6577 257.311 52.3398 256.246 52.6336C255.426 52.8597 254.523 52.8391 253.646 52.8104C250.654 52.722 247.611 52.6254 244.784 51.9083C243.461 51.5714 242.195 51.1008 240.81 50.8933C239.189 50.6508 237.512 50.7885 235.868 50.9282L228.624 51.5446C226.487 51.7255 224.105 51.8611 222.399 50.9118C221.423 50.3693 220.792 49.5249 219.722 49.0893C219.271 48.9043 218.734 48.7852 218.442 48.4728C218.257 48.2409 218.16 47.9782 218.158 47.7105C218.135 47.4948 218.121 47.2791 218.11 47.0633C218.079 47.6902 218.095 48.3178 218.158 48.9434C218.16 49.211 218.257 49.4738 218.442 49.7057C218.726 50.0159 219.271 50.1351 219.722 50.3221C220.792 50.7577 221.425 51.6022 222.399 52.1446C224.102 53.0939 226.487 52.9665 228.624 52.7775L235.868 52.1611C237.512 52.0213 239.189 51.8837 240.81 52.1261C242.184 52.3316 243.45 52.8042 244.784 53.1412C247.623 53.8583 250.654 53.9631 253.646 54.0432C254.523 54.0699 255.426 54.0925 256.246 53.8665C257.311 53.5727 258.088 52.8905 258.628 52.1631C259.672 50.7556 259.965 49.1591 259.854 47.5503C259.793 48.7285 259.374 49.8825 258.628 50.9303Z" fill="black"/>
</g>
<path opacity="0.1" d="M235.32 26.8161L239.294 29.4872C239.294 29.4872 235.888 28.4599 235.32 26.8161Z" fill="black"/>
</g>
<defs>
<clipPath id="clip0">
<rect width="279" height="165" fill="white"/>
</clipPath>
</defs>
</svg>
