<svg width="512" height="512" viewBox="0 0 512 512" fill="none" xmlns="http://www.w3.org/2000/svg">
<path d="M217.46 88.7H155.82V188H217.46C244.84 188 267.12 165.73 267.12 138.35C267.12 110.97 244.84 88.7 217.46 88.7Z" fill="#7DC6D1"/>
<path d="M0 0V402.86H213.08C212.29 397.91 211.72 392.9 211.38 387.86C211.13 384.09 211 380.3 211 376.5C211 375.29 211.01 374.07 211.04 372.86C211.49 351.81 215.85 331.38 224.02 312.07C232.36 292.36 244.28 274.66 259.47 259.47C274.66 244.28 292.36 232.36 312.07 224.02C332.49 215.38 354.17 211 376.5 211C379.8 211 383.08 211.1 386.35 211.29C391.39 211.58 396.4 212.1 401.35 212.85C406.4 213.61 411.4 214.6 416.35 215.83V0H0ZM217.46 218H155.82V344.3H125.82V58.7H217.46C261.38 58.7 297.12 94.43 297.12 138.35C297.12 182.27 261.38 218 217.46 218Z" fill="#7DC6D1"/>
<path d="M511.97 373.65C511.95 372.72 511.92 371.8 511.88 370.87C511.8 368.91 511.68 366.95 511.51 365.01C511.45 364.13 511.36 363.26 511.27 362.4C511.19 361.55 511.09 360.71 510.99 359.87C510.96 359.66 510.94 359.45 510.91 359.24C510.81 358.46 510.71 357.68 510.6 356.91C510.59 356.87 510.58 356.83 510.58 356.8C510.45 355.93 510.31 355.06 510.17 354.19C510.16 354.14 510.15 354.09 510.14 354.04C510.03 353.34 509.91 352.64 509.77 351.94C509.57 350.78 509.34 349.63 509.1 348.48C508.93 347.7 508.76 346.92 508.59 346.15C508.16 344.3 507.7 342.47 507.21 340.66C506.97 339.8 506.73 338.95 506.48 338.11C506.45 338 506.42 337.9 506.39 337.8C506.19 337.12 505.98 336.45 505.77 335.78C505.65 335.39 505.53 335 505.4 334.62C505.22 334.05 505.03 333.49 504.84 332.94C504.56 332.12 504.28 331.3 503.99 330.49C503.92 330.3 503.85 330.11 503.78 329.91C503.52 329.22 503.26 328.54 503 327.85C502.72 327.11 502.42 326.37 502.12 325.63C501.75 324.7 501.36 323.77 500.95 322.84C500.6 322.03 500.25 321.22 499.88 320.42C499.14 318.79 498.37 317.18 497.56 315.59C497.19 314.84 496.8 314.1 496.42 313.36C496.37 313.28 496.33 313.19 496.28 313.11C495.88 312.36 495.48 311.61 495.06 310.87C493.67 308.36 492.2 305.89 490.65 303.47C490.28 302.9 489.91 302.33 489.53 301.76C489.04 301.02 488.55 300.29 488.04 299.56C488.01 299.5 487.97 299.45 487.93 299.4C487.46 298.72 486.99 298.05 486.51 297.39C486.04 296.73 485.56 296.08 485.08 295.43C484.43 294.56 483.77 293.7 483.1 292.85C482.63 292.25 482.15 291.66 481.67 291.07C481.12 290.4 480.57 289.73 480.01 289.06C479.31 288.24 478.6 287.42 477.88 286.61C477.42 286.09 476.95 285.57 476.48 285.06C475.88 284.4 475.28 283.76 474.67 283.12C474.64 283.09 474.61 283.05 474.58 283.02C474 282.41 473.42 281.81 472.83 281.22C472.31 280.68 471.78 280.16 471.24 279.64C471.02 279.42 470.8 279.2 470.57 278.99C469.43 277.88 468.26 276.79 467.08 275.74C466.45 275.17 465.81 274.61 465.17 274.05C465.13 274.01 465.08 273.97 465.02 273.92C463.84 272.9 462.65 271.91 461.43 270.92C461.23 270.76 461.03 270.6 460.83 270.44C460.2 269.94 459.57 269.45 458.93 268.96C458.91 268.94 458.89 268.93 458.87 268.91C458.19 268.39 457.5 267.87 456.81 267.36C456.1 266.84 455.38 266.32 454.66 265.81C453.21 264.78 451.75 263.79 450.26 262.83C449.56 262.37 448.86 261.92 448.15 261.48C448.1 261.45 448.06 261.42 448.02 261.4C447.26 260.93 446.5 260.47 445.74 260.01C444.98 259.56 444.21 259.11 443.44 258.67C442.64 258.21 441.83 257.76 441.02 257.32C440.26 256.92 439.51 256.51 438.75 256.12C437.89 255.68 437.03 255.24 436.16 254.81C435.43 254.45 434.69 254.1 433.95 253.75C433.88 253.72 433.82 253.69 433.76 253.66C433.01 253.31 432.26 252.97 431.51 252.64C430.75 252.3 430 251.98 429.24 251.65C429.17 251.63 429.11 251.6 429.04 251.57C428.21 251.22 427.38 250.88 426.55 250.55C425.72 250.22 424.88 249.89 424.04 249.58C422.38 248.95 420.7 248.36 419.01 247.81C418.8 247.74 418.59 247.67 418.38 247.6C417.71 247.38 417.03 247.17 416.35 246.96C415.74 246.77 415.13 246.59 414.51 246.41C413.9 246.23 413.28 246.05 412.66 245.88C412.19 245.75 411.71 245.62 411.23 245.49C409.85 245.13 408.45 244.78 407.05 244.46C406.42 244.31 405.79 244.17 405.16 244.04C404.16 243.82 403.16 243.62 402.15 243.43C401.88 243.38 401.62 243.33 401.35 243.28C401.33 243.28 401.3 243.27 401.28 243.27C400.69 243.16 400.1 243.05 399.5 242.95C395.8 242.31 392.05 241.83 388.25 241.51C387.62 241.45 386.98 241.4 386.35 241.36C385.61 241.31 384.86 241.26 384.12 241.21C383.23 241.16 382.34 241.12 381.45 241.09C380.7 241.06 379.95 241.04 379.2 241.03C378.3 241.01 377.4 241 376.5 241C373.99 241 371.49 241.07 369.01 241.21C368.32 241.24 367.62 241.28 366.93 241.34C366.14 241.39 365.35 241.45 364.55 241.52C363.92 241.58 363.28 241.64 362.65 241.7C361.79 241.79 360.93 241.88 360.07 241.99C356.54 242.41 353.06 242.97 349.63 243.67C349.17 243.76 348.71 243.85 348.25 243.95C346 244.43 343.78 244.96 341.58 245.55C341.04 245.69 340.52 245.83 339.99 245.98C339.49 246.12 338.99 246.26 338.5 246.4C336.36 247.03 334.25 247.7 332.17 248.42C330.62 248.95 329.09 249.52 327.57 250.11C326.05 250.69 324.55 251.31 323.06 251.95C322.56 252.16 322.07 252.38 321.57 252.6C321.08 252.82 320.59 253.04 320.1 253.27C319.61 253.49 319.12 253.72 318.63 253.95C317.16 254.64 315.72 255.36 314.29 256.1C313.81 256.35 313.33 256.6 312.86 256.85C311.38 257.63 309.93 258.44 308.49 259.28C308.08 259.52 307.66 259.77 307.25 260.02C306.44 260.49 305.64 260.98 304.85 261.48C304.48 261.71 304.11 261.94 303.74 262.18C303.09 262.59 302.44 263.01 301.8 263.44C301.36 263.73 300.91 264.03 300.47 264.33C296.05 267.33 291.81 270.59 287.78 274.09C286.98 274.78 286.19 275.48 285.4 276.2C285 276.56 284.6 276.93 284.2 277.3C283.01 278.41 281.84 279.54 280.69 280.69C279.15 282.22 277.66 283.79 276.2 285.4C275.83 285.8 275.47 286.2 275.12 286.61C274.76 287.01 274.4 287.42 274.05 287.83C273.69 288.24 273.34 288.65 272.99 289.06C272.61 289.5 272.24 289.95 271.86 290.41C271.54 290.79 271.23 291.18 270.92 291.57C270.57 292 270.23 292.42 269.9 292.85C269.56 293.27 269.23 293.7 268.91 294.13C268.57 294.56 268.24 294.99 267.92 295.43C267.27 296.3 266.63 297.18 265.99 298.07C265.46 298.81 264.94 299.56 264.43 300.31C264.33 300.46 264.24 300.6 264.14 300.74C263.54 301.64 262.94 302.55 262.35 303.47C262.05 303.93 261.76 304.39 261.48 304.85C260.6 306.25 259.75 307.66 258.93 309.1C258.66 309.56 258.4 310.02 258.15 310.48C257.88 310.96 257.62 311.43 257.36 311.91C257.08 312.42 256.81 312.93 256.54 313.44C256.3 313.89 256.06 314.35 255.83 314.81C254.33 317.74 252.93 320.72 251.65 323.76C251.43 324.27 251.22 324.77 251.02 325.28C250.81 325.79 250.6 326.3 250.4 326.82C250.19 327.33 249.99 327.84 249.8 328.36C249.21 329.91 248.65 331.47 248.12 333.04C247.77 334.09 247.42 335.15 247.09 336.21C246.92 336.74 246.76 337.27 246.61 337.8C246.49 338.19 246.38 338.57 246.27 338.96C246.07 339.65 245.87 340.34 245.69 341.03C245.4 342.1 245.12 343.18 244.86 344.26C244.44 345.97 244.05 347.7 243.7 349.43C243.49 350.45 243.3 351.48 243.12 352.51C243.01 353.07 242.92 353.63 242.83 354.19C242.81 354.24 242.8 354.29 242.8 354.35C242.63 355.41 242.46 356.48 242.31 357.55C242.16 358.68 242.01 359.81 241.88 360.94C241.87 360.96 241.87 360.98 241.87 360.99C241.62 363.23 241.42 365.48 241.27 367.74V367.8C241.2 368.91 241.15 370.03 241.1 371.15C241.07 371.72 241.06 372.29 241.04 372.86C241.02 374.07 241 375.28 241 376.5C241 377.46 241.01 378.41 241.03 379.36C241.05 380.16 241.07 380.95 241.1 381.74C241.11 381.98 241.12 382.23 241.13 382.47C241.21 384.28 241.33 386.08 241.48 387.86C241.53 388.5 241.59 389.13 241.65 389.76C241.71 390.4 241.77 391.03 241.84 391.66L241.99 392.98C242.09 393.8 242.2 394.63 242.31 395.45C242.4 396.07 242.49 396.68 242.59 397.3C242.69 397.94 242.79 398.59 242.9 399.23C243 399.83 243.11 400.42 243.22 401.01C243.33 401.63 243.45 402.25 243.57 402.86C243.95 404.81 244.37 406.73 244.84 408.65C244.85 408.68 244.86 408.71 244.86 408.74C245.09 409.66 245.33 410.58 245.57 411.5C245.82 412.45 246.09 413.4 246.36 414.34C247.45 418.1 248.7 421.79 250.1 425.41C250.4 426.18 250.71 426.95 251.02 427.72C251.09 427.9 251.16 428.07 251.24 428.24C251.96 429.98 252.71 431.71 253.51 433.42C253.91 434.3 254.33 435.17 254.75 436.03C255.17 436.9 255.61 437.76 256.05 438.61C256.48 439.44 256.92 440.27 257.36 441.09C257.37 441.11 257.39 441.14 257.4 441.16C257.86 442 258.33 442.84 258.8 443.67C259.28 444.51 259.76 445.33 260.26 446.16C260.66 446.82 261.07 447.49 261.48 448.15C261.63 448.39 261.78 448.63 261.93 448.86C262.36 449.54 262.8 450.22 263.24 450.9C263.27 450.94 263.29 450.98 263.32 451.02C263.73 451.65 264.15 452.27 264.57 452.89C264.74 453.13 264.9 453.37 265.07 453.6C265.19 453.78 265.31 453.95 265.44 454.13C265.81 454.67 266.19 455.21 266.58 455.74C267.14 456.51 267.7 457.28 268.28 458.04C268.81 458.75 269.35 459.46 269.9 460.15C270.99 461.54 272.1 462.9 273.24 464.23C273.5 464.54 273.77 464.86 274.05 465.17C275.51 466.86 277.01 468.52 278.57 470.13C279.16 470.76 279.77 471.39 280.38 472L280.86 472.48C281.19 472.8 281.52 473.13 281.85 473.45C282.48 474.07 283.12 474.68 283.76 475.29C284.3 475.8 284.85 476.3 285.4 476.8C285.8 477.17 286.21 477.53 286.61 477.88C287.28 478.49 287.97 479.08 288.66 479.66C289.62 480.49 290.59 481.29 291.57 482.08C291.99 482.42 292.41 482.75 292.83 483.08C293.26 483.42 293.69 483.76 294.13 484.09C294.44 484.33 294.76 484.57 295.07 484.81C295.62 485.22 296.18 485.64 296.74 486.05C297.4 486.53 298.07 487.01 298.74 487.47C299.04 487.68 299.33 487.89 299.63 488.09C300.17 488.47 300.72 488.84 301.27 489.21C304.29 491.23 307.39 493.13 310.58 494.9C310.98 495.13 311.39 495.36 311.79 495.58C313.47 496.49 315.17 497.37 316.9 498.22C317.49 498.51 318.08 498.8 318.68 499.07C319.68 499.55 320.69 500.01 321.7 500.46C322.38 500.76 323.07 501.06 323.76 501.35C324.89 501.83 326.03 502.29 327.18 502.74C327.92 503.03 328.66 503.32 329.41 503.59C329.58 503.65 329.74 503.71 329.91 503.78C330.75 504.08 331.59 504.38 332.44 504.67C333.16 504.92 333.89 505.17 334.62 505.4C334.63 505.41 334.65 505.41 334.67 505.42C335.03 505.54 335.4 505.65 335.77 505.77C336.67 506.05 337.59 506.33 338.51 506.6C339.29 506.83 340.07 507.05 340.85 507.26C341.82 507.53 342.81 507.78 343.8 508.02C344.72 508.26 345.65 508.47 346.58 508.68C347.54 508.9 348.51 509.11 349.48 509.3C350.41 509.49 351.35 509.67 352.29 509.84C353.47 510.06 354.66 510.25 355.86 510.44C356.65 510.56 357.44 510.67 358.24 510.78C359.94 511.01 361.65 511.21 363.38 511.37C363.7 511.4 364.03 511.43 364.36 511.46C365.34 511.55 366.33 511.63 367.32 511.69C368.28 511.76 369.23 511.81 370.19 511.85C370.3 511.86 370.41 511.87 370.52 511.87C371.35 511.91 372.17 511.93 373 511.96C373.27 511.96 373.54 511.97 373.8 511.97C374.7 511.99 375.6 512 376.5 512C451.33 512 512 451.33 512 376.5C512 375.55 511.99 374.6 511.97 373.65ZM391.75 445.89V471.77H361.75V449.08H346.3V419.08H375.44C382.82 419.08 388.83 413.07 388.83 405.68C388.83 404.71 388.73 403.77 388.53 402.86C387.23 396.82 381.85 392.29 375.44 392.29C368.76 392.29 362.44 390.69 356.85 387.86C350.11 384.44 344.43 379.23 340.44 372.86C336.47 366.52 334.17 359.03 334.17 351.01V347.11C334.17 329.15 345.7 313.83 361.75 308.18V281.76H386.35H391.75V305.84H401.35H406.7V335.84H401.35H386.35H375.44C369.22 335.84 364.17 340.89 364.17 347.11V351.01C364.17 357.23 369.22 362.29 375.44 362.29C379.21 362.29 382.86 362.77 386.35 363.68C391.85 365.11 396.92 367.59 401.35 370.9C408.18 376 413.46 383.06 416.35 391.24C417.96 395.76 418.83 400.62 418.83 405.68C418.83 423.84 407.62 439.43 391.75 445.89Z" fill="white"/>
</svg>
