<svg width="321" height="140" viewBox="0 0 321 140" fill="none" xmlns="http://www.w3.org/2000/svg">
<g clip-path="url(#clip0)">
<path d="M282.819 130.199C282.795 130.141 280.533 124.36 285.153 119.558C289.774 114.757 299.636 112.639 299.735 112.618L300.186 112.524L300.293 112.787C300.316 112.845 302.578 118.626 297.958 123.428C293.338 128.229 283.475 130.347 283.376 130.368L282.925 130.462L282.819 130.199ZM299.568 113.166C297.592 113.642 289.796 115.727 285.893 119.782C281.991 123.838 283.168 128.634 283.543 129.82C285.518 129.345 293.312 127.264 297.218 123.204C301.121 119.149 299.944 114.353 299.568 113.166Z" fill="#3F3D56"/>
<path d="M294.427 121.743C286.124 124.543 282.927 130.103 282.927 130.103C282.927 130.103 293.191 131.125 301.494 128.325C309.797 125.526 312.994 119.966 312.994 119.966C312.994 119.966 302.73 118.944 294.427 121.743Z" fill="#D0CDE1"/>
<path d="M114.029 104.899C113.042 104.899 112.044 104.89 111.065 104.873L111.088 104.475C112.493 104.499 113.928 104.506 115.34 104.495L115.35 104.894C114.91 104.897 114.47 104.899 114.029 104.899ZM119.632 104.807L119.591 104.409C120.999 104.362 122.425 104.297 123.829 104.214L123.903 104.611C122.488 104.694 121.051 104.76 119.632 104.807ZM106.787 104.745C105.367 104.684 103.933 104.604 102.523 104.507L102.609 104.111C104.009 104.207 105.432 104.286 106.841 104.347L106.787 104.745ZM128.153 104.306L128.047 103.912C129.445 103.793 130.855 103.655 132.235 103.501L132.374 103.892C130.983 104.047 129.563 104.186 128.153 104.306ZM98.2828 104.16C96.8803 104.027 95.4647 103.874 94.0752 103.705L94.2262 103.315C95.6051 103.483 97.0098 103.635 98.4017 103.767L98.2828 104.16ZM136.557 103.37L136.386 102.983C137.759 102.793 139.14 102.582 140.49 102.358L140.692 102.74C139.331 102.966 137.94 103.178 136.557 103.37ZM89.9098 103.141C88.5341 102.936 87.1497 102.711 85.795 102.471L86.0094 102.09C87.3539 102.329 88.7277 102.552 90.0926 102.756L89.9098 103.141ZM144.771 102.004L144.537 101.628C145.87 101.368 147.21 101.087 148.521 100.793L148.785 101.164C147.464 101.46 146.114 101.743 144.771 102.004ZM81.7292 101.692C80.3931 101.417 79.0487 101.12 77.7336 100.809L78.0099 100.442C79.3149 100.75 80.6489 101.044 81.9749 101.318L81.7292 101.692ZM152.717 100.223L152.423 99.8595C153.702 99.5337 154.989 99.1859 156.246 98.8258L156.57 99.181C155.303 99.5438 154.007 99.8942 152.717 100.223ZM160.333 98.0411L159.98 97.6948C161.207 97.3024 162.432 96.8899 163.621 96.4687L164.001 96.8056C162.804 97.2302 161.569 97.646 160.333 98.0411ZM167.565 95.477L167.158 95.1502C168.313 94.6978 169.467 94.2239 170.585 93.7421L171.019 94.0584C169.892 94.5439 168.73 95.0213 167.565 95.477ZM59.085 94.9153C57.9363 94.4477 56.7887 93.9579 55.674 93.4591L56.1181 93.1475C57.2243 93.6424 58.3632 94.1285 59.5031 94.5924L59.085 94.9153ZM174.354 92.5529L173.896 92.248C174.973 91.7387 176.044 91.208 177.082 90.6705L177.565 90.9634C176.52 91.505 175.44 92.0398 174.354 92.5529ZM52.3856 91.9177C51.3157 91.3926 50.2528 90.8465 49.2265 90.2944L49.7193 90.0065C50.7379 90.5546 51.7927 91.0966 52.8544 91.6177L52.3856 91.9177ZM180.644 89.293L180.137 89.0129C181.13 88.4491 182.112 87.8656 183.056 87.2788L183.584 87.5456C182.634 88.1371 181.644 88.7249 180.644 89.293ZM46.2033 88.5926C45.2217 88.0142 44.2522 87.4163 43.3219 86.8157L43.8595 86.5543C44.7827 87.1505 45.7447 87.7437 46.719 88.3176L46.2033 88.5926ZM186.38 85.7249L185.831 85.4717C186.728 84.86 187.611 84.2288 188.456 83.5952L189.026 83.834C188.174 84.4724 187.284 85.1087 186.38 85.7249ZM40.5883 84.9677C39.7068 84.3435 38.8388 83.6991 38.0084 83.0523L38.586 82.8193C39.4102 83.461 40.2715 84.1006 41.1465 84.7203L40.5883 84.9677ZM191.515 81.8771L190.926 81.6531C191.72 80.9982 192.498 80.3241 193.237 79.6493L193.844 79.8581C193.098 80.538 192.315 81.2173 191.515 81.8771ZM35.5878 81.0736C34.8123 80.4073 34.0533 79.7218 33.3316 79.0355L33.9447 78.8329C34.6609 79.514 35.4142 80.1944 36.1838 80.8554L35.5878 81.0736ZM196.005 77.7809L195.382 77.588C196.065 76.8951 196.729 76.1835 197.356 75.4728L197.994 75.6497C197.362 76.3656 196.693 77.0827 196.005 77.7809H196.005ZM199.806 73.469L199.154 73.3089C199.721 72.5831 200.265 71.8397 200.772 71.0996L201.437 71.2426C200.926 71.9885 200.377 72.7375 199.806 73.469H199.806ZM27.5964 72.6084C27.0508 71.8745 26.5283 71.1238 26.0435 70.3767L26.7125 70.2404C27.1934 70.9818 27.712 71.7267 28.2533 72.4549L27.5964 72.6084ZM202.883 68.9756L202.208 68.8502C202.652 68.1002 203.071 67.3337 203.453 66.5716L204.139 66.6795C203.753 67.4474 203.331 68.22 202.883 68.9756ZM24.6724 68.1016C24.249 67.3415 23.851 66.565 23.4898 65.7934L24.1782 65.6921C24.5367 66.4579 24.9317 67.2285 25.3519 67.9828L24.6724 68.1016ZM205.203 64.3533L204.51 64.263C204.829 63.4943 205.12 62.7092 205.376 61.93L206.076 62.0021C205.818 62.7875 205.524 63.5784 205.203 64.3533ZM22.4986 63.4571C22.2018 62.6781 21.9332 61.8844 21.7003 61.0978L22.4024 61.0324C22.6336 61.8132 22.9002 62.6007 23.1947 63.3737L22.4986 63.4571ZM206.754 59.6313L206.049 59.5772C206.24 58.796 206.402 57.9995 206.529 57.2096L207.238 57.2454C207.11 58.0416 206.947 58.8441 206.754 59.6313ZM21.0959 58.7207C20.9281 57.9311 20.7903 57.127 20.6862 56.3306L21.3962 56.3014C21.4993 57.0919 21.6362 57.8898 21.8028 58.6735L21.0959 58.7207ZM207.528 54.8499L206.817 54.832C206.88 54.0417 206.913 53.2401 206.913 52.4496H207.624C207.624 53.2461 207.592 54.0538 207.528 54.8499ZM20.4706 53.9322C20.4462 53.4432 20.4339 52.9443 20.4337 52.4496C20.4337 52.1427 20.4384 51.8363 20.4478 51.5305L21.1595 51.5376C21.1502 51.841 21.1455 52.145 21.1455 52.4496C21.1456 52.9406 21.158 53.4358 21.182 53.9213L20.4706 53.9322ZM21.3284 49.1564L20.6181 49.1315C20.7069 48.3345 20.8296 47.5296 20.9823 46.739L21.6899 46.782C21.5382 47.5666 21.4167 48.3654 21.3285 49.1564H21.3284ZM206.453 46.7231C206.311 45.9367 206.115 45.5533 205.909 44.7704L206.613 44.7122C206.821 45.501 206.999 46.1032 207.143 46.8955L206.453 46.7231ZM22.244 44.4194L21.5406 44.3584C21.7587 43.5694 22.012 42.7741 22.2937 41.9944L22.9912 42.0735C22.7118 42.8472 22.4604 43.6365 22.244 44.4194H22.244ZM205.191 42.422C204.919 41.644 204.613 40.8607 204.28 40.0942L204.972 39.9999C205.307 40.7723 205.616 41.5616 205.889 42.3455L205.191 42.422ZM23.9299 39.7494L23.2396 39.6524C23.5852 38.8799 23.968 38.101 24.3774 37.3372L25.0589 37.4519C24.6528 38.2099 24.2729 38.9828 23.9299 39.7494ZM203.179 37.7923C202.782 37.0329 202.349 36.2689 201.89 35.5215L202.563 35.3918C203.025 36.145 203.462 36.9149 203.862 37.6801L203.179 37.7923ZM26.3801 35.1798L25.7086 35.0475C26.1816 34.2935 26.6923 33.5359 27.2265 32.7958L27.8864 32.9454C27.3563 33.6798 26.8494 34.4316 26.3801 35.1798ZM200.415 33.2863C199.896 32.5522 199.34 31.8156 198.762 31.0967L199.412 30.9329C199.994 31.6573 200.554 32.3997 201.077 33.1392L200.415 33.2863ZM29.5746 30.753L28.9278 30.5865C29.5223 29.861 30.155 29.1335 30.8083 28.4242L31.4409 28.6071C30.7924 29.3111 30.1645 30.033 29.5746 30.753ZM196.932 28.951C196.295 28.2469 195.62 27.5413 194.926 26.8541L195.545 26.6576C196.245 27.3502 196.925 28.0611 197.566 28.7707L196.932 28.951ZM33.4811 26.5121L32.8642 26.3131C33.5742 25.6222 34.323 24.9306 35.0898 24.2578L35.6897 24.4724C34.9287 25.1402 34.1855 25.8265 33.4811 26.5121ZM192.75 24.81C191.998 24.1391 191.211 23.4707 190.41 22.8233L190.994 22.596C191.802 23.2484 192.595 23.9218 193.353 24.5979L192.75 24.81ZM38.0623 22.4919L37.4805 22.2621C38.301 21.61 39.1589 20.96 40.0309 20.3302L40.5932 20.5746C39.728 21.1997 38.8764 21.8448 38.0623 22.4919ZM187.909 20.8981C187.051 20.2685 186.158 19.6427 185.253 19.038L185.799 18.7818C186.71 19.3912 187.61 20.0217 188.475 20.656L187.909 20.8981ZM43.277 18.7245L42.7352 18.4659C43.656 17.8598 44.6157 17.2566 45.5876 16.6729L46.1079 16.945C45.1435 17.5242 44.1911 18.123 43.277 18.7245ZM182.449 17.2471C181.493 16.6639 180.501 16.0859 179.502 15.5293L180.004 15.2463C181.011 15.8073 182.01 16.3896 182.973 16.9772L182.449 17.2471ZM49.0795 15.2401L48.5818 14.955C49.5996 14.397 50.6528 13.8453 51.7119 13.3154L52.1859 13.613C51.1348 14.1388 50.0896 14.6863 49.0795 15.2401V15.2401ZM176.418 13.888C175.37 13.3554 174.289 12.8302 173.203 12.3268L173.657 12.0195C174.75 12.5267 175.841 13.0559 176.896 13.5926L176.418 13.888ZM55.4206 12.0668L54.9712 11.7576C56.0721 11.2552 57.2097 10.7598 58.3528 10.285L58.7768 10.6053C57.6422 11.0766 56.5131 11.5683 55.4206 12.0668H55.4206ZM62.2471 9.23153L61.8498 8.90064C63.028 8.45641 64.2409 8.02142 65.455 7.60747L65.8248 7.94829C64.62 8.35903 63.4164 8.7908 62.2471 9.23153H62.2471ZM69.5026 6.75834L69.1609 6.40837C70.4074 6.02616 71.6854 5.65535 72.9595 5.30606L73.2723 5.66441C72.0079 6.01097 70.7396 6.37896 69.5026 6.75834ZM155.4 5.83424C154.134 5.48066 152.837 5.13906 151.544 4.81898L151.832 4.45421C153.134 4.77672 154.442 5.12095 155.718 5.47725L155.4 5.83424ZM77.1261 4.66874L76.8432 4.30278C78.1458 3.98641 79.4782 3.68298 80.8034 3.40088L81.056 3.77383C79.7409 4.0537 78.4188 4.35479 77.1261 4.66874ZM147.608 3.90403C146.29 3.61765 144.941 3.3444 143.599 3.092L143.825 2.71379C145.178 2.96824 146.537 3.24352 147.865 3.53224L147.608 3.90403ZM85.0652 2.97934L84.8435 2.60035C86.1961 2.35184 87.5761 2.11784 88.9451 1.90507L89.1354 2.28932C87.7768 2.50053 86.4074 2.73269 85.0652 2.97934H85.0652ZM139.537 2.38631C138.179 2.16945 136.795 1.96749 135.422 1.78608L135.585 1.39794C136.969 1.58071 138.364 1.78423 139.732 2.00265L139.537 2.38631ZM93.2582 1.70516L93.0997 1.31633C94.4863 1.13881 95.8989 0.977069 97.2979 0.835679L97.4244 1.22811C96.0358 1.36853 94.6342 1.529 93.2582 1.70516ZM131.261 1.29296C129.875 1.14718 128.464 1.01748 127.065 0.907446L127.164 0.512483C128.573 0.623397 129.996 0.754077 131.393 0.900921L131.261 1.29296ZM101.626 0.858952L101.531 0.463601C102.94 0.358239 104.373 0.269626 105.79 0.200489L105.852 0.597787C104.446 0.666534 103.024 0.75436 101.626 0.858952ZM122.842 0.630116C121.44 0.556108 120.013 0.499046 118.6 0.460777L118.635 0.0623106C120.058 0.10097 121.496 0.158422 122.908 0.233022L122.842 0.630116ZM110.096 0.444808L110.066 0.0463499C111.374 0.0157736 112.707 0.00019544 114.029 0L114.351 0.00029061L114.349 0.399147L114.029 0.398856C112.718 0.399042 111.394 0.414522 110.096 0.444808Z" fill="#3F3D56"/>
<path d="M321 130.085H60.1431V130.484H321V130.085Z" fill="#3F3D56"/>
<path d="M212.818 63.0243L216.376 93.9357C216.376 93.9357 224.917 106.101 224.562 117.668C224.562 117.668 221.359 122.254 223.85 123.052C226.341 123.85 227.764 124.448 226.341 125.046C224.917 125.645 223.85 127.041 224.917 127.44C225.985 127.838 226.341 128.437 225.985 128.437H215.309C215.309 128.437 217.444 125.445 214.241 124.648C211.038 123.85 212.818 121.856 212.818 121.856L188.974 82.7677L170.112 118.665C170.112 118.665 173.315 119.861 170.824 120.46C168.333 121.058 167.265 119.861 168.333 121.058C169.401 122.254 167.977 122.853 167.977 123.052C167.977 123.252 157.301 122.454 157.301 122.454C157.301 122.454 162.639 119.861 160.148 119.263C157.657 118.665 156.589 118.066 157.301 117.668C158.013 117.269 160.86 113.48 160.86 113.48C160.86 113.48 162.283 99.1208 162.639 98.5225C162.995 97.9242 162.639 95.1322 162.639 93.7362C162.639 92.3402 162.283 86.7563 163.351 85.3603C164.418 83.9643 165.486 66.8134 171.18 64.8192C176.874 62.8249 212.818 63.0243 212.818 63.0243Z" fill="#2F2E41"/>
<path d="M167.621 122.055C167.621 122.055 174.739 130.232 169.757 131.229C164.774 132.226 158.369 131.428 156.945 132.625C155.522 133.821 139.863 135.217 139.507 132.226C139.151 129.234 156.589 123.65 156.589 123.65L158.861 121.601L167.621 122.055Z" fill="#2F2E41"/>
<path d="M225.273 128.038C225.273 128.038 232.391 136.214 227.409 137.212C222.426 138.209 216.02 137.411 214.597 138.608C213.173 139.804 197.515 141.2 197.159 138.209C196.803 135.217 214.241 129.633 214.241 129.633L216.513 127.584L225.273 128.038Z" fill="#2F2E41"/>
<path d="M192.355 25.4321C198.841 25.4321 204.099 22.4856 204.099 18.851C204.099 15.2163 198.841 12.2699 192.355 12.2699C185.869 12.2699 180.611 15.2163 180.611 18.851C180.611 22.4856 185.869 25.4321 192.355 25.4321Z" fill="#A0616A"/>
<path d="M200.362 22.3409L198.939 28.1244L188.262 32.7112L185.415 30.5175V22.9392L200.362 22.3409Z" fill="#A0616A"/>
<path d="M183.636 29.7198C183.636 29.7198 194.668 30.3181 200.362 28.1244L211.75 65.8163C211.75 65.8163 171.536 67.6112 169.757 66.4146V54.6483L176.874 35.5032L183.636 29.7198Z" fill="#3F3D56"/>
<path d="M199.382 26.3223L203.209 28.1244C203.209 28.1244 218.867 29.5204 217.8 31.9135L213.529 60.2323L214.953 69.8048C214.953 69.8048 202.853 68.01 193.6 69.8048C184.347 71.5997 191.699 31.2348 191.699 31.2348C191.699 31.2348 200.181 26.9134 199.382 26.3223Z" fill="#D0CDE1"/>
<path d="M185.415 28.5052C185.415 28.5052 174.027 33.1101 172.604 36.1015C171.18 39.0929 166.554 70.6026 166.554 70.6026C166.554 70.6026 168.689 70.0043 169.757 71.0014C170.824 71.9986 187.195 30.0826 185.415 28.5052Z" fill="#D0CDE1"/>
<path d="M180.616 18.5642C180.616 18.5642 179.345 17.4956 179.834 16.3447C180.126 15.6913 180.242 15.017 180.176 14.3444C180.176 14.3444 181.203 12.481 182.23 11.4398C183.257 10.3985 182.768 9.96006 185.995 9.63124C189.223 9.30242 187.902 6.94586 196.411 9.49423C196.698 9.71883 197.097 9.89074 197.558 9.98828C198.019 10.0858 198.522 10.1046 199.002 10.0423C200.763 9.85045 201.398 11.2205 201.398 11.2205C201.398 11.2205 202.572 10.8369 203.012 11.385C203.452 11.933 206.59 11.056 206.59 14.7553C206.59 18.4545 203.019 21.7589 203.019 21.7589C203.019 21.7589 203.281 15.5363 197.462 14.9061C191.643 14.2759 185.384 12.4399 183.868 14.7965C183.05 16.1191 181.959 17.3836 180.616 18.5642Z" fill="#2F2E41"/>
<path d="M203.147 20.0437C203.78 20.0437 204.294 19.6598 204.294 19.1862C204.294 18.7125 203.78 18.3286 203.147 18.3286C202.513 18.3286 201.999 18.7125 201.999 19.1862C201.999 19.6598 202.513 20.0437 203.147 20.0437Z" fill="#A0616A"/>
<path d="M154.913 80.8581C152.097 79.9091 148.702 79.9816 147.411 80.0541C147.902 80.7266 149.377 82.442 152.193 83.3915C155.016 84.3428 158.407 84.2682 159.696 84.1962C159.205 83.5239 157.73 81.8078 154.913 80.8581Z" fill="#D0CDE1"/>
<path d="M168.146 99.6888H150.545C149.495 99.6888 148.488 99.9226 147.745 100.339C147.003 100.755 146.585 101.319 146.585 101.908C146.585 102.497 147.003 103.061 147.745 103.477C148.488 103.893 149.495 104.127 150.545 104.127H168.146C169.195 104.127 170.202 103.893 170.943 103.476C171.685 103.06 172.102 102.496 172.102 101.908C172.102 101.32 171.685 100.756 170.943 100.34C170.202 99.9234 169.195 99.6894 168.146 99.6888Z" fill="#D0CDE1"/>
<path d="M247.845 76.2644H149.167C148.019 76.2644 146.882 76.3911 145.822 76.6373C144.761 76.8835 143.797 77.2443 142.986 77.6992C142.174 78.154 141.53 78.694 141.091 79.2883C140.652 79.8826 140.425 80.5196 140.425 81.1629V108.105C140.425 109.404 141.346 110.65 142.986 111.569C144.625 112.488 146.848 113.004 149.167 113.004H247.845C248.993 113.004 250.13 112.877 251.191 112.631C252.251 112.385 253.215 112.024 254.026 111.569C254.838 111.114 255.482 110.574 255.921 109.98C256.361 109.386 256.587 108.749 256.587 108.105V81.1629C256.587 80.5196 256.361 79.8826 255.921 79.2883C255.482 78.694 254.838 78.154 254.026 77.6992C253.215 77.2443 252.251 76.8835 251.191 76.6373C250.13 76.3911 248.993 76.2644 247.845 76.2644ZM146.725 79.6059C146.92 79.5862 151.541 79.1455 155.367 80.4357C159.193 81.7256 160.663 84.22 160.723 84.3255L160.878 84.5945L160.382 84.6438C159.673 84.7058 158.957 84.7352 158.24 84.7319C156.503 84.7319 153.985 84.5709 151.74 83.8138C147.914 82.5241 146.444 80.0297 146.383 79.9243L146.229 79.6553L146.725 79.6059ZM168.146 104.62H150.546C149.262 104.62 148.031 104.335 147.123 103.826C146.215 103.317 145.705 102.627 145.705 101.908C145.705 101.189 146.215 100.499 147.123 99.9901C148.031 99.4815 149.262 99.1957 150.546 99.1957H168.146C169.429 99.1957 170.66 99.4815 171.568 99.9901C172.476 100.499 172.986 101.189 172.986 101.908C172.986 102.627 172.476 103.317 171.568 103.826C170.66 104.335 169.429 104.62 168.146 104.62ZM248.227 104.127C248.222 104.911 247.665 105.662 246.676 106.217C245.686 106.771 244.346 107.084 242.947 107.086H229.746C228.347 107.084 227.007 106.771 226.017 106.217C225.028 105.662 224.47 104.911 224.466 104.127V99.6888C224.47 98.9048 225.028 98.1535 226.017 97.5991C227.007 97.0447 228.347 96.7323 229.746 96.73H242.947C244.346 96.7323 245.686 97.0447 246.676 97.5991C247.665 98.1535 248.222 98.9048 248.227 99.6888L248.227 104.127Z" fill="#D0CDE1"/>
<path d="M233.927 103.264H228.207C227.798 103.264 227.406 103.355 227.118 103.517C226.829 103.679 226.667 103.898 226.667 104.127C226.667 104.356 226.829 104.576 227.118 104.737C227.406 104.899 227.798 104.99 228.207 104.99H233.927C234.335 104.99 234.727 104.899 235.016 104.737C235.304 104.576 235.467 104.356 235.467 104.127C235.467 103.898 235.304 103.679 235.016 103.517C234.727 103.355 234.335 103.264 233.927 103.264ZM233.927 104.497H228.207C228.12 104.497 228.034 104.488 227.953 104.469C227.873 104.451 227.8 104.423 227.739 104.389C227.677 104.355 227.629 104.314 227.595 104.269C227.562 104.224 227.545 104.176 227.545 104.127C227.545 104.079 227.562 104.03 227.595 103.985C227.629 103.94 227.677 103.9 227.739 103.865C227.8 103.831 227.873 103.804 227.953 103.785C228.034 103.767 228.12 103.757 228.207 103.757H233.927C234.013 103.757 234.099 103.767 234.18 103.785C234.26 103.804 234.333 103.831 234.394 103.865C234.456 103.9 234.504 103.94 234.538 103.985C234.571 104.03 234.588 104.079 234.588 104.127C234.588 104.176 234.571 104.224 234.538 104.269C234.504 104.314 234.456 104.355 234.394 104.389C234.333 104.423 234.26 104.451 234.18 104.469C234.099 104.488 234.013 104.497 233.927 104.497Z" fill="#D0CDE1"/>
<path d="M244.487 103.264H238.766C238.564 103.264 238.364 103.286 238.176 103.329C237.989 103.373 237.819 103.436 237.676 103.516C237.533 103.597 237.419 103.692 237.342 103.797C237.264 103.901 237.224 104.014 237.224 104.127C237.224 104.241 237.264 104.353 237.342 104.458C237.419 104.563 237.533 104.658 237.676 104.738C237.819 104.818 237.989 104.882 238.176 104.925C238.364 104.968 238.564 104.99 238.766 104.99H244.487C244.895 104.99 245.287 104.899 245.576 104.737C245.864 104.576 246.027 104.356 246.027 104.127C246.027 103.898 245.864 103.679 245.576 103.517C245.287 103.355 244.895 103.264 244.487 103.264ZM244.487 104.497H238.766C238.68 104.497 238.594 104.488 238.513 104.469C238.433 104.451 238.36 104.423 238.299 104.389C238.237 104.355 238.189 104.314 238.155 104.269C238.122 104.224 238.105 104.176 238.105 104.127C238.105 104.079 238.122 104.03 238.155 103.985C238.189 103.94 238.237 103.9 238.299 103.865C238.36 103.831 238.433 103.804 238.513 103.785C238.594 103.767 238.68 103.757 238.766 103.757H244.487C244.661 103.758 244.829 103.797 244.952 103.866C245.076 103.935 245.145 104.029 245.145 104.127C245.145 104.225 245.076 104.319 244.952 104.388C244.829 104.458 244.661 104.497 244.487 104.497Z" fill="#D0CDE1"/>
<path d="M233.927 101.045H228.207C227.798 101.045 227.406 101.136 227.118 101.298C226.829 101.46 226.667 101.679 226.667 101.908C226.667 102.137 226.829 102.356 227.118 102.518C227.406 102.68 227.798 102.771 228.207 102.771H233.927C234.129 102.771 234.329 102.749 234.517 102.706C234.704 102.662 234.874 102.599 235.017 102.519C235.16 102.439 235.274 102.343 235.351 102.239C235.429 102.134 235.469 102.021 235.469 101.908C235.469 101.795 235.429 101.682 235.351 101.577C235.274 101.473 235.16 101.377 235.017 101.297C234.874 101.217 234.704 101.154 234.517 101.11C234.329 101.067 234.129 101.045 233.927 101.045ZM233.927 102.278H228.207C228.031 102.278 227.864 102.239 227.74 102.17C227.616 102.1 227.547 102.006 227.547 101.908C227.547 101.81 227.616 101.716 227.74 101.646C227.864 101.577 228.031 101.538 228.207 101.538H233.927C234.102 101.538 234.269 101.577 234.393 101.646C234.517 101.716 234.587 101.81 234.587 101.908C234.587 102.006 234.517 102.1 234.393 102.17C234.269 102.239 234.102 102.278 233.927 102.278Z" fill="#D0CDE1"/>
<path d="M244.487 101.045H238.766C238.564 101.045 238.364 101.067 238.176 101.11C237.989 101.154 237.819 101.217 237.676 101.297C237.533 101.377 237.419 101.473 237.342 101.577C237.264 101.682 237.224 101.795 237.224 101.908C237.224 102.021 237.264 102.134 237.342 102.239C237.419 102.343 237.533 102.439 237.676 102.519C237.819 102.599 237.989 102.662 238.176 102.706C238.364 102.749 238.564 102.771 238.766 102.771H244.487C244.895 102.771 245.287 102.68 245.576 102.518C245.864 102.356 246.027 102.137 246.027 101.908C246.027 101.679 245.864 101.46 245.576 101.298C245.287 101.136 244.895 101.045 244.487 101.045ZM244.487 102.278H238.766C238.591 102.278 238.424 102.239 238.3 102.17C238.176 102.1 238.106 102.006 238.106 101.908C238.106 101.81 238.176 101.716 238.3 101.646C238.424 101.577 238.591 101.538 238.766 101.538H244.487C244.662 101.538 244.829 101.577 244.953 101.646C245.077 101.716 245.147 101.81 245.147 101.908C245.147 102.006 245.077 102.1 244.953 102.17C244.829 102.239 244.662 102.278 244.487 102.278Z" fill="#D0CDE1"/>
<path d="M233.927 98.8258H228.207C227.798 98.8258 227.406 98.9168 227.118 99.0786C226.829 99.2404 226.667 99.46 226.667 99.6888C226.667 99.9177 226.829 100.137 227.118 100.299C227.406 100.461 227.798 100.552 228.207 100.552H233.927C234.335 100.552 234.727 100.461 235.016 100.299C235.304 100.137 235.467 99.9177 235.467 99.6888C235.467 99.46 235.304 99.2404 235.016 99.0786C234.727 98.9168 234.335 98.8258 233.927 98.8258ZM233.927 100.059H228.207C228.031 100.059 227.864 100.02 227.74 99.9504C227.616 99.881 227.547 99.7869 227.547 99.6888C227.547 99.5907 227.616 99.4967 227.74 99.4273C227.864 99.3579 228.031 99.319 228.207 99.319H233.927C234.102 99.319 234.27 99.3579 234.393 99.4273C234.517 99.4967 234.587 99.5907 234.587 99.6888C234.587 99.7869 234.517 99.881 234.393 99.9504C234.27 100.02 234.102 100.059 233.927 100.059Z" fill="#D0CDE1"/>
<path d="M244.486 98.8258H238.766C238.564 98.8257 238.364 98.8479 238.176 98.8912C237.989 98.9344 237.819 98.998 237.676 99.0781C237.533 99.1583 237.419 99.2535 237.342 99.3583C237.264 99.4631 237.224 99.5754 237.224 99.6888C237.224 99.8023 237.264 99.9146 237.342 100.019C237.419 100.124 237.533 100.219 237.676 100.3C237.819 100.38 237.989 100.443 238.176 100.487C238.364 100.53 238.564 100.552 238.766 100.552H244.486C244.895 100.552 245.286 100.46 245.574 100.299C245.862 100.137 246.024 99.9175 246.024 99.6888C246.024 99.4602 245.862 99.2409 245.574 99.0791C245.286 98.9173 244.895 98.8262 244.486 98.8258ZM244.486 100.059H238.766C238.591 100.059 238.424 100.02 238.3 99.9504C238.176 99.881 238.106 99.7869 238.106 99.6888C238.106 99.5907 238.176 99.4967 238.3 99.4273C238.424 99.3579 238.591 99.319 238.766 99.319H244.486C244.662 99.319 244.829 99.3579 244.953 99.4273C245.077 99.4967 245.146 99.5907 245.146 99.6888C245.146 99.7869 245.077 99.881 244.953 99.9504C244.829 100.02 244.662 100.059 244.486 100.059Z" fill="#D0CDE1"/>
<path d="M216.732 70.2037L214.181 74.8686C214.181 74.8686 213.529 83.5654 204.988 82.3688C196.447 81.1723 207.479 71.0014 207.479 71.0014L209.971 68.8077L216.732 70.2037Z" fill="#A0616A"/>
<path d="M168.333 70.2037L165.782 74.8686C165.782 74.8686 165.13 83.5654 156.589 82.3688C148.048 81.1723 159.08 71.0014 159.08 71.0014L161.571 68.8077L168.333 70.2037Z" fill="#A0616A"/>
<path d="M214.953 30.5175C214.953 30.5175 220.647 29.7198 222.426 35.1044C224.206 40.4889 226.341 55.8449 226.341 55.8449L217.8 71.9986C217.8 71.9986 209.259 69.406 207.479 69.8049L214.201 55.7809L208.547 41.4861C208.547 41.4861 213.529 30.5175 214.953 30.5175Z" fill="#D0CDE1"/>
<path opacity="0.15" d="M206.674 41.7589L214.147 55.7188L206.674 69.8782L210.944 55.7188L206.674 41.7589Z" fill="black"/>
<path d="M172.604 41.4861L159.792 69.8049C159.792 69.8049 166.55 71.0547 169.041 72.0519L172.604 41.4861Z" fill="#D0CDE1"/>
<path d="M38.2076 112.654C57.8621 112.654 73.7952 103.725 73.7952 92.711C73.7952 81.6969 57.8621 72.7682 38.2076 72.7682C18.5531 72.7682 2.62 81.6969 2.62 92.711C2.62 103.725 18.5531 112.654 38.2076 112.654Z" fill="#3F3D56"/>
<path opacity="0.1" d="M38.2076 109.862C55.1105 109.862 68.813 102.183 68.813 92.711C68.813 83.2389 55.1105 75.5602 38.2076 75.5602C21.3048 75.5602 7.60229 83.2389 7.60229 92.711C7.60229 102.183 21.3048 109.862 38.2076 109.862Z" fill="black"/>
<path d="M36.7411 102.832V100.335C34.4894 100.311 32.1599 99.8657 30.8011 99.2478L31.7328 97.5919C33.3475 98.27 35.3058 98.6422 37.3234 98.6546C40.08 98.6546 41.9435 97.6413 41.9435 96.2325C41.9435 94.8732 40.4293 94.0329 37.5564 93.2914C33.5964 92.3028 31.1505 91.1658 31.1505 89.0157C31.1505 86.9642 33.4411 85.4072 37.0129 85.0364V82.5402H39.4199V84.9376C41.2148 84.9514 42.9655 85.2514 44.4671 85.8026L43.4964 87.4339C42.0563 86.8814 40.3498 86.5883 38.6046 86.5935C35.6153 86.5935 34.4894 87.7304 34.4894 88.719C34.4894 90.0042 35.9258 90.6468 39.3036 91.5367C43.3023 92.5747 45.3212 93.8599 45.3212 96.0595C45.3212 98.012 43.1859 99.8411 39.187 100.261V102.832H36.7411Z" fill="#63D096"/>
<path d="M75.8016 133.276C50.6734 135.376 25.1283 135.376 0 133.276V128.49C25.1549 130.378 50.6467 130.378 75.8016 128.49V133.276Z" fill="#3F3D56"/>
<path d="M75.8016 125.897C50.6734 127.997 25.1283 127.997 0 125.897V121.111C25.1549 122.999 50.6467 122.999 75.8016 121.111V125.897Z" fill="#3F3D56"/>
<path d="M75.8016 118.519C50.6734 120.619 25.1283 120.619 0 118.519V113.732C25.1549 115.62 50.6467 115.62 75.8016 113.732V118.519Z" fill="#3F3D56"/>
</g>
<defs>
<clipPath id="clip0">
<rect width="321" height="140" fill="white"/>
</clipPath>
</defs>
</svg>
