<svg width="512" height="496" viewBox="0 0 512 496" fill="none" xmlns="http://www.w3.org/2000/svg">
<path d="M450.206 142.069H220.689C215.814 142.069 211.861 138.117 211.861 133.241V124.414C211.861 109.788 200.005 97.931 185.379 97.931H61.7923C47.1663 97.931 35.3096 109.788 35.3096 124.414V203.862H476.689V168.552C476.689 153.926 464.832 142.069 450.206 142.069Z" fill="#7DC6D1"/>
<path d="M376.938 495.172H425.136C441.972 495.159 456.457 483.261 459.74 466.748L511.647 207.305C512.677 202.123 511.332 196.752 507.982 192.667C504.632 188.581 499.628 186.211 494.344 186.207H17.6548C12.3714 186.211 7.36766 188.581 4.01738 192.667C0.667098 196.752 -0.677513 202.123 0.352746 207.305L52.259 466.748C55.542 483.261 70.0269 495.159 86.8631 495.172H376.938Z" fill="#7DC6D1"/>
<path d="M61.7923 230.345H44.1372C39.2618 230.345 35.3096 226.393 35.3096 221.517C35.3096 216.642 39.2618 212.69 44.1372 212.69H61.7923C66.6677 212.69 70.6199 216.642 70.6199 221.517C70.6199 226.393 66.6677 230.345 61.7923 230.345Z" fill="#7DC6D1"/>
<path d="M238.344 230.345H97.103C92.2276 230.345 88.2754 226.393 88.2754 221.517C88.2754 216.642 92.2276 212.69 97.103 212.69H238.344C243.22 212.69 247.172 216.642 247.172 221.517C247.172 226.393 243.22 230.345 238.344 230.345Z" fill="#7DC6D1"/>
<path d="M328.209 142.069H328.121" stroke="black" stroke-width="17.6552" stroke-linecap="round" stroke-linejoin="round"/>
<path d="M471.746 186.207L476.689 172.701L493.285 127.15C496.596 117.985 491.855 107.87 482.692 104.552L200.651 1.88691C191.485 -1.42411 181.371 3.31722 178.052 12.48L146.979 97.931L114.847 186.207H471.746Z" fill="#7DC6D1"/>
<path d="M434.229 186.207L450.295 142.069L454.091 131.652L213.531 44.0828C211.329 43.285 208.9 43.3949 206.779 44.3883C204.658 45.3816 203.019 47.177 202.222 49.3793L152.364 186.207H434.229Z" fill="#2FA8CC"/>
<path d="M158.808 186.207L247.516 139.023C249.655 137.886 252.167 137.678 254.464 138.448C256.761 139.217 258.641 140.897 259.663 143.093L279.746 186.207H158.808Z" fill="#7DC6D1"/>
<path d="M318.058 186.207L384 151.117C386.136 149.979 388.647 149.768 390.943 150.534C393.24 151.301 395.121 152.976 396.146 155.169L410.659 186.207H318.058Z" fill="#7DC6D1"/>
<path d="M311.517 153.827C321.267 153.827 329.172 145.923 329.172 136.172C329.172 126.421 321.267 118.517 311.517 118.517C301.766 118.517 293.861 126.421 293.861 136.172C293.861 145.923 301.766 153.827 311.517 153.827Z" fill="#7DC6D1"/>
</svg>
