<svg width="512" height="527" viewBox="0 0 512 527" fill="none" xmlns="http://www.w3.org/2000/svg">
<path d="M96.1221 155.867H416.028V370.209H96.1221V155.867Z" fill="#7DC6D1"/>
<path d="M416.028 339.339V370.208H96.1221V155.868H166.101V308.468C166.101 325.517 179.529 339.337 196.092 339.337H416.028V339.339Z" fill="#7DC6D1"/>
<path d="M416.028 155.868V198.109L256.075 351.871L96.1221 198.109V155.868H416.028Z" fill="#7DC6D1"/>
<path d="M96.1221 155.867L256.075 309.634L416.028 155.867H96.1221Z" fill="#7DC6D1"/>
<path d="M96.1221 155.867L256.075 309.634L416.028 155.867H96.1221Z" fill="#7DC6D1"/>
<path d="M62.482 518.991C92.8489 518.991 117.466 493.653 117.466 462.396C117.466 431.14 92.8489 405.801 62.482 405.801C32.1152 405.801 7.49805 431.14 7.49805 462.396C7.49805 493.653 32.1152 518.991 62.482 518.991Z" fill="#F5F8F9"/>
<path d="M62.4819 518.991C50.8349 518.991 40.0389 515.266 31.1509 508.907C32.2409 492.073 45.8469 478.768 62.4819 478.768C71.1589 478.768 78.9969 482.38 84.6849 488.235C89.9029 493.596 93.2919 500.851 93.8119 508.907C84.9249 515.266 74.1279 518.991 62.4819 518.991Z" fill="#7DC6D1"/>
<path d="M450.814 518.991C481.181 518.991 505.798 493.653 505.798 462.396C505.798 431.14 481.181 405.801 450.814 405.801C420.447 405.801 395.83 431.14 395.83 462.396C395.83 493.653 420.447 518.991 450.814 518.991Z" fill="#F5F8F9"/>
<path d="M482.145 508.906C473.258 515.265 462.461 518.99 450.814 518.99C439.167 518.99 428.371 515.265 419.483 508.906C420.573 492.072 434.179 478.767 450.814 478.767C459.491 478.767 467.329 482.379 473.017 488.234C478.236 493.595 481.625 500.85 482.145 508.906V508.906Z" fill="#8AC9FE"/>
<path d="M450.256 121.199C480.623 121.199 505.24 95.8603 505.24 64.6038C505.24 33.3473 480.623 8.00891 450.256 8.00891C419.889 8.00891 395.272 33.3473 395.272 64.6038C395.272 95.8603 419.889 121.199 450.256 121.199Z" fill="#F5F8F9"/>
<path d="M481.587 111.115C472.7 117.474 461.903 121.199 450.256 121.199C438.609 121.199 427.813 117.474 418.925 111.115C420.015 94.2805 433.621 80.9758 450.256 80.9758C458.933 80.9758 466.771 84.5876 472.46 90.4423C477.678 95.8029 481.067 103.057 481.587 111.115Z" fill="#7DC6D1"/>
<path d="M62.482 121.467C92.8489 121.467 117.466 96.1289 117.466 64.8724C117.466 33.616 92.8489 8.27759 62.482 8.27759C32.1152 8.27759 7.49805 33.616 7.49805 64.8724C7.49805 96.1289 32.1152 121.467 62.482 121.467Z" fill="#F5F8F9"/>
<path d="M93.8129 111.382C84.9259 117.741 74.1289 121.466 62.4819 121.466C50.8349 121.466 40.0389 117.741 31.1509 111.382C32.2409 94.5481 45.8469 81.2434 62.4819 81.2434C71.1589 81.2434 78.9969 84.8552 84.6849 90.7098C89.9039 96.0715 93.2929 103.326 93.8129 111.382V111.382Z" fill="#8AC9FE"/>
<path d="M166.102 155.868V223.144L96.1221 155.868H166.102Z" fill="#7DC6D1"/>
<path d="M166.102 155.868V223.144L96.1221 155.868H166.102Z" fill="#7DC6D1"/>
<path d="M62.4821 81.2413C73.958 81.2413 83.2611 71.6657 83.2611 59.8536C83.2611 48.0415 73.958 38.4658 62.4821 38.4658C51.0062 38.4658 41.7031 48.0415 41.7031 59.8536C41.7031 71.6657 51.0062 81.2413 62.4821 81.2413Z" fill="#FFF3DE"/>
<path d="M450.814 478.765C462.29 478.765 471.593 469.189 471.593 457.377C471.593 445.565 462.29 435.99 450.814 435.99C439.338 435.99 430.035 445.565 430.035 457.377C430.035 469.189 439.338 478.765 450.814 478.765Z" fill="#FFEEE6"/>
<path d="M450.256 80.9738C461.732 80.9738 471.035 71.3981 471.035 59.586C471.035 47.7739 461.732 38.1982 450.256 38.1982C438.78 38.1982 429.477 47.7739 429.477 59.586C429.477 71.3981 438.78 80.9738 450.256 80.9738Z" fill="#7DC6D1"/>
<path d="M62.4821 478.765C73.958 478.765 83.2611 469.189 83.2611 457.377C83.2611 445.565 73.958 435.99 62.4821 435.99C51.0062 435.99 41.7031 445.565 41.7031 457.377C41.7031 469.189 51.0062 478.765 62.4821 478.765Z" fill="#7DC6D1"/>
<path d="M449.66 397.711C435.17 397.711 421.83 402.84 411.233 411.408L378.436 377.649H414.96C419.102 377.649 422.46 374.194 422.46 369.929V156.144C422.46 151.88 419.102 148.425 414.96 148.425H378.779L410.676 115.593C421.274 124.161 434.613 129.29 449.103 129.29C483.478 129.29 511.443 100.505 511.443 65.1236C511.443 29.7415 483.477 0.956177 449.103 0.956177C414.729 0.956177 386.763 29.7415 386.763 65.1236C386.763 80.0371 391.746 93.7679 400.069 104.675L357.565 148.425H264.78C260.638 148.425 257.28 151.88 257.28 156.144C257.28 160.409 260.638 163.864 264.78 163.864H395.942L255.43 298.947L114.909 163.864H232.1C236.242 163.864 239.6 160.409 239.6 156.144C239.6 151.88 236.242 148.425 232.1 148.425H153.618L111.374 104.943C119.698 94.0345 124.681 80.3047 124.681 65.3902C124.681 30.0081 96.715 1.22276 62.341 1.22276C27.967 1.22276 0 30.0081 0 65.3902C0 100.771 27.966 129.557 62.34 129.557C76.83 129.557 90.169 124.428 100.767 115.861L132.404 148.425H95.89C91.748 148.425 88.39 151.88 88.39 156.144V246.218C88.39 250.482 91.748 253.938 95.89 253.938C100.032 253.938 103.39 250.482 103.39 246.218V173.917L187.957 255.211L103.39 350.099V279.866C103.39 275.601 100.032 272.146 95.89 272.146C91.748 272.146 88.39 275.601 88.39 279.866V369.929C88.39 374.194 91.748 377.649 95.89 377.649H133.564L100.768 411.407C90.17 402.839 76.831 397.71 62.341 397.71C27.966 397.711 0 426.495 0 461.876C0 497.258 27.966 526.044 62.34 526.044C96.714 526.044 124.68 497.258 124.68 461.876C124.68 446.963 119.697 433.232 111.374 422.325L154.777 377.649H304.06C308.202 377.649 311.56 374.194 311.56 369.929C311.56 365.665 308.202 362.21 304.06 362.21H112.952L198.921 265.75L250.311 315.151C251.752 316.537 253.591 317.229 255.43 317.229C257.269 317.229 259.108 316.537 260.549 315.151L311.936 265.75L397.905 362.21H336.75C332.608 362.21 329.25 365.665 329.25 369.929C329.25 374.194 332.608 377.649 336.75 377.649H357.223L400.626 422.325C392.303 433.232 387.32 446.963 387.32 461.876C387.32 497.258 415.286 526.044 449.66 526.044C484.034 526.044 512 497.258 512 461.876C512 426.495 484.034 397.711 449.66 397.711V397.711ZM426.019 107.642C428.65 96.9937 438.073 89.171 449.103 89.171C455.465 89.171 461.446 91.7216 465.951 96.3576C469.003 99.4928 471.145 103.397 472.191 107.639C465.356 111.587 457.483 113.849 449.103 113.849C440.725 113.849 432.853 111.588 426.019 107.642V107.642ZM449.103 73.7306C441.811 73.7306 435.878 67.6237 435.878 60.1171C435.878 52.6114 441.811 46.5046 449.103 46.5046C456.395 46.5046 462.328 52.6114 462.328 60.1171C462.328 67.6237 456.396 73.7306 449.103 73.7306ZM449.103 16.3956C475.207 16.3956 496.443 38.2548 496.443 65.1236C496.443 77.4844 491.94 88.7778 484.544 97.3776C482.626 92.964 479.932 88.9086 476.552 85.4357C474.476 83.2989 472.2 81.4441 469.777 79.8672C474.458 74.6796 477.328 67.738 477.328 60.1171C477.328 44.0981 464.666 31.0652 449.103 31.0652C433.54 31.0652 420.878 44.0971 420.878 60.1171C420.878 67.7503 423.757 74.7001 428.45 79.8899C422.01 84.075 416.83 90.1581 413.673 97.39C406.27 88.7881 401.763 77.4895 401.763 65.1225C401.763 38.2548 423 16.3956 449.103 16.3956V16.3956ZM15 65.3902C15 38.5214 36.237 16.6622 62.34 16.6622C88.443 16.6622 109.68 38.5214 109.68 65.3902C109.68 77.751 105.177 89.0444 97.781 97.6442C95.863 93.2306 93.169 89.1752 89.789 85.7023C87.713 83.5655 85.437 81.7107 83.014 80.1338C87.695 74.9461 90.565 68.0046 90.565 60.3837C90.565 44.3647 77.903 31.3318 62.34 31.3318C46.777 31.3318 34.115 44.3657 34.115 60.3847C34.115 68.018 36.994 74.9678 41.687 80.1575C35.247 84.3426 30.067 90.4257 26.91 97.6576C19.508 89.0568 15 77.7582 15 65.3902V65.3902ZM62.34 73.9982C55.048 73.9982 49.115 67.8914 49.115 60.3847C49.115 52.8791 55.048 46.7722 62.34 46.7722C69.632 46.7722 75.565 52.8791 75.565 60.3847C75.565 67.8914 69.633 73.9982 62.34 73.9982V73.9982ZM39.256 107.909C41.888 97.2613 51.31 89.4387 62.34 89.4387C68.702 89.4387 74.683 91.9892 79.187 96.6252C82.239 99.7604 84.382 103.665 85.428 107.906C78.593 111.855 70.72 114.117 62.34 114.117C53.962 114.117 46.091 111.856 39.256 107.909V107.909ZM39.256 504.397C41.887 493.749 51.31 485.926 62.34 485.926C68.702 485.926 74.683 488.476 79.187 493.111C82.239 496.247 84.382 500.151 85.428 504.394C78.593 508.342 70.72 510.604 62.34 510.604C53.962 510.604 46.091 508.343 39.256 504.397V504.397ZM62.34 470.484C55.048 470.484 49.115 464.378 49.115 456.872C49.115 449.365 55.048 443.258 62.34 443.258C69.632 443.258 75.565 449.365 75.565 456.872C75.565 464.378 69.633 470.484 62.34 470.484V470.484ZM97.782 494.131C95.864 489.718 93.17 485.661 89.789 482.188C87.713 480.052 85.437 478.198 83.015 476.622C87.696 471.434 90.566 464.494 90.566 456.872C90.566 440.853 77.904 427.819 62.341 427.819C46.778 427.819 34.116 440.852 34.116 456.872C34.116 464.505 36.995 471.455 41.688 476.645C35.247 480.83 30.067 486.913 26.911 494.145C19.508 485.543 15 474.244 15 461.876C15 435.008 36.237 413.149 62.34 413.149C88.443 413.149 109.68 435.008 109.68 461.876C109.681 474.238 105.178 485.532 97.782 494.131V494.131ZM407.46 173.918V350.091L322.9 255.211L407.46 173.918ZM426.576 504.397C429.207 493.749 438.63 485.926 449.66 485.926C456.022 485.926 462.003 488.476 466.507 493.11C469.559 496.247 471.702 500.151 472.748 504.394C465.913 508.342 458.04 510.604 449.66 510.604C441.281 510.604 433.41 508.343 426.576 504.397V504.397ZM449.66 470.484C442.368 470.484 436.435 464.378 436.435 456.872C436.435 449.365 442.368 443.258 449.66 443.258C456.952 443.258 462.885 449.365 462.885 456.872C462.885 464.378 456.952 470.484 449.66 470.484ZM485.101 494.131C483.183 489.718 480.489 485.661 477.109 482.188C475.033 480.052 472.757 478.198 470.335 476.622C475.016 471.434 477.886 464.494 477.886 456.872C477.886 440.853 465.224 427.819 449.661 427.819C434.098 427.819 421.436 440.852 421.436 456.872C421.436 464.505 424.315 471.455 429.008 476.645C422.567 480.83 417.387 486.913 414.231 494.145C406.828 485.543 402.321 474.244 402.321 461.876C402.321 435.008 423.558 413.149 449.661 413.149C475.764 413.149 497 435.009 497 461.876C497 474.238 492.497 485.532 485.101 494.131V494.131Z" fill="#3B86B8"/>
</svg>
