<svg width="353" height="196" viewBox="0 0 353 196" fill="none" xmlns="http://www.w3.org/2000/svg">
<g clip-path="url(#clip0)">
<path opacity="0.1" d="M258.257 0.260345C241.698 -0.26834 224.853 -0.179837 208.862 2.42632C192.871 5.03248 177.664 10.3962 168.564 18.6222C163.353 23.3315 160.243 28.8466 154.175 33.1785C143.649 40.6896 126.444 43.2701 110.566 45.86C73.2783 51.9154 35.7826 60.6655 8.73575 77.0571C4.85275 79.407 1.0686 82.0877 0.189626 85.3367C-1.15883 90.3324 4.77862 95.0067 11.3656 98.2044C17.9526 101.402 25.7468 103.938 30.6217 108.086C36.8381 113.376 37.1875 120.365 35.4226 126.718C33.6576 133.072 30.0252 139.253 29.0686 145.677C28.832 147.26 28.7756 148.912 29.8169 150.377C31.1971 152.319 34.2647 153.637 37.2723 154.746C47.9352 158.695 59.441 161.558 71.4003 163.24C92.0049 166.153 113.492 165.606 134.587 166.803C155.683 168 177.653 171.349 192.479 180.325C201.573 185.829 209.776 193.857 222.742 193.584C230.007 193.433 236.424 190.503 243.671 190.177C251.829 189.809 259.203 192.739 266.895 194.409C277.821 196.784 290.472 196.554 300.716 193.279C310.96 190.005 318.398 183.591 318.998 176.697C319.584 169.943 314.035 163.624 310.83 157.133C300.317 135.867 315.104 113.394 329.807 93.0201C344.509 72.6459 359.681 50.341 349.9 28.9514C338.544 4.1428 294.556 1.42019 258.257 0.260345Z" fill="#63D096"/>
<path d="M83.5974 125.508C83.5974 125.508 71.3624 121.083 67.7371 114.289C66.2438 111.435 63.3875 108.977 59.5969 107.286C57.788 106.492 55.8726 105.809 53.8748 105.246" stroke="#535461" stroke-width="2" stroke-miterlimit="10"/>
<path d="M51.5381 100.976C52.6959 101.745 53.942 105.353 53.942 105.353C53.942 105.353 48.4811 104.507 47.3233 103.741C46.7868 103.37 46.4923 102.874 46.5027 102.362C46.5132 101.849 46.8278 101.359 47.3792 100.997C47.9306 100.636 48.6748 100.431 49.4522 100.427C50.2297 100.423 50.9785 100.62 51.5381 100.976Z" fill="#63D096"/>
<path d="M61.4431 102.944C61.7961 104.004 59.8546 107.479 59.8546 107.479C59.8546 107.479 55.9716 104.812 55.6186 103.753C55.5242 103.497 55.5086 103.232 55.5725 102.973C55.6365 102.714 55.7788 102.465 55.991 102.243C56.2032 102.021 56.4809 101.829 56.8077 101.679C57.1345 101.528 57.5037 101.423 57.8934 101.369C58.2831 101.315 58.6853 101.313 59.0762 101.363C59.467 101.414 59.8385 101.515 60.1686 101.662C60.4988 101.809 60.7808 101.998 60.9979 102.219C61.215 102.439 61.3628 102.686 61.4325 102.944H61.4431Z" fill="#63D096"/>
<path d="M72.238 110.311C71.7191 111.338 67.3984 113.698 67.3984 113.698C67.3984 113.698 66.0817 110.099 66.6006 109.072C66.8496 108.578 67.386 108.169 68.0917 107.936C68.7974 107.703 69.6146 107.664 70.3636 107.828C71.1125 107.993 71.7319 108.347 72.0854 108.812C72.4389 109.278 72.4976 109.817 72.2486 110.311H72.238Z" fill="#63D096"/>
<path d="M78.5071 117.098C78.26 118.167 74.603 120.976 74.603 120.976C74.603 120.976 72.3861 117.578 72.6332 116.506C72.7723 116.004 73.2023 115.558 73.8319 115.262C74.4615 114.966 75.2412 114.843 76.0055 114.92C76.7699 114.997 77.4586 115.268 77.9257 115.674C78.3928 116.081 78.6013 116.592 78.5071 117.098Z" fill="#63D096"/>
<path d="M55.654 110.53C57.2955 110.518 62.008 108.522 62.008 108.522C62.008 108.522 57.2178 106.599 55.5763 106.61C54.8055 106.633 54.0781 106.852 53.5478 107.222C53.0175 107.591 52.7259 108.083 52.7346 108.592C52.7433 109.101 53.0516 109.587 53.5945 109.949C54.1373 110.311 54.8721 110.519 55.6434 110.53H55.654Z" fill="#63D096"/>
<path d="M63.1377 118.407C64.6979 118.071 68.2985 115.235 68.2985 115.235C68.2985 115.235 62.8553 114.345 61.295 114.68C60.5712 114.855 59.9782 115.208 59.6411 115.665C59.304 116.122 59.2491 116.648 59.4881 117.131C59.7271 117.614 60.2413 118.017 60.9221 118.255C61.603 118.493 62.3973 118.548 63.1377 118.407Z" fill="#63D096"/>
<path d="M72.0121 125.405C73.6359 125.249 77.9107 122.844 77.9107 122.844C77.9107 122.844 72.7711 121.36 71.1473 121.516C70.7602 121.553 70.3881 121.641 70.0522 121.773C69.7163 121.906 69.4232 122.08 69.1897 122.287C68.9561 122.494 68.7867 122.73 68.691 122.98C68.5954 123.23 68.5753 123.491 68.6321 123.746C68.6889 124.001 68.8214 124.247 69.022 124.469C69.2226 124.69 69.4874 124.884 69.8012 125.038C70.1151 125.192 70.4719 125.303 70.8512 125.367C71.2306 125.43 71.625 125.443 72.0121 125.405Z" fill="#63D096"/>
<path d="M93.2166 106.473C93.2166 106.473 84.7446 99.1529 85.6024 91.9772C85.9895 88.969 84.8871 85.9591 82.4607 83.3995C81.2945 82.1906 79.9628 81.0547 78.4824 80.0061" stroke="#535461" stroke-width="2" stroke-miterlimit="10"/>
<path d="M78.9766 75.4785C79.5626 76.4893 78.4895 80.1226 78.4895 80.1226C78.4895 80.1226 74.0135 77.8914 73.4275 76.8806C73.2696 76.6377 73.1877 76.3764 73.1868 76.1121C73.1858 75.8479 73.2658 75.5863 73.422 75.343C73.5781 75.0996 73.8071 74.8797 74.0954 74.6962C74.3836 74.5127 74.725 74.3696 75.0992 74.2754C75.4733 74.1812 75.8725 74.1378 76.2727 74.1479C76.6728 74.158 77.0658 74.2214 77.428 74.3342C77.7901 74.447 78.114 74.6069 78.3801 74.8043C78.6462 75.0018 78.8491 75.2327 78.9766 75.4832V75.4785Z" fill="#63D096"/>
<path d="M86.8133 79.9222C86.4603 80.9819 82.5773 83.6487 82.5773 83.6487C82.5773 83.6487 80.6605 80.1714 80.9994 79.1117C81.0751 78.8564 81.2271 78.6135 81.4465 78.3973C81.6659 78.1811 81.9483 77.9958 82.2773 77.8523C82.6063 77.7088 82.9753 77.6099 83.3627 77.5615C83.7502 77.513 84.1484 77.5159 84.5342 77.57C84.92 77.6241 85.2856 77.7283 85.6097 77.8765C85.9338 78.0248 86.21 78.2141 86.4221 78.4334C86.6342 78.6528 86.7781 78.8978 86.8452 79.1542C86.9124 79.4106 86.9015 79.6733 86.8133 79.9269V79.9222Z" fill="#63D096"/>
<path d="M92.1613 89.5434C91.0564 90.3445 85.6555 91.346 85.6555 91.346C85.6555 91.346 86.6616 87.7058 87.7735 86.9046C88.0327 86.706 88.3496 86.5437 88.7054 86.4273C89.0612 86.3108 89.4488 86.2426 89.8453 86.2267C90.2418 86.2108 90.6391 86.2474 91.0137 86.3345C91.3883 86.4216 91.7327 86.5574 92.0264 86.7338C92.3202 86.9101 92.5574 87.1236 92.724 87.3615C92.8907 87.5994 92.9833 87.8569 92.9966 88.1188C93.0098 88.3807 92.9433 88.6417 92.8011 88.8864C92.6588 89.1311 92.4437 89.3545 92.1684 89.5434H92.1613Z" fill="#63D096"/>
<path d="M93.7251 97.4247C92.8426 98.3377 87.7771 99.9261 87.7771 99.9261C87.7771 99.9261 87.8371 96.2253 88.7196 95.3123C89.1581 94.8961 89.8239 94.6081 90.5772 94.5087C91.3306 94.4093 92.113 94.5062 92.7604 94.7792C93.4078 95.0521 93.8699 95.4798 94.0497 95.9726C94.2296 96.4654 94.1133 96.985 93.7251 97.4224V97.4247Z" fill="#63D096"/>
<path d="M76.8658 85.3116C78.3731 85.7378 83.9258 85.1765 83.9258 85.1765C83.9258 85.1765 80.724 82.1371 79.2167 81.7109C78.4967 81.5208 77.6926 81.524 76.9761 81.7196C76.2595 81.9153 75.6872 82.288 75.3813 82.7581C75.0755 83.2283 75.0602 83.7588 75.3389 84.2362C75.6175 84.7137 76.168 85.1005 76.8728 85.3139L76.8658 85.3116Z" fill="#63D096"/>
<path d="M78.8707 94.5065C80.5016 94.6159 85.5389 92.9856 85.5389 92.9856C85.5389 92.9856 81.1052 90.7172 79.4743 90.6077C78.7077 90.576 77.9522 90.7413 77.3662 91.069C76.7803 91.3968 76.4094 91.8614 76.3313 92.3656C76.2533 92.8698 76.4741 93.3744 76.9475 93.7735C77.4209 94.1726 78.1102 94.4353 78.8707 94.5065Z" fill="#63D096"/>
<path d="M82.6797 103.28C84.2611 103.571 89.6408 102.523 89.6408 102.523C89.6408 102.523 85.8532 99.7933 84.2717 99.4952C83.8926 99.4193 83.4943 99.3941 83.1002 99.4212C82.7061 99.4483 82.3242 99.5271 81.977 99.653C81.6297 99.7789 81.3242 99.9493 81.0782 100.154C80.8322 100.359 80.6508 100.594 80.5447 100.846C80.4385 101.098 80.4098 101.362 80.4601 101.621C80.5105 101.88 80.6388 102.13 80.8378 102.356C81.0367 102.582 81.3021 102.78 81.6184 102.937C81.9347 103.095 82.2956 103.209 82.6797 103.273V103.28Z" fill="#63D096"/>
<path d="M249.493 116.052C249.493 116.052 247.781 106.913 254.005 101.002C256.638 98.5334 257.987 95.5676 257.849 92.5501C257.766 91.1178 257.485 89.6935 257.009 88.295" stroke="#535461" stroke-width="2" stroke-miterlimit="10"/>
<path d="M260.895 84.5523C260.627 85.6213 256.924 88.3998 256.924 88.3998C256.924 88.3998 254.767 84.9832 255.036 83.9165C255.181 83.4142 255.619 82.9694 256.254 82.6768C256.89 82.3842 257.674 82.267 258.439 82.3503C259.203 82.4335 259.889 82.7105 260.348 83.1223C260.808 83.5341 261.005 84.0481 260.899 84.5547L260.895 84.5523Z" fill="#63D096"/>
<path d="M264.263 90.9944C263.158 91.7955 257.761 92.7993 257.761 92.7993C257.761 92.7993 258.763 89.1591 259.879 88.3579C260.417 87.9967 261.147 87.7871 261.915 87.7731C262.682 87.759 263.429 87.9415 263.997 88.2824C264.565 88.6233 264.911 89.096 264.963 89.6016C265.014 90.1072 264.767 90.6063 264.274 90.9944H264.263Z" fill="#63D096"/>
<path d="M261.523 101.084C259.956 101.407 254.531 100.476 254.531 100.476C254.531 100.476 258.184 97.6669 259.748 97.3432C260.487 97.2169 261.271 97.2831 261.938 97.528C262.606 97.7729 263.104 98.1777 263.331 98.6586C263.558 99.1396 263.496 99.6597 263.157 100.111C262.819 100.563 262.23 100.911 261.513 101.084H261.523Z" fill="#63D096"/>
<path d="M256.846 108.408C255.385 108.902 249.786 108.588 249.786 108.588C249.786 108.588 252.667 105.411 254.128 104.917C254.476 104.8 254.855 104.729 255.244 104.708C255.634 104.688 256.025 104.718 256.397 104.797C256.768 104.876 257.113 105.003 257.41 105.17C257.707 105.337 257.952 105.541 258.13 105.771C258.307 106 258.415 106.25 258.446 106.507C258.477 106.764 258.431 107.022 258.311 107.267C258.191 107.513 257.999 107.74 257.746 107.936C257.493 108.132 257.183 108.293 256.836 108.411L256.846 108.408Z" fill="#63D096"/>
<path d="M251.555 92.3382C252.529 93.2092 257.746 94.5694 257.746 94.5694C257.746 94.5694 257.309 90.8802 256.334 90.0092C255.857 89.6082 255.161 89.3458 254.395 89.2775C253.629 89.2092 252.853 89.3405 252.232 89.6434C251.61 89.9464 251.192 90.3972 251.065 90.9003C250.939 91.4033 251.114 91.9191 251.555 92.3382Z" fill="#63D096"/>
<path d="M246.249 100.948C247.573 101.587 253.168 101.854 253.168 101.854C253.168 101.854 251.075 98.4215 249.751 97.7834C249.113 97.494 248.33 97.3802 247.567 97.4662C246.804 97.5521 246.122 97.831 245.666 98.2436C245.21 98.6562 245.015 99.1698 245.124 99.6754C245.233 100.181 245.637 100.639 246.249 100.951V100.948Z" fill="#63D096"/>
<path d="M242.832 109.787C243.976 110.565 249.419 111.45 249.419 111.45C249.419 111.45 248.237 107.833 247.093 107.055C246.825 106.861 246.5 106.704 246.139 106.593C245.777 106.483 245.385 106.422 244.987 106.414C244.589 106.406 244.192 106.451 243.82 106.545C243.449 106.64 243.11 106.784 242.824 106.967C242.538 107.15 242.31 107.369 242.155 107.611C242 107.853 241.921 108.114 241.921 108.376C241.922 108.639 242.002 108.899 242.158 109.141C242.314 109.383 242.542 109.602 242.829 109.785L242.832 109.787Z" fill="#63D096"/>
<path d="M166.56 41.6892L69.7705 101.188V188.801H263.345V101.188L166.56 41.6892Z" fill="url(#paint0_linear)"/>
<path d="M261.273 187.227H71.8425V101.489L166.559 43.2637L261.273 101.489V187.227Z" fill="#E8EAF1"/>
<path opacity="0.1" d="M260.546 101.542H71.9731V187.103H260.546V101.542Z" fill="black"/>
<path d="M204.055 33.2233H223.647C225.957 33.2233 227.83 31.9877 227.83 30.4634V17.5374C227.83 16.0132 225.957 14.7776 223.647 14.7776L204.055 14.7776C201.745 14.7776 199.872 16.0132 199.872 17.5374V30.4634C199.872 31.9877 201.745 33.2233 204.055 33.2233Z" fill="#63D096"/>
<path d="M174.403 56.0476H193.995C196.305 56.0476 198.178 54.8119 198.178 53.2877V40.3617C198.178 38.8375 196.305 37.6018 193.995 37.6018H174.403C172.093 37.6018 170.22 38.8375 170.22 40.3617V53.2877C170.22 54.8119 172.093 56.0476 174.403 56.0476Z" fill="#63D096"/>
<path d="M250.651 23.9073L270.243 23.9073C272.553 23.9073 274.426 22.6716 274.426 21.1474V8.2214C274.426 6.69717 272.553 5.46153 270.243 5.46153L250.651 5.46153C248.341 5.46153 246.468 6.69717 246.468 8.2214V21.1474C246.468 22.6716 248.341 23.9073 250.651 23.9073Z" fill="#63D096"/>
<path opacity="0.5" d="M139.77 123.326H133.247V119.413C133.247 118.681 132.806 117.979 132.022 117.461C131.237 116.944 130.173 116.653 129.064 116.653H109.472C108.363 116.653 107.299 116.944 106.514 117.461C105.73 117.979 105.289 118.681 105.289 119.413V132.339C105.289 133.071 105.73 133.773 106.514 134.29C107.299 134.808 108.363 135.099 109.472 135.099H115.996V139.012C115.996 139.743 116.437 140.445 117.221 140.963C118.005 141.481 119.069 141.771 120.179 141.771H139.77C140.88 141.771 141.944 141.481 142.728 140.963C143.513 140.445 143.953 139.743 143.953 139.012V126.086C143.953 125.723 143.845 125.364 143.635 125.029C143.425 124.695 143.117 124.39 142.728 124.134C142.34 123.878 141.879 123.674 141.371 123.536C140.864 123.397 140.32 123.326 139.77 123.326Z" fill="#63D096"/>
<path opacity="0.5" d="M223.647 114.69H204.055C203.506 114.69 202.962 114.761 202.454 114.9C201.947 115.038 201.486 115.242 201.097 115.498C200.709 115.754 200.401 116.059 200.191 116.393C199.98 116.728 199.872 117.087 199.872 117.45V123.519H190.076C188.967 123.519 187.903 123.81 187.119 124.327C186.334 124.845 185.893 125.547 185.893 126.279V132.546H176.691C175.581 132.546 174.517 132.837 173.733 133.355C172.948 133.872 172.508 134.574 172.508 135.306V148.232C172.508 148.964 172.948 149.666 173.733 150.184C174.517 150.701 175.581 150.992 176.691 150.992H196.268C197.377 150.992 198.441 150.701 199.226 150.184C200.01 149.666 200.451 148.964 200.451 148.232V141.967H209.682C210.791 141.967 211.855 141.676 212.64 141.159C213.424 140.641 213.865 139.939 213.865 139.207V133.138H223.661C224.769 133.135 225.83 132.843 226.612 132.324C227.394 131.806 227.832 131.104 227.83 130.373V117.447C227.829 116.716 227.388 116.014 226.603 115.497C225.819 114.98 224.755 114.69 223.647 114.69Z" fill="#63D096"/>
<path d="M125.047 95.8899C125.269 96.2315 125.596 96.5388 126.008 96.7922C126.421 97.0456 126.908 97.2396 127.44 97.3619C127.913 97.462 128.414 97.4969 128.898 97.5785C131.203 97.9558 132.834 99.2693 134.931 99.996C135.099 100.065 135.291 100.104 135.488 100.11H135.559C135.603 100.113 135.646 100.113 135.69 100.11C135.906 100.095 136.111 100.038 136.279 99.9471L136.375 99.9005C136.602 100.517 136.637 101.157 136.477 101.782C135.644 101.782 130.232 102.001 130.974 106.207C131.775 110.772 139.799 117.154 139.799 117.154C139.799 117.154 145.411 120.936 143.607 133.846L143.406 140.106C143.406 140.106 145.563 139.892 148.313 139.678C148.377 139.761 148.441 139.844 148.507 139.924C149.292 140.829 150.292 141.644 151.469 142.34L156.026 149.508C156.026 149.508 156.418 149.974 156.997 150.71C157.05 152.226 155.624 153.552 155.624 153.552C146.799 155.247 143.194 161.375 143.194 161.375C143.194 161.375 138.217 163.343 137.141 165.541C135.023 166.664 135.181 169.733 135.181 169.733C135.181 169.733 142.594 172.342 148.013 173.777C148.641 173.943 149.296 174.062 149.965 174.131L148.761 175.761C147.505 176.059 147.413 180.156 147.413 180.156C147.413 180.156 160.643 186.416 164.653 186.807C168.663 187.199 172.066 185.373 167.862 184.069C164.47 183.018 160.689 179.008 159.348 177.487C161.028 175.968 166.323 171.047 166.658 169.072C167.061 166.724 172.07 164.768 172.07 164.768C179.289 159.681 174.477 153.684 173.874 150.561C173.874 150.501 173.849 150.435 173.831 150.368C173.389 149.01 172.822 147.672 172.133 146.36C172.921 143.078 173.545 137.952 173.93 134.568C175.522 134.905 177.082 135.306 177.082 135.306C180.009 131.386 170.068 115.244 167.198 110.772C168.868 110.409 171.745 109.841 175.872 109.226C182.889 108.182 183.285 105.835 183.285 105.835L188.696 96.1857C188.234 96.3208 187.528 96.3161 186.702 96.2206C186.702 96.1391 186.702 96.053 186.702 95.9598C186.744 95.0445 186.875 93.5819 187.284 93.3164C187.284 93.3164 185.953 93.3164 184.337 93.2209V93.0905L185.064 87.1864C185.064 87.1864 184.061 80.6652 180.655 81.5782C177.919 82.3118 178.283 88.1693 178.537 90.4517C178.601 91.0354 178.86 91.6026 179.296 92.1123L179.525 92.3801L179.684 92.5641C179.535 92.5168 179.391 92.4623 179.253 92.4011V94.4203C178.876 94.3015 178.653 94.227 178.653 94.227C178.855 96.4442 174.643 103.876 174.643 103.876C174.643 103.876 167.23 103.354 164.819 104.398C163.054 105.164 160.753 103.683 159.648 102.84L164.851 95.3915C164.227 95.3184 163.61 95.2188 163.005 95.0934C163.03 95.0026 163.054 94.9071 163.083 94.8093C163.344 93.8777 163.817 92.5571 164.452 92.3918C163.534 92.0612 162.582 91.7732 161.603 91.53C161.628 91.4555 161.649 91.3763 161.678 91.2971C162.052 89.9929 162.641 87.1748 161.445 85.2301C159.842 82.6216 159.238 77.5443 156.231 78.7088C153.845 79.6404 153.732 85.2533 153.784 87.5288C153.798 88.1454 154.033 88.7511 154.469 89.2965L155.627 90.7451L155.786 90.9454L155.627 90.9641V92.7458C155.119 92.5338 154.826 92.3987 154.826 92.3987C154.723 94.9048 152.21 98.2469 149.753 100.937L148.504 100.329L148.196 100.185C148.193 100.158 148.193 100.132 148.196 100.105C148.196 100.105 147.681 100.01 146.869 99.9005C145.86 98.6358 145.295 97.1057 144.981 95.8433C144.949 95.7106 144.917 95.5825 144.889 95.4567C145.353 94.7781 145.594 94.0423 145.595 93.2977C145.581 92.0257 144.883 90.7982 143.626 89.8339C142.369 88.8695 140.633 88.231 138.729 88.0319C138.976 87.8525 139.082 87.799 139.16 87.799H139.213C139.336 87.799 139.506 87.8362 140.12 87.6383C140.734 87.4403 141.472 87.1305 141.468 86.6694C141.468 86.3317 141.062 86.0545 140.632 85.8635C139.597 85.3977 139.573 84.6175 138.605 84.6758C138.42 84.6656 138.233 84.6822 138.058 84.7247C137.176 84.9156 136.41 85.279 135.552 85.5119C134.951 85.6739 134.315 85.7699 133.667 85.796C133.253 85.7961 132.84 85.8179 132.432 85.8612C132.105 85.9153 131.791 85.9992 131.5 86.1104C129.689 86.7625 127.599 87.7547 127.016 89.0473C126.473 90.2584 127.225 91.8281 125.823 92.6992C125.567 92.8325 125.331 92.9814 125.117 93.144C124.938 93.3236 124.818 93.5259 124.764 93.7379C124.518 94.4572 124.617 95.2093 125.047 95.8899ZM161.699 158.598C161.776 159.223 161.596 159.665 161.042 159.81C158.035 160.592 154.628 167.763 154.628 167.763L152.348 170.868C150.54 169.967 148.81 169.001 147.166 167.973L147.413 166.848C147.413 166.848 153.827 163.718 154.229 162.805C154.55 162.071 159.736 159.537 161.699 158.598Z" fill="url(#paint1_linear)"/>
<path d="M166.178 109.945C166.178 109.945 179.811 130.764 176.5 135.264C176.5 135.264 171.046 133.85 170.266 134.1C169.486 134.349 161.695 107.242 161.695 107.242L166.178 109.945Z" fill="#575988"/>
<path opacity="0.05" d="M166.178 109.945C166.178 109.945 179.811 130.764 176.5 135.264C176.5 135.264 171.046 133.85 170.266 134.1C169.486 134.349 161.695 107.242 161.695 107.242L166.178 109.945Z" fill="black"/>
<path d="M158.776 176.255C158.776 176.255 163.45 182.038 167.541 183.323C171.632 184.609 168.321 186.407 164.424 186.023C160.527 185.638 147.674 179.469 147.674 179.469C147.674 179.469 147.762 175.43 148.984 175.137C150.205 174.843 158.776 176.255 158.776 176.255Z" fill="#575988"/>
<path d="M146.495 166.873C146.495 166.873 153.117 171.243 156.026 171.629C158.935 172.016 153.495 174.585 148.235 173.171C142.976 171.757 135.771 169.188 135.771 169.188C135.771 169.188 135.577 165.075 138.888 164.691C142.199 164.307 146.495 166.873 146.495 166.873Z" fill="#575988"/>
<path d="M173.775 131.149C173.775 131.149 172.412 146.828 170.658 149.012C168.903 151.197 162.281 157.879 162.281 157.879C162.281 157.879 154.685 161.477 154.296 162.376C153.908 163.275 147.674 166.359 147.674 166.359L147.286 168.157C147.286 168.157 136.964 167.77 137.546 165.457C138.129 163.145 143.583 160.96 143.583 160.96C143.583 160.96 147.088 154.921 155.659 153.249C155.659 153.249 158.384 150.687 156.047 148.623C156.047 148.623 150.205 138.986 146.894 137.828C143.583 136.671 148.26 129.994 148.26 129.994L173.775 131.149Z" fill="#67647E"/>
<path opacity="0.05" d="M173.775 131.149C173.775 131.149 172.412 146.828 170.658 149.012C168.903 151.197 162.281 157.879 162.281 157.879C162.281 157.879 154.685 161.477 154.296 162.376C153.908 163.275 147.674 166.359 147.674 166.359L147.286 168.157C147.286 168.157 136.964 167.77 137.546 165.457C138.129 163.145 143.583 160.96 143.583 160.96C143.583 160.96 147.088 154.921 155.659 153.249C155.659 153.249 158.384 150.687 156.047 148.623C156.047 148.623 150.205 138.986 146.894 137.828C143.583 136.671 148.26 129.994 148.26 129.994L173.775 131.149Z" fill="black"/>
<path d="M154.685 167.26L148.451 175.877C149.425 178.062 158.772 177.291 158.772 177.291C158.772 177.291 165.981 170.865 166.369 168.553C166.757 166.24 171.629 164.312 171.629 164.312C178.639 159.3 173.965 153.389 173.394 150.305C173.394 150.247 173.369 150.181 173.351 150.114C172.832 148.046 169.68 142.095 167.23 137.64C165.578 134.638 164.24 132.313 164.24 132.313C164.24 132.313 151.179 132.7 148.465 135.784C147.215 137.195 147.759 138.667 148.747 139.845C149.508 140.735 150.481 141.539 151.628 142.226L156.061 149.278C156.061 149.278 163.852 158.659 160.929 159.43C158.006 160.201 154.685 167.26 154.685 167.26Z" fill="#67647E"/>
<path d="M177.947 91.0619C178.01 91.6343 178.262 92.1907 178.685 92.6922L178.907 92.9577L180.005 94.2643H183.511L183.585 93.6564L184.291 87.8339C184.291 87.8339 183.316 81.4082 180.005 82.3072C177.347 83.0385 177.704 88.8121 177.947 91.0619Z" fill="#F7C4A7"/>
<path opacity="0.1" d="M178.907 92.9623L180.005 94.2689H183.511L183.585 93.6611C181.954 93.5749 180.012 93.3676 178.907 92.9623Z" fill="black"/>
<path d="M178.643 92.9833V95.9388L185.851 97.2244C185.851 97.2244 185.851 96.917 185.872 96.4885C185.914 95.5871 186.041 94.1455 186.437 93.8846C186.433 93.8823 180.591 93.8823 178.643 92.9833Z" fill="#E6E6F0"/>
<path opacity="0.1" d="M178.643 94.7161V95.9388L185.851 97.2245C185.851 97.2245 185.851 96.917 185.872 96.4885C183.468 96.2113 180.005 95.154 178.643 94.7161Z" fill="black"/>
<path d="M136.611 99.593C138.023 102.302 136.184 103.522 136.184 103.522C136.184 103.522 153.714 104.293 149.429 102.236C146.926 101.035 145.817 98.3866 145.33 96.393C145.123 95.563 144.996 94.7252 144.949 93.8846C144.949 93.8846 130.942 93.7495 133.847 96.3254C135.014 97.3159 135.946 98.4177 136.611 99.593Z" fill="#F7C4A7"/>
<path opacity="0.1" d="M133.847 96.3254C135.259 97.5924 135.739 97.7788 136.223 98.6941C136.661 98.7429 137.105 98.7671 137.55 98.7663C140.889 98.7663 144.14 98.3121 145.316 96.3907C145.109 95.5607 144.981 94.7229 144.935 93.8823C144.935 93.8823 130.938 93.7472 133.847 96.3254Z" fill="black"/>
<path d="M137.935 99.1529C142.345 99.1529 145.92 96.7942 145.92 93.8846C145.92 90.9751 142.345 88.6164 137.935 88.6164C133.525 88.6164 129.95 90.9751 129.95 93.8846C129.95 96.7942 133.525 99.1529 137.935 99.1529Z" fill="#F7C4A7"/>
<path d="M178.06 94.7837C178.06 94.7837 185.657 97.3456 187.8 96.7121L182.54 106.221C182.54 106.221 182.152 108.534 175.332 109.564C168.512 110.593 165.204 111.487 165.204 111.487L152.545 101.591L158.974 102.756C158.974 102.756 162.285 105.839 164.622 104.812C166.958 103.785 174.153 104.298 174.153 104.298C174.153 104.298 178.265 96.9683 178.06 94.7837Z" fill="#575988"/>
<path opacity="0.05" d="M178.06 94.7837C178.06 94.7837 185.657 97.3456 187.8 96.7121L182.54 106.221C182.54 106.221 182.152 108.534 175.332 109.564C168.512 110.593 165.204 111.487 165.204 111.487L152.545 101.591L158.974 102.756C158.974 102.756 162.285 105.839 164.622 104.812C166.958 103.785 174.153 104.298 174.153 104.298C174.153 104.298 178.265 96.9683 178.06 94.7837Z" fill="black"/>
<path opacity="0.1" d="M148.454 100.848C148.454 100.848 138.157 98.906 137.073 102.514C137.073 102.514 141.832 100.983 148.648 103.678C149.16 103.881 149.661 104.097 150.149 104.323C156.15 107.097 160.336 111.396 162.02 116.262L166.372 128.838L166.761 132.22C166.761 132.22 172.995 133.033 174.174 131.815C175.353 130.597 174.562 126.54 172.811 125.186C171.06 123.833 168.321 118.029 168.321 118.029L166.616 114.655C165.189 111.816 162.921 109.192 159.944 106.936L159.535 106.617C156.967 104.581 153.71 102.973 150.025 101.922C149.04 101.636 148.317 101.275 148.454 100.848Z" fill="black"/>
<path d="M148.454 100.592C148.454 100.592 138.157 98.6498 137.073 102.257C137.073 102.257 141.832 100.727 148.648 103.422C149.16 103.625 149.661 103.841 150.149 104.067C156.15 106.841 160.336 111.14 162.02 116.006L166.372 128.582L166.761 131.964C166.761 131.964 172.995 132.777 174.174 131.559C175.353 130.341 174.562 126.283 172.811 124.93C171.06 123.577 168.332 117.759 168.332 117.759L166.616 114.399C165.189 111.559 162.921 108.936 159.944 106.68L159.531 106.352C156.963 104.32 153.707 102.714 150.025 101.666C149.04 101.377 148.317 101.028 148.454 100.592Z" fill="#E6E6F0"/>
<path opacity="0.1" d="M174.347 126.495L174.258 128.708L171.533 127.543C171.533 127.543 166.676 115.88 163.255 112.701C162.853 112.326 162.659 111.769 162.281 111.674L148.355 102.807V100.751C148.355 100.751 155.465 104.221 156.047 104.864C156.294 105.136 160.032 106.494 162.281 108.59C164.297 110.533 166.087 112.573 167.636 114.694L172.31 121.635L174.347 126.495Z" fill="black"/>
<path d="M148.355 100.629V102.621L162.475 111.552C162.849 111.648 163.047 112.207 163.449 112.58C166.87 115.761 171.727 127.422 171.727 127.422L174.452 128.587L174.537 126.374L172.507 121.523L167.834 114.583C166.285 112.461 164.495 110.421 162.479 108.478C160.23 106.382 156.478 105.024 156.245 104.752C155.74 104.197 150.244 101.545 148.74 100.823L148.355 100.629Z" fill="#787C9C"/>
<path opacity="0.1" d="M140.593 88.2903C141.211 88.09 141.906 87.7896 141.903 87.3354C141.873 87.17 141.783 87.0117 141.642 86.8736C141.501 86.7354 141.312 86.6215 141.091 86.5412C139.979 86.0405 140.063 85.1438 138.786 85.4187C137.931 85.6073 137.183 85.966 136.35 86.1942C135.767 86.3537 135.148 86.4481 134.518 86.4737C134.116 86.4733 133.714 86.4944 133.318 86.5366C132.999 86.5903 132.694 86.6734 132.41 86.7835C130.634 87.4386 129.315 88.5247 128.732 89.8112C128.203 91.0036 128.256 92.4173 126.893 93.2744C126.647 93.406 126.42 93.5526 126.215 93.7123C126.038 93.8889 125.917 94.088 125.862 94.2968C125.617 95.0093 125.711 95.7542 126.131 96.4302C126.343 96.7653 126.66 97.0675 127.06 97.3173C127.46 97.5671 127.934 97.7592 128.453 97.8812C128.912 97.9813 129.399 98.0163 129.865 98.0931C132.103 98.4658 133.688 99.7607 135.725 100.476C135.888 100.543 136.074 100.581 136.265 100.587C136.476 100.573 136.675 100.517 136.837 100.427C137.624 100.054 138.274 99.4789 138.249 98.8384C138.185 98.439 138.008 98.0511 137.727 97.6949C137.3 97.0274 136.974 96.3339 136.752 95.6244C136.681 95.4613 136.674 95.2891 136.731 95.1236C136.879 94.8116 137.402 94.6578 137.765 94.4459C138.471 94.0244 138.538 93.3047 138.284 92.7061C138.03 92.1076 137.494 91.5812 137.095 91.0176C136.957 90.8486 136.876 90.6619 136.858 90.4703C136.858 89.718 138.397 89.3058 139.047 88.8144C139.947 88.1459 139.389 88.6839 140.593 88.2903Z" fill="black"/>
<path d="M140.399 88.2903C141.016 88.09 141.712 87.7896 141.708 87.3354C141.678 87.17 141.589 87.0117 141.448 86.8736C141.307 86.7354 141.118 86.6215 140.896 86.5412C139.784 86.0405 139.869 85.1438 138.591 85.4187C137.737 85.6073 136.989 85.966 136.156 86.1942C135.572 86.3537 134.953 86.4481 134.323 86.4737C133.921 86.49 132.622 86.0848 132.23 86.1453C131.912 86.199 131.606 86.2822 131.323 86.3922C129.547 87.0473 128.227 88.1334 127.645 89.4199C127.115 90.6124 127.486 92.1052 126.123 92.9623C125.894 93.1067 126.204 93.5446 126.021 93.7146C125.843 93.8913 125.723 94.0903 125.668 94.2992C125.423 95.0116 125.516 95.7565 125.936 96.4325C126.149 96.7677 126.466 97.0698 126.866 97.3196C127.266 97.5695 127.74 97.7615 128.259 97.8835C128.718 97.9837 129.205 98.0186 129.671 98.0955C131.909 98.4681 133.494 99.763 135.531 100.478C135.693 100.545 135.879 100.584 136.071 100.59C136.281 100.575 136.481 100.519 136.643 100.429C137.43 100.056 138.079 99.4812 138.055 98.8407C137.99 98.4413 137.813 98.0535 137.532 97.6972C137.106 97.0297 136.779 96.3362 136.558 95.6267C136.487 95.4636 136.48 95.2914 136.537 95.126C136.685 94.8139 137.207 94.6602 137.571 94.4482C138.277 94.0267 138.344 93.307 138.09 92.7085C137.836 92.1099 137.299 91.5836 136.9 91.0199C136.763 90.8509 136.682 90.6642 136.664 90.4726C136.664 89.7203 138.203 89.3081 138.852 88.8167C139.753 88.1459 139.195 88.6839 140.399 88.2903Z" fill="#B96B6B"/>
<path opacity="0.1" d="M148.737 139.836C152.298 139.557 156.803 139.284 158.776 139.503C161.953 139.852 166.418 137.982 167.22 137.64C165.568 134.638 164.23 132.313 164.23 132.313C164.23 132.313 151.169 132.7 148.454 135.784C147.201 137.188 147.762 138.658 148.737 139.836Z" fill="black"/>
<path d="M131.704 106.606C132.484 111.103 140.275 117.401 140.275 117.401C140.275 117.401 145.729 121.127 143.975 133.85L143.78 140.018C143.78 140.018 155.271 138.853 158.779 139.247C162.288 139.64 167.35 137.318 167.35 137.318C167.35 137.318 169.299 115.086 160.922 110.46C159.89 109.409 158.766 108.398 157.558 107.433C155.309 105.637 152.263 103.613 149.39 103.115C149.022 103.049 148.644 103.011 148.264 103C148.264 103 139.499 99.7887 137.162 102.23C137.158 102.236 130.924 102.108 131.704 106.606Z" fill="#575988"/>
<path opacity="0.1" d="M167.248 130.571C167.248 130.571 164.145 129.675 158.875 129.928C153.604 130.182 144.25 127.113 144.25 127.113" fill="black"/>
<path opacity="0.05" d="M161.6 159.227C161.6 159.227 161.406 159.614 163.937 160.126C166.468 160.639 167.248 161.153 167.248 161.153" fill="black"/>
<path d="M179.049 71.5704H159.457C157.147 71.5704 155.274 72.8061 155.274 74.3303V87.2563C155.274 88.7805 157.147 90.0162 159.457 90.0162H179.049C181.359 90.0162 183.232 88.7805 183.232 87.2563V74.3303C183.232 72.8061 181.359 71.5704 179.049 71.5704Z" fill="#63D096"/>
<path d="M153.869 88.1832C153.883 88.7903 154.111 89.3868 154.536 89.9253L155.662 91.353L156.442 92.3405L161.31 92.5967C161.31 92.5967 161.413 92.3312 161.536 91.898C161.889 90.6124 162.472 87.8362 161.31 85.9194C159.754 83.3575 159.168 78.3385 156.245 79.4937C153.926 80.409 153.816 85.9381 153.869 88.1832Z" fill="#F7C4A7"/>
<path opacity="0.1" d="M155.673 91.3134V91.353L156.453 92.3405L161.321 92.5967C161.321 92.5967 161.423 92.3312 161.547 91.898C159.792 91.4485 157.508 91.0409 155.673 91.3134Z" fill="black"/>
<path d="M155.673 91.5696V93.8823L162.683 96.3231C162.683 96.3231 162.765 95.9039 162.913 95.3635C163.167 94.4319 163.619 93.144 164.244 92.9833C164.23 92.9833 159.164 91.0549 155.673 91.5696Z" fill="#E6E6F0"/>
<path opacity="0.05" d="M136.696 112.575C137.55 113.071 138.55 113.445 139.634 113.674C140.717 113.903 141.861 113.982 142.993 113.905C155.32 113.078 155.673 110.204 155.673 110.204L157.565 107.439C155.316 105.644 152.27 103.62 149.397 103.121C147.353 105.294 145.542 106.862 145.542 106.862C145.542 106.862 136.389 102.236 133.66 106.606C132.064 109.149 134.436 111.257 136.696 112.575Z" fill="black"/>
<path opacity="0.1" d="M155.673 92.9856V93.8823L162.683 96.3231C162.683 96.3231 162.765 95.9039 162.913 95.3636C159.877 94.7254 156.887 93.5143 155.673 92.9856Z" fill="black"/>
<path d="M154.882 92.9833C154.882 92.9833 160.142 95.4241 164.622 95.9388L155.468 109.303C155.468 109.303 155.133 112.177 142.803 113.003C141.671 113.08 140.527 113.001 139.443 112.773C138.36 112.544 137.359 112.17 136.505 111.674C134.246 110.355 131.87 108.248 133.459 105.704C136.184 101.335 145.341 105.961 145.341 105.961C145.341 105.961 154.685 97.8672 154.882 92.9833Z" fill="#575988"/>
<path d="M71.8425 101.489L166.559 144.359L71.8425 187.227V101.489Z" fill="#E8EAF1"/>
<path d="M261.273 101.489L166.56 144.359L261.273 187.227V101.489Z" fill="#E8EAF1"/>
<path d="M71.8425 187.227L162.842 140.514C163.901 139.963 165.21 139.664 166.558 139.664C167.906 139.664 169.214 139.963 170.273 140.514L261.273 187.227H71.8425Z" fill="url(#paint2_linear)"/>
<path d="M71.8425 187.227L162.842 142.556C163.916 142.029 165.219 141.744 166.558 141.744C167.896 141.744 169.199 142.029 170.273 142.556L261.273 187.227H71.8425Z" fill="#E8EAF1"/>
</g>
<defs>
<linearGradient id="paint0_linear" x1="166.56" y1="188.801" x2="166.56" y2="41.6892" gradientUnits="userSpaceOnUse">
<stop stop-color="#808080" stop-opacity="0.25"/>
<stop offset="0.54" stop-color="#808080" stop-opacity="0.12"/>
<stop offset="1" stop-color="#808080" stop-opacity="0.1"/>
</linearGradient>
<linearGradient id="paint1_linear" x1="-58054.5" y1="90151.5" x2="-58054.5" y2="39767.1" gradientUnits="userSpaceOnUse">
<stop stop-color="#808080" stop-opacity="0.25"/>
<stop offset="0.54" stop-color="#808080" stop-opacity="0.12"/>
<stop offset="1" stop-color="#808080" stop-opacity="0.1"/>
</linearGradient>
<linearGradient id="paint2_linear" x1="108396" y1="39764.9" x2="108396" y2="30052" gradientUnits="userSpaceOnUse">
<stop stop-color="#808080" stop-opacity="0.25"/>
<stop offset="0.54" stop-color="#808080" stop-opacity="0.12"/>
<stop offset="1" stop-color="#808080" stop-opacity="0.1"/>
</linearGradient>
<clipPath id="clip0">
<rect width="353" height="196" fill="white"/>
</clipPath>
</defs>
</svg>
