<svg width="346" height="142" viewBox="0 0 346 142" fill="none" xmlns="http://www.w3.org/2000/svg">
<g clip-path="url(#clip0)">
<path opacity="0.1" d="M340.327 63.2319C340.265 63.4333 340.203 63.6348 340.134 63.8363C337.92 70.6969 334.303 77.3112 328.926 83.384C328.75 83.5854 328.57 83.7869 328.387 83.9883C324.936 87.8175 320.699 91.4159 315.757 94.7129C313.079 96.4919 310.158 98.181 306.685 99.4006C301.818 101.109 296.127 101.804 290.534 102.372C284.722 102.964 278.836 103.451 272.962 103.991C270.88 104.178 268.811 104.374 266.755 104.579C261.08 105.144 255.448 105.797 249.95 106.662C243.152 107.742 236.556 109.132 230.349 111.102C229.853 111.258 229.362 111.418 228.876 111.582C228.389 111.744 227.896 111.91 227.422 112.079C226.949 112.248 226.472 112.415 226.001 112.586L225.276 112.856C225.037 112.942 224.802 113.036 224.567 113.122C223.868 113.385 223.179 113.662 222.489 113.928L222.463 113.939C222.009 114.118 221.558 114.298 221.107 114.478C218.563 115.516 216.073 116.603 213.594 117.693L212.029 118.382C211.221 118.734 210.413 119.086 209.605 119.438C209.131 119.644 208.651 119.849 208.174 120.055C207.828 120.204 207.485 120.353 207.132 120.501C205.365 121.251 203.574 121.985 201.748 122.686C201.314 122.853 200.873 123.021 200.441 123.184C196.786 124.561 192.898 125.741 188.831 126.707L188.779 126.719C186.776 127.189 184.715 127.581 182.611 127.89C181.406 128.07 180.2 128.212 178.978 128.324C175.724 128.634 172.401 128.665 169.129 128.417C162.697 127.915 156.669 126.259 150.253 125.705C137.016 124.573 124.161 128.223 111.705 131.088C108.656 131.791 105.573 132.451 102.456 133.067C100.392 133.477 98.3171 133.868 96.2328 134.238C83.5351 136.5 70.4511 138.041 57.1844 138.838C51.768 139.163 46.1197 139.318 40.6052 139.084C38.5228 139 36.4506 138.852 34.3983 138.64C27.417 137.92 20.8997 136.393 15.6499 133.603C11.2887 131.32 8.21135 128.336 5.86576 125.223C4.92274 123.972 4.09187 122.692 3.37317 121.384C2.2435 119.333 1.39501 117.239 0.83484 115.119C0.707434 114.64 0.593095 114.16 0.508157 113.68C0.338282 112.856 0.211963 112.028 0.129204 111.197C-0.328192 106.78 0.455271 102.351 2.45192 98.0659C4.67663 93.3188 8.38775 88.7732 10.0212 83.9811C10.0898 83.7797 10.1518 83.5782 10.2139 83.3768C10.4317 82.6572 10.5972 81.9245 10.7105 81.1786C11.5337 75.3181 8.34855 69.5817 5.83309 63.8363C5.74489 63.6348 5.65668 63.4333 5.57175 63.2319C5.29951 62.5951 5.04143 61.9577 4.79751 61.3197C2.46825 55.2433 1.83122 48.7406 3.89913 42.6768C3.96446 42.4754 4.0396 42.2721 4.11474 42.0724C5.50968 38.3165 7.97287 34.7441 11.7461 31.562C15.6173 28.2953 20.7004 25.5773 26.1201 23.1885C28.7662 22.0253 31.5028 20.937 34.3297 19.9237C36.3616 19.1969 38.4306 18.5092 40.5366 17.8604C57.5536 12.6439 76.9683 10.0949 96.1642 10.6652C97.1813 10.694 98.1962 10.7323 99.2089 10.7803C100.272 10.8307 101.331 10.8906 102.388 10.9602C114.746 11.7463 126.771 13.6944 138.725 15.826C142.73 16.5455 146.725 17.265 150.72 17.9845C152.497 18.3035 154.274 18.6183 156.049 18.9289C164.755 20.4417 173.604 21.807 182.536 22.8359C184.607 23.0758 186.676 23.2946 188.743 23.4925C195.928 24.2013 203.2 24.6137 210.497 24.7265C213.328 24.7649 216.159 24.7487 218.991 24.6779C220.421 24.6419 221.853 24.5892 223.286 24.5196C238.088 23.8217 252.361 21.4814 266.693 19.2833C268.764 18.9649 270.838 18.6483 272.9 18.3425C275.624 17.9396 278.352 17.5492 281.09 17.1895C298.136 14.9356 313.327 16.2307 329.174 20.8788C332.768 21.9347 336.361 23.2083 338.583 25.1798C340.804 27.1513 341.343 29.5923 341.755 31.9415C342.336 35.2837 342.735 38.6727 342.862 42.076C342.862 42.2775 342.862 42.479 342.885 42.6804C343.173 49.5717 342.411 56.5151 340.327 63.2319Z" fill="#63D096"/>
<path opacity="0.1" d="M227.267 83.3839H226.153V83.6519V83.9883H227.414L227.267 83.3839ZM214.641 83.3839C214.639 83.3887 214.639 83.3935 214.641 83.3983L214.543 83.8984V83.9433V83.9883H224.213V83.9523L224.902 83.3839H214.641ZM188.784 83.3839V63.8362H199.891C199.773 63.7823 199.652 63.7283 199.528 63.6779L199.365 63.6096C199.296 63.579 199.228 63.5502 199.156 63.5232C199.084 63.4962 198.914 63.4279 198.787 63.3811C198.659 63.3344 198.581 63.3038 198.46 63.266L198.385 63.239H198.369H188.784V62.1687L188.526 62.2371L188.251 62.3216H188.232L188.173 62.3414L188.003 62.4026C187.944 62.4224 187.885 62.4421 187.83 62.4637C187.66 62.5267 187.503 62.595 187.323 62.6652L187.16 62.7371C187.049 62.7839 186.944 62.8325 186.833 62.881C186.399 63.0771 185.971 63.2822 185.527 63.4711C185.416 63.5196 185.305 63.5664 185.2 63.6114C184.962 63.7071 184.716 63.796 184.462 63.8776C184.356 63.9137 184.247 63.9468 184.135 63.9765L183.952 64.0233L183.785 64.0629C183.393 64.154 182.986 64.2251 182.57 64.2751V83.3839H165.909C165.909 83.4055 165.932 83.4253 165.942 83.4469C166.033 83.6267 166.125 83.8066 166.213 83.9865H182.573V104.941H182.828L183.119 104.952L183.648 104.973L184.504 105.02L184.89 105.045L185.314 105.074H185.376C185.621 105.092 185.87 105.114 186.121 105.135L186.281 105.15L186.641 105.182L187.157 105.232L188.395 105.196L188.565 105.216C188.633 105.216 188.702 105.23 188.774 105.239V83.9883H214.52V83.9433V83.8984L214.618 83.3983C214.616 83.3935 214.616 83.3887 214.618 83.3839H188.784ZM227.267 83.3839H226.153V83.6519V83.9883H227.414L227.267 83.3839ZM213.945 83.3839L213.834 83.9883H224.591L225.323 83.3839H213.945ZM188.79 83.3839V63.8362H199.897C199.78 63.7823 199.659 63.7283 199.535 63.6779L199.372 63.6096C199.303 63.579 199.234 63.5502 199.162 63.5232C199.091 63.4962 198.921 63.4279 198.793 63.3811C198.666 63.3344 198.587 63.3038 198.467 63.266L198.391 63.239H198.369H188.784V62.1687L188.526 62.2371L188.251 62.3216H188.232L188.173 62.3414L188.003 62.4026C187.944 62.4224 187.885 62.4421 187.83 62.4637C187.66 62.5267 187.503 62.595 187.323 62.6652L187.16 62.7371C187.049 62.7839 186.944 62.8325 186.833 62.881C186.399 63.0771 185.971 63.2822 185.527 63.4711C185.416 63.5196 185.305 63.5664 185.2 63.6114C184.962 63.7071 184.716 63.796 184.462 63.8776C184.356 63.9137 184.247 63.9468 184.135 63.9765L183.952 64.0233L183.785 64.0629C183.393 64.154 182.986 64.2251 182.57 64.2751V83.3839H165.909C165.909 83.4055 165.932 83.4253 165.942 83.4469C166.033 83.6267 166.128 83.8066 166.216 83.9865H182.573V104.939L182.828 104.948L183.119 104.959L183.648 104.98L184.504 105.027L184.89 105.052L185.314 105.081H185.376C185.621 105.099 185.87 105.121 186.121 105.142L186.281 105.157L186.641 105.189L187.157 105.239L188.395 105.203L188.565 105.223C188.633 105.223 188.702 105.238 188.774 105.247V83.9883H213.834L213.951 83.3839H188.79ZM272.963 42.6768H342.949C342.949 42.4753 342.949 42.2739 342.926 42.0724H272.963V18.3389C270.886 18.6447 268.811 18.9613 266.756 19.2797V42.0724H190.639L190.447 41.9573L190.737 41.7774L219.048 24.6689C216.216 24.7409 213.385 24.757 210.554 24.7175L188.784 37.8668V23.4889C186.706 23.291 184.637 23.0722 182.577 22.8323V37.2048L150.748 17.9809C146.753 17.2614 142.757 16.5293 138.752 15.8223L182.015 41.9573L181.822 42.0724H102.415V10.953C101.357 10.887 100.297 10.827 99.2366 10.7731C98.2238 10.7239 97.209 10.6855 96.1919 10.658V42.0724H40.5643V17.8604C38.4539 18.508 36.3849 19.1957 34.3573 19.9236V42.0724H4.10315C4.02802 42.2721 3.95288 42.4753 3.88754 42.6768H34.3312V63.2318H5.57323C5.65817 63.4333 5.74637 63.6348 5.83458 63.8362H34.3442V83.3839H10.2056C10.1435 83.5854 10.0815 83.7868 10.0129 83.9883H34.3442V138.645C36.3966 138.857 38.4688 139.005 40.5512 139.09V83.9883H96.1919V134.244C98.2783 133.871 100.353 133.48 102.415 133.072V83.9883H182.564V127.897C184.667 127.588 186.728 127.196 188.731 126.726L188.784 126.714V83.9883H266.737V104.579C268.804 104.374 270.873 104.178 272.944 103.991V83.9883H328.372C328.555 83.7868 328.735 83.5854 328.911 83.3839H272.963V63.8362H340.139C340.208 63.6348 340.27 63.4333 340.332 63.2318H272.963V42.6768ZM40.5675 42.6768H96.1919V63.2318H40.5643L40.5675 42.6768ZM40.5675 83.3839V63.8362H96.1919V83.3839H40.5675ZM102.418 42.6768H182.564V63.2318H102.415L102.418 42.6768ZM102.418 83.3839V63.8362H182.564V83.3839H102.418ZM266.74 83.3839H188.784V63.8362H266.737L266.74 83.3839ZM266.74 63.2372H188.784V43.2272L189.878 42.6768H266.737L266.74 63.2372ZM214.644 83.3839C214.642 83.3887 214.642 83.3935 214.644 83.3983L214.546 83.8984V83.9433V83.9883H224.216V83.9523L224.905 83.3839H214.644ZM227.27 83.3839H226.156V83.6519V83.9883H227.417L227.27 83.3839ZM188.787 83.3839V63.8362H199.894C199.777 63.7823 199.656 63.7283 199.532 63.6779L199.368 63.6096C199.3 63.579 199.231 63.5502 199.159 63.5232C199.087 63.4962 198.917 63.4279 198.79 63.3811C198.663 63.3344 198.584 63.3038 198.463 63.266L198.388 63.239H198.372H188.784V62.1687L188.526 62.2371L188.251 62.3216H188.232L188.173 62.3414L188.003 62.4026C187.944 62.4224 187.885 62.4421 187.83 62.4637C187.66 62.5267 187.503 62.595 187.323 62.6652L187.16 62.7371C187.049 62.7839 186.944 62.8325 186.833 62.881C186.399 63.0771 185.971 63.2822 185.527 63.4711C185.416 63.5196 185.305 63.5664 185.2 63.6114C184.962 63.7071 184.716 63.796 184.462 63.8776C184.356 63.9137 184.247 63.9468 184.135 63.9765L183.952 64.0233L183.785 64.0629C183.393 64.154 182.986 64.2251 182.57 64.2751V83.3839H165.909C165.909 83.4055 165.932 83.4253 165.942 83.4469C166.033 83.6267 166.125 83.8066 166.213 83.9865H182.573V104.941H182.828L183.119 104.952L183.648 104.973L184.504 105.02L184.89 105.045L185.314 105.074H185.376C185.621 105.092 185.87 105.114 186.121 105.135L186.281 105.15L186.641 105.182L187.157 105.232L188.395 105.196L188.565 105.216C188.633 105.216 188.702 105.23 188.774 105.239V83.9883H214.52V83.9433V83.8984L214.618 83.3983C214.616 83.3935 214.616 83.3887 214.618 83.3839H188.787Z" fill="#63D096"/>
<path opacity="0.1" d="M67.3098 28.5238H67.8063C67.6364 28.4696 67.4935 28.3931 67.3903 28.3012C67.2872 28.2092 67.2269 28.1046 67.215 27.9967C67.215 27.5794 68.1428 27.2394 69.2764 27.2394H83.6995C84.8331 27.2394 85.7608 27.5794 85.7608 27.9967C85.7608 28.4122 84.8331 28.754 83.6995 28.754H83.2193C83.3884 28.8085 83.5305 28.8851 83.6331 28.977C83.7356 29.0689 83.7955 29.1734 83.8073 29.2811C83.8073 29.6408 83.1343 29.9358 82.2327 30.0168H86.3848C87.5151 30.0168 88.4429 30.3568 88.4429 30.7741C88.4429 31.1914 87.5151 31.5296 86.3848 31.5296H71.9454C70.8151 31.5296 69.8873 31.1896 69.8873 30.7741C69.8873 30.4143 70.5603 30.1193 71.4619 30.0384H67.3098C66.1795 30.0384 65.2517 29.6984 65.2517 29.2811C65.2517 28.8637 66.1729 28.5238 67.3098 28.5238Z" fill="#63D096"/>
<path opacity="0.1" d="M223.634 35.7316H224.118C223.948 35.6772 223.805 35.6004 223.701 35.5081C223.598 35.4158 223.538 35.3109 223.526 35.2028C223.526 34.7872 224.454 34.4473 225.588 34.4473H240.011C241.145 34.4473 242.072 34.7872 242.072 35.2028C242.072 35.6201 241.145 35.9601 240.011 35.9601H239.531C239.7 36.0148 239.842 36.0917 239.945 36.184C240.047 36.2762 240.107 36.3809 240.119 36.4889C240.119 36.8487 239.446 37.1419 238.544 37.2228H242.696C243.827 37.2228 244.754 37.5646 244.754 37.9801C244.754 38.3956 243.827 38.7374 242.696 38.7374H228.276C227.146 38.7374 226.218 38.3974 226.218 37.9801C226.218 37.6204 226.891 37.3254 227.793 37.2462H223.634C222.504 37.2462 221.576 36.9044 221.576 36.4889C221.576 36.0734 222.51 35.7316 223.634 35.7316Z" fill="#63D096"/>
<path opacity="0.1" d="M45.1836 66.5758H45.6671C45.4977 66.521 45.3554 66.4441 45.2529 66.3519C45.1503 66.2597 45.0906 66.1549 45.079 66.047C45.079 65.6314 46.0035 65.2897 47.1371 65.2897H61.5602C62.6938 65.2897 63.6216 65.6314 63.6216 66.047C63.6216 66.4643 62.6938 66.8043 61.5602 66.8043H61.08C61.2493 66.859 61.3916 66.936 61.4941 67.0282C61.5967 67.1204 61.6564 67.2252 61.668 67.3331C61.668 67.6929 60.995 67.9861 60.0934 68.067H64.2455C65.3791 68.067 66.3036 68.407 66.3036 68.8243C66.3036 69.2417 65.3791 69.5816 64.2455 69.5816H49.8192C48.6889 69.5816 47.7611 69.2399 47.7611 68.8243C47.7611 68.4646 48.4373 68.1696 49.3357 68.0886H45.1836C44.0532 68.0886 43.1255 67.7486 43.1255 67.3331C43.1255 66.9176 44.0532 66.5758 45.1836 66.5758Z" fill="#63D096"/>
<path d="M211.991 118.389C211.183 118.741 210.375 119.093 209.567 119.445C209.094 119.652 208.613 119.857 208.136 120.062C207.79 120.211 207.447 120.36 207.094 120.508C205.327 121.258 203.537 121.992 201.711 122.693C201.276 122.861 200.835 123.028 200.404 123.192C196.748 124.568 192.86 125.748 188.793 126.714L188.741 126.726V118.389H211.991Z" fill="#65617D"/>
<path d="M248.345 85.6216L248.71 79.4067C248.492 79.3132 248.269 79.2269 248.057 79.1405C248.147 77.2875 247.955 75.4337 247.482 73.5984C246.006 67.3835 236.417 67.2486 233.712 68.5311C233.354 68.7015 232.963 68.8498 232.546 68.9736C232.791 68.0868 233.095 67.1982 233.314 66.3204C234.496 61.5859 232.661 56.2596 225.99 53.1999C223.197 51.9209 219.783 51.1348 216.715 50.0645C211.22 48.156 206.879 45.3373 201.322 43.4791C195.765 41.6209 187.96 40.9248 183.112 43.3136C181.234 44.2382 180.022 45.5207 178.095 46.4129C174.501 48.075 168.898 48.1848 165.762 50.0411C165.606 50.1347 165.455 50.23 165.312 50.3308C162.698 52.1763 163.414 54.7936 164.247 57.0835C165.249 59.8393 164.835 62.0482 169.127 62.8397C169.144 62.9494 169.157 63.0591 169.179 63.1671C169.529 64.8576 170.545 66.4857 172.156 67.9373C173.768 69.389 175.936 70.6292 178.51 71.5711L177.814 71.7078C175.958 72.0676 174.289 72.4166 173.221 72.6558C169.3 73.5354 161.048 74.6813 161.048 74.6813C161.048 74.6813 160.852 75.9764 160.888 77.8867C158.138 79.5327 153.548 82.4251 152.198 84.1394C150.238 86.6398 139.164 93.8008 136.214 94.8819C133.264 95.963 130.066 97.2456 130.066 97.2456C130.066 97.2456 125.394 98.6648 123.182 98.7997C121.65 98.8933 116.91 98.3932 116.91 98.3932C116.91 98.3932 97.9789 85.6216 99.2072 95.4216C100.436 105.221 115.558 105.554 115.558 105.554L130.804 105.419C130.804 105.419 139.043 106.027 142.731 104.34C145.88 102.901 162.202 95.006 167.445 91.4246C167.566 91.4983 167.687 91.5703 167.814 91.6405C167.814 91.6405 169.901 90.1546 170.15 91.6405C170.398 93.1263 168.794 93.799 169.656 94.3387C170.519 94.8783 173.1 96.7707 173.221 97.5136C173.341 98.2565 169.781 101.291 175.801 103.594C175.896 103.63 175.997 103.664 176.108 103.698C177.183 105.045 180.6 106.364 180.6 106.364L199.042 106.229L233.837 107.715C233.837 107.715 234.872 107.213 236.274 106.393C238.146 107.339 240.743 108.15 243.67 107.652C243.67 107.652 247.851 104.883 247.975 103.059C247.975 103.059 245.27 99.2081 244.055 98.0604C242.84 96.9128 244.918 94.4124 244.918 94.4124C244.918 94.4124 246.391 91.9804 247.253 91.9804C248.116 91.9804 247.498 90.3615 247.498 90.3615C247.172 90.0969 246.968 89.7925 246.904 89.4746C246.84 89.1568 246.917 88.8352 247.129 88.5375C247.851 87.514 248.345 85.6216 248.345 85.6216Z" fill="url(#paint0_linear)"/>
<path d="M227.486 84.2222L226.179 85.064L220.9 88.4494L214.004 88.6796L202.965 89.0538C202.965 89.0538 188.081 79.1783 190.878 77.0287C191.894 76.2534 192.06 75.2299 191.858 74.2639C191.832 74.1308 191.796 73.9977 191.753 73.8664C191.419 72.8443 190.834 71.8519 190.015 70.9164L190.381 70.8246L190.616 70.7653L203.631 67.495L206.853 66.6855C207.013 67.1744 207.311 67.6465 207.735 68.085C207.797 68.1534 207.865 68.2217 207.937 68.2865C212.377 72.3338 226.614 69.7741 226.614 69.7741L227.486 84.2222Z" fill="#EE8E9E"/>
<path d="M246.731 79.1693C246.633 81.6193 245.907 82.677 245.907 82.677L227.486 84.2222L226.797 81.5887L224.069 71.1898L226.63 69.7795C227.653 69.901 228.713 69.8916 229.729 69.7518C230.744 69.6121 231.688 69.3459 232.487 68.9736C235.169 67.6965 244.686 67.8314 246.149 74.0103C246.579 75.7194 246.774 77.444 246.731 79.1693Z" fill="#EE8E9E"/>
<path d="M242.37 107.866C242.37 107.866 246.515 105.112 246.639 103.299L242.49 99.4689L238.832 97.3103L231.997 104.574C231.997 104.574 236.512 108.873 242.37 107.866Z" fill="#DFE5EE"/>
<path opacity="0.1" d="M242.37 107.866C242.37 107.866 246.515 105.112 246.639 103.299L242.49 99.4689L238.832 97.3103L231.997 104.574C231.997 104.574 236.512 108.873 242.37 107.866Z" fill="black"/>
<path d="M208.136 120.062C207.79 120.211 207.447 120.36 207.094 120.508C205.327 121.258 203.537 121.992 201.711 122.693C201.276 122.861 200.835 123.028 200.404 123.192H182.564H102.415H96.1919L65.3595 122.584L40.5643 122.468L34.3573 122.289L3.38771 121.389C2.25314 119.337 1.40028 117.241 0.836311 115.119C0.708905 114.64 0.594566 114.16 0.509628 113.68L34.3442 114.712L40.5512 114.904L96.1788 116.613L102.402 116.804L182.551 119.268L188.718 119.459H188.771L208.136 120.062Z" fill="#D48A9B"/>
<path d="M249.933 106.662C243.135 107.742 236.539 109.132 230.332 111.102C229.839 111.258 229.352 111.418 228.858 111.582C228.365 111.746 227.878 111.909 227.405 112.079C226.931 112.248 226.454 112.415 225.984 112.586L225.258 112.856L224.549 113.122C223.85 113.386 223.161 113.662 222.472 113.928L222.446 113.939C221.992 114.118 221.541 114.298 221.09 114.478C218.545 115.516 216.056 116.603 213.576 117.693C213.054 117.923 212.53 118.153 212.005 118.382L209.587 119.438C209.114 119.644 208.633 119.849 208.157 120.055C207.81 120.204 207.467 120.353 207.114 120.501L188.82 120.02H188.768L182.6 119.862L102.416 117.77L96.1924 117.606L40.5648 116.151L34.3578 115.987L0.836832 115.119C0.709426 114.64 0.595086 114.16 0.510149 113.68C0.340274 112.856 0.213955 112.028 0.131195 111.197L34.3545 104.542L40.5615 103.331L46.2001 102.234L56.4743 102.529L80.2209 103.2L96.2022 103.662L102.426 103.842L106.401 103.957L107.352 103.986L140.811 104.948L141.164 104.961L156.093 105.389H156.263H156.361L157.854 105.43L162.944 105.578L169.307 105.758L171.405 105.819L171.8 105.831L174.766 105.916L175.612 105.939L178.445 106.022L179.572 106.056H179.608H179.843L182.492 106.133L186.595 106.252H186.615L187.889 106.288H188.026L188.787 106.312L190.656 106.366L192.29 106.412H192.306L194.139 106.464H194.168L195.556 106.506L196.621 106.536L200.401 106.646L201.081 106.666H201.316L201.642 106.677L202.75 106.709L203.246 106.724L207.101 106.833H207.454L213.145 106.806H213.184L234.82 106.709H235.235H235.673H236.96L243.925 106.679H244.964L249.933 106.662Z" fill="#EFC6CD"/>
<path d="M103.908 106.909L105.921 112.803L160.633 112.35C160.633 112.35 164.75 113.005 164.658 111.192C164.658 111.192 172.985 106.858 215.163 111.897L198.97 104.894L154.704 106.204L103.376 105.448L103.908 106.909Z" fill="#63D096"/>
<path d="M104.914 105.499L106.835 111.897C106.835 111.897 153.878 111.141 161.274 111.847L155.684 106.002C155.684 106.002 127.24 104.542 104.914 105.499Z" fill="white"/>
<path opacity="0.1" d="M104.914 105.499L106.835 111.897C106.835 111.897 153.878 111.141 161.274 111.847L155.684 106.002C155.684 106.002 127.24 104.542 104.914 105.499Z" fill="black"/>
<path d="M105.617 105.475L107.511 111.426C107.511 111.426 153.956 110.724 161.274 111.379L155.763 105.945C155.763 105.945 127.661 104.585 105.617 105.475Z" fill="white"/>
<path opacity="0.1" d="M106.469 105.659L108.315 111.224C108.315 111.224 153.74 110.568 160.911 111.181L155.521 106.096C155.521 106.096 128.034 104.819 106.469 105.659Z" fill="black"/>
<path d="M106.835 105.455L108.691 111.032C108.691 111.032 154.116 110.375 161.287 110.988L155.883 105.898C155.883 105.898 128.4 104.622 106.835 105.455Z" fill="white"/>
<path d="M74.6961 90.3219C74.6961 90.3219 77.0744 92.0326 73.6017 94.6175C70.1291 97.2024 67.2608 99.3826 68.4205 100.994C68.4205 100.994 73.6475 96.1951 77.927 96.1375C82.2066 96.0799 79.3905 93.2072 74.6961 90.3219Z" fill="#63D096"/>
<path opacity="0.1" d="M74.6961 90.3219C74.9051 90.4878 75.0691 90.6696 75.1829 90.8616C79.3448 93.5598 81.563 96.0781 77.5611 96.1321C73.8337 96.1897 69.3646 99.8592 68.2931 100.787C68.3301 100.857 68.3726 100.927 68.4205 100.998C68.4205 100.998 73.6475 96.1986 77.927 96.1411C82.2066 96.0835 79.3905 93.2072 74.6961 90.3219Z" fill="black"/>
<path d="M79.1161 92.5039C79.1161 93.1047 78.992 93.594 78.8417 93.594C78.6914 93.594 78.5673 93.1047 78.5673 92.5039C78.5673 91.9031 78.7208 92.1837 78.8711 92.1837C79.0214 92.1837 79.1161 91.9013 79.1161 92.5039Z" fill="#FFD037"/>
<path d="M80.632 93.2216C79.6715 93.5113 78.8352 93.6857 78.7633 93.612C78.6915 93.5382 79.4167 93.2522 80.3706 92.9572C81.3245 92.6622 80.9521 92.8781 81.024 92.9572C81.0959 93.0364 81.5924 92.9338 80.632 93.2216Z" fill="#FFD037"/>
<path d="M62.1417 90.3219C62.1417 90.3219 59.7634 92.0326 63.2393 94.6175C66.7152 97.2024 69.577 99.3826 68.4205 100.994C68.4205 100.994 63.1772 96.1951 58.9108 96.1375C54.6443 96.0799 57.4472 93.2072 62.1417 90.3219Z" fill="#63D096"/>
<path opacity="0.1" d="M62.1417 90.3219C61.9344 90.4884 61.7705 90.67 61.6549 90.8616C57.493 93.5598 55.2748 96.0781 59.2766 96.1321C63.0041 96.1897 67.4764 99.8592 68.5479 100.787C68.5131 100.857 68.4706 100.927 68.4205 100.998C68.4205 100.998 63.1772 96.1986 58.9108 96.1411C54.6443 96.0835 57.4472 93.2072 62.1417 90.3219Z" fill="black"/>
<path d="M57.7216 92.5039C57.7216 93.1047 57.8458 93.594 57.9961 93.594C58.1463 93.594 58.2705 93.1047 58.2705 92.5039C58.2705 91.9031 58.1169 92.1837 57.9667 92.1837C57.8164 92.1837 57.7216 91.9013 57.7216 92.5039Z" fill="#FFD037"/>
<path d="M56.2058 93.2216C57.1663 93.5113 58.0059 93.6857 58.0778 93.612C58.1496 93.5382 57.4244 93.2522 56.4705 92.9572C55.5165 92.6622 55.889 92.8781 55.8171 92.9572C55.7452 93.0364 55.2454 92.9338 56.2058 93.2216Z" fill="#FFD037"/>
<path d="M81.2004 98.6864L81.0828 99.2261L80.9162 99.9798L80.8476 100.295L80.681 101.05L80.6091 101.365L80.4392 102.12L78.5379 110.704C78.368 111.471 76.0943 112.068 73.3502 112.068H63.4778C60.7337 112.068 58.4632 111.471 58.2934 110.704L56.3888 102.12L56.2222 101.365L56.1536 101.05L55.9837 100.295L55.9151 99.9798L55.7485 99.2261L55.6276 98.6864C55.5329 98.2529 56.7612 97.8877 58.3162 97.8877H78.5248C80.0766 97.8877 81.3082 98.2529 81.2004 98.6864Z" fill="#65617D"/>
<path d="M81.0926 99.2207L80.926 99.9762H55.9151L55.7485 99.2207H81.0926Z" fill="#9D9CB5"/>
<path d="M80.8574 100.291L80.6908 101.046H56.1536L55.9837 100.291H80.8574Z" fill="#9D9CB5"/>
<path d="M80.6189 101.361L80.4523 102.115H56.3888L56.2222 101.361H80.6189Z" fill="#9D9CB5"/>
<path d="M111.35 97.9921C111.35 97.9921 105.006 94.6337 105.251 98.9994C105.496 103.365 111.35 97.9921 111.35 97.9921Z" fill="#EE8E9E"/>
<path d="M168.32 90.3345C168.18 90.6727 167.497 91.2339 166.432 91.9373C160.931 95.5853 145.279 103.167 142.212 104.574C138.553 106.254 130.379 105.653 130.379 105.653L115.254 105.788C115.254 105.788 100.249 105.452 99.0275 95.7148C97.8057 85.9778 116.593 98.6702 116.593 98.6702C116.593 98.6702 121.298 99.1667 122.817 99.0731C125.012 98.94 129.648 97.5298 129.648 97.5298C129.648 97.5298 132.82 96.2526 135.747 95.1787C138.674 94.1048 149.654 86.9833 151.607 84.4974C152.845 82.9198 156.834 80.3403 159.588 78.6674C161.169 77.7051 162.342 77.0485 162.342 77.0485C162.342 77.0485 169.173 88.2515 168.32 90.3345Z" fill="#EE8E9E"/>
<path opacity="0.1" d="M168.32 90.3345C168.18 90.6727 167.497 91.2339 166.432 91.9373C160.878 88.8235 159.719 82.6104 159.588 78.6602C161.169 77.6979 162.342 77.0413 162.342 77.0413C162.342 77.0413 169.173 88.2515 168.32 90.3345Z" fill="black"/>
<path opacity="0.1" d="M226.176 85.064L220.9 88.4494L214.004 88.6796L202.965 89.0538C202.965 89.0538 188.081 79.1783 190.878 77.0287C191.894 76.2534 192.06 75.2299 191.858 74.2639C191.832 74.1308 191.796 73.9977 191.753 73.8664C191.419 72.8443 190.834 71.852 190.015 70.9164L190.381 70.8246L190.616 70.7653C191.197 71.6563 191.598 72.5799 191.812 73.5192C191.848 73.647 191.881 73.7801 191.913 73.9168C192.028 74.4025 192.132 74.9421 192.24 75.5357C193.089 80.9717 199.3 83.017 202.103 83.6681C203.004 83.8774 203.885 84.1122 204.742 84.3715C207.439 85.1903 210.549 85.4999 213.595 85.2529C220.514 84.7528 226.156 81.9844 226.156 81.9844L226.186 84.7096L226.176 85.064Z" fill="black"/>
<path d="M226.388 106.187C226.388 106.187 181.009 106.119 175.027 103.836C169.045 101.554 172.59 98.5299 172.466 97.7906C172.342 97.0513 169.784 95.1716 168.931 94.6319C168.078 94.0923 169.663 93.4231 169.418 91.9463C169.173 90.4695 167.102 91.9463 167.102 91.9463C158.559 87.1758 160.388 75.086 160.388 75.086C160.388 75.086 168.555 73.9456 172.476 73.0695C173.537 72.8321 175.19 72.4939 177.049 72.1288L177.739 71.9921C182.531 71.0477 188.228 69.981 188.228 69.981C188.228 69.981 189.323 69.5547 190.424 70.83C190.927 71.4164 191.433 72.3608 191.838 73.87C191.874 73.9977 191.907 74.1308 191.939 74.2676C192.054 74.7532 192.158 75.2929 192.266 75.8865C193.116 81.3225 199.326 83.3677 202.129 84.0189C203.03 84.2282 203.911 84.463 204.768 84.7223C207.465 85.5411 210.575 85.8507 213.621 85.6037C220.541 85.1036 226.182 82.3352 226.182 82.3352L226.212 85.0604L226.297 93.2486L226.388 106.187Z" fill="#DFE5EE"/>
<path d="M224.435 95.5745L223.703 98.127C223.703 98.127 205.647 100.611 198.574 101.35C191.502 102.09 176.249 101.149 175.151 102.761C174.054 104.372 179.787 106.59 179.787 106.59L198.081 106.455L232.605 107.934C232.605 107.934 245.78 101.552 241.51 97.1179C237.241 92.6838 224.435 95.5745 224.435 95.5745Z" fill="#EE8E9E"/>
<path opacity="0.1" d="M187.229 75.4224C187.229 75.4224 178.931 79.1837 180.519 80.9987C182.106 82.8137 187.229 75.4224 187.229 75.4224Z" fill="black"/>
<path opacity="0.1" d="M176.981 82.2057C176.981 82.2057 168.562 90.1996 169.052 90.804C169.542 91.4084 171.858 93.558 171.734 91.9463C171.61 90.3345 176.981 82.2057 176.981 82.2057Z" fill="black"/>
<path opacity="0.1" d="M180.398 83.6178C180.398 83.6178 178.438 88.5879 176.494 90.6709C174.55 92.7539 180.398 83.6178 180.398 83.6178Z" fill="black"/>
<path opacity="0.1" d="M207.953 68.2919C206.34 69.9207 204.042 71.3131 201.252 72.3527C198.461 73.3923 195.259 74.0489 191.913 74.2676H191.874C186.611 74.6079 181.308 73.8436 177.023 72.127C181.923 71.152 188.202 69.9792 188.202 69.9792C188.202 69.9792 189.297 69.5529 190.398 70.8282L206.869 66.6909C207.054 67.256 207.421 67.7982 207.953 68.2919Z" fill="black"/>
<path d="M210.528 62.3234C210.534 64.3464 209.576 66.3348 207.751 68.0904C206.879 68.9276 205.822 69.7022 204.605 70.3965C201.209 72.3434 196.684 73.5753 191.812 73.879H191.77C190.991 73.9281 190.208 73.9527 189.424 73.9527C184.239 73.9528 179.235 72.9017 175.367 71C171.499 69.0982 169.039 66.479 168.454 63.642C168.363 63.2066 168.319 62.7688 168.32 62.3306C168.32 59.2487 170.544 56.293 174.501 54.1138C178.459 51.9346 183.827 50.7103 189.424 50.7103C195.021 50.7103 200.389 51.9346 204.347 54.1138C208.304 56.293 210.528 59.2487 210.528 62.3306V62.3234Z" fill="#EE8E9E"/>
<path opacity="0.1" d="M224.193 84.3121L226.153 82.6932C226.153 82.6932 236.888 75.64 247.387 80.1407L247.022 86.3214C247.022 86.3214 246.531 88.2011 245.8 89.1995C245.59 89.4957 245.513 89.8157 245.577 90.1318C245.64 90.4479 245.843 90.7508 246.166 91.0145C246.166 91.0145 246.776 92.6334 245.924 92.6334C245.071 92.6334 243.604 95.051 243.604 95.051C243.604 95.051 241.53 97.537 242.752 98.6792C243.974 99.8215 246.656 103.649 246.656 103.649C246.656 103.649 242.386 102.239 241.164 99.888C241.164 99.888 230.795 95.4539 222.742 98.2691L224.193 84.3121Z" fill="black"/>
<path opacity="0.1" d="M246.731 79.1693C246.633 81.6193 245.908 82.677 245.908 82.677L227.486 84.2222L226.797 81.5887C229.207 80.2036 237.976 75.8001 246.731 79.1693Z" fill="black"/>
<path d="M224.193 83.9524L226.153 82.3334C226.153 82.3334 236.888 75.2803 247.387 79.7809L247.022 85.9616C247.022 85.9616 246.531 87.8414 245.8 88.8397C245.59 89.136 245.513 89.4559 245.577 89.772C245.64 90.0882 245.843 90.3911 246.166 90.6547C246.166 90.6547 246.776 92.2737 245.924 92.2737C245.071 92.2737 243.604 94.6913 243.604 94.6913C243.604 94.6913 241.53 97.1772 242.752 98.3195C243.974 99.4617 246.656 103.29 246.656 103.29C246.656 103.29 242.386 101.879 241.164 99.5283C241.164 99.5283 230.795 95.0942 222.742 97.9094L224.193 83.9524Z" fill="#DFE5EE"/>
<path opacity="0.1" d="M241.514 79.3852C241.514 79.3852 223.827 85.3644 224.68 90.6079C224.68 90.6079 234.562 80.9969 241.514 79.3852Z" fill="black"/>
<path opacity="0.1" d="M226.173 85.0658L226.258 93.254C222.912 93.3368 219.76 93.0975 217.267 91.9049C215.533 91.0739 214.523 89.9262 214 88.685C213.612 87.685 213.469 86.6607 213.576 85.6396C213.574 85.6295 213.574 85.6192 213.576 85.6091C213.782 83.348 214.726 81.0869 214.229 78.8401C213.733 76.5934 211.26 74.2226 207.222 73.7495C206.425 73.6542 205.53 73.62 204.961 73.298C204.334 72.9382 204.363 72.3788 204.432 71.8805L204.549 71.0405C204.579 70.8246 204.592 70.6106 204.592 70.3965C204.59 68.4867 203.383 66.6366 201.178 65.1622C198.974 63.6878 195.908 62.6806 192.505 62.3127L192.374 62.3001C191.237 62.1741 190.055 62.05 188.918 62.1939C186.755 62.4691 185.357 63.624 183.364 64.1726C179.542 65.2231 173.168 64.0737 169.166 63.7121C168.905 63.6887 168.657 63.6618 168.418 63.6312C168.327 63.1959 168.283 62.758 168.284 62.3198C168.286 60.54 169.03 58.7842 170.459 57.1877C171.888 55.5913 173.964 54.1969 176.527 53.1122C179.089 52.0275 182.07 51.2814 185.24 50.9316C188.409 50.5817 191.682 50.6374 194.806 51.0943C197.93 51.5512 200.821 52.3971 203.258 53.5668C205.694 54.7366 207.61 56.1988 208.857 57.8408C210.104 59.4827 210.65 61.2605 210.452 63.037C210.254 64.8135 209.318 66.5412 207.715 68.0868C207.777 68.1552 207.846 68.2236 207.918 68.2883C212.357 72.3356 226.594 69.7759 226.594 69.7759L227.45 84.2186L226.173 85.0658Z" fill="black"/>
<path d="M184.132 63.9729C186.111 63.4225 187.51 62.2677 189.685 61.9943C190.819 61.8503 192.002 61.9745 193.145 62.0986L193.276 62.113C196.874 62.505 200.086 63.6102 202.304 65.2191C204.521 66.828 205.59 68.8289 205.307 70.8426L205.19 71.6827C205.118 72.1791 205.088 72.7422 205.722 73.0983C206.287 73.4203 207.183 73.4581 207.98 73.548C212.017 74.0229 214.49 76.3812 214.987 78.6405C215.484 80.8998 214.523 83.1681 214.334 85.4382C214.144 87.7083 214.902 90.214 218.019 91.7052C222.919 94.0437 230.367 92.7126 236.852 92.4985C233.984 92.4985 231.834 90.8688 231.677 89.293C231.52 87.7173 232.794 86.2171 234.013 84.796C235.232 83.3749 236.453 81.8459 236.182 80.2738C235.81 78.1152 232.719 76.3866 231.537 74.3089C230.158 71.8913 231.488 69.2956 232.112 66.7827C233.285 62.077 231.458 56.7795 224.843 53.7377C222.073 52.4659 218.685 51.6835 215.64 50.6186C210.185 48.7136 205.882 45.9201 200.368 44.0673C194.853 42.2145 187.111 41.5274 182.299 43.9018C180.437 44.821 179.235 46.0964 177.32 46.9832C173.58 48.719 167.634 48.7514 164.635 50.8812C162.055 52.7142 162.754 55.3171 163.58 57.5926C164.681 60.6272 164.06 62.989 169.95 63.5286C173.936 63.8758 180.306 65.0253 184.132 63.9729Z" fill="#603556"/>
<path opacity="0.1" d="M232.664 91.0487C227.943 91.3671 223.265 91.5307 219.828 89.8902C216.712 88.399 215.944 85.8951 216.143 83.6232C216.343 81.3513 217.297 79.0812 216.797 76.8237C216.297 74.5661 213.827 72.2079 209.789 71.733C208.992 71.6395 208.1 71.6053 207.532 71.2833C206.902 70.9236 206.928 70.3623 207 69.8659L207.117 69.0258C207.4 67.0123 206.331 65.0116 204.113 63.403C201.896 61.7944 198.683 60.6896 195.085 60.298L194.955 60.2836C193.811 60.1595 192.629 60.0353 191.495 60.1792C189.333 60.4545 187.934 61.6183 185.942 62.1579C182.116 63.2102 175.749 62.0608 171.741 61.6992C165.86 61.1686 166.475 58.8032 165.37 55.7632C164.753 54.0651 164.207 52.1835 165.044 50.5754C164.887 50.6671 164.737 50.7553 164.593 50.865C162.012 52.698 162.711 55.3009 163.538 57.5764C164.639 60.611 164.018 62.9728 169.908 63.5124C173.913 63.8722 180.283 65.0235 184.109 63.9711C186.089 63.4207 187.487 62.2659 189.662 61.9925C190.796 61.8485 191.979 61.9727 193.122 62.0968L193.253 62.1112C196.851 62.5032 200.063 63.6084 202.281 65.2173C204.498 66.8262 205.567 68.827 205.284 70.8408L205.167 71.6809C205.095 72.1773 205.066 72.7404 205.699 73.0965C206.265 73.4185 207.16 73.4563 207.957 73.5462C211.995 74.0211 214.468 76.3793 214.964 78.6387C215.461 80.898 214.503 83.1663 214.311 85.4364C214.118 87.7065 214.879 90.2122 217.996 91.7034C222.896 94.0419 230.344 92.7108 236.829 92.4967C235.068 92.5021 233.588 91.8869 232.664 91.0487Z" fill="black"/>
<path d="M100.083 97.0495L120.223 92.9122C120.699 92.8143 121.226 92.8245 121.688 92.9406C122.151 93.0566 122.511 93.269 122.689 93.531C122.867 93.7932 122.848 94.0835 122.638 94.3381C122.427 94.5928 122.041 94.7909 121.565 94.8891L101.425 99.0264L97.1066 98.7889L100.083 97.0495Z" fill="#5C5C8E"/>
<path opacity="0.1" d="M122.082 93.1929C122.259 93.4552 122.24 93.7457 122.029 94.0004C121.817 94.2551 121.431 94.4531 120.954 94.551L100.801 98.7026L97.5607 98.5227L97.0935 98.7962L101.412 99.0336L121.552 94.8963C122.028 94.7982 122.414 94.6 122.625 94.3453C122.835 94.0907 122.854 93.8004 122.676 93.5382C122.528 93.3197 122.252 93.1343 121.892 93.0112C121.964 93.0686 122.028 93.1294 122.082 93.1929Z" fill="white"/>
<path d="M100.086 97.0495L101.425 99.0264L97.8841 98.8303L97.1099 98.7872L98.1683 98.1684L100.086 97.0495Z" fill="#EFC8C4"/>
<path d="M98.1651 98.163C98.2478 98.197 98.3186 98.2391 98.3741 98.2871C98.4072 98.3159 98.4248 98.3492 98.4248 98.3833C98.4248 98.4174 98.4072 98.4508 98.3741 98.4796C98.3184 98.5113 98.2532 98.5374 98.1814 98.5569C98.1005 98.5867 98.0327 98.626 97.983 98.6721C97.9332 98.7182 97.9028 98.7698 97.8939 98.8231L97.1164 98.7818L98.1651 98.163Z" fill="#727A9C"/>
<path d="M163.319 109.675C163.319 109.675 180.764 107.659 210.034 110.215L198.568 105.581L177.706 103.23L162.946 105.389L163.319 109.675Z" fill="white"/>
<path opacity="0.1" d="M163.319 109.675C163.319 109.675 180.764 107.659 210.034 110.215L198.568 105.581L177.706 103.23L162.946 105.389L163.319 109.675Z" fill="black"/>
<path d="M161.274 111.856C161.274 111.856 170.058 98.771 215.176 111.897L198.983 106.159C198.983 106.159 160.189 100.257 155.707 107.058L161.274 111.856Z" fill="white"/>
<path opacity="0.1" d="M161.274 111.847C161.274 111.847 170.058 97.8572 215.176 112.098L198.983 105.874C198.983 105.874 160.176 98.8159 155.684 106.204L161.274 111.847Z" fill="black"/>
<path d="M161.274 111.852C161.274 111.852 170.058 97.6557 215.176 111.897L198.983 105.673C198.983 105.673 160.189 98.8159 155.707 106.213L161.274 111.852Z" fill="white"/>
<path opacity="0.1" d="M161.274 111.856C161.274 111.856 170.058 96.0781 215.176 112.098L198.97 105.096C198.97 105.096 160.176 97.9003 155.694 106.204L161.274 111.856Z" fill="black"/>
<path d="M161.274 111.847C161.274 111.847 170.058 95.8767 215.176 111.897L198.97 104.894C198.97 104.894 160.176 97.6989 155.694 106.002L161.274 111.847Z" fill="white"/>
<path opacity="0.1" d="M296.632 110.343C296.632 110.343 285.802 116.73 295.55 119.833C295.55 119.833 296.824 120.679 298.644 120.236C298.644 120.236 298.03 119.936 299.261 119.357C299.697 119.149 300.086 118.913 300.421 118.655C300.875 118.306 301.112 117.886 301.094 117.457C301.094 117.457 302.512 114.922 298.007 111.632C298.007 111.632 297.599 110.532 297.252 110.411L296.429 111.945C296.429 111.945 298.497 112.235 299.274 113.102C299.274 113.102 296.55 111.924 296.285 112.17C296.233 112.221 295.916 112.996 295.916 112.996C295.916 112.996 299.51 113.507 300.633 114.867C300.633 114.867 297.729 113.224 295.792 113.289L295.439 114.473C295.439 114.473 299.284 114.912 300.666 116.434C300.666 116.434 297.523 114.773 295.387 114.735L295.325 115.924C295.325 115.924 299.059 116.392 300.199 117.662C300.199 117.662 296.217 115.948 295.344 116.198C295.344 116.198 295.407 117.293 295.671 117.579C295.671 117.579 298.337 117.939 298.879 118.72C298.879 118.72 295.998 117.729 295.75 117.88C295.75 117.88 296.524 119.294 297.602 119.896C297.602 119.896 295.89 119.071 295.354 117.957C295.354 117.957 294.629 118.653 294.812 119.337C294.812 119.337 293.744 118.686 295.175 117.614C295.175 117.614 294.652 116.498 294.783 116.322C294.783 116.322 293.1 117.27 292.669 118.121C292.669 118.121 292.342 117.056 294.779 116.014V114.816C294.779 114.816 292.434 116.005 291.95 116.741C291.95 116.741 291.918 115.626 294.828 114.516L295.155 113.352C295.155 113.352 292.992 114.291 292.133 115.047C292.133 115.047 292.506 114.007 295.269 113.021L295.652 112.258C295.652 112.258 294.097 112.96 293.691 113.183C293.286 113.406 293.133 113.363 293.133 113.363C293.769 112.76 294.696 112.265 295.812 111.935C295.812 111.935 296.811 110.384 296.632 110.343Z" fill="#63D096"/>
<path opacity="0.1" d="M345.043 6.40738C345.043 6.40738 330.574 10.005 337.395 14.9319C337.395 14.9319 337.98 15.9843 339.966 15.9627C339.966 15.9627 339.61 15.5543 341.152 15.2809C341.7 15.1823 342.224 15.0476 342.714 14.8798C343.377 14.6547 343.889 14.3169 344.174 13.9174C344.174 13.9174 347.258 11.8812 345.405 7.8896C345.405 7.8896 345.801 6.78693 345.565 6.60165L343.73 7.84283C343.73 7.84283 345.435 8.54796 345.546 9.51393C345.546 9.51393 343.86 7.84823 343.442 8.02091C343.357 8.05509 342.524 8.70266 342.524 8.70266C342.524 8.70266 345.464 9.93665 345.565 11.4315C345.565 11.4315 344.037 9.29807 342.201 8.9455L341.047 9.96363C341.047 9.96363 344.288 11.185 344.504 12.8831C344.504 12.8831 342.766 10.685 340.822 10.1957L339.93 11.275C339.93 11.275 343.05 12.5 343.197 13.9138C343.197 13.9138 340.724 11.4854 339.744 11.5322C339.744 11.5322 339.035 12.5539 339.091 12.8759C339.091 12.8759 341.292 13.7753 341.253 14.61C341.253 14.61 339.293 13.0846 338.967 13.1709C338.967 13.1709 338.689 14.6387 339.264 15.4248C339.264 15.4248 338.261 14.2988 338.548 13.1583C338.548 13.1583 337.389 13.6476 337.082 14.3168C337.082 14.3168 336.552 13.4875 338.623 12.8022C338.623 12.8022 338.921 11.6635 339.166 11.5286C339.166 11.5286 336.948 12.0449 335.961 12.732C335.961 12.732 336.402 11.6797 339.385 11.2372L340.234 10.1363C340.234 10.1363 337.238 10.7335 336.275 11.3091C336.275 11.3091 337.026 10.273 340.489 9.87009L341.603 8.86635C341.603 8.86635 338.95 9.27468 337.627 9.78734C337.627 9.78734 338.702 8.90952 341.943 8.58574L342.828 7.96335C342.828 7.96335 340.9 8.27994 340.361 8.39866C339.822 8.51738 339.708 8.44723 339.708 8.44723C340.723 8.02418 341.933 7.76507 343.2 7.69892C343.2 7.69892 345.16 6.47933 345.043 6.40738Z" fill="#63D096"/>
<path opacity="0.1" d="M207.715 8.63431C207.715 8.63431 185.977 12.0521 196.546 17.1391C196.546 17.1391 197.483 18.2184 200.492 18.2184C200.492 18.2184 199.93 17.8011 202.256 17.5474C203.057 17.4587 203.842 17.3311 204.602 17.1661C205.498 16.9932 206.26 16.6576 206.764 16.2145C206.764 16.2145 211.338 14.1998 208.336 10.1381C208.336 10.1381 208.881 9.03005 208.515 8.83937L205.797 10.0662C205.797 10.0662 208.411 10.8055 208.63 11.7822C208.63 11.7822 205.993 10.0752 205.363 10.2424C205.235 10.2766 204.004 10.917 204.004 10.917C204.004 10.917 208.538 12.2085 208.744 13.7213C208.744 13.7213 206.327 11.543 203.517 11.1598L201.818 12.1708C201.818 12.1708 206.784 13.4533 207.192 15.173C207.192 15.173 204.455 12.9263 201.488 12.4028L200.182 13.4821C200.182 13.4821 204.964 14.7665 205.278 16.1983C205.278 16.1983 201.413 13.707 199.93 13.7375C199.93 13.7375 198.908 14.7629 198.999 15.0884C198.999 15.0884 202.377 16.0382 202.361 16.8729C202.361 16.8729 199.309 15.3007 198.806 15.3835C198.806 15.3835 198.46 16.8639 199.368 17.6661C199.368 17.6661 197.794 16.5131 198.173 15.3655C198.173 15.3655 196.444 15.8421 196.01 16.5131C196.01 16.5131 195.167 15.6695 198.271 15.0075C198.271 15.0075 198.666 13.8599 199.028 13.7267C199.028 13.7267 195.696 14.216 194.236 14.896C194.236 14.896 194.85 13.8383 199.345 13.4353L200.58 12.3345C200.58 12.3345 196.072 12.8957 194.641 13.4623C194.641 13.4623 195.729 12.4262 200.956 12.0664L202.589 11.0681C202.589 11.0681 198.591 11.4405 196.611 11.9405C196.611 11.9405 198.195 11.0681 203.086 10.7893L204.393 10.1741C204.393 10.1741 201.488 10.4655 200.678 10.577C199.868 10.6886 199.698 10.6166 199.698 10.6166C201.331 10.1813 203.112 9.94103 204.925 9.91146C204.925 9.91146 207.904 8.70986 207.715 8.63431Z" fill="#63D096"/>
<path opacity="0.1" d="M271.846 142.002C271.846 142.002 282.79 135.672 273.097 132.517C273.097 132.517 271.836 131.664 270.01 132.096C270.01 132.096 270.621 132.4 269.38 132.974C268.941 133.179 268.547 133.412 268.207 133.668C267.746 134.014 267.502 134.433 267.514 134.862C267.514 134.862 266.048 137.39 270.497 140.703C270.497 140.703 270.886 141.806 271.229 141.93L272.081 140.399C272.081 140.399 270.017 140.099 269.256 139.228C269.256 139.228 271.957 140.419 272.225 140.174C272.281 140.124 272.611 139.352 272.611 139.352C272.611 139.352 269.017 138.813 267.926 137.456C267.926 137.456 270.801 139.115 272.741 139.059L273.114 137.877C273.114 137.877 269.278 137.418 267.916 135.898C267.916 135.898 271.03 137.575 273.166 137.625L273.248 136.434C273.248 136.434 269.52 135.938 268.39 134.661C268.39 134.661 272.343 136.399 273.218 136.152C273.218 136.152 273.176 135.058 272.892 134.771C272.892 134.771 270.232 134.386 269.703 133.612C269.703 133.612 272.568 134.619 272.816 134.468C272.816 134.468 272.068 133.051 271 132.443C271 132.443 272.699 133.278 273.215 134.393C273.215 134.393 273.953 133.7 273.78 133.017C273.78 133.017 274.839 133.675 273.388 134.738C273.388 134.738 273.891 135.857 273.757 136.032C273.757 136.032 275.456 135.093 275.9 134.253C275.9 134.253 276.227 135.319 273.754 136.346L273.721 137.544C273.721 137.544 276.087 136.368 276.583 135.634C276.583 135.634 276.583 136.751 273.666 137.845L273.339 139.007C273.339 139.007 275.518 138.079 276.39 137.328C276.39 137.328 275.998 138.365 273.218 139.336L272.823 140.097C272.823 140.097 274.391 139.404 274.809 139.183C275.227 138.962 275.371 139.003 275.371 139.003C274.725 139.603 273.788 140.093 272.666 140.417C272.666 140.417 271.683 141.959 271.846 142.002Z" fill="#63D096"/>
<path opacity="0.1" d="M165.109 0.223438C165.109 0.223438 166.974 8.90091 177.572 6.80709C177.572 6.80709 179.568 6.81608 180.13 5.76558C180.13 5.76558 179.313 5.83034 179.307 4.93812C179.299 4.62074 179.223 4.30495 179.081 3.99735C178.893 3.58118 178.463 3.21034 177.856 2.94144C177.856 2.94144 175.256 0.707319 167.771 0.487864C167.771 0.487864 165.981 -0.0517796 165.589 0.0165753L167.187 1.35309C167.187 1.35309 168.921 0.669544 170.627 0.90339C170.627 0.90339 167.236 1.28834 167.409 1.55816C167.441 1.61392 168.31 2.2453 168.31 2.2453C168.31 2.2453 171.365 1.05809 173.978 1.46282C173.978 1.46282 169.826 1.62112 168.663 2.47915L170.058 3.39295C170.058 3.39295 173.149 2.05823 176.157 2.45576C176.157 2.45576 171.826 2.7076 170.391 3.58002L172.018 4.3751C172.018 4.3751 175.076 3.10513 177.572 3.44691C177.572 3.44691 172.619 4.01533 172.404 4.54239C172.404 4.54239 173.962 5.22234 174.537 5.29429C174.537 5.29429 176.772 4.41107 178.189 4.68089C178.189 4.68089 174.955 5.25292 175.004 5.45438C175.004 5.45438 177.464 6.0408 178.996 5.97604C178.996 5.97604 176.745 6.15592 174.857 5.67024C174.857 5.67024 175.354 6.42394 176.422 6.7891C176.422 6.7891 174.828 6.81608 174.263 5.52993C174.263 5.52993 172.381 5.02986 172.221 4.86258C172.221 4.86258 172.45 6.1811 173.341 6.90603C173.341 6.90603 171.649 6.36638 171.78 4.65931L170.146 3.88042C170.146 3.88042 170.28 5.63427 170.986 6.31422C170.986 6.31422 169.418 5.60728 169.758 3.66636L168.356 2.77955C168.356 2.77955 168.261 4.29415 168.751 5.14319C168.751 5.14319 167.553 4.31574 167.971 2.51692L167.157 1.86396C167.157 1.86396 167.128 2.97022 167.157 3.29041C167.187 3.6106 167.046 3.64118 167.046 3.64118C166.617 2.98208 166.529 2.27024 166.791 1.58514C166.791 1.58514 165.272 0.180267 165.109 0.223438Z" fill="#63D096"/>
<path opacity="0.1" d="M244.317 122.321C244.317 122.321 229.021 119.983 228.531 126.178C228.531 126.178 227.76 127.192 229.312 127.876C229.312 127.876 229.511 127.437 231.014 127.77C231.55 127.886 232.109 127.968 232.68 128.012C233.452 128.074 234.239 127.994 234.921 127.786C234.921 127.786 239.658 127.307 242.873 123.587C242.873 123.587 244.457 122.88 244.506 122.654L241.654 122.961C241.654 122.961 242.144 124.105 241.105 124.886C241.105 124.886 241.759 123.012 241.226 122.997C241.118 122.997 239.727 123.197 239.727 123.197C239.727 123.197 240.563 125.187 238.894 126.365C238.894 126.365 240.2 124.188 239.197 123.271L237.126 123.647C237.126 123.647 238.198 125.726 236.388 127.108C236.388 127.108 237.61 124.807 236.682 123.746L234.741 124.266C234.741 124.266 235.722 126.305 234.196 127.449C234.196 127.449 235.117 124.712 234.31 124.4C234.31 124.4 232.579 124.94 232.242 125.203C232.242 125.203 232.896 126.676 231.89 127.297C231.89 127.297 232.151 125.431 231.795 125.381C231.795 125.381 229.874 126.412 229.403 127.217C229.403 127.217 229.943 126 231.488 125.224C231.488 125.224 230.031 125.192 229.015 125.597C229.015 125.597 229.57 124.775 231.955 124.978C231.955 124.978 233.51 124.206 233.853 124.19C233.853 124.19 231.566 123.805 229.992 123.985C229.992 123.985 231.553 123.33 234.359 124.042L236.293 123.503C236.293 123.503 233.294 122.907 231.886 123.01C231.886 123.01 233.667 122.47 236.787 123.386L238.805 123.006C238.805 123.006 236.296 122.386 234.683 122.314C234.683 122.314 236.528 122.017 239.393 122.911L240.798 122.744C240.798 122.744 238.949 122.308 238.397 122.204C237.845 122.1 237.848 122.024 237.848 122.024C239.113 122.056 240.338 122.28 241.386 122.672C241.386 122.672 244.326 122.42 244.317 122.321Z" fill="#63D096"/>
</g>
<defs>
<linearGradient id="paint0_linear" x1="173.929" y1="107.799" x2="173.929" y2="41.781" gradientUnits="userSpaceOnUse">
<stop stop-color="#808080" stop-opacity="0.25"/>
<stop offset="0.54" stop-color="#808080" stop-opacity="0.12"/>
<stop offset="1" stop-color="#808080" stop-opacity="0.1"/>
</linearGradient>
<clipPath id="clip0">
<rect width="346" height="142" fill="white"/>
</clipPath>
</defs>
</svg>
