<svg width="512" height="512" viewBox="0 0 512 512" fill="none" xmlns="http://www.w3.org/2000/svg">
<path d="M440.5 488H72.5V192L256.5 56L440.5 192V488Z" fill="#E5E5E5"/>
<path d="M468.861 220.094L256.5 60.823L44.139 220.094L24.5 193.908L246.68 27.273C249.513 25.1485 252.958 24.0001 256.5 24.0001C260.041 24.0001 263.486 25.1485 266.319 27.273L488.5 193.908L468.861 220.094Z" fill="white"/>
<path d="M200.5 248.533H312.5C318.865 248.533 324.97 251.062 329.471 255.562C333.971 260.063 336.5 266.168 336.5 272.533V320H176.5V272.533C176.5 266.168 179.029 260.063 183.529 255.562C188.03 251.062 194.135 248.533 200.5 248.533V248.533Z" fill="white"/>
<path d="M368.5 416H144.5L128.5 288H384.5L368.5 416Z" fill="#E5E5E5"/>
<path d="M256.5 376C269.755 376 280.5 365.255 280.5 352C280.5 338.745 269.755 328 256.5 328C243.245 328 232.5 338.745 232.5 352C232.5 365.255 243.245 376 256.5 376Z" fill="white"/>
<path d="M256.5 232C278.591 232 296.5 214.091 296.5 192C296.5 169.909 278.591 152 256.5 152C234.409 152 216.5 169.909 216.5 192C216.5 214.091 234.409 232 256.5 232Z" fill="white"/>
<path d="M208.5 192C208.5 201.494 211.315 210.774 216.589 218.667C221.864 226.561 229.36 232.713 238.131 236.346C246.902 239.979 256.553 240.93 265.864 239.078C275.175 237.226 283.728 232.654 290.441 225.941C297.154 219.228 301.726 210.675 303.578 201.364C305.43 192.053 304.479 182.402 300.846 173.631C297.213 164.86 291.061 157.364 283.167 152.089C275.274 146.815 265.994 144 256.5 144C243.774 144.014 231.573 149.076 222.575 158.075C213.576 167.073 208.514 179.274 208.5 192ZM256.5 160C262.829 160 269.016 161.877 274.278 165.393C279.541 168.909 283.642 173.907 286.064 179.754C288.486 185.601 289.12 192.035 287.885 198.243C286.65 204.45 283.603 210.152 279.127 214.627C274.652 219.103 268.95 222.15 262.743 223.385C256.535 224.62 250.101 223.986 244.254 221.564C238.407 219.142 233.409 215.041 229.893 209.778C226.377 204.516 224.5 198.329 224.5 192C224.51 183.516 227.884 175.382 233.883 169.383C239.882 163.384 248.016 160.01 256.5 160V160Z" fill="#7DC6D1"/>
<path d="M168.5 272.533V280H128.5C127.366 280 126.244 280.241 125.21 280.708C124.176 281.174 123.254 281.855 122.503 282.706C121.752 283.556 121.191 284.556 120.856 285.64C120.522 286.724 120.421 287.866 120.562 288.992L136.562 416.992C136.804 418.927 137.744 420.707 139.206 421.997C140.667 423.288 142.55 424 144.5 424H368.5C370.45 424 372.333 423.288 373.794 421.997C375.256 420.707 376.196 418.927 376.438 416.992L392.438 288.992C392.579 287.866 392.478 286.724 392.144 285.64C391.809 284.556 391.248 283.556 390.497 282.706C389.746 281.855 388.824 281.174 387.79 280.708C386.756 280.241 385.634 280 384.5 280H344.5V272.533C344.49 264.049 341.116 255.915 335.117 249.916C329.118 243.917 320.984 240.543 312.5 240.533H200.5C192.016 240.543 183.882 243.917 177.883 249.916C171.884 255.915 168.51 264.049 168.5 272.533ZM375.438 296L361.438 408H151.562L137.562 296H375.438ZM328.5 272.533V280H184.5V272.533C184.505 268.291 186.192 264.224 189.192 261.225C192.191 258.225 196.258 256.538 200.5 256.533H312.5C316.742 256.538 320.809 258.225 323.808 261.225C326.808 264.224 328.495 268.291 328.5 272.533Z" fill="#7DC6D1"/>
<path d="M120.5 440H392.5V456H120.5V440Z" fill="#7DC6D1"/>
<path d="M256.5 384C262.829 384 269.016 382.123 274.278 378.607C279.541 375.091 283.642 370.093 286.064 364.246C288.486 358.399 289.12 351.964 287.885 345.757C286.65 339.55 283.603 333.848 279.127 329.373C274.652 324.897 268.95 321.85 262.743 320.615C256.535 319.38 250.101 320.014 244.254 322.436C238.407 324.858 233.409 328.959 229.893 334.222C226.377 339.484 224.5 345.671 224.5 352C224.51 360.484 227.884 368.618 233.883 374.617C239.882 380.616 248.016 383.99 256.5 384V384ZM256.5 336C259.665 336 262.758 336.938 265.389 338.696C268.02 340.455 270.071 342.953 271.282 345.877C272.493 348.801 272.81 352.018 272.193 355.121C271.575 358.225 270.051 361.076 267.814 363.314C265.576 365.551 262.725 367.075 259.621 367.693C256.518 368.31 253.301 367.993 250.377 366.782C247.453 365.571 244.955 363.52 243.196 360.889C241.438 358.258 240.5 355.164 240.5 352C240.505 347.758 242.192 343.691 245.192 340.692C248.191 337.692 252.258 336.005 256.5 336V336Z" fill="#7DC6D1"/>
<path d="M493.017 189.149L270.373 20.8C266.228 17.6855 261.184 16.0015 256 16.0015C250.816 16.0015 245.772 17.6855 241.627 20.8L18.983 189.149C17.4008 190.345 16.3552 192.117 16.0743 194.081C15.7933 196.044 16.2996 198.039 17.483 199.63L37.163 226.085C37.7549 226.881 38.4986 227.552 39.3511 228.059C40.2036 228.566 41.1481 228.9 42.1302 229.04C43.1122 229.18 44.1122 229.125 45.0727 228.877C46.0331 228.628 46.9349 228.192 47.726 227.594L64.5 214.913V488C64.5 490.122 65.3429 492.157 66.8432 493.657C68.3434 495.157 70.3783 496 72.5 496H440.5C442.622 496 444.657 495.157 446.157 493.657C447.657 492.157 448.5 490.122 448.5 488V215.669L464.271 227.594C465.576 228.581 467.168 229.115 468.804 229.115C469.16 229.115 469.515 229.09 469.867 229.04C470.849 228.899 471.793 228.566 472.646 228.059C473.498 227.552 474.242 226.881 474.834 226.085L494.514 199.63C495.698 198.039 496.205 196.044 495.924 194.081C495.644 192.118 494.599 190.345 493.017 189.149V189.149ZM432.5 480H80.5V202.815L256 70.112L432.5 203.571V480ZM467.3 211.036L260.533 54.694C259.228 53.707 257.636 53.1729 256 53.1729C254.364 53.1729 252.772 53.707 251.467 54.694L44.705 211.036L34 196.641L250.7 32.788C252.23 31.638 254.093 31.0163 256.007 31.0163C257.921 31.0163 259.784 31.638 261.314 32.788L478 196.641L467.3 211.036Z" fill="#7DC6D1"/>
</svg>
