<svg width="512" height="512" viewBox="0 0 512 512" fill="none" xmlns="http://www.w3.org/2000/svg">
<path d="M494.398 290.346H17.602C12.023 290.346 7.5 285.823 7.5 280.244V17.602C7.5 12.023 12.023 7.5 17.602 7.5H494.399C499.978 7.5 504.501 12.023 504.501 17.602V280.244C504.5 285.823 499.977 290.346 494.398 290.346Z" fill="#7DC6D1"/>
<path d="M484.297 7.5V290.346H494.399C499.978 290.346 504.501 285.823 504.501 280.244V17.602C504.501 12.023 499.978 7.5 494.399 7.5H484.297Z" fill="#7DC6D1"/>
<path d="M472.175 39.825V258.02H39.8253V39.825H472.175Z" fill="#EFECEF"/>
<path d="M7.5 373.179H504.5V504.5H7.5V373.179Z" fill="#7DC6D1"/>
<path d="M475.205 373.179H504.5V504.5H475.205V373.179Z" fill="#7DC6D1"/>
<path d="M7.5 332.772H504.5V373.179H7.5V332.772Z" fill="#EFECEF"/>
<path d="M475.205 332.772H504.5V373.179H475.205V332.772Z" fill="#7DC6D1"/>
<path d="M276.789 222.665L327.453 239.68C343.909 245.206 354.996 260.625 354.996 277.984V332.773H256H157.004V277.984C157.004 260.625 168.091 245.206 184.547 239.68L235.211 222.665H276.789Z" fill="#7DC6D1"/>
<path d="M327.453 239.679L325.654 239.075C328.284 244.47 329.741 250.491 329.741 256.77V332.772H354.995V277.983C354.996 260.625 343.909 245.205 327.453 239.679Z" fill="#7DC6D1"/>
<path d="M256 243.878C244.284 243.878 234.787 234.38 234.787 222.665V196.4H277.214V222.664C277.213 234.38 267.716 243.878 256 243.878Z" fill="#7DC6D1"/>
<path d="M304.488 120.638C304.488 93.859 282.779 72.15 256 72.15C229.221 72.15 207.512 93.859 207.512 120.638V152.963C207.512 179.742 229.221 201.451 256 201.451C282.779 201.451 304.488 179.742 304.488 152.963V120.638Z" fill="white"/>
<path d="M87.303 402.528L35.275 419.651C18.7 425.106 7.5 440.584 7.5 458.033V504.5H108.516H209.532V458.033C209.532 440.584 198.332 425.107 181.757 419.652L129.729 402.529H87.303V402.528Z" fill="#7DC6D1"/>
<path d="M181.758 419.651L180.198 419.137C182.824 424.528 184.279 430.544 184.279 436.818V504.5H209.533V458.033C209.533 440.584 198.332 425.106 181.758 419.651V419.651Z" fill="#7DC6D1"/>
<path d="M87.3032 366.108H129.73V402.528H87.3032V366.108Z" fill="#7DC6D1"/>
<path d="M60.0278 290.346C60.0278 263.567 81.7368 241.858 108.516 241.858C135.295 241.858 157.004 263.567 157.004 290.346V322.671C157.004 349.45 135.295 371.159 108.516 371.159C81.7368 371.159 60.0278 349.45 60.0278 322.671V290.346Z" fill="white"/>
<path d="M382.27 402.528L330.242 419.651C313.668 425.106 302.467 440.584 302.467 458.032V504.5H403.483H504.5V458.033C504.5 440.584 493.299 425.107 476.725 419.652L424.697 402.529H382.27V402.528Z" fill="#7DC6D1"/>
<path d="M476.725 419.651L475.165 419.137C477.791 424.528 479.246 430.544 479.246 436.818V504.5H504.5V458.033C504.5 440.584 493.299 425.106 476.725 419.651V419.651Z" fill="#7DC6D1"/>
<path d="M382.27 366.28V373.18V402.53H424.7V373.18V366.28H382.27Z" fill="#7DC6D1"/>
<path d="M354.996 290.346C354.996 263.567 376.705 241.858 403.484 241.858C430.263 241.858 451.972 263.567 451.972 290.346V322.671C451.972 349.45 430.263 371.159 403.484 371.159C376.705 371.159 354.996 349.45 354.996 322.671V290.346Z" fill="white"/>
<path d="M504.5 198.352C508.643 198.352 512 194.995 512 190.852V17.6C512 7.896 504.104 0 494.4 0H17.6C7.896 0 0 7.896 0 17.6V280.24C0 289.95 7.896 297.849 17.6 297.849H52.529V322.67C52.529 323.541 52.555 324.407 52.595 325.269H7.5C3.357 325.269 0 328.626 0 332.769V504.5C0 508.643 3.357 512 7.5 512H504.5C508.643 512 512 508.643 512 504.5V332.77C512 328.627 508.643 325.27 504.5 325.27H459.406C459.446 324.408 459.472 323.543 459.472 322.671V297.85H494.4C504.104 297.85 512 289.951 512 280.241V225.858C512 221.715 508.643 218.358 504.5 218.358C500.357 218.358 497 221.715 497 225.858V280.241C497 281.679 495.834 282.85 494.4 282.85H458.955C458.128 276.703 456.306 270.871 453.647 265.52H472.169C476.312 265.52 479.669 262.163 479.669 258.02V39.83C479.669 35.687 476.312 32.33 472.169 32.33H39.83C35.687 32.33 32.33 35.687 32.33 39.83V79.58C32.33 83.723 35.687 87.08 39.83 87.08C43.973 87.08 47.33 83.723 47.33 79.58V47.33H464.67V250.52H442.787C432.671 240.535 418.787 234.358 403.483 234.358C388.18 234.358 374.296 240.535 364.18 250.52H353.845C348.107 242.319 339.813 235.918 329.84 232.57L284.713 217.415V201.006C301.036 191.213 311.987 173.346 311.987 152.965V120.64C311.987 89.768 286.871 64.652 255.999 64.652C225.127 64.652 200.011 89.768 200.011 120.64V152.965C200.011 173.346 210.962 191.213 227.285 201.006V217.415L182.158 232.57C172.186 235.918 163.891 242.319 158.153 250.52H147.818C137.702 240.535 123.818 234.358 108.515 234.358C93.212 234.358 79.328 240.535 69.211 250.52H47.33V114.643C47.33 110.5 43.973 107.143 39.83 107.143C35.687 107.143 32.33 110.5 32.33 114.643V258.02C32.33 262.163 35.687 265.52 39.83 265.52H58.352C55.693 270.871 53.871 276.703 53.044 282.85H17.6C16.166 282.85 15 281.679 15 280.241V17.6C15 16.166 16.166 15 17.6 15H494.4C495.834 15 497 16.166 497 17.6V190.852C497 194.994 500.357 198.352 504.5 198.352V198.352ZM15 340.27H55.378C58.705 350.288 64.779 359.061 72.718 365.68H15V340.27ZM161.653 340.272H350.346C353.673 350.289 359.747 359.061 367.685 365.679H273.57C269.427 365.679 266.07 369.036 266.07 373.179C266.07 377.322 269.427 380.679 273.57 380.679H374.769V397.1L327.896 412.526C308.2 419.008 294.966 437.296 294.966 458.031V497H217.03V458.032C217.03 437.297 203.797 419.01 184.1 412.527L137.227 397.101V380.68H238.493C242.636 380.68 245.993 377.323 245.993 373.18C245.993 369.037 242.636 365.68 238.493 365.68H144.312C152.252 359.061 158.326 350.289 161.653 340.272V340.272ZM432.197 380.68H497V423.196C491.996 418.474 485.926 414.784 479.07 412.528L432.197 397.102V380.68ZM417.197 395.028H389.77V376.953C394.16 378.063 398.753 378.658 403.483 378.658C408.213 378.658 412.806 378.063 417.197 376.953V395.028ZM122.229 395.028H94.803V376.953C99.193 378.063 103.786 378.658 108.517 378.658C113.247 378.658 117.84 378.063 122.23 376.953V395.028H122.229ZM79.803 397.101L32.93 412.527C26.074 414.783 20.005 418.473 15 423.195V380.68H79.803V397.101ZM15 497V458.032C15 443.789 24.09 431.228 37.619 426.775L88.505 410.028H128.527L179.413 426.775C192.942 431.228 202.032 443.789 202.032 458.032V497H15ZM497 497H309.968V458.032C309.968 443.789 319.058 431.228 332.587 426.775L383.473 410.028H423.495L474.381 426.775C487.91 431.229 497 443.789 497 458.032V497ZM497 340.27V365.68H439.282C447.221 359.061 453.296 350.288 456.622 340.27H497ZM403.483 249.357C426.084 249.357 444.471 267.745 444.471 290.345V322.67C444.471 345.271 426.083 363.657 403.483 363.657C380.883 363.657 362.496 345.27 362.496 322.67V290.345C362.496 267.745 380.883 249.357 403.483 249.357ZM215.012 152.964V120.639C215.012 98.038 233.4 79.651 256 79.651C278.6 79.651 296.988 98.039 296.988 120.639V152.964C296.988 175.565 278.6 193.951 256 193.951C233.4 193.951 215.012 175.564 215.012 152.964ZM256 208.951C260.73 208.951 265.323 208.356 269.714 207.246V222.665C269.714 230.227 263.562 236.378 256 236.378C248.438 236.378 242.286 230.227 242.286 222.665V207.246C246.677 208.356 251.27 208.951 256 208.951ZM186.935 246.788L229.075 232.636C233.136 243.567 243.673 251.378 256.001 251.378C268.329 251.378 278.865 243.567 282.927 232.636L325.067 246.788C338.483 251.294 347.498 263.83 347.498 277.983V290.345V322.67V325.272H164.504V322.67V290.345V277.983C164.504 263.83 173.519 251.294 186.935 246.788V246.788ZM108.517 249.357C131.118 249.357 149.504 267.745 149.504 290.345V322.67C149.504 345.271 131.117 363.657 108.517 363.657C85.917 363.657 67.529 345.27 67.529 322.67V290.345C67.528 267.745 85.916 249.357 108.517 249.357V249.357Z" fill="black"/>
<path d="M72.1499 79.65H81.2419C85.3849 79.65 88.7419 76.293 88.7419 72.15C88.7419 68.007 85.3849 64.65 81.2419 64.65H72.1499C68.0069 64.65 64.6499 68.007 64.6499 72.15C64.6499 76.293 68.0079 79.65 72.1499 79.65Z" fill="black"/>
<path d="M72.1499 111.976H81.2419C85.3849 111.976 88.7419 108.619 88.7419 104.476C88.7419 100.333 85.3849 96.976 81.2419 96.976H72.1499C68.0069 96.976 64.6499 100.333 64.6499 104.476C64.6499 108.619 68.0079 111.976 72.1499 111.976Z" fill="black"/>
<path d="M72.1499 144.301H81.2419C85.3849 144.301 88.7419 140.944 88.7419 136.801C88.7419 132.658 85.3849 129.301 81.2419 129.301H72.1499C68.0069 129.301 64.6499 132.658 64.6499 136.801C64.6499 140.944 68.0079 144.301 72.1499 144.301Z" fill="black"/>
<path d="M113.567 79.65H172.156C176.299 79.65 179.656 76.293 179.656 72.15C179.656 68.007 176.299 64.65 172.156 64.65H113.567C109.424 64.65 106.067 68.007 106.067 72.15C106.067 76.293 109.425 79.65 113.567 79.65V79.65Z" fill="#7DC6D1"/>
<path d="M113.567 111.976H172.156C176.299 111.976 179.656 108.619 179.656 104.476C179.656 100.333 176.299 96.976 172.156 96.976H113.567C109.424 96.976 106.067 100.333 106.067 104.476C106.067 108.619 109.425 111.976 113.567 111.976V111.976Z" fill="black"/>
<path d="M113.567 144.301H172.156C176.299 144.301 179.656 140.944 179.656 136.801C179.656 132.658 176.299 129.301 172.156 129.301H113.567C109.424 129.301 106.067 132.658 106.067 136.801C106.067 140.944 109.425 144.301 113.567 144.301V144.301Z" fill="white"/>
</svg>
