<svg width="343" height="214" viewBox="0 0 343 214" fill="none" xmlns="http://www.w3.org/2000/svg">
<path opacity="0.1" d="M199.517 4.99261H159.121V38.3808H199.517V4.99261Z" fill="black"/>
<path d="M196.042 0H153.908V34.6363H196.042V0Z" fill="url(#paint0_linear)"/>
<path d="M195.173 0.624084H154.777V34.0122H195.173V0.624084Z" fill="white"/>
<path d="M164.767 4.68059H158.686V9.36117H164.767V4.68059Z" fill="#3AD29F"/>
<path d="M189.526 6.24077H169.545V7.48892H189.526V6.24077Z" fill="#EEEEEE"/>
<path d="M184.748 13.4177H164.767V14.6658H184.748V13.4177Z" fill="#EEEEEE"/>
<path d="M184.748 16.226H164.767V17.4742H184.748V16.226Z" fill="#EEEEEE"/>
<path d="M184.748 19.0344H164.767V20.2825H184.748V19.0344Z" fill="#EEEEEE"/>
<path d="M184.748 21.8427H164.767V23.0909H184.748V21.8427Z" fill="#EEEEEE"/>
<path d="M184.748 24.6511H164.767V25.8992H184.748V24.6511Z" fill="#EEEEEE"/>
<path d="M184.748 27.4594H164.767V28.7076H184.748V27.4594Z" fill="#EEEEEE"/>
<path opacity="0.1" d="M92.3681 19.2241H51.9717V52.6122H92.3681V19.2241Z" fill="black"/>
<path d="M88.8932 13.9194H46.7593V48.5557H88.8932V13.9194Z" fill="url(#paint1_linear)"/>
<path d="M88.0249 14.5435H47.6284V47.9316H88.0249V14.5435Z" fill="white"/>
<path d="M83.2467 22.3444H63.2656V23.5926H83.2467V22.3444Z" fill="#EEEEEE"/>
<path d="M83.2467 30.7695H63.2656V32.0176H83.2467V30.7695Z" fill="#EEEEEE"/>
<path d="M83.2467 39.1945H63.2656V40.4427H83.2467V39.1945Z" fill="#EEEEEE"/>
<path d="M58.9216 20.6282H51.9717V25.6209H58.9216V20.6282Z" fill="#63D096"/>
<path d="M58.9216 28.7412H51.9717V33.7339H58.9216V28.7412Z" fill="#63D096"/>
<path d="M58.9216 36.8542H51.9717V41.8469H58.9216V36.8542Z" fill="#63D096"/>
<path opacity="0.1" d="M287.694 21.2186H247.298V54.6068H287.694V21.2186Z" fill="black"/>
<path d="M282.048 15.914H239.914V50.5503H282.048V15.914Z" fill="url(#paint2_linear)"/>
<path d="M281.179 16.5381H240.782V49.9262H281.179V16.5381Z" fill="white"/>
<path d="M272.057 22.1548H252.076V23.4029H272.057V22.1548Z" fill="#63D096"/>
<path d="M272.057 40.253H252.076V41.5011H272.057V40.253Z" fill="#EEEEEE"/>
<path d="M272.057 43.0613H252.076V44.3095H272.057V43.0613Z" fill="#EEEEEE"/>
<path d="M277.704 28.0835H262.935V29.3316H277.704V28.0835Z" fill="#EEEEEE"/>
<path d="M277.704 30.8918H262.935V32.14H277.704V30.8918Z" fill="#EEEEEE"/>
<path d="M277.704 33.7002H262.935V34.9483H277.704V33.7002Z" fill="#EEEEEE"/>
<path d="M250.339 27.4594C249.136 27.4594 247.96 27.7156 246.96 28.1956C245.96 28.6757 245.181 29.3579 244.72 30.1562C244.26 30.9544 244.14 31.8328 244.374 32.6802C244.609 33.5276 245.188 34.306 246.038 34.917C246.889 35.5279 247.973 35.944 249.152 36.1125C250.332 36.2811 251.555 36.1946 252.666 35.864C253.777 35.5333 254.727 34.9734 255.395 34.255C256.063 33.5366 256.42 32.692 256.42 31.8279H250.339V27.4594Z" fill="#3AD29F"/>
<path opacity="0.25" d="M251.207 26.5233V30.8918H257.288C257.288 29.7332 256.647 28.6221 255.507 27.8028C254.367 26.9835 252.82 26.5233 251.207 26.5233Z" fill="#3AD29F"/>
<path d="M11.4074 87.5578L22.3049 102.888C22.3049 102.888 46.3702 107.455 55.9055 103.867C55.9055 103.867 59.084 76.1413 55.9055 75.1628C52.7271 74.1842 9.13711 77.4461 11.4074 87.5578Z" fill="url(#paint3_linear)"/>
<path d="M62.598 156.85L54.3693 157.848L44.4351 115.583L44.7919 115.539C45.8257 115.414 46.8837 115.436 47.9055 115.604C48.9274 115.773 49.893 116.084 50.7474 116.52C51.6018 116.957 52.3282 117.51 52.885 118.148C53.4419 118.786 53.8183 119.497 53.9929 120.239L62.598 156.85Z" fill="url(#paint4_linear)"/>
<path d="M74.7962 181.13V201.609C74.7961 204.179 73.3743 206.645 70.8437 208.463C68.3131 210.281 64.8809 211.302 61.3021 211.302H15.6875C12.1087 211.302 8.67646 210.281 6.14585 208.463C3.61523 206.645 2.19349 204.179 2.19337 201.609V181.13C2.19121 179.856 2.53876 178.595 3.21614 177.418C3.89351 176.242 4.8874 175.172 6.14088 174.272C7.39436 173.371 8.88279 172.658 10.521 172.171C12.1591 171.684 13.9148 171.435 15.6875 171.436H61.3021C63.0747 171.435 64.8304 171.684 66.4686 172.171C68.1068 172.658 69.5952 173.371 70.8487 174.272C72.1021 175.172 73.096 176.242 73.7734 177.418C74.4508 178.595 74.7983 179.856 74.7962 181.13Z" fill="url(#paint5_linear)"/>
<path d="M73.9784 177.797C47.2864 187.455 3.01123 177.797 3.01123 177.797C3.9637 175.932 5.69002 174.322 7.95698 173.184C10.2239 172.047 12.9223 171.437 15.6875 171.436H61.3021C64.0673 171.437 66.7656 172.047 69.0326 173.184C71.2996 174.322 73.0259 175.932 73.9784 177.797Z" fill="url(#paint6_linear)"/>
<path d="M56.0196 154.351H5.94873V119.231C5.94873 117.23 6.49736 115.248 7.56329 113.4C8.62922 111.551 10.1916 109.871 12.1612 108.456C14.1308 107.041 16.469 105.919 19.0424 105.153C21.6158 104.388 24.3739 103.993 27.1593 103.993H40.6507C52.3649 103.993 56.0196 110.815 56.0196 119.231L56.0196 154.351Z" fill="url(#paint7_linear)"/>
<path d="M70.8768 154.351H5.94873V154.351C5.94873 162.131 14.7289 171.436 25.5598 171.436H66.8683L38.4948 205.307H38.4948C62.6958 205.307 38.9121 206.806 62.6958 205.307L88.6077 173.913C89.9459 172.292 90.652 170.442 90.652 168.557V168.557C90.652 166.691 90.1405 164.844 89.1467 163.12C88.1529 161.397 86.6963 159.831 84.86 158.512C83.0237 157.192 80.8437 156.146 78.4444 155.432C76.0452 154.718 73.4737 154.351 70.8768 154.351Z" fill="url(#paint8_linear)"/>
<path d="M81.0554 214H38.4951V205.307H69.4797C72.5497 205.307 75.4941 206.184 77.6649 207.743C79.8358 209.302 81.0554 211.418 81.0554 213.623V214Z" fill="url(#paint9_linear)"/>
<path d="M30.8997 109.389H26.812V89.6057H40.9988V102.134C40.9988 104.058 39.9348 105.903 38.0408 107.264C36.1469 108.625 33.5781 109.389 30.8997 109.389Z" fill="url(#paint10_linear)"/>
<path d="M25.7583 104.027L40.5812 111.187L30.9842 112.686L22.2217 111.787L25.7583 104.027Z" fill="url(#paint11_linear)"/>
<g opacity="0.1">
<path opacity="0.1" d="M26.812 99.5733C31.4175 100.671 36.3933 100.671 40.9988 99.5733V90.5049H26.812V99.5733Z" fill="url(#paint12_linear)"/>
</g>
<path d="M33.905 99.4973C46.349 99.4973 56.4369 92.2505 56.4369 83.3111C56.4369 74.3716 46.349 67.1248 33.905 67.1248C21.4609 67.1248 11.373 74.3716 11.373 83.3111C11.373 92.2505 21.4609 99.4973 33.905 99.4973Z" fill="url(#paint13_linear)"/>
<g opacity="0.1">
<path opacity="0.1" d="M35.0187 79.7293C35.0187 79.7293 49.0946 83.9697 61.8084 79.7293C61.8084 79.7293 56.3596 60.8106 34.5646 62.7677C12.7696 64.7248 -14.9282 87.884 9.59122 100.605L30.9042 112.271L27.2996 103.541C27.2996 103.541 9.13715 91.1458 35.0187 79.7293Z" fill="url(#paint14_linear)"/>
</g>
<path d="M35.0187 79.077C35.0187 79.077 49.0946 83.3174 61.8084 79.077C61.8084 79.077 56.3596 60.1583 34.5646 62.1154C12.7696 64.0725 -14.9282 87.2316 9.59122 99.9528L30.9042 111.619L27.2996 102.888C27.2996 102.888 9.13715 90.4934 35.0187 79.077Z" fill="url(#paint15_linear)"/>
<path d="M23.051 88.9782C24.0277 87.2216 23.8755 85.5267 22.7111 85.1926C21.5466 84.8585 19.811 86.0117 18.8343 87.7683C17.8577 89.5249 18.0099 91.2198 19.1743 91.5539C20.3387 91.888 22.0744 90.7348 23.051 88.9782Z" fill="url(#paint16_linear)"/>
<path d="M61.8086 124.743L65.1997 154.351L89.0523 147.576L85.4201 118.871L61.8086 124.743Z" fill="url(#paint17_linear)"/>
<path d="M12.0103 120.645C14.928 126.339 28.6462 147.804 68.8163 145.689C68.8856 145.685 68.9529 145.671 69.0138 145.647C69.0747 145.623 69.1278 145.59 69.1696 145.55C69.2114 145.51 69.2409 145.464 69.2561 145.416C69.2713 145.367 69.2719 145.317 69.2579 145.268L67.7033 139.963C67.7033 139.963 44.1402 139.45 34.6614 127.037C32.1749 123.696 28.6163 120.829 24.2805 118.673C20.2912 116.734 15.8132 115.37 13.1192 117.128C12.4699 117.569 12.0178 118.139 11.8204 118.765C11.6229 119.392 11.689 120.046 12.0103 120.645Z" fill="url(#paint18_linear)"/>
<path d="M67.7032 139.963C67.7032 139.963 77.3002 133.069 80.221 136.965C83.1418 140.862 72.2931 144.459 68.955 145.658L65.1997 142.661L67.7032 139.963Z" fill="url(#paint19_linear)"/>
<path d="M12.8783 89.7448L23.3032 104.411C23.3032 104.411 46.3249 108.779 55.4466 105.347C55.4466 105.347 58.4872 78.8235 55.4466 77.8873C52.406 76.9512 10.7065 80.0716 12.8783 89.7448Z" fill="#FDD835"/>
<path d="M44.4727 116.554C46.5604 116.301 48.7026 116.654 50.4282 117.535C52.1537 118.417 53.3211 119.754 53.6736 121.254L61.8477 156.031L53.9759 156.986L44.4727 116.554Z" fill="#FDB797"/>
<path d="M73.5186 179.259V198.849C73.5184 201.309 72.1584 203.667 69.7375 205.407C67.3167 207.146 64.0333 208.123 60.6097 208.123H16.9734C13.5497 208.123 10.2664 207.146 7.84552 205.407C5.42466 203.667 4.06458 201.309 4.06446 198.849V179.259C4.06239 178.041 4.39488 176.834 5.04288 175.708C5.69088 174.583 6.64167 173.56 7.84078 172.698C9.03989 171.837 10.4638 171.154 12.0309 170.688C13.598 170.223 15.2776 169.984 16.9734 169.986H60.6097C62.3055 169.984 63.985 170.223 65.5521 170.688C67.1193 171.154 68.5431 171.837 69.7423 172.698C70.9414 173.56 71.8922 174.583 72.5402 175.708C73.1882 176.834 73.5206 178.041 73.5186 179.259Z" fill="#3AD29F"/>
<path opacity="0.5" d="M72.7361 176.07C47.2017 185.309 4.84668 176.07 4.84668 176.07C5.75784 174.286 7.4093 172.746 9.57795 171.658C11.7466 170.57 14.3279 169.986 16.9732 169.986H60.6096C63.2548 169.986 65.8362 170.57 68.0048 171.658C70.1735 172.746 71.8249 174.286 72.7361 176.07Z" fill="white"/>
<path d="M55.5561 153.641H7.65674V120.044C7.65674 118.13 8.18157 116.234 9.20127 114.466C10.221 112.697 11.7156 111.091 13.5998 109.737C15.4839 108.383 17.7208 107.31 20.1825 106.577C22.6443 105.845 25.2828 105.468 27.9475 105.468H40.8537C52.0599 105.468 55.5561 111.994 55.5561 120.044V153.641Z" fill="#63D096"/>
<path d="M69.7689 153.641H7.65674C7.65674 161.084 16.0562 169.986 26.4173 169.986H65.9343L38.7913 202.388C61.9427 202.388 39.1905 203.822 61.9427 202.388L86.7309 172.355C88.011 170.804 88.6865 169.034 88.6865 167.231C88.6865 165.446 88.1972 163.679 87.2465 162.03C86.2958 160.381 84.9024 158.883 83.1457 157.621C81.389 156.359 79.3036 155.358 77.0084 154.675C74.7132 153.993 72.2532 153.641 69.7689 153.641Z" fill="#0E0D15"/>
<path d="M38.7915 202.388H67.9303C71.0004 202.388 73.9447 203.264 76.1155 204.823C78.2864 206.383 79.506 208.498 79.506 210.703H38.7915V202.388Z" fill="#0E0D15"/>
<path d="M28.2666 92.172H41.8381V103.842C41.8381 104.795 41.5769 105.738 41.0694 106.619C40.5618 107.499 39.8179 108.299 38.8801 108.972C37.9424 109.646 36.829 110.18 35.6038 110.545C34.3785 110.91 33.0652 111.097 31.739 111.097H28.2666V92.172Z" fill="#FDB797"/>
<path d="M26.607 105.5L40.787 112.35L31.6066 113.783L23.2241 112.923L26.607 105.5Z" fill="#63D096"/>
<path opacity="0.1" d="M27.6147 101.239C32.0205 102.289 36.7805 102.289 41.1863 101.239V92.5641H27.6147V101.239Z" fill="black"/>
<path d="M35.0523 101.635C46.9566 101.635 56.607 94.7021 56.607 86.1503C56.607 77.5986 46.9566 70.666 35.0523 70.666C23.1479 70.666 13.4976 77.5986 13.4976 86.1503C13.4976 94.7021 23.1479 101.635 35.0523 101.635Z" fill="#FDB797"/>
<path opacity="0.1" d="M35.4658 82.2559C35.4658 82.2559 48.9313 86.3124 61.0937 82.2559C61.0937 82.2559 55.8812 64.1576 35.0315 66.0299C14.1817 67.9021 -12.3149 90.0568 11.1411 102.226L31.5298 113.386L28.0815 105.035C28.0815 105.035 10.7067 93.1772 35.4658 82.2559Z" fill="black"/>
<path d="M35.4658 81.6318C35.4658 81.6318 48.9313 85.6883 61.0937 81.6318C61.0937 81.6318 55.8812 63.5335 35.0315 65.4058C14.1817 67.278 -12.3149 89.4328 11.1411 101.602L31.5298 112.762L28.0815 104.411C28.0815 104.411 10.7067 92.5531 35.4658 81.6318Z" fill="#FDD835"/>
<path d="M24.6684 91.5717C25.6027 89.8912 25.4571 88.2699 24.3432 87.9503C23.2293 87.6307 21.5689 88.7338 20.6346 90.4143C19.7003 92.0947 19.8459 93.716 20.9598 94.0357C22.0737 94.3553 23.7341 93.2521 24.6684 91.5717Z" fill="#FDB797"/>
<path d="M61.0938 125.317L64.3376 153.641L87.156 147.16L83.681 119.701L61.0938 125.317Z" fill="#E0E0E0"/>
<path d="M14.1067 121.865C16.8978 127.312 30.021 147.846 68.449 145.823C68.5153 145.819 68.5797 145.805 68.638 145.783C68.6962 145.76 68.7471 145.728 68.787 145.69C68.827 145.652 68.8552 145.608 68.8698 145.562C68.8843 145.515 68.8849 145.467 68.8715 145.42L67.3843 140.345C67.3843 140.345 44.8431 139.855 35.7754 127.98C33.3967 124.784 29.9925 122.042 25.8447 119.979C22.0283 118.124 17.7446 116.819 15.1674 118.5C14.5462 118.923 14.1138 119.468 13.9249 120.067C13.736 120.666 13.7993 121.292 14.1067 121.865Z" fill="#FDB797"/>
<path d="M66.7324 139.877C66.7324 139.877 75.9131 133.282 78.7072 137.01C81.5014 140.737 71.1232 144.178 67.9299 145.325L64.3374 142.458L66.7324 139.877Z" fill="#FDB797"/>
<path d="M331.593 82.8772L320.695 98.2079C320.695 98.2079 296.63 102.774 287.095 99.1864C287.095 99.1864 283.916 71.4607 287.095 70.4822C290.273 69.5036 333.863 72.7655 331.593 82.8772Z" fill="url(#paint20_linear)"/>
<path d="M280.402 152.169L288.631 153.167L298.565 110.902L298.208 110.859C297.175 110.733 296.117 110.755 295.095 110.924C294.073 111.092 293.107 111.403 292.253 111.84C291.399 112.276 290.672 112.829 290.115 113.467C289.558 114.105 289.182 114.816 289.007 115.559L280.402 152.169Z" fill="url(#paint21_linear)"/>
<path d="M268.204 176.449V196.928C268.204 199.499 269.625 201.964 272.156 203.782C274.687 205.6 278.119 206.622 281.698 206.622H327.312C330.891 206.622 334.323 205.6 336.854 203.782C339.385 201.964 340.806 199.499 340.806 196.928V176.449C340.809 175.176 340.461 173.915 339.784 172.738C339.106 171.561 338.112 170.492 336.859 169.591C335.605 168.691 334.117 167.977 332.479 167.49C330.841 167.004 329.085 166.754 327.312 166.756H281.698C279.925 166.754 278.169 167.004 276.531 167.49C274.893 167.977 273.405 168.691 272.151 169.591C270.898 170.492 269.904 171.561 269.226 172.738C268.549 173.915 268.201 175.176 268.204 176.449Z" fill="url(#paint22_linear)"/>
<path d="M269.021 173.116C295.713 182.774 339.989 173.116 339.989 173.116C339.036 171.251 337.31 169.641 335.043 168.504C332.776 167.366 330.078 166.756 327.312 166.756H281.698C278.933 166.756 276.234 167.366 273.967 168.504C271.7 169.641 269.974 171.251 269.021 173.116Z" fill="url(#paint23_linear)"/>
<path d="M286.98 149.67H337.051V114.55C337.051 112.549 336.502 110.568 335.436 108.719C334.37 106.87 332.808 105.191 330.838 103.776C328.869 102.361 326.531 101.238 323.957 100.473C321.384 99.707 318.626 99.3129 315.84 99.3129H302.349C290.635 99.3129 286.98 106.135 286.98 114.55V149.67Z" fill="url(#paint24_linear)"/>
<path d="M272.123 149.67H337.051V149.67C337.051 157.451 328.271 166.756 317.44 166.756H276.131L304.505 200.627H304.505C280.304 200.627 304.088 202.126 280.304 200.627L254.392 169.232C253.054 167.611 252.348 165.761 252.348 163.876V163.876C252.348 162.01 252.859 160.163 253.853 158.44C254.847 156.716 256.303 155.15 258.14 153.831C259.976 152.512 262.156 151.465 264.555 150.751C266.954 150.038 269.526 149.67 272.123 149.67Z" fill="url(#paint25_linear)"/>
<path d="M261.945 209.319H304.505V200.627H273.521C270.45 200.627 267.506 201.503 265.335 203.062C263.164 204.622 261.945 206.737 261.945 208.942V209.319Z" fill="url(#paint26_linear)"/>
<path d="M312.101 104.708H316.188V84.9251H302.001V97.4534C302.001 99.3775 303.065 101.223 304.959 102.583C306.853 103.944 309.422 104.708 312.101 104.708Z" fill="url(#paint27_linear)"/>
<path d="M317.241 99.3469L302.418 106.507L312.015 108.006L320.778 107.106L317.241 99.3469Z" fill="url(#paint28_linear)"/>
<g opacity="0.1">
<path opacity="0.1" d="M316.188 94.8927C311.583 95.9904 306.607 95.9904 302.001 94.8927V85.8244H316.188V94.8927Z" fill="url(#paint29_linear)"/>
</g>
<path d="M309.094 94.8167C321.538 94.8167 331.626 87.5699 331.626 78.6305C331.626 69.6911 321.538 62.4442 309.094 62.4442C296.65 62.4442 286.562 69.6911 286.562 78.6305C286.562 87.5699 296.65 94.8167 309.094 94.8167Z" fill="url(#paint30_linear)"/>
<g opacity="0.1">
<path opacity="0.1" d="M307.981 75.0488C307.981 75.0488 293.905 79.2892 281.191 75.0488C281.191 75.0488 286.64 56.13 308.435 58.0872C330.23 60.0443 357.928 83.2034 333.409 95.9246L312.096 107.59L315.7 98.8603C315.7 98.8603 333.863 86.4652 307.981 75.0488Z" fill="url(#paint31_linear)"/>
</g>
<path d="M307.981 74.3964C307.981 74.3964 293.905 78.6368 281.191 74.3964C281.191 74.3964 286.64 55.4777 308.435 57.4348C330.23 59.3919 357.928 82.551 333.409 95.2722L312.096 106.938L315.7 98.2079C315.7 98.2079 333.863 85.8129 307.981 74.3964Z" fill="url(#paint32_linear)"/>
<path d="M323.825 86.8733C324.99 86.5392 325.142 84.8443 324.165 83.0877C323.189 81.3311 321.453 80.1779 320.289 80.512C319.124 80.8461 318.972 82.541 319.949 84.2976C320.925 86.0542 322.661 87.2074 323.825 86.8733Z" fill="url(#paint33_linear)"/>
<path d="M281.191 120.062L277.8 149.67L253.948 142.895L257.58 114.191L281.191 120.062Z" fill="url(#paint34_linear)"/>
<path d="M330.99 115.965C328.072 121.658 314.354 143.123 274.184 141.008C274.114 141.004 274.047 140.99 273.986 140.966C273.925 140.942 273.872 140.909 273.83 140.869C273.789 140.83 273.759 140.784 273.744 140.735C273.729 140.686 273.728 140.636 273.742 140.587L275.297 135.282C275.297 135.282 298.86 134.769 308.339 122.356C310.825 119.016 314.384 116.149 318.719 113.993C322.709 112.053 327.187 110.689 329.881 112.447C330.53 112.888 330.982 113.458 331.18 114.085C331.377 114.711 331.311 115.365 330.99 115.965Z" fill="url(#paint35_linear)"/>
<path d="M275.297 135.282C275.297 135.282 265.7 128.388 262.779 132.285C259.859 136.182 270.707 139.779 274.045 140.977L277.801 137.98L275.297 135.282Z" fill="url(#paint36_linear)"/>
<path d="M330.122 85.0642L319.697 99.73C319.697 99.73 296.675 104.099 287.554 100.666C287.554 100.666 284.513 74.1429 287.554 73.2067C290.594 72.2706 332.294 75.391 330.122 85.0642Z" fill="#FDD835"/>
<path d="M289.023 152.306L281.151 151.351L289.325 116.574C289.678 115.074 290.845 113.736 292.571 112.855C294.296 111.973 296.439 111.62 298.526 111.874L289.023 152.306Z" fill="#FDB797"/>
<path d="M269.481 174.578V194.169C269.482 196.628 270.842 198.987 273.263 200.726C275.683 202.465 278.967 203.442 282.39 203.442H326.027C329.45 203.442 332.734 202.465 335.155 200.726C337.575 198.987 338.935 196.628 338.936 194.169V174.578C338.938 173.36 338.605 172.154 337.957 171.028C337.309 169.902 336.358 168.879 335.159 168.018C333.96 167.156 332.536 166.473 330.969 166.008C329.402 165.542 327.722 165.303 326.027 165.305H282.39C280.695 165.303 279.015 165.542 277.448 166.008C275.881 166.473 274.457 167.156 273.258 168.018C272.059 168.879 271.108 169.902 270.46 171.028C269.812 172.154 269.479 173.36 269.481 174.578Z" fill="#3AD29F"/>
<path opacity="0.5" d="M270.264 171.39C295.798 180.629 338.153 171.39 338.153 171.39C337.242 169.606 335.59 168.066 333.422 166.977C331.253 165.889 328.672 165.305 326.027 165.305H282.39C279.745 165.305 277.164 165.889 274.995 166.977C272.826 168.066 271.175 169.606 270.264 171.39Z" fill="white"/>
<path d="M287.444 148.96H335.344V115.363C335.344 113.449 334.819 111.554 333.799 109.785C332.779 108.017 331.285 106.41 329.401 105.056C327.517 103.703 325.28 102.629 322.818 101.897C320.356 101.164 317.718 100.787 315.053 100.787H302.147C290.941 100.787 287.444 107.313 287.444 115.363V148.96Z" fill="#63D096"/>
<path d="M273.231 148.96H335.343C335.343 156.404 326.944 165.305 316.583 165.305H277.066L304.209 197.707C281.057 197.707 303.81 199.141 281.057 197.707L256.269 167.674C254.989 166.123 254.313 164.353 254.313 162.55C254.313 160.766 254.803 158.998 255.753 157.35C256.704 155.701 258.098 154.203 259.854 152.941C261.611 151.679 263.696 150.678 265.992 149.995C268.287 149.312 270.747 148.96 273.231 148.96Z" fill="#0E0D15"/>
<path d="M304.209 206.023H263.495C263.495 203.817 264.714 201.702 266.885 200.143C269.056 198.583 272 197.707 275.07 197.707H304.209V206.023Z" fill="#0E0D15"/>
<path d="M314.733 106.417H311.261C308.583 106.417 306.014 105.652 304.12 104.292C302.226 102.931 301.162 101.086 301.162 99.1617V87.4914H314.733V106.417Z" fill="#FDB797"/>
<path d="M316.393 100.82L302.213 107.669L311.394 109.103L319.776 108.242L316.393 100.82Z" fill="#63D096"/>
<path opacity="0.1" d="M315.386 96.5586C310.98 97.6087 306.22 97.6087 301.814 96.5586V87.8836H315.386V96.5586Z" fill="black"/>
<path d="M307.948 96.954C319.853 96.954 329.503 90.0215 329.503 81.4697C329.503 72.918 319.853 65.9855 307.948 65.9855C296.044 65.9855 286.394 72.918 286.394 81.4697C286.394 90.0215 296.044 96.954 307.948 96.954Z" fill="#FDB797"/>
<path opacity="0.1" d="M307.534 77.5753C307.534 77.5753 294.069 81.6318 281.906 77.5753C281.906 77.5753 287.119 59.4771 307.968 61.3493C328.818 63.2215 355.315 85.3763 331.859 97.5458L311.47 108.706L314.918 100.354C314.918 100.354 332.293 88.4966 307.534 77.5753Z" fill="black"/>
<path d="M307.534 76.9512C307.534 76.9512 294.069 81.0077 281.906 76.9512C281.906 76.9512 287.119 58.853 307.968 60.7252C328.818 62.5974 355.315 84.7522 331.859 96.9217L311.47 108.082L314.918 99.73C314.918 99.73 332.293 87.8726 307.534 76.9512Z" fill="#FDD835"/>
<path d="M322.04 89.3551C323.154 89.0355 323.299 87.4141 322.365 85.7337C321.431 84.0533 319.77 82.9501 318.657 83.2697C317.543 83.5893 317.397 85.2106 318.331 86.8911C319.266 88.5715 320.926 89.6747 322.04 89.3551Z" fill="#FDB797"/>
<path d="M281.906 120.637L278.663 148.96L255.844 142.479L259.319 115.02L281.906 120.637Z" fill="#E0E0E0"/>
<path d="M328.894 117.185C326.102 122.631 312.979 143.166 274.551 141.142C274.485 141.139 274.421 141.125 274.362 141.102C274.304 141.079 274.253 141.048 274.213 141.009C274.173 140.971 274.145 140.928 274.131 140.881C274.116 140.834 274.115 140.786 274.129 140.739L275.616 135.665C275.616 135.665 298.157 135.174 307.225 123.299C309.604 120.104 313.008 117.361 317.156 115.298C320.972 113.443 325.256 112.138 327.833 113.82C328.454 114.242 328.887 114.787 329.075 115.386C329.264 115.986 329.201 116.612 328.894 117.185Z" fill="#FDB797"/>
<path d="M276.268 135.197C276.268 135.197 267.087 128.601 264.293 132.329C261.499 136.057 271.877 139.498 275.07 140.645L278.663 137.777L276.268 135.197Z" fill="#FDB797"/>
<defs>
<linearGradient id="paint0_linear" x1="174.975" y1="34.6363" x2="174.975" y2="0" gradientUnits="userSpaceOnUse">
<stop stop-color="#808080" stop-opacity="0.25"/>
<stop offset="0.53514" stop-color="#808080" stop-opacity="0.12"/>
<stop offset="1" stop-color="#808080" stop-opacity="0.1"/>
</linearGradient>
<linearGradient id="paint1_linear" x1="6625.91" y1="5403.6" x2="6625.91" y2="1558.97" gradientUnits="userSpaceOnUse">
<stop stop-color="#808080" stop-opacity="0.25"/>
<stop offset="0.53514" stop-color="#808080" stop-opacity="0.12"/>
<stop offset="1" stop-color="#808080" stop-opacity="0.1"/>
</linearGradient>
<linearGradient id="paint2_linear" x1="25555" y1="5626.99" x2="25555" y2="1782.36" gradientUnits="userSpaceOnUse">
<stop stop-color="#808080" stop-opacity="0.25"/>
<stop offset="0.53514" stop-color="#808080" stop-opacity="0.12"/>
<stop offset="1" stop-color="#808080" stop-opacity="0.1"/>
</linearGradient>
<linearGradient id="paint3_linear" x1="13082.9" y1="13514.9" x2="13082.9" y2="10583.3" gradientUnits="userSpaceOnUse">
<stop stop-color="#808080" stop-opacity="0.25"/>
<stop offset="0.53514" stop-color="#808080" stop-opacity="0.12"/>
<stop offset="1" stop-color="#808080" stop-opacity="0.1"/>
</linearGradient>
<linearGradient id="paint4_linear" x1="6008.79" y1="26097.7" x2="6008.79" y2="20339.3" gradientUnits="userSpaceOnUse">
<stop stop-color="#808080" stop-opacity="0.25"/>
<stop offset="0.53514" stop-color="#808080" stop-opacity="0.12"/>
<stop offset="1" stop-color="#808080" stop-opacity="0.1"/>
</linearGradient>
<linearGradient id="paint5_linear" x1="21332.8" y1="31436.8" x2="21332.8" y2="26343.5" gradientUnits="userSpaceOnUse">
<stop stop-color="#808080" stop-opacity="0.25"/>
<stop offset="0.53514" stop-color="#808080" stop-opacity="0.12"/>
<stop offset="1" stop-color="#808080" stop-opacity="0.1"/>
</linearGradient>
<linearGradient id="paint6_linear" x1="20853" y1="7528.79" x2="20853" y2="7165.1" gradientUnits="userSpaceOnUse">
<stop stop-color="#808080" stop-opacity="0.25"/>
<stop offset="0.53514" stop-color="#808080" stop-opacity="0.12"/>
<stop offset="1" stop-color="#808080" stop-opacity="0.1"/>
</linearGradient>
<linearGradient id="paint7_linear" x1="13850.9" y1="30406.3" x2="13850.9" y2="22279.5" gradientUnits="userSpaceOnUse">
<stop stop-color="#808080" stop-opacity="0.25"/>
<stop offset="0.53514" stop-color="#808080" stop-opacity="0.12"/>
<stop offset="1" stop-color="#808080" stop-opacity="0.1"/>
</linearGradient>
<linearGradient id="paint8_linear" x1="26803.7" y1="39758.5" x2="26803.7" y2="31218.2" gradientUnits="userSpaceOnUse">
<stop stop-color="#808080" stop-opacity="0.25"/>
<stop offset="0.53514" stop-color="#808080" stop-opacity="0.12"/>
<stop offset="1" stop-color="#808080" stop-opacity="0.1"/>
</linearGradient>
<linearGradient id="paint9_linear" x1="14627.7" y1="7097.73" x2="14627.7" y2="6855.58" gradientUnits="userSpaceOnUse">
<stop stop-color="#808080" stop-opacity="0.25"/>
<stop offset="0.53514" stop-color="#808080" stop-opacity="0.12"/>
<stop offset="1" stop-color="#808080" stop-opacity="0.1"/>
</linearGradient>
<linearGradient id="paint10_linear" x1="4044.95" y1="9143.5" x2="4044.95" y2="7889.25" gradientUnits="userSpaceOnUse">
<stop stop-color="#808080" stop-opacity="0.25"/>
<stop offset="0.53514" stop-color="#808080" stop-opacity="0.12"/>
<stop offset="1" stop-color="#808080" stop-opacity="0.1"/>
</linearGradient>
<linearGradient id="paint11_linear" x1="1349.48" y1="3230.95" x2="1349.48" y2="2990.68" gradientUnits="userSpaceOnUse">
<stop stop-color="#808080" stop-opacity="0.25"/>
<stop offset="0.53514" stop-color="#808080" stop-opacity="0.12"/>
<stop offset="1" stop-color="#808080" stop-opacity="0.1"/>
</linearGradient>
<linearGradient id="paint12_linear" x1="4044.95" y1="4332.39" x2="4044.95" y2="4018.83" gradientUnits="userSpaceOnUse">
<stop stop-color="#808080" stop-opacity="0.25"/>
<stop offset="0.53514" stop-color="#808080" stop-opacity="0.12"/>
<stop offset="1" stop-color="#808080" stop-opacity="0.1"/>
</linearGradient>
<linearGradient id="paint13_linear" x1="3528.87" y1="10389.5" x2="3528.87" y2="7031" gradientUnits="userSpaceOnUse">
<stop stop-color="#808080" stop-opacity="0.25"/>
<stop offset="0.53514" stop-color="#808080" stop-opacity="0.12"/>
<stop offset="1" stop-color="#808080" stop-opacity="0.1"/>
</linearGradient>
<linearGradient id="paint14_linear" x1="17079.1" y1="23241.6" x2="17079.1" y2="15343" gradientUnits="userSpaceOnUse">
<stop stop-color="#808080" stop-opacity="0.25"/>
<stop offset="0.53514" stop-color="#808080" stop-opacity="0.12"/>
<stop offset="1" stop-color="#808080" stop-opacity="0.1"/>
</linearGradient>
<linearGradient id="paint15_linear" x1="17079.1" y1="23137.1" x2="17079.1" y2="15238.6" gradientUnits="userSpaceOnUse">
<stop stop-color="#808080" stop-opacity="0.25"/>
<stop offset="0.53514" stop-color="#808080" stop-opacity="0.12"/>
<stop offset="1" stop-color="#808080" stop-opacity="0.1"/>
</linearGradient>
<linearGradient id="paint16_linear" x1="2432.32" y1="1393.71" x2="2432.32" y2="1326.01" gradientUnits="userSpaceOnUse">
<stop stop-color="#808080" stop-opacity="0.25"/>
<stop offset="0.53514" stop-color="#808080" stop-opacity="0.12"/>
<stop offset="1" stop-color="#808080" stop-opacity="0.1"/>
</linearGradient>
<linearGradient id="paint17_linear" x1="4792.79" y1="17668.7" x2="4792.79" y2="13634.7" gradientUnits="userSpaceOnUse">
<stop stop-color="#808080" stop-opacity="0.25"/>
<stop offset="0.53514" stop-color="#808080" stop-opacity="0.12"/>
<stop offset="1" stop-color="#808080" stop-opacity="0.1"/>
</linearGradient>
<linearGradient id="paint18_linear" x1="17187.1" y1="17073.8" x2="17187.1" y2="14281.2" gradientUnits="userSpaceOnUse">
<stop stop-color="#808080" stop-opacity="0.25"/>
<stop offset="0.53514" stop-color="#808080" stop-opacity="0.12"/>
<stop offset="1" stop-color="#808080" stop-opacity="0.1"/>
</linearGradient>
<linearGradient id="paint19_linear" x1="5854.44" y1="5809.18" x2="5854.44" y2="5495.98" gradientUnits="userSpaceOnUse">
<stop stop-color="#808080" stop-opacity="0.25"/>
<stop offset="0.53514" stop-color="#808080" stop-opacity="0.12"/>
<stop offset="1" stop-color="#808080" stop-opacity="0.1"/>
</linearGradient>
<linearGradient id="paint20_linear" x1="-13743.2" y1="13056.6" x2="-13743.2" y2="10125" gradientUnits="userSpaceOnUse">
<stop stop-color="#808080" stop-opacity="0.25"/>
<stop offset="0.53514" stop-color="#808080" stop-opacity="0.12"/>
<stop offset="1" stop-color="#808080" stop-opacity="0.1"/>
</linearGradient>
<linearGradient id="paint21_linear" x1="-6185.41" y1="25457.2" x2="-6185.41" y2="19698.8" gradientUnits="userSpaceOnUse">
<stop stop-color="#808080" stop-opacity="0.25"/>
<stop offset="0.53514" stop-color="#808080" stop-opacity="0.12"/>
<stop offset="1" stop-color="#808080" stop-opacity="0.1"/>
</linearGradient>
<linearGradient id="paint22_linear" x1="-22410.5" y1="30834.2" x2="-22410.5" y2="25740.9" gradientUnits="userSpaceOnUse">
<stop stop-color="#808080" stop-opacity="0.25"/>
<stop offset="0.53514" stop-color="#808080" stop-opacity="0.12"/>
<stop offset="1" stop-color="#808080" stop-opacity="0.1"/>
</linearGradient>
<linearGradient id="paint23_linear" x1="-21904.6" y1="7364.31" x2="-21904.6" y2="7000.62" gradientUnits="userSpaceOnUse">
<stop stop-color="#808080" stop-opacity="0.25"/>
<stop offset="0.53514" stop-color="#808080" stop-opacity="0.12"/>
<stop offset="1" stop-color="#808080" stop-opacity="0.1"/>
</linearGradient>
<linearGradient id="paint24_linear" x1="-14583.1" y1="29646.2" x2="-14583.1" y2="21519.5" gradientUnits="userSpaceOnUse">
<stop stop-color="#808080" stop-opacity="0.25"/>
<stop offset="0.53514" stop-color="#808080" stop-opacity="0.12"/>
<stop offset="1" stop-color="#808080" stop-opacity="0.1"/>
</linearGradient>
<linearGradient id="paint25_linear" x1="-28055.4" y1="38979.5" x2="-28055.4" y2="30439.1" gradientUnits="userSpaceOnUse">
<stop stop-color="#808080" stop-opacity="0.25"/>
<stop offset="0.53514" stop-color="#808080" stop-opacity="0.12"/>
<stop offset="1" stop-color="#808080" stop-opacity="0.1"/>
</linearGradient>
<linearGradient id="paint26_linear" x1="-15182.1" y1="6962.66" x2="-15182.1" y2="6720.51" gradientUnits="userSpaceOnUse">
<stop stop-color="#808080" stop-opacity="0.25"/>
<stop offset="0.53514" stop-color="#808080" stop-opacity="0.12"/>
<stop offset="1" stop-color="#808080" stop-opacity="0.1"/>
</linearGradient>
<linearGradient id="paint27_linear" x1="-4197.18" y1="8842.06" x2="-4197.18" y2="7587.81" gradientUnits="userSpaceOnUse">
<stop stop-color="#808080" stop-opacity="0.25"/>
<stop offset="0.53514" stop-color="#808080" stop-opacity="0.12"/>
<stop offset="1" stop-color="#808080" stop-opacity="0.1"/>
</linearGradient>
<linearGradient id="paint28_linear" x1="-5251.17" y1="3990.28" x2="-5251.17" y2="3750.01" gradientUnits="userSpaceOnUse">
<stop stop-color="#808080" stop-opacity="0.25"/>
<stop offset="0.53514" stop-color="#808080" stop-opacity="0.12"/>
<stop offset="1" stop-color="#808080" stop-opacity="0.1"/>
</linearGradient>
<linearGradient id="paint29_linear" x1="-4197.17" y1="4179.34" x2="-4197.17" y2="3865.78" gradientUnits="userSpaceOnUse">
<stop stop-color="#808080" stop-opacity="0.25"/>
<stop offset="0.53514" stop-color="#808080" stop-opacity="0.12"/>
<stop offset="1" stop-color="#808080" stop-opacity="0.1"/>
</linearGradient>
<linearGradient id="paint30_linear" x1="-13332" y1="13332.7" x2="-13332" y2="9974.21" gradientUnits="userSpaceOnUse">
<stop stop-color="#808080" stop-opacity="0.25"/>
<stop offset="0.53514" stop-color="#808080" stop-opacity="0.12"/>
<stop offset="1" stop-color="#808080" stop-opacity="0.1"/>
</linearGradient>
<linearGradient id="paint31_linear" x1="-17999.2" y1="22492.2" x2="-17999.2" y2="14593.7" gradientUnits="userSpaceOnUse">
<stop stop-color="#808080" stop-opacity="0.25"/>
<stop offset="0.53514" stop-color="#808080" stop-opacity="0.12"/>
<stop offset="1" stop-color="#808080" stop-opacity="0.1"/>
</linearGradient>
<linearGradient id="paint32_linear" x1="-17999.2" y1="22387.8" x2="-17999.2" y2="14489.3" gradientUnits="userSpaceOnUse">
<stop stop-color="#808080" stop-opacity="0.25"/>
<stop offset="0.53514" stop-color="#808080" stop-opacity="0.12"/>
<stop offset="1" stop-color="#808080" stop-opacity="0.1"/>
</linearGradient>
<linearGradient id="paint33_linear" x1="-1193.02" y1="2722.15" x2="-1193.02" y2="2579.98" gradientUnits="userSpaceOnUse">
<stop stop-color="#808080" stop-opacity="0.25"/>
<stop offset="0.53514" stop-color="#808080" stop-opacity="0.12"/>
<stop offset="1" stop-color="#808080" stop-opacity="0.1"/>
</linearGradient>
<linearGradient id="paint34_linear" x1="-10571.5" y1="20898" x2="-10571.5" y2="16864" gradientUnits="userSpaceOnUse">
<stop stop-color="#808080" stop-opacity="0.25"/>
<stop offset="0.53514" stop-color="#808080" stop-opacity="0.12"/>
<stop offset="1" stop-color="#808080" stop-opacity="0.1"/>
</linearGradient>
<linearGradient id="paint35_linear" x1="-18020.2" y1="16626.3" x2="-18020.2" y2="13833.8" gradientUnits="userSpaceOnUse">
<stop stop-color="#808080" stop-opacity="0.25"/>
<stop offset="0.53514" stop-color="#808080" stop-opacity="0.12"/>
<stop offset="1" stop-color="#808080" stop-opacity="0.1"/>
</linearGradient>
<linearGradient id="paint36_linear" x1="-5949.81" y1="5656.22" x2="-5949.81" y2="5343.01" gradientUnits="userSpaceOnUse">
<stop stop-color="#808080" stop-opacity="0.25"/>
<stop offset="0.53514" stop-color="#808080" stop-opacity="0.12"/>
<stop offset="1" stop-color="#808080" stop-opacity="0.1"/>
</linearGradient>
</defs>
</svg>
