<svg width="422" height="422" viewBox="0 0 422 422" fill="none" xmlns="http://www.w3.org/2000/svg">
<g clip-path="url(#clip0)">
<path d="M321.883 142.636C321.883 150.065 315.86 156.094 308.428 156.094H113.28C105.844 156.094 99.828 150.064 99.828 142.636C99.828 135.205 105.844 129.175 113.28 129.175H308.428C315.86 129.175 321.883 135.206 321.883 142.636ZM308.428 209.473H113.28C105.844 209.473 99.828 215.499 99.828 222.93C99.828 230.362 105.844 236.391 113.28 236.391H308.428C315.86 236.391 321.883 230.362 321.883 222.93C321.883 215.499 315.86 209.473 308.428 209.473ZM421.701 177.162C421.701 237.431 383.73 293.978 322.272 325.748C276.882 416.813 173.158 419.489 161.295 419.489H161.288L159.637 419.462C153.759 419.289 148.676 415.303 147.087 409.648C145.504 403.999 147.741 397.97 152.655 394.751C171.976 382.123 187.412 367.742 198.777 351.84C88.112 346.63 0 270.273 0 177.165C0 80.691 94.583 2.211 210.851 2.211C327.115 2.217 421.701 80.691 421.701 177.162ZM394.782 177.162C394.782 95.545 312.264 29.122 210.857 29.122C109.431 29.122 26.922 95.544 26.922 177.162C26.922 258.793 109.436 325.212 210.857 325.212C214.49 325.212 218.107 325.104 221.703 324.928C221.913 324.917 222.132 324.917 222.349 324.917C226.835 324.917 231.061 327.162 233.55 330.926C236.182 334.865 236.528 339.9 234.488 344.178C227.263 359.292 217.43 373.366 205.089 386.293C236.959 377.743 277.906 357.573 299.932 310.12C301.229 307.329 303.456 305.064 306.215 303.701C361.67 276.53 394.782 229.212 394.782 177.162Z" fill="#7DC6D1"/>
</g>
<defs>
<clipPath id="clip0">
<rect width="421.701" height="421.7" fill="white"/>
</clipPath>
</defs>
</svg>
