<svg width="512" height="512" viewBox="0 0 512 512" fill="none" xmlns="http://www.w3.org/2000/svg">
<g clip-path="url(#clip0)">
<path d="M266.667 192C260.779 192 256 187.221 256 181.333V106.667C256 94.912 246.443 85.3333 234.667 85.3333C222.891 85.3333 213.333 94.912 213.333 106.667V181.333C213.333 187.221 208.555 192 202.667 192C196.779 192 192 187.221 192 181.333V106.667C192 83.136 211.136 64 234.667 64C258.197 64 277.333 83.136 277.333 106.667V181.333C277.333 187.221 272.555 192 266.667 192Z" fill="white"/>
<path d="M266.667 149.333H202.667C196.779 149.333 192 144.555 192 138.667C192 132.779 196.779 128 202.667 128H266.667C272.555 128 277.333 132.779 277.333 138.667C277.333 144.555 272.555 149.333 266.667 149.333Z" fill="white"/>
<path d="M373.333 117.333H309.333C303.445 117.333 298.667 112.555 298.667 106.667C298.667 100.779 303.445 96 309.333 96H373.333C379.221 96 384 100.779 384 106.667C384 112.555 379.221 117.333 373.333 117.333Z" fill="white"/>
<path d="M341.333 149.333C335.445 149.333 330.667 144.555 330.667 138.667V74.6667C330.667 68.7787 335.445 64 341.333 64C347.221 64 352 68.7787 352 74.6667V138.667C352 144.555 347.221 149.333 341.333 149.333Z" fill="white"/>
<path d="M394.667 512H117.333C87.9147 512 64 488.064 64 458.667V53.3333C64 23.936 87.9147 0 117.333 0H394.667C424.085 0 448 23.936 448 53.3333V458.667C448 488.064 424.085 512 394.667 512ZM117.333 21.3333C99.6907 21.3333 85.3333 35.6907 85.3333 53.3333V458.667C85.3333 476.309 99.6907 490.667 117.333 490.667H394.667C412.309 490.667 426.667 476.309 426.667 458.667V53.3333C426.667 35.6907 412.309 21.3333 394.667 21.3333H117.333Z" fill="#7DC6D1"/>
<path d="M309.333 298.667H140.544C134.656 298.667 129.877 293.888 129.877 288C129.877 282.112 134.656 277.333 140.544 277.333H309.333C315.221 277.333 320 282.112 320 288C320 293.888 315.221 298.667 309.333 298.667Z" fill="white"/>
<path d="M309.333 426.667H140.544C134.656 426.667 129.877 421.888 129.877 416C129.877 410.112 134.656 405.333 140.544 405.333H309.333C315.221 405.333 320 410.112 320 416C320 421.888 315.221 426.667 309.333 426.667Z" fill="white"/>
<path d="M373.333 362.667H140.544C134.656 362.667 129.877 357.888 129.877 352C129.877 346.112 134.656 341.333 140.544 341.333H373.333C379.221 341.333 384 346.112 384 352C384 357.888 379.221 362.667 373.333 362.667Z" fill="white"/>
</g>
<defs>
<clipPath id="clip0">
<rect width="512" height="512" fill="white"/>
</clipPath>
</defs>
</svg>
