<svg width="512" height="512" viewBox="0 0 512 512" fill="none" xmlns="http://www.w3.org/2000/svg">
<path d="M484.364 132.044H453.6V113.232C453.6 109.836 452.112 106.64 449.52 104.448C446.924 102.264 443.524 101.324 440.18 101.908L411.348 106.828V84.164C411.348 80.264 409.396 76.668 406.128 74.54C402.864 72.412 398.784 72.096 395.216 73.656L265.404 131.048C264.508 131.448 263.484 131.452 262.588 131.044L132.776 73.66C129.212 72.096 125.132 72.412 121.864 74.544C118.596 76.676 116.644 80.272 116.644 84.168V106.832L87.816 101.912C84.472 101.328 81.068 102.264 78.476 104.456C75.884 106.644 74.396 109.844 74.396 113.236V132.048H43.632C37.3 132.048 32.144 137.2 32.144 143.536V443.836C32.144 450.172 37.296 455.324 43.632 455.324H484.364C490.696 455.324 495.852 450.172 495.852 443.836V143.536C495.852 137.2 490.7 132.044 484.364 132.044V132.044Z" fill="#E6E7E8"/>
<path d="M468.364 120.048H433.6V397.32C433.6 400.968 430.968 404.084 427.372 404.7L249.256 435.108C248.424 435.252 247.568 435.252 246.736 435.108L68.62 404.7C65.024 404.084 62.392 400.968 62.392 397.32V120.048H27.632C23.496 120.048 20.144 123.4 20.144 127.536V427.84C20.144 431.976 23.496 435.328 27.632 435.328H468.364C472.5 435.328 475.852 431.976 475.852 427.84V127.532C475.852 123.396 472.5 120.048 468.364 120.048V120.048Z" fill="white"/>
<path d="M468.364 120.048H433.6V397.32C433.6 400.968 430.968 404.084 427.372 404.7L249.256 435.108C248.424 435.252 247.568 435.252 246.736 435.108L68.6201 404.7C65.0241 404.084 62.3921 400.968 62.3921 397.32V120.048H38.1921C34.0561 120.048 30.7041 123.4 30.7041 127.536V427.84C30.7041 431.976 34.0561 435.328 38.1921 435.328H468.36C472.496 435.328 475.848 431.976 475.848 427.84V127.532C475.852 123.396 472.5 120.048 468.364 120.048V120.048Z" fill="#7DC6D1"/>
<path d="M424.856 89.852L391.352 95.572V367.072C391.352 370.036 389.604 372.72 386.892 373.92L251.028 433.984C249.1 434.836 246.9 434.836 244.972 433.984L109.108 373.92C106.396 372.72 104.648 370.036 104.648 367.072V95.572L71.144 89.852C66.572 89.072 62.396 92.592 62.396 97.232V397.316C62.396 400.964 65.028 404.08 68.624 404.696L246.74 435.104C247.572 435.248 248.428 435.248 249.26 435.104L427.376 404.696C430.972 404.08 433.604 400.964 433.604 397.316V97.232C433.604 92.592 429.428 89.072 424.856 89.852V89.852Z" fill="#7DC6D1"/>
<path d="M380.84 61.32L251.028 118.708C249.1 119.56 246.9 119.56 244.972 118.708L115.16 61.32C110.212 59.132 104.644 62.756 104.644 68.168V367.072C104.644 370.036 106.392 372.72 109.104 373.92L244.968 433.984C246.896 434.836 249.096 434.836 251.024 433.984L386.892 373.92C389.604 372.72 391.352 370.036 391.352 367.072V68.168C391.352 62.756 385.788 59.132 380.84 61.32V61.32Z" fill="#7DC6D1"/>
<path d="M273.904 161.184C272.368 161.184 270.904 160.296 270.244 158.8C269.352 156.78 270.264 154.416 272.284 153.524L363.156 113.348C365.172 112.46 367.536 113.368 368.432 115.392C369.324 117.412 368.412 119.776 366.392 120.668L275.516 160.844C274.992 161.076 274.444 161.184 273.904 161.184V161.184Z" fill="white"/>
<path d="M273.904 192.872C272.368 192.872 270.904 191.984 270.244 190.488C269.352 188.468 270.264 186.104 272.284 185.212L363.156 145.036C365.172 144.144 367.536 145.056 368.432 147.08C369.324 149.1 368.412 151.464 366.392 152.356L275.516 192.532C274.992 192.764 274.444 192.872 273.904 192.872V192.872Z" fill="white"/>
<path d="M273.904 224.56C272.368 224.56 270.904 223.672 270.244 222.176C269.352 220.156 270.264 217.792 272.284 216.9L363.156 176.724C365.172 175.832 367.536 176.744 368.432 178.768C369.324 180.788 368.412 183.152 366.392 184.044L275.516 224.22C274.992 224.452 274.444 224.56 273.904 224.56V224.56Z" fill="white"/>
<path d="M273.904 256.248C272.368 256.248 270.904 255.36 270.244 253.864C269.352 251.844 270.264 249.48 272.284 248.588L363.156 208.412C365.172 207.524 367.536 208.432 368.432 210.456C369.324 212.476 368.412 214.84 366.392 215.732L275.516 255.908C274.992 256.136 274.444 256.248 273.904 256.248V256.248Z" fill="white"/>
<path d="M273.904 287.936C272.368 287.936 270.904 287.048 270.244 285.552C269.352 283.532 270.264 281.168 272.284 280.276L363.156 240.1C365.172 239.212 367.536 240.116 368.432 242.144C369.324 244.164 368.412 246.528 366.392 247.42L275.516 287.596C274.992 287.824 274.444 287.936 273.904 287.936V287.936Z" fill="white"/>
<path d="M273.904 319.624C272.368 319.624 270.904 318.736 270.244 317.24C269.352 315.22 270.264 312.856 272.284 311.964L363.156 271.788C365.172 270.896 367.536 271.804 368.432 273.832C369.324 275.852 368.412 278.216 366.392 279.108L275.516 319.284C274.992 319.512 274.444 319.624 273.904 319.624V319.624Z" fill="white"/>
<path d="M273.904 351.308C272.368 351.308 270.904 350.42 270.244 348.924C269.352 346.904 270.264 344.54 272.284 343.648L363.156 303.472C365.172 302.584 367.536 303.492 368.432 305.516C369.324 307.536 368.412 309.9 366.392 310.792L275.516 350.968C274.992 351.2 274.444 351.308 273.904 351.308V351.308Z" fill="white"/>
<path d="M273.904 382.996C272.368 382.996 270.904 382.108 270.244 380.612C269.352 378.592 270.264 376.228 272.284 375.336L363.156 335.16C365.172 334.272 367.536 335.18 368.432 337.204C369.324 339.224 368.412 341.588 366.392 342.48L275.516 382.656C274.992 382.888 274.444 382.996 273.904 382.996V382.996Z" fill="white"/>
<path d="M218.208 155.896L137.112 120.044C133.88 118.616 130.248 120.98 130.248 124.516V208.892C130.248 210.828 131.388 212.58 133.16 213.364L214.256 249.216C217.488 250.644 221.12 248.28 221.12 244.744V160.368C221.12 158.432 219.98 156.68 218.208 155.896Z" fill="#E1E6E9"/>
<path d="M221.12 287.936C220.58 287.936 220.032 287.828 219.504 287.596L128.632 247.42C126.612 246.524 125.7 244.164 126.592 242.144C127.484 240.116 129.852 239.216 131.868 240.1L222.74 280.276C224.76 281.172 225.672 283.532 224.78 285.552C224.12 287.048 222.656 287.936 221.12 287.936V287.936Z" fill="white"/>
<path d="M221.12 319.624C220.58 319.624 220.032 319.516 219.504 319.284L128.632 279.108C126.612 278.212 125.7 275.852 126.592 273.832C127.484 271.804 129.852 270.9 131.868 271.788L222.74 311.964C224.76 312.86 225.672 315.22 224.78 317.24C224.12 318.736 222.656 319.624 221.12 319.624V319.624Z" fill="white"/>
<path d="M221.12 351.308C220.58 351.308 220.032 351.2 219.504 350.968L128.632 310.796C126.612 309.9 125.7 307.54 126.592 305.52C127.484 303.496 129.852 302.592 131.868 303.476L222.74 343.652C224.76 344.548 225.672 346.908 224.78 348.928C224.12 350.424 222.656 351.308 221.12 351.308V351.308Z" fill="white"/>
<path d="M221.12 382.996C220.58 382.996 220.032 382.888 219.504 382.656L128.632 342.48C126.612 341.584 125.7 339.224 126.592 337.204C127.484 335.18 129.852 334.276 131.868 335.16L222.74 375.336C224.76 376.232 225.672 378.592 224.78 380.612C224.12 382.112 222.656 382.996 221.12 382.996V382.996Z" fill="white"/>
<path d="M468.364 116.044H437.6V97.232C437.6 93.84 436.112 90.644 433.52 88.456C430.928 86.264 427.524 85.336 424.18 85.912L395.348 90.832V68.164C395.348 64.264 393.396 60.668 390.128 58.54C386.864 56.408 382.78 56.096 379.216 57.656L249.412 115.048C248.516 115.448 247.488 115.448 246.592 115.048L196.388 92.852C194.364 91.96 192.004 92.872 191.112 94.896C190.22 96.916 191.132 99.28 193.152 100.172L243.356 122.368C243.564 122.46 243.788 122.496 244 122.576V429.18L110.724 370.26C109.464 369.704 108.644 368.452 108.644 367.072V68.164C108.644 66.456 109.752 65.556 110.228 65.244C110.704 64.932 111.984 64.276 113.54 64.98L145.244 79C147.256 79.884 149.624 78.98 150.52 76.956C151.412 74.936 150.5 72.572 148.48 71.68L116.776 57.66C113.216 56.096 109.128 56.408 105.864 58.544C102.596 60.672 100.644 64.272 100.644 68.168V90.836L71.816 85.916C68.472 85.336 65.068 86.268 62.476 88.46C59.884 90.648 58.396 93.848 58.396 97.236V116.048H27.632C21.3 116.048 16.144 121.2 16.144 127.536V427.836C16.144 434.172 21.296 439.324 27.632 439.324H468.364C474.696 439.324 479.852 434.172 479.852 427.836V127.532C479.852 121.196 474.7 116.044 468.364 116.044V116.044ZM395.352 367.072V98.944L425.528 93.792C426.9 93.556 427.9 94.172 428.36 94.564C428.824 94.956 429.6 95.816 429.6 97.228V397.312C429.6 399.016 428.38 400.46 426.7 400.748L279.08 425.952L388.512 377.572C392.668 375.74 395.352 371.616 395.352 367.072ZM382.456 64.976C384.012 64.284 385.292 64.928 385.768 65.24C386.244 65.552 387.352 66.456 387.352 68.16V367.068C387.352 368.448 386.536 369.7 385.276 370.256L252 429.18V122.576C252.212 122.496 252.436 122.46 252.644 122.368L382.456 64.976ZM66.396 97.232C66.396 95.82 67.172 94.96 67.636 94.568C68.028 94.236 68.792 93.744 69.864 93.744C70.056 93.744 70.26 93.76 70.472 93.796L100.648 98.948V367.072C100.648 371.616 103.332 375.74 107.492 377.58L216.924 425.96L69.296 400.756C67.616 400.468 66.396 399.02 66.396 397.32V97.232ZM24.148 427.832V127.532C24.148 125.612 25.712 124.044 27.636 124.044H58.4V397.316C58.4 402.932 62.416 407.696 67.952 408.636L200.808 431.32H27.632C25.712 431.32 24.148 429.756 24.148 427.832V427.832ZM471.852 427.832C471.852 429.752 470.288 431.32 468.364 431.32H295.188L428.048 408.636C433.584 407.696 437.6 402.932 437.6 397.316V124.044H468.364C470.288 124.044 471.852 125.612 471.852 127.532V427.832Z" fill="#3A2C60"/>
<path d="M161.236 86.064L176.736 92.916C177.26 93.148 177.812 93.256 178.352 93.256C179.888 93.256 181.352 92.368 182.012 90.872C182.904 88.852 181.992 86.488 179.972 85.596L164.472 78.744C162.448 77.856 160.088 78.764 159.196 80.788C158.304 82.804 159.216 85.168 161.236 86.064Z" fill="#3A2C60"/>
</svg>
