<svg width="512" height="512" viewBox="0 0 512 512" fill="none" xmlns="http://www.w3.org/2000/svg">
<path d="M501.333 202.667C507.229 202.667 512 197.896 512 192V106.667C512 83.135 492.865 64 469.333 64H42.667C19.135 64 0 83.135 0 106.667V192C0 197.896 4.771 202.667 10.667 202.667C40.073 202.667 64 226.594 64 256C64 285.406 40.073 309.333 10.667 309.333C4.771 309.333 0 314.104 0 320V405.333C0 428.865 19.135 448 42.667 448H469.334C492.865 448 512 428.865 512 405.333V320C512 314.104 507.229 309.333 501.333 309.333C471.927 309.333 448 285.406 448 256C448 226.594 471.927 202.667 501.333 202.667ZM149.333 394.667C149.333 400.563 144.562 405.334 138.666 405.334C132.77 405.334 127.999 400.563 127.999 394.667V373.334C127.999 367.438 132.77 362.667 138.666 362.667C144.562 362.667 149.333 367.438 149.333 373.334V394.667ZM149.333 309.333C149.333 315.229 144.562 320 138.666 320C132.77 320 127.999 315.229 127.999 309.333V288C127.999 282.104 132.77 277.333 138.666 277.333C144.562 277.333 149.333 282.104 149.333 288V309.333ZM149.333 224C149.333 229.896 144.562 234.667 138.666 234.667C132.77 234.667 127.999 229.896 127.999 224V202.667C127.999 196.771 132.77 192 138.666 192C144.562 192 149.333 196.771 149.333 202.667V224ZM149.333 138.667C149.333 144.563 144.562 149.334 138.666 149.334C132.77 149.334 127.999 144.563 127.999 138.667V114.667C127.999 108.771 132.77 104 138.666 104C144.562 104 149.333 108.771 149.333 114.667V138.667ZM373.333 341.333H224C218.104 341.333 213.333 336.562 213.333 330.666C213.333 324.77 218.104 319.999 224 319.999H373.333C379.229 319.999 384 324.77 384 330.666C384 336.563 379.229 341.333 373.333 341.333ZM373.333 266.667H224C218.104 266.667 213.333 261.896 213.333 256C213.333 250.104 218.104 245.333 224 245.333H373.333C379.229 245.333 384 250.104 384 256C384 261.896 379.229 266.667 373.333 266.667ZM373.333 192H224C218.104 192 213.333 187.229 213.333 181.333C213.333 175.437 218.104 170.666 224 170.666H373.333C379.229 170.666 384 175.437 384 181.333C384 187.229 379.229 192 373.333 192Z" fill="#7DC6D1"/>
</svg>
