<svg width="344" height="170" viewBox="0 0 344 170" fill="none" xmlns="http://www.w3.org/2000/svg">
<path d="M28.5767 82.0374C28.2287 82.0377 27.8951 82.1248 27.649 82.2797C27.403 82.4346 27.2646 82.6446 27.2642 82.8636V168.292C27.2645 168.511 27.403 168.721 27.649 168.876C27.8951 169.031 28.2287 169.118 28.5767 169.118H198.745C199.093 169.118 199.427 169.031 199.673 168.876C199.919 168.721 200.057 168.511 200.057 168.292V96.5767C200.057 96.3576 199.919 96.1476 199.673 95.9927C199.427 95.8378 199.093 95.7507 198.745 95.7504H101.08C100.088 95.7509 99.1321 95.5184 98.3988 95.0984L76.4421 82.5411C75.8757 82.2166 75.1373 82.037 74.3714 82.0374H28.5767Z" fill="#3F3D56"/>
<path d="M107.167 70.9978C106.954 70.9194 106.701 70.8972 106.462 70.9362C106.224 70.9752 106.019 71.0722 105.894 71.2058L55.5008 125.183C55.3762 125.317 55.341 125.476 55.4029 125.626C55.4649 125.776 55.6189 125.905 55.8313 125.984L124.915 151.537C125.128 151.616 125.381 151.638 125.62 151.599C125.858 151.56 126.063 151.463 126.188 151.329L176.581 97.3523C176.706 97.2184 176.741 97.059 176.679 96.9088C176.617 96.7587 176.463 96.6301 176.251 96.5514L107.167 70.9978Z" fill="#E6E6E6"/>
<path d="M108.224 73.5607C108.012 73.4823 107.758 73.4601 107.52 73.4991C107.281 73.5381 107.077 73.6351 106.952 73.7687L59.5726 124.517C59.4479 124.651 59.4128 124.81 59.4747 124.961C59.5367 125.111 59.6907 125.239 59.903 125.318L123.858 148.974C124.07 149.053 124.324 149.075 124.562 149.036C124.801 148.997 125.005 148.9 125.13 148.766L172.51 98.0179C172.634 97.8841 172.669 97.7246 172.607 97.5745C172.545 97.4243 172.391 97.2958 172.179 97.217L108.224 73.5607Z" fill="white"/>
<path d="M96.1405 98.6298L143.265 116.061C143.423 116.119 143.598 116.157 143.779 116.173C143.96 116.189 144.145 116.183 144.322 116.154C144.499 116.125 144.666 116.074 144.812 116.005C144.958 115.935 145.081 115.848 145.174 115.749C145.266 115.649 145.327 115.54 145.353 115.425C145.378 115.311 145.367 115.195 145.321 115.083C145.275 114.972 145.195 114.867 145.084 114.775C144.974 114.683 144.836 114.606 144.678 114.547L97.5534 97.1165C97.3955 97.0578 97.2208 97.0194 97.0393 97.0033C96.8578 96.9873 96.673 96.9939 96.4956 97.0228C96.3181 97.0517 96.1515 97.1024 96.0052 97.1719C95.8589 97.2413 95.7358 97.3283 95.6429 97.4278C95.55 97.5272 95.4892 97.6373 95.464 97.7515C95.4387 97.8658 95.4495 97.9821 95.4957 98.0937C95.5419 98.2054 95.6227 98.3102 95.7333 98.4022C95.8439 98.4942 95.9823 98.5715 96.1405 98.6298V98.6298Z" fill="#E6E6E6"/>
<path d="M108.899 84.3806L140.163 95.9448C140.604 96.1078 141.277 95.9011 141.667 95.4832C142.057 95.0653 142.017 94.5944 141.576 94.4315L110.312 82.8672C109.872 82.7043 109.198 82.911 108.808 83.3289C108.418 83.7468 108.459 84.2176 108.899 84.3806Z" fill="#E6E6E6"/>
<path d="M104.849 88.7189L136.113 100.283C136.554 100.446 137.227 100.239 137.617 99.8215C138.007 99.4036 137.967 98.9327 137.526 98.7698L106.262 87.2056C105.822 87.0426 105.148 87.2494 104.758 87.6673C104.368 88.0852 104.409 88.556 104.849 88.7189Z" fill="#E6E6E6"/>
<path d="M91.5721 103.523L138.697 120.954C139.016 121.072 139.396 121.105 139.753 121.046C140.111 120.988 140.417 120.842 140.604 120.642C140.791 120.441 140.845 120.202 140.752 119.977C140.659 119.752 140.428 119.559 140.11 119.441L92.985 102.01C92.6662 101.892 92.2862 101.859 91.9285 101.917C91.5708 101.976 91.2647 102.122 91.0775 102.322C90.8902 102.523 90.8371 102.762 90.9299 102.987C91.0226 103.212 91.2536 103.405 91.5721 103.523Z" fill="#E6E6E6"/>
<path d="M87.0036 108.416L134.128 125.847C134.447 125.965 134.827 125.998 135.185 125.94C135.542 125.881 135.849 125.735 136.036 125.535C136.223 125.334 136.276 125.095 136.183 124.87C136.091 124.645 135.86 124.452 135.541 124.334L88.4165 106.903C88.2586 106.845 88.084 106.806 87.9027 106.79C87.7213 106.774 87.5368 106.781 87.3595 106.81C87.1823 106.839 87.0159 106.89 86.8697 106.959C86.7236 107.029 86.6006 107.116 86.5079 107.215C86.4151 107.314 86.3543 107.424 86.329 107.538C86.3037 107.653 86.3144 107.769 86.3605 107.88C86.4065 107.992 86.487 108.097 86.5973 108.189C86.7077 108.28 86.8457 108.358 87.0036 108.416V108.416Z" fill="#E6E6E6"/>
<path d="M82.4352 113.309L129.56 130.74C129.879 130.858 130.258 130.891 130.616 130.832C130.973 130.774 131.279 130.628 131.467 130.428C131.654 130.227 131.707 129.988 131.614 129.763C131.522 129.538 131.291 129.345 130.973 129.227L83.8481 111.796C83.6903 111.738 83.5157 111.699 83.3343 111.684C83.1529 111.668 82.9684 111.674 82.7912 111.703C82.6139 111.732 82.4475 111.783 82.3014 111.852C82.1553 111.922 82.0323 112.009 81.9395 112.108C81.8467 112.207 81.786 112.317 81.7607 112.432C81.7354 112.546 81.7461 112.662 81.7921 112.773C81.8381 112.885 81.9186 112.99 82.029 113.082C82.1393 113.174 82.2774 113.251 82.4352 113.309V113.309Z" fill="#E6E6E6"/>
<path d="M77.8669 118.203L124.991 135.634C125.149 135.692 125.324 135.73 125.505 135.746C125.687 135.762 125.871 135.755 126.048 135.726C126.226 135.698 126.392 135.647 126.538 135.577C126.684 135.508 126.807 135.421 126.9 135.322C126.993 135.222 127.054 135.112 127.079 134.998C127.104 134.884 127.094 134.768 127.048 134.656C127.001 134.545 126.921 134.44 126.811 134.348C126.7 134.256 126.562 134.179 126.404 134.12L79.2798 116.689C78.9609 116.571 78.5807 116.538 78.2228 116.597C77.8649 116.655 77.5585 116.801 77.3712 117.001C77.1838 117.202 77.1308 117.441 77.2237 117.667C77.3167 117.892 77.548 118.085 77.8669 118.203Z" fill="#E6E6E6"/>
<path d="M73.2985 123.096L120.423 140.527C120.742 140.645 121.122 140.678 121.48 140.62C121.838 140.561 122.144 140.416 122.332 140.215C122.519 140.014 122.572 139.775 122.479 139.55C122.386 139.324 122.155 139.131 121.836 139.014L74.7114 121.583C74.5535 121.524 74.379 121.486 74.1976 121.47C74.0162 121.454 73.8317 121.461 73.6544 121.49C73.4772 121.519 73.3108 121.569 73.1647 121.639C73.0185 121.708 72.8956 121.795 72.8028 121.895C72.71 121.994 72.6493 122.104 72.624 122.218C72.5987 122.332 72.6093 122.448 72.6554 122.56C72.7014 122.671 72.7819 122.776 72.8922 122.868C73.0026 122.96 73.1406 123.038 73.2985 123.096Z" fill="#E6E6E6"/>
<path d="M149.934 106.149C153.99 106.149 157.277 104.08 157.277 101.527C157.277 98.974 153.99 96.9045 149.934 96.9045C145.878 96.9045 142.59 98.974 142.59 101.527C142.59 104.08 145.878 106.149 149.934 106.149Z" fill="#E6E6E6"/>
<path d="M48.5361 86.5426C48.295 86.5105 48.0435 86.54 47.8368 86.6244C47.6301 86.7089 47.4851 86.8415 47.4335 86.9932L26.7411 148.23C26.6901 148.382 26.7368 148.54 26.871 148.671C27.0052 148.801 27.2159 148.892 27.4569 148.924L105.833 159.417C106.074 159.449 106.326 159.42 106.533 159.335C106.739 159.251 106.884 159.118 106.936 158.967L127.628 97.7294C127.679 97.5776 127.633 97.4193 127.498 97.2892C127.364 97.1591 127.153 97.0678 126.912 97.0353L48.5361 86.5426Z" fill="#E6E6E6"/>
<path d="M50.8268 88.7635C50.5856 88.7314 50.3342 88.7609 50.1274 88.8453C49.9207 88.9298 49.7757 89.0624 49.7241 89.2141L30.2694 146.789C30.2184 146.94 30.2652 147.099 30.3994 147.229C30.5336 147.359 30.7442 147.45 30.9852 147.483L103.543 157.196C103.784 157.228 104.035 157.199 104.242 157.114C104.449 157.03 104.594 156.897 104.645 156.746L124.1 99.1713C124.151 99.0195 124.104 98.8612 123.97 98.7311C123.836 98.601 123.625 98.5097 123.384 98.4772L50.8268 88.7635Z" fill="white"/>
<path d="M105.42 122.109L51.9566 114.951C51.7772 114.928 51.607 114.882 51.4558 114.817C51.3046 114.751 51.1753 114.668 51.0754 114.571C50.9754 114.475 50.9067 114.366 50.8733 114.253C50.8398 114.139 50.8422 114.023 50.8804 113.91C50.9185 113.797 50.9916 113.69 51.0956 113.595C51.1995 113.5 51.3321 113.419 51.486 113.356C51.6398 113.293 51.8118 113.25 51.9921 113.229C52.1724 113.209 52.3575 113.21 52.5367 113.235L106 120.392C106.179 120.416 106.35 120.462 106.501 120.527C106.652 120.592 106.781 120.675 106.881 120.772C106.981 120.869 107.05 120.977 107.083 121.091C107.117 121.204 107.114 121.321 107.076 121.433C107.038 121.546 106.965 121.653 106.861 121.748C106.757 121.843 106.624 121.925 106.471 121.987C106.317 122.05 106.145 122.093 105.964 122.114C105.784 122.135 105.599 122.133 105.42 122.109Z" fill="#E6E6E6"/>
<path d="M111.284 106.174L75.8149 101.426C75.3152 101.359 75.0399 100.92 75.2002 100.446C75.3604 99.9721 75.8954 99.642 76.3951 99.7089L111.864 104.457C112.364 104.524 112.639 104.963 112.479 105.437C112.319 105.911 111.784 106.241 111.284 106.174Z" fill="#E6E6E6"/>
<path d="M109.621 111.096L74.1518 106.348C73.6521 106.281 73.3769 105.842 73.5371 105.368C73.6973 104.894 74.2323 104.564 74.732 104.631L110.201 109.379C110.701 109.446 110.976 109.885 110.816 110.359C110.656 110.833 110.121 111.163 109.621 111.096Z" fill="#E6E6E6"/>
<path d="M103.544 127.66L50.0806 120.503C49.7195 120.454 49.4038 120.317 49.2029 120.122C49.0021 119.927 48.9324 119.69 49.0093 119.462C49.0861 119.235 49.3032 119.036 49.6128 118.909C49.9224 118.782 50.2994 118.738 50.6608 118.786L104.124 125.943C104.303 125.967 104.473 126.013 104.624 126.079C104.775 126.144 104.904 126.227 105.004 126.324C105.103 126.421 105.172 126.529 105.205 126.642C105.238 126.755 105.236 126.872 105.198 126.984C105.16 127.097 105.087 127.204 104.983 127.299C104.879 127.394 104.747 127.475 104.593 127.538C104.44 127.601 104.268 127.644 104.088 127.665C103.908 127.686 103.723 127.684 103.544 127.66Z" fill="#E6E6E6"/>
<path d="M101.668 133.212L48.2049 126.054C47.8437 126.006 47.5281 125.869 47.3272 125.673C47.1263 125.478 47.0567 125.241 47.1335 125.014C47.2104 124.786 47.4274 124.587 47.7371 124.46C48.0467 124.334 48.4236 124.289 48.7851 124.337L102.248 131.495C102.427 131.519 102.597 131.565 102.748 131.63C102.899 131.695 103.028 131.779 103.128 131.875C103.227 131.972 103.296 132.08 103.329 132.193C103.363 132.307 103.36 132.423 103.322 132.536C103.284 132.649 103.211 132.755 103.107 132.85C103.004 132.945 102.871 133.027 102.718 133.089C102.564 133.152 102.392 133.195 102.212 133.216C102.032 133.237 101.847 133.236 101.668 133.212Z" fill="#E6E6E6"/>
<path d="M99.7924 138.763L46.3291 131.606C46.1498 131.582 45.9796 131.536 45.8284 131.471C45.6772 131.406 45.5479 131.322 45.4479 131.226C45.348 131.129 45.2793 131.021 45.2458 130.907C45.2124 130.794 45.2148 130.677 45.2529 130.564C45.2911 130.451 45.3642 130.344 45.4681 130.249C45.572 130.154 45.7047 130.073 45.8585 130.01C46.0124 129.948 46.1844 129.905 46.3647 129.884C46.545 129.863 46.7301 129.865 46.9093 129.889L100.373 137.046C100.734 137.095 101.049 137.232 101.25 137.427C101.451 137.622 101.521 137.86 101.444 138.087C101.367 138.314 101.15 138.513 100.84 138.64C100.531 138.767 100.154 138.811 99.7924 138.763Z" fill="#E6E6E6"/>
<path d="M97.9164 144.315L44.4532 137.157C44.2738 137.133 44.1036 137.087 43.9524 137.022C43.8012 136.957 43.6719 136.874 43.572 136.777C43.472 136.68 43.4033 136.572 43.3699 136.459C43.3364 136.345 43.3388 136.229 43.3769 136.116C43.4151 136.003 43.4882 135.896 43.5921 135.801C43.696 135.706 43.8287 135.625 43.9826 135.562C44.1364 135.499 44.3084 135.456 44.4887 135.435C44.669 135.414 44.8541 135.416 45.0333 135.44L98.4966 142.598C98.676 142.621 98.8461 142.667 98.9973 142.733C99.1485 142.798 99.2778 142.881 99.3778 142.978C99.4777 143.075 99.5464 143.183 99.5799 143.296C99.6134 143.41 99.611 143.526 99.5728 143.639C99.5347 143.752 99.4616 143.859 99.3576 143.954C99.2537 144.049 99.121 144.13 98.9672 144.193C98.8133 144.256 98.6413 144.299 98.461 144.32C98.2807 144.34 98.0957 144.339 97.9164 144.315Z" fill="#E6E6E6"/>
<path d="M96.0405 149.866L42.5772 142.709C42.216 142.66 41.9004 142.523 41.6995 142.328C41.4987 142.133 41.429 141.895 41.5059 141.668C41.5827 141.44 41.7998 141.241 42.1094 141.115C42.419 140.988 42.7959 140.944 43.1574 140.992L96.6207 148.149C96.8 148.173 96.9702 148.219 97.1214 148.284C97.2726 148.349 97.4019 148.433 97.5018 148.529C97.6018 148.626 97.6705 148.734 97.7039 148.848C97.7374 148.961 97.735 149.078 97.6969 149.19C97.6587 149.303 97.5856 149.41 97.4817 149.505C97.3778 149.6 97.2451 149.682 97.0912 149.744C96.9374 149.807 96.7654 149.85 96.5851 149.871C96.4048 149.892 96.2197 149.89 96.0405 149.866Z" fill="#E6E6E6"/>
<path d="M62.62 106.017C66.6758 106.017 69.9637 103.947 69.9637 101.394C69.9637 98.8413 66.6758 96.7718 62.62 96.7718C58.5642 96.7718 55.2764 98.8413 55.2764 101.394C55.2764 103.947 58.5642 106.017 62.62 106.017Z" fill="#E6E6E6"/>
<path d="M215.956 89.8189C216.601 90.1693 217.363 90.4244 218.185 90.5655C219.007 90.7065 219.869 90.73 220.708 90.6341C221.546 90.5383 222.34 90.3256 223.031 90.0115C223.722 89.6975 224.292 89.2901 224.701 88.8193L230.725 81.8725L226.169 79.4954L216.238 84.2313C215.559 84.5549 215.004 84.9699 214.613 85.446C214.222 85.922 214.005 86.4471 213.978 86.9827C213.951 87.5184 214.115 88.051 214.457 88.5417C214.799 89.0325 215.311 89.4688 215.956 89.8189Z" fill="#FFB9B9"/>
<path d="M223.01 80.1326L230.044 83.7035L268.394 64.9921L266.125 32.4259C263.968 33.5119 262.175 34.8564 260.849 36.3815C259.523 37.9066 258.69 39.582 258.399 41.3109L251.829 59.7073L223.01 80.1326Z" fill="#63D096"/>
<path d="M296.986 155.835H306.517L307.425 103.272H288.363L296.986 155.835Z" fill="#FFB9B9"/>
<path d="M273.386 158.691H282.917L283.825 102.7L264.763 102.129L273.386 158.691Z" fill="#FFB9B9"/>
<path d="M261.133 107.842L284.733 108.414L285.64 105.271L287.002 109.556L308.786 108.985C308.783 95.0914 308.312 79.7392 311.056 74.4192L260.679 77.5615C256.711 88.3262 256.222 98.5241 261.133 107.842Z" fill="#2F2E41"/>
<path d="M302.475 169.547C307.569 169.547 311.563 170.792 311.099 167.599L309.78 156.801C309.754 156.344 309.518 155.901 309.1 155.526C308.682 155.152 308.1 154.862 307.425 154.692C303.794 152.013 300.163 151.728 296.533 153.835C295.352 154.764 294.664 155.902 294.564 157.09L293.826 167.814C293.57 170.931 297.516 169.547 302.475 169.547Z" fill="#2F2E41"/>
<path d="M255.951 169.698L280.174 169.295C281.177 169.207 282.093 168.889 282.746 168.402C283.4 167.915 283.744 167.294 283.713 166.657L284.17 159.206C284.199 158.839 283.999 158.479 283.613 158.203C283.227 157.928 282.686 157.757 282.104 157.729L278.379 157.549C277.937 154.998 275.47 154.379 272.025 154.692L261.133 162.405L253.955 163.67C252.804 163.873 251.811 164.334 251.161 164.965C250.512 165.597 250.251 166.356 250.429 167.1C250.62 167.903 251.307 168.627 252.341 169.113C253.375 169.6 254.673 169.81 255.951 169.698Z" fill="#2F2E41"/>
<path d="M283.825 21.5704C291.595 21.5704 297.894 17.6056 297.894 12.7147C297.894 7.8238 291.595 3.85895 283.825 3.85895C276.055 3.85895 269.756 7.8238 269.756 12.7147C269.756 17.6056 276.055 21.5704 283.825 21.5704Z" fill="#FFB9B9"/>
<path d="M276.563 28.4265L300.617 24.1415C295.238 22.8243 293.161 20.5266 294.264 17.2854H278.379C280.421 22.1681 280.429 26.1527 276.563 28.4265Z" fill="#FFB9B9"/>
<path d="M259.317 81.2753C272.892 82.3672 285.399 79.0589 297.214 76.5617C302.547 75.4344 307.92 76.6113 312.871 74.7049C310.73 61.4307 312.809 46.4785 317.357 30.5444C317.617 29.6423 317.346 28.7117 316.595 27.926C315.845 27.1404 314.666 26.5534 313.279 26.2746L298.348 23.2844L285.187 26.1411L278.379 26.9981L264.361 32.9601C263.542 33.3079 262.901 33.797 262.514 34.3687C262.127 34.9403 262.011 35.5702 262.179 36.1826C266.39 51.168 265.414 66.549 259.317 81.2753Z" fill="#63D096"/>
<path d="M297.44 76.7044L301.979 84.1318L306.517 79.8468L300.617 76.1331L297.44 76.7044Z" fill="#FFB9B9"/>
<path d="M270.324 9.55708C275.794 7.34721 281.25 6.61931 286.691 7.24108C288.346 7.43549 289.92 7.84188 291.316 8.43506C292.711 9.02823 293.898 9.79553 294.802 10.6894C295.707 11.5832 296.31 12.5845 296.575 13.6311C296.839 14.6778 296.759 15.7475 296.34 16.7739C296.328 16.8016 296.317 16.8292 296.306 16.8569L297.119 15.8949C299.276 13.3437 300.012 10.411 299.209 7.56556C298.593 5.3805 296.739 3.41031 293.99 2.02052C291.241 0.630738 287.785 -0.0842938 284.262 0.00809024L281.201 0.0883606C277.679 0.180731 274.327 1.06807 271.759 2.58807C269.191 4.10808 267.579 6.15916 267.216 8.36619C267.177 8.60453 267.247 8.84484 267.417 9.05934C267.586 9.27384 267.848 9.45376 268.174 9.57833C268.499 9.70289 268.873 9.76699 269.254 9.76323C269.634 9.75947 270.005 9.688 270.324 9.55708Z" fill="#2F2E41"/>
<path d="M299.709 76.1332L306.063 81.2753L328.302 60.4214L326.378 39.2352C326.134 36.5369 324.808 33.9213 322.526 31.6319C320.244 29.3426 317.078 27.4537 313.325 26.1411L313.779 58.7074L299.709 76.1332Z" fill="#63D096"/>
<path d="M156.257 57.6911C156.049 57.6082 155.796 57.5807 155.556 57.6146C155.315 57.6485 155.106 57.741 154.974 57.8719L101.708 110.745C101.577 110.876 101.533 111.035 101.587 111.186C101.641 111.337 101.788 111.469 101.996 111.552L169.667 138.562C169.875 138.645 170.127 138.673 170.368 138.639C170.608 138.605 170.817 138.512 170.95 138.381L224.215 85.5085C224.347 85.3774 224.391 85.2188 224.337 85.0674C224.283 84.916 224.136 84.7842 223.928 84.701L156.257 57.6911Z" fill="#63D096"/>
<path d="M157.176 60.2751C156.968 60.1922 156.716 60.1646 156.475 60.1985C156.235 60.2324 156.026 60.325 155.893 60.4559L105.814 110.166C105.682 110.297 105.638 110.456 105.692 110.607C105.746 110.759 105.893 110.891 106.101 110.974L168.748 135.978C168.956 136.061 169.208 136.089 169.449 136.055C169.689 136.021 169.899 135.928 170.031 135.798L220.11 86.0871C220.242 85.956 220.286 85.7974 220.232 85.646C220.178 85.4946 220.031 85.3629 219.823 85.2796L157.176 60.2751Z" fill="white"/>
<path d="M189.913 103.497L143.752 85.0726C143.597 85.0109 143.463 84.9306 143.358 84.8363C143.253 84.742 143.178 84.6356 143.138 84.5231C143.098 84.4107 143.094 84.2943 143.125 84.1808C143.156 84.0672 143.223 83.9587 143.321 83.8614C143.419 83.764 143.547 83.6798 143.696 83.6135C143.846 83.5472 144.015 83.5001 144.194 83.4749C144.373 83.4497 144.557 83.4469 144.738 83.4667C144.918 83.4865 145.091 83.5284 145.245 83.5902L191.406 102.015C191.561 102.076 191.695 102.157 191.8 102.251C191.905 102.345 191.98 102.452 192.02 102.564C192.06 102.676 192.065 102.793 192.033 102.906C192.002 103.02 191.935 103.128 191.837 103.226C191.739 103.323 191.611 103.407 191.462 103.474C191.312 103.54 191.143 103.587 190.964 103.612C190.785 103.637 190.601 103.64 190.42 103.62C190.24 103.601 190.067 103.559 189.913 103.497Z" fill="#63D096"/>
<path d="M204.223 89.8439L173.598 77.6206C173.167 77.4484 173.151 76.9769 173.564 76.5676C173.976 76.1582 174.66 75.966 175.092 76.1382L205.716 88.3615C206.148 88.5337 206.163 89.0052 205.751 89.4145C205.338 89.8239 204.654 90.0162 204.223 89.8439Z" fill="#63D096"/>
<path d="M199.942 94.0935L169.317 81.8702C168.886 81.698 168.87 81.2266 169.283 80.8172C169.695 80.4078 170.379 80.2156 170.811 80.3878L201.435 92.6111C201.867 92.7834 201.882 93.2548 201.47 93.6641C201.057 94.0735 200.373 94.2658 199.942 94.0935Z" fill="#63D096"/>
<path d="M185.084 108.29L138.923 89.8657C138.611 89.7409 138.391 89.5433 138.311 89.3163C138.23 89.0894 138.296 88.8515 138.494 88.6551C138.692 88.4587 139.005 88.3198 139.366 88.2688C139.726 88.2178 140.104 88.259 140.417 88.3833L186.577 106.808C186.732 106.869 186.866 106.95 186.971 107.044C187.077 107.138 187.151 107.245 187.191 107.357C187.231 107.47 187.236 107.586 187.204 107.699C187.173 107.813 187.106 107.922 187.008 108.019C186.91 108.116 186.783 108.2 186.633 108.267C186.483 108.333 186.314 108.38 186.135 108.405C185.957 108.431 185.772 108.433 185.592 108.414C185.411 108.394 185.239 108.352 185.084 108.29H185.084Z" fill="#63D096"/>
<path d="M180.255 113.083L134.095 94.6589C133.783 94.5341 133.562 94.3365 133.482 94.1095C133.401 93.8825 133.467 93.6447 133.665 93.4483C133.863 93.2519 134.177 93.1129 134.537 93.062C134.898 93.011 135.276 93.0522 135.588 93.1765L181.749 111.601C181.904 111.663 182.038 111.743 182.143 111.837C182.249 111.931 182.324 112.038 182.364 112.15C182.404 112.263 182.409 112.379 182.377 112.493C182.346 112.607 182.279 112.715 182.181 112.813C182.083 112.91 181.955 112.994 181.805 113.061C181.656 113.127 181.486 113.174 181.307 113.199C181.129 113.224 180.944 113.227 180.763 113.207C180.583 113.187 180.41 113.145 180.255 113.083Z" fill="#63D096"/>
<path d="M175.427 117.876L129.266 99.452C129.111 99.3904 128.977 99.3101 128.871 99.2158C128.766 99.1215 128.691 99.0151 128.65 98.9025C128.61 98.79 128.606 98.6735 128.637 98.5599C128.668 98.4462 128.735 98.3376 128.833 98.2402C128.931 98.1428 129.059 98.0585 129.209 97.9921C129.359 97.9258 129.528 97.8787 129.707 97.8536C129.886 97.8285 130.071 97.8258 130.251 97.8457C130.432 97.8656 130.604 97.9077 130.759 97.9696L176.92 116.394C177.232 116.519 177.452 116.716 177.533 116.943C177.613 117.17 177.547 117.408 177.349 117.605C177.151 117.801 176.838 117.94 176.477 117.991C176.117 118.042 175.739 118.001 175.427 117.876Z" fill="#63D096"/>
<path d="M170.598 122.67L124.437 104.245C124.124 104.121 123.904 103.923 123.823 103.696C123.742 103.469 123.808 103.231 124.006 103.034C124.204 102.837 124.518 102.698 124.879 102.648C125.24 102.597 125.618 102.638 125.93 102.763L172.091 121.187C172.403 121.312 172.623 121.51 172.704 121.737C172.784 121.964 172.718 122.201 172.52 122.398C172.322 122.594 172.009 122.733 171.648 122.784C171.288 122.835 170.91 122.794 170.598 122.67Z" fill="#63D096"/>
<path d="M165.769 127.463L119.608 109.038C119.453 108.977 119.32 108.896 119.214 108.802C119.109 108.708 119.034 108.601 118.994 108.489C118.954 108.376 118.95 108.26 118.981 108.147C119.013 108.033 119.079 107.924 119.177 107.827C119.275 107.73 119.403 107.646 119.553 107.579C119.702 107.513 119.871 107.466 120.05 107.441C120.229 107.415 120.414 107.413 120.594 107.432C120.774 107.452 120.947 107.494 121.102 107.556L167.262 125.98C167.575 126.105 167.796 126.303 167.876 126.53C167.957 126.757 167.891 126.995 167.693 127.192C167.495 127.388 167.181 127.527 166.82 127.578C166.459 127.629 166.081 127.587 165.769 127.463Z" fill="#63D096"/>
<path d="M161.247 79.3221C165.302 79.3221 168.59 77.2526 168.59 74.6997C168.59 72.1469 165.302 70.0774 161.247 70.0774C157.191 70.0774 153.903 72.1469 153.903 74.6997C153.903 77.2526 157.191 79.3221 161.247 79.3221Z" fill="#63D096"/>
<path d="M17.0106 104.476C16.8258 104.475 16.6431 104.5 16.4745 104.548C16.3058 104.595 16.155 104.664 16.0318 104.751C15.9087 104.838 15.8161 104.94 15.76 105.051C15.7039 105.162 15.6856 105.279 15.7063 105.394L27.0846 168.956C27.1205 169.158 27.2735 169.344 27.5141 169.48C27.7547 169.615 28.0662 169.69 28.3889 169.69H198.932C199.255 169.69 199.567 169.615 199.807 169.48C200.048 169.344 200.201 169.158 200.237 168.956L211.615 105.394C211.635 105.279 211.617 105.162 211.561 105.051C211.505 104.94 211.412 104.838 211.289 104.751C211.167 104.664 211.016 104.594 210.847 104.547C210.679 104.499 210.496 104.475 210.311 104.476H17.0106Z" fill="#E6E6E6"/>
<path d="M32.5259 115.151L87.1843 114.965C87.5537 114.963 87.9069 114.869 88.1665 114.704C88.426 114.538 88.5706 114.315 88.5686 114.082C88.5666 113.85 88.4181 113.627 88.1558 113.463C87.8934 113.3 87.5386 113.208 87.1692 113.209L32.5108 113.396C32.141 113.397 31.7872 113.49 31.5271 113.656C31.267 113.821 31.122 114.045 31.124 114.278C31.126 114.511 31.2749 114.733 31.5378 114.897C31.8007 115.061 32.1561 115.152 32.5259 115.151Z" fill="white"/>
<path d="M32.5259 120.579L64.9458 120.392C65.3152 120.391 65.6684 120.297 65.9279 120.131C66.1875 119.966 66.3321 119.742 66.3301 119.51C66.3281 119.277 66.1796 119.055 65.9172 118.891C65.6549 118.728 65.3001 118.636 64.9307 118.637L32.5108 118.823C32.141 118.825 31.7872 118.918 31.5271 119.084C31.267 119.249 31.122 119.473 31.124 119.706C31.126 119.938 31.2749 120.161 31.5378 120.325C31.8007 120.489 32.1561 120.58 32.5259 120.579Z" fill="white"/>
<path d="M343.821 170H0V169.377H344L343.821 170Z" fill="#3F3D56"/>
</svg>
