<svg width="512" height="512" viewBox="0 0 512 512" fill="none" xmlns="http://www.w3.org/2000/svg">
<path d="M400 184C400.058 178.057 399.697 172.117 398.92 166.224C394.436 129.819 376.229 96.4978 348.015 73.0597C319.8 49.6216 283.705 37.8338 247.096 40.1019C210.486 42.3701 176.122 58.5232 151.016 85.2647C125.91 112.006 111.956 147.32 112 184C112.328 231.672 79.672 272 32 272H24V368H488V272H480C432.48 272 399.544 231.52 400 184Z" fill="#7DC6D1"/>
<path d="M368 184C368 186.72 367.92 189.36 367.68 192C366.004 216.121 356.511 239.038 340.64 257.28C337.138 261.341 333.341 265.138 329.28 268.64C311.038 284.511 288.121 294.004 264 295.68C261.36 295.92 258.72 296 256 296C253.28 296 250.64 295.92 248 295.68C220.006 293.699 193.785 281.245 174.56 260.8C170.842 256.899 167.42 252.728 164.32 248.32C152.641 231.722 145.725 212.246 144.32 192C144.08 189.36 144 186.72 144 184C144 181.28 144.08 178.64 144.32 176C145.996 151.879 155.489 128.962 171.36 110.72C174.862 106.659 178.659 102.862 182.72 99.36C200.962 83.4892 223.879 73.9964 248 72.32C250.64 72.08 253.28 72 256 72C258.72 72 261.36 72.08 264 72.32C284.246 73.7247 303.722 80.6409 320.32 92.32C324.728 95.4196 328.899 98.8423 332.8 102.56C353.245 121.785 365.699 148.006 367.68 176C367.92 178.64 368 181.28 368 184Z" fill="#F4F4E6"/>
<path d="M192 312C164.461 297.937 142.063 275.539 128 248C110.723 273.994 85.4474 293.653 56 304V336H192V312Z" fill="#E1E6E9"/>
<path d="M320 312C347.539 297.937 369.937 275.539 384 248C401.277 273.994 426.553 293.653 456 304V336H320V312Z" fill="#E1E6E9"/>
<path d="M40 368H472V400H40V368Z" fill="white"/>
<path d="M64 400H96V432H64V400Z" fill="#394D5C"/>
<path d="M40 432H120V464H40V432Z" fill="#7DC6D1"/>
<path d="M416 400H448V432H416V400Z" fill="#394D5C"/>
<path d="M392 432H472V464H392V432Z" fill="#87CED9"/>
<path d="M264 72.32V96H248V72.32C250.64 72.08 253.28 72 256 72C258.72 72 261.36 72.08 264 72.32Z" fill="#394D5C"/>
<path d="M168 176V192H144.32C144.08 189.36 144 186.72 144 184C144 181.28 144.08 178.64 144.32 176H168Z" fill="#394D5C"/>
<path d="M264 272V295.68C261.36 295.92 258.72 296 256 296C253.28 296 250.64 295.92 248 295.68V272H264Z" fill="#394D5C"/>
<path d="M368 184C368 186.72 367.92 189.36 367.68 192H344V176H367.68C367.92 178.64 368 181.28 368 184Z" fill="#394D5C"/>
<path d="M197.68 114.32L186.32 125.68L171.36 110.72C174.862 106.659 178.659 102.862 182.72 99.36L197.68 114.32Z" fill="#394D5C"/>
<path d="M332.8 102.56L317.68 117.68L306.32 106.32L320.32 92.32C324.728 95.4196 328.899 98.8423 332.8 102.56V102.56Z" fill="#394D5C"/>
<path d="M189.68 245.68L174.56 260.8C170.842 256.899 167.42 252.728 164.32 248.32L178.32 234.32L189.68 245.68Z" fill="#394D5C"/>
<path d="M340.64 257.28C337.139 261.341 333.342 265.138 329.28 268.64L314.32 253.68L325.68 242.32L340.64 257.28Z" fill="#394D5C"/>
<path d="M194.306 133.666L205.618 122.354L253.609 170.345L242.297 181.657L194.306 133.666Z" fill="#7D8D9C"/>
<path d="M257.576 171.144L281.576 139.144L294.376 148.744L270.376 180.744L257.576 171.144Z" fill="#7D8D9C"/>
<path d="M216 328H232V344H216V328Z" fill="#E1E6E9"/>
<path d="M248 328H264V344H248V328Z" fill="#E1E6E9"/>
<path d="M280 328H296V344H280V328Z" fill="#E1E6E9"/>
<path d="M256 200C264.837 200 272 192.837 272 184C272 175.163 264.837 168 256 168C247.163 168 240 175.163 240 184C240 192.837 247.163 200 256 200Z" fill="#7DC6D1"/>
</svg>
